<?xml version="1.0" standalone="no"?>
<!DOCTYPE svg PUBLIC "-//W3C//DTD SVG 20010904//EN"
 "http://www.w3.org/TR/2001/REC-SVG-20010904/DTD/svg10.dtd">
<svg version="1.0" xmlns="http://www.w3.org/2000/svg"
 width="700.000000pt" height="700.000000pt" viewBox="0 0 700.000000 700.000000"
 preserveAspectRatio="xMidYMid meet">
<metadata>
Created by potrace 1.11, written by Peter Selinger 2001-2013
</metadata>
<g transform="translate(0.000000,700.000000) scale(0.100000,-0.100000)"
fill="#000000" stroke="none">
<path d="M4508 6855 c-2 -2 -21 -5 -44 -8 -83 -12 -168 -56 -240 -123 -41 -40
-83 -104 -191 -294 -33 -58 -93 -163 -135 -235 -63 -109 -264 -458 -328 -569
-10 -17 -49 -85 -87 -151 -81 -139 -281 -487 -360 -625 -30 -52 -59 -99 -63
-104 -5 -5 -42 0 -87 12 -89 24 -207 49 -273 57 -25 3 -61 8 -80 11 -81 13
-419 11 -535 -2 -529 -63 -1014 -300 -1390 -679 -111 -112 -117 -119 -204
-233 -109 -143 -230 -352 -291 -502 -12 -30 -28 -68 -35 -85 -37 -84 -105
-347 -121 -463 -3 -26 -8 -49 -9 -52 -6 -10 -19 -217 -19 -310 0 -118 12 -287
24 -348 5 -26 12 -65 15 -87 3 -22 10 -58 16 -80 6 -22 13 -48 15 -58 9 -46
60 -210 91 -287 52 -132 193 -406 222 -430 3 -3 11 -12 16 -21 93 -150 276
-351 455 -501 300 -252 697 -434 1096 -502 261 -45 556 -42 829 8 460 85 876
306 1215 646 309 308 508 653 615 1065 19 72 37 148 40 170 26 176 33 244 36
352 l2 73 936 1 c515 0 947 2 961 5 249 42 420 282 378 528 -5 28 -14 62 -20
76 -6 14 -16 36 -22 50 -13 28 -196 350 -277 485 -10 17 -30 53 -45 80 -14 28
-35 62 -45 77 -11 14 -19 28 -19 31 0 5 -72 133 -100 177 -27 44 -74 126 -75
130 0 3 -8 16 -17 30 -16 26 -73 123 -114 197 -13 23 -61 106 -107 185 -46 79
-86 150 -90 158 -4 8 -16 29 -27 45 -10 17 -25 41 -33 55 -7 14 -134 234 -282
490 -147 256 -280 486 -294 511 -280 494 -493 851 -538 899 -79 86 -181 134
-305 144 -31 2 -58 3 -60 1z"/>
</g>
</svg>
