<svg width="180" height="35" viewBox="0 0 180 35" fill="none" xmlns="http://www.w3.org/2000/svg">
  <path fill-rule="evenodd" clip-rule="evenodd" d="M56.2018 32.3788C56.2018 32.7097 56.0602 32.9243 55.7958 33.0623C55.2671 33.355 54.2097 33.4747 53.4788 33.4747C51.6059 33.4747 49.7554 32.886 48.1503 31.3777C47.4385 30.7158 45.994 28.7152 45.994 25.9579C45.994 23.6646 46.8268 21.8885 48.0069 20.9872C49.5533 19.8115 51.0772 19.695 52.3609 19.695C54.982 19.695 56.6303 20.5349 57.14 21.2799C57.4459 21.7489 57.5461 22.2977 57.5668 22.572C57.5875 22.7467 57.6083 22.8647 57.7102 22.8647C57.8519 22.8647 57.8899 22.7683 57.8899 22.4556C57.8899 20.4933 58.0333 19.9495 58.0333 19.6751C58.0333 19.5953 57.9953 19.5188 57.788 19.5005C57.28 19.4805 56.5664 19.4024 56.1396 19.3059C55.7561 19.2277 54.3116 18.97 53.0296 18.97C51.4659 18.97 49.4513 19.108 47.6216 20.2039C45.8109 21.2998 44.2247 23.51 44.2247 26.6447C44.2247 29.091 45.4048 31.1814 46.6437 32.2225C48.9036 34.1199 51.7908 34.3145 53.3337 34.3145C54.5155 34.3145 56.3418 34.1 57.6446 33.4331C57.8882 33.2968 57.9089 33.2602 57.9089 32.3788V30.1853C57.9089 29.3638 57.9089 28.7767 57.9486 28.1514C57.9901 27.4646 58.1508 27.132 58.702 27.0322C58.9456 26.9956 59.0683 26.974 59.2099 26.974C59.2929 26.974 59.3724 26.9374 59.3724 26.8559C59.3724 26.7429 59.2721 26.7029 59.0475 26.7029C58.4359 26.7029 57.1556 26.7595 57.0554 26.7595C56.9552 26.7595 55.6731 26.7029 54.7557 26.7029C54.5328 26.7029 54.4309 26.7412 54.4309 26.8559C54.4309 26.9374 54.5138 26.974 54.595 26.974C54.7764 26.974 55.1237 26.9956 55.2844 27.0322C56.0999 27.2484 56.1984 27.4646 56.1984 29.0528V32.3788H56.2018Z" fill="var(--black)"/>
  <path fill-rule="evenodd" clip-rule="evenodd" d="M61.8725 32.1892C61.5563 33.0274 61.2073 33.6643 60.4039 33.7641C60.2656 33.784 60.0237 33.7974 59.8993 33.7974C59.8112 33.7974 59.7438 33.8339 59.7438 33.9005C59.7438 34.0002 59.8475 34.0335 60.0756 34.0335C60.8928 34.0335 61.8517 33.9853 62.0435 33.9853C62.2353 33.9853 62.9835 34.0335 63.4033 34.0335C63.5588 34.0335 63.6642 33.9986 63.6642 33.9005C63.6642 33.8356 63.6124 33.7974 63.488 33.7974H63.3152C63.018 33.7974 62.65 33.6444 62.65 33.3134C62.65 33.0108 62.7381 32.61 62.8971 32.1892L63.9407 29.2208C63.9769 29.1343 64.0305 29.0827 64.1169 29.0827H67.8645C67.9509 29.0827 67.9872 29.1177 68.0234 29.1875L69.6441 33.3134C69.7478 33.5795 69.6441 33.7292 69.5353 33.7641C69.4661 33.784 69.4143 33.814 69.4143 33.8822C69.4143 33.9836 69.6061 33.9836 69.9378 33.9969C71.1387 34.0318 72.412 34.0318 72.6747 34.0318C72.8647 34.0318 73.0237 33.9969 73.0237 33.8988C73.0237 33.814 72.9546 33.7957 72.8474 33.7957C72.6729 33.7957 72.4103 33.7824 72.1511 33.6959C71.7849 33.5928 71.2803 33.3267 70.6531 31.8333C69.5906 29.284 66.8554 22.3559 66.5894 21.719C66.382 21.1984 66.3112 21.1169 66.2075 21.1169C66.1004 21.1169 66.0313 21.2184 65.824 21.7688L61.8725 32.1892ZM64.3087 28.4807C64.2603 28.4807 64.2223 28.4458 64.2603 28.3626L65.7929 23.8343C65.8792 23.5815 65.9656 23.5815 66.0538 23.8343L67.709 28.3626C67.7263 28.4308 67.7263 28.4807 67.6416 28.4807H64.3087Z" fill="var(--black)"/>
  <path fill-rule="evenodd" clip-rule="evenodd" d="M77.6922 22.0732L79.8882 22.1081C81.5607 22.1397 81.9633 22.5272 82.0324 23.0278L82.048 23.214C82.0652 23.4485 82.1015 23.4984 82.1896 23.4984C82.2587 23.4984 82.3088 23.4286 82.3088 23.2806C82.3088 23.096 82.3607 21.9385 82.3607 21.4346C82.3607 21.3348 82.3607 21.2351 82.2743 21.2351C82.2017 21.2351 82.0462 21.2683 81.7853 21.3182C81.5072 21.3531 81.1063 21.4014 80.5465 21.4014H74.012C73.8046 21.4014 73.1412 21.3681 72.6349 21.3182C72.1667 21.2833 71.9904 21.1187 71.8712 21.1187C71.8021 21.1187 71.733 21.3365 71.6933 21.4346C71.6604 21.5677 71.3114 23.0128 71.3114 23.1808C71.3114 23.2822 71.346 23.3321 71.3978 23.3321C71.4669 23.3321 71.5222 23.2988 71.574 23.1625C71.6241 23.0477 71.676 22.9263 71.8712 22.6436C72.1494 22.2395 72.5641 22.1231 73.6457 22.1081L76.227 22.0732V29.1709C76.227 30.779 76.227 32.1045 76.1389 32.8096C76.0698 33.2952 75.9834 33.666 75.6326 33.7309C75.4754 33.7658 75.2681 33.7991 75.1108 33.7991C75.0037 33.7991 74.9709 33.8506 74.9709 33.9022C74.9709 34.0019 75.059 34.0352 75.2491 34.0352C75.7743 34.0352 76.8697 33.987 76.9544 33.987C77.0442 33.987 78.1431 34.0352 79.0969 34.0352C79.2921 34.0352 79.3802 33.987 79.3802 33.9022C79.3802 33.8523 79.3439 33.7991 79.2368 33.7991C79.083 33.7991 78.696 33.7658 78.4559 33.7309C77.9323 33.666 77.8269 33.2952 77.7751 32.8096C77.6887 32.1045 77.6887 30.779 77.6887 29.1709V22.0732H77.6922Z" fill="var(--black)"/>
  <path fill-rule="evenodd" clip-rule="evenodd" d="M85.6988 29.1694C85.6988 30.7775 85.6988 32.103 85.6106 32.8081C85.5398 33.292 85.4534 33.6645 85.1061 33.7294C84.9489 33.7643 84.7398 33.7976 84.5843 33.7976C84.4789 33.7976 84.4444 33.8491 84.4444 33.9007C84.4444 34.0005 84.5308 34.0337 84.7208 34.0337C84.9852 34.0337 85.3826 34.0171 85.7333 33.9988C86.0979 33.9988 86.3951 33.9838 86.4296 33.9838C86.9359 33.9838 88.1021 34.0819 90.7336 34.0819C91.4178 34.0819 91.5525 34.0819 91.6718 33.6446C91.7616 33.292 91.8998 32.1545 91.8998 32.0198C91.8998 31.9034 91.8998 31.767 91.7979 31.767C91.7098 31.767 91.6718 31.8352 91.6389 32.0198C91.518 32.7066 91.3089 33.0426 90.8562 33.2305C90.4036 33.4117 89.6347 33.4118 89.182 33.4118C87.4749 33.4118 87.214 33.1939 87.1605 32.0381C87.1449 31.6839 87.1605 29.7398 87.1605 29.1694V27.6893C87.1605 27.6245 87.1933 27.5713 87.2797 27.5713C87.5803 27.5713 89.3047 27.6062 89.7712 27.6594C90.4554 27.7243 90.6109 28.0103 90.68 28.2465C90.7491 28.4676 90.7491 28.6306 90.7491 28.7986C90.7491 28.8834 90.7837 28.9532 90.8683 28.9532C90.991 28.9532 90.991 28.767 90.991 28.6323C90.991 28.5125 91.0273 27.8972 91.0601 27.558C91.1154 27.0042 91.2001 26.7215 91.2001 26.6217C91.2001 26.5219 91.1672 26.4887 91.1154 26.4887C91.0446 26.4887 90.9737 26.5735 90.8528 26.7065C90.6955 26.8761 90.4537 26.9061 90.0338 26.941C89.6312 26.9759 87.487 26.9759 87.2624 26.9759C87.1743 26.9759 87.157 26.9244 87.157 26.808V22.1798C87.157 22.0634 87.1898 22.0102 87.2624 22.0102C87.4559 22.0102 89.353 22.0268 89.6485 22.0617C90.5919 22.1615 90.7664 22.3611 90.8891 22.6322C90.9755 22.8317 90.9927 23.1161 90.9927 23.2342C90.9927 23.3705 91.029 23.452 91.1344 23.452C91.2018 23.452 91.2381 23.3522 91.2554 23.2707C91.2899 23.0662 91.3227 22.3295 91.34 22.1615C91.3936 21.6926 91.4817 21.4897 91.4817 21.3716C91.4817 21.2868 91.461 21.2219 91.4143 21.2219C91.3227 21.2219 91.2554 21.2868 91.169 21.3034C91.0273 21.3383 90.7491 21.3716 90.4156 21.3882C90.0183 21.4049 86.5488 21.4049 86.4244 21.4049C86.3346 21.4049 85.2374 21.3566 84.453 21.3566C84.2647 21.3566 84.1748 21.3899 84.1748 21.4897C84.1748 21.5545 84.244 21.5894 84.3148 21.5894C84.4738 21.5894 84.7692 21.6094 84.9109 21.641C85.4845 21.7591 85.6193 22.0268 85.659 22.5989C85.6936 23.1344 85.6936 23.6034 85.6936 26.2193V29.1694H85.6988Z" fill="var(--black)"/>
  <path fill-rule="evenodd" clip-rule="evenodd" d="M97.4392 34.2697C98.3774 34.2697 99.3225 34.0668 100.071 33.5612C101.271 32.743 101.551 31.4642 101.551 30.7774C101.551 29.437 101.062 28.3976 99.0028 26.8361L98.5208 26.4685C96.8776 25.1764 96.3956 24.601 96.3956 23.6497C96.3956 22.4274 97.3338 21.704 98.5346 21.704C100.141 21.704 100.61 22.4091 100.71 22.5921C100.819 22.7767 100.922 23.2307 100.941 23.4302C100.962 23.5649 100.981 23.6497 101.08 23.6497C101.171 23.6497 101.204 23.5333 101.204 23.2673C101.204 22.1231 101.271 21.5693 101.271 21.4845C101.271 21.4014 101.237 21.3698 101.099 21.3698C100.96 21.3698 100.819 21.3531 100.487 21.285C100.052 21.1835 99.5488 21.1187 98.8646 21.1187C96.6547 21.1187 95.2604 22.341 95.2604 24.137C95.2604 25.2778 95.6751 26.3172 97.5256 27.774L98.3082 28.3993C99.8097 29.5867 100.316 30.2569 100.316 31.416C100.316 32.4903 99.4918 33.6444 97.8227 33.6444C96.6547 33.6444 95.504 33.1804 95.2397 31.9365C95.1913 31.702 95.1913 31.4659 95.1913 31.3162C95.1913 31.1815 95.174 31.1299 95.0669 31.1299C94.9822 31.1299 94.9494 31.2181 94.9287 31.401C94.9114 31.6688 94.844 32.3373 94.844 33.1804C94.844 33.6311 94.8613 33.6993 95.1032 33.8157C95.815 34.1483 96.6236 34.2697 97.4392 34.2697Z" fill="var(--black)"/>
  <path fill-rule="evenodd" clip-rule="evenodd" d="M113.223 26.0545C113.435 25.9081 113.466 25.7002 113.364 25.5456H111.579C111.963 24.3782 112.248 23.2673 112.922 22.3443C113.262 21.8787 113.618 21.6043 114.033 21.6043C114.408 21.6043 114.862 21.8521 114.907 22.6769C114.921 22.775 114.978 22.8981 115.106 22.8981C115.336 22.8981 115.719 22.4724 115.719 22.045C115.719 21.4929 115.146 21.137 114.548 21.137C113.708 21.137 112.867 21.4662 112.148 22.2795C111.308 23.2407 110.933 24.3116 110.562 25.5473H109.34C109.148 25.672 109.09 25.9347 109.235 26.0561H110.42C109.736 28.2995 109.262 30.661 108.533 32.9576C108.236 33.8905 107.896 34.0984 107.635 34.0984C107.348 34.0984 106.977 33.9072 106.781 33.5862C106.664 33.4099 106.565 33.3002 106.363 33.4665C106.265 33.5347 106.097 33.6544 106.097 33.9621C106.097 34.1949 106.363 34.6622 107.022 34.6622C107.865 34.6622 108.476 34.125 108.646 33.9621C108.948 33.6993 109.38 32.9426 109.777 31.707C110.249 30.197 110.662 28.6704 111.12 27.1437C111.244 26.7346 111.363 26.2906 111.446 26.0578H113.223V26.0545Z" fill="var(--black)"/>
  <path fill-rule="evenodd" clip-rule="evenodd" d="M118.311 25.3574C117.727 25.3574 117.086 25.562 116.34 26.2505C115.37 27.1402 114.842 28.4756 114.785 29.3287C114.7 30.5077 115.299 31.158 116.212 31.158C116.602 31.158 117.366 31.0865 118.252 30.2084C119.313 29.164 119.726 27.8436 119.767 27.0869C119.826 26.0875 119.327 25.3574 118.311 25.3574ZM118.218 25.7682C118.714 25.7682 118.798 26.2505 118.784 26.6745C118.757 27.4029 118.086 29.2156 117.454 30.0271C116.998 30.6175 116.64 30.7439 116.331 30.7439C115.913 30.7439 115.714 30.3448 115.747 29.8658C115.783 29.1374 116.341 27.501 117.171 26.4284C117.582 25.8929 117.927 25.7682 118.218 25.7682Z" fill="var(--black)"/>
  <path fill-rule="evenodd" clip-rule="evenodd" d="M124.851 25.7682C124.935 25.532 124.607 25.3574 124.419 25.3574C123.75 25.3574 122.319 26.44 121.951 26.9872C121.938 27.1119 122.05 27.2217 122.195 27.195C122.535 26.8508 123.278 26.2505 123.551 26.2505C123.665 26.2505 123.65 26.3868 123.551 26.6463L122.238 29.9889C121.995 30.5892 122.065 31.1563 122.649 31.1563C123.418 31.1563 125.191 29.3952 126.223 28.1463L126.248 28.1596L125.276 30.6724C125.191 30.8902 125.407 31.1563 125.633 31.1563C126.397 31.1563 127.76 30.0704 128.133 29.4085C128.12 29.2455 128.002 29.1906 127.874 29.2156C127.503 29.6447 126.751 30.2899 126.48 30.2899C126.335 30.2899 126.349 30.1253 126.423 29.9457C127.021 28.3143 127.949 26.0542 128.09 25.6867C128.037 25.5204 127.689 25.3824 127.392 25.4373C126.924 26.2754 126.178 27.8702 124.878 29.1075C124.135 29.8076 123.565 30.2467 123.353 30.2467C123.194 30.2467 123.119 30.1103 123.254 29.7827L124.851 25.7682Z" fill="var(--black)"/>
  <path fill-rule="evenodd" clip-rule="evenodd" d="M133.127 25.9212C133.258 25.6019 133.099 25.3574 132.755 25.3574C132.043 25.3574 131.169 25.9212 130.63 26.6346C130.616 26.7427 130.684 26.8392 130.803 26.8392C131.271 26.4434 131.772 26.1557 132.102 26.1557C132.216 26.1557 132.216 26.2887 132.145 26.4683C132.071 26.6629 130.559 30.6175 130.488 30.7988C130.357 31.1114 130.741 31.158 130.9 31.158C131.028 31.158 131.088 31.1131 131.155 30.9884C131.999 29.4783 132.586 28.4074 133.346 27.4994C134.122 26.5531 134.972 25.8663 135.311 25.8663C135.527 25.8663 135.544 26.0309 135.544 26.1939C135.544 26.4683 135.356 26.9489 135.243 27.1967C134.913 27.8835 134.385 29.2322 134.086 29.9057C133.785 30.5909 133.742 30.6907 133.742 30.8121C133.742 30.9767 133.958 31.158 134.086 31.158C134.868 31.158 135.998 30.4978 136.544 29.6147C136.544 29.5066 136.512 29.3969 136.309 29.4251C135.902 29.9057 135.212 30.3614 134.974 30.3614C134.868 30.3614 134.884 30.2367 134.939 30.0987C134.986 29.9922 136.009 27.7488 136.27 27.062C136.387 26.746 136.499 26.322 136.499 26.1008C136.499 25.6468 136.254 25.3607 135.7 25.3607C134.627 25.3607 133.215 26.8708 132.204 28.3558L132.161 28.3292L133.127 25.9212Z" fill="var(--black)"/>
  <path fill-rule="evenodd" clip-rule="evenodd" d="M143.791 25.785C143.637 25.494 143.29 25.3576 143.063 25.3576C142.379 25.3576 141.477 25.7401 140.506 26.5783C139.38 27.5528 138.611 29.1909 138.611 30.1637C138.611 30.7142 138.906 31.1565 139.463 31.1565C140.847 31.1565 141.925 29.8228 142.904 28.5573L142.958 28.5689L142.462 29.9309C142.32 30.3284 142.276 30.5479 142.276 30.7142C142.276 30.9354 142.433 31.1565 142.733 31.1565C143.48 31.1565 144.772 30.0257 145.161 29.2724C145.149 29.1476 145.078 29.0944 144.947 29.0944C144.501 29.6299 143.604 30.33 143.378 30.33C143.25 30.33 143.233 30.1937 143.29 30.0141C143.421 29.6016 144.09 27.4048 145.503 23.6497C145.932 22.5122 146.148 21.9901 146.401 21.2184L146.344 21.1369C145.735 21.1236 144.938 21.3032 144.66 21.398C144.603 21.4512 144.586 21.5344 144.617 21.5876L144.947 21.8105C145.149 21.9352 145.106 22.183 144.819 22.9513L143.791 25.785ZM143.034 25.7684C143.392 25.7684 143.578 26.1792 143.405 26.7562C143.196 27.4846 142.775 28.3145 141.667 29.4104C140.679 30.3832 139.953 30.6344 139.737 30.6344C139.61 30.6344 139.464 30.508 139.464 30.3433C139.464 30.1654 139.464 29.9176 139.908 29.0395C140.349 28.1731 141.375 26.8677 141.949 26.3588C142.322 26.0312 142.704 25.7684 143.034 25.7684Z" fill="var(--black)"/>
  <path fill-rule="evenodd" clip-rule="evenodd" d="M151.74 25.9213C151.67 25.785 151.511 25.6586 151.454 25.6303C151.369 25.5904 151.269 25.5438 151.113 25.5438C150.742 25.5438 150.381 25.6436 149.828 25.9446C149.24 26.2606 148.627 26.811 147.941 27.7157C146.996 28.9696 146.681 30.0689 146.681 30.3815C146.681 30.769 146.911 31.1565 147.312 31.1565C147.981 31.1565 149.441 30.2069 150.453 28.9979L150.496 29.0145L150.025 30.2451C149.914 30.5644 149.883 30.6892 149.883 30.7823C149.883 30.8887 149.971 31.1565 150.294 31.1565C151.08 31.1565 152.093 30.3815 152.698 29.6132C152.698 29.5051 152.592 29.4369 152.495 29.4369C151.685 30.1254 151.267 30.3599 151.023 30.3599C150.909 30.3599 150.838 30.2751 150.921 30.0423C151.381 28.7917 152.622 25.755 152.838 25.2445C152.749 25.0699 152.378 24.9302 152.141 25.0433L151.74 25.9213ZM150.667 26.071C151.039 26.071 151.279 26.3055 151.383 26.5666C151.153 27.3765 150.553 28.5589 149.47 29.5334C148.656 30.2468 148.228 30.4247 148.083 30.4247C147.955 30.4247 147.87 30.3299 147.87 30.1653C147.87 29.1925 148.741 27.3898 149.655 26.6065C150.101 26.2207 150.327 26.071 150.667 26.071Z" fill="var(--black)"/>
  <path fill-rule="evenodd" clip-rule="evenodd" d="M158.975 26.2075C159.158 26.1094 159.249 25.8367 159.149 25.7003H157.591L158.005 24.35C157.891 24.2136 157.605 24.1853 157.465 24.2701L156.663 25.6288L155.521 25.8201C155.381 25.8749 155.334 26.0679 155.367 26.2042H156.475L155.139 29.9975C154.997 30.4083 154.937 30.5995 154.937 30.7808C154.937 30.9454 155.122 31.155 155.326 31.155C155.923 31.155 157.266 30.3118 158.062 29.1777C158.097 29.013 158.009 28.9299 157.867 28.9299C157.397 29.4487 156.454 30.1638 156.241 30.1638C156.124 30.1638 156.056 30.0807 156.136 29.8229L157.425 26.2059H158.975V26.2075Z" fill="var(--black)"/>
  <path fill-rule="evenodd" clip-rule="evenodd" d="M160.379 30.6592C160.312 30.8122 160.355 30.9369 160.44 31.0333C160.511 31.1132 160.595 31.1581 160.666 31.1581C161.654 31.1581 163.127 29.9191 163.336 29.5183C163.336 29.3986 163.265 29.3005 163.127 29.2888C162.641 29.8243 161.881 30.3033 161.641 30.3033C161.525 30.3033 161.54 30.1386 161.596 30.0006L163.299 26.0975C163.472 25.7001 163.472 25.5754 163.384 25.4939C163.324 25.4373 163.253 25.3575 163.152 25.3575C162.684 25.3575 161.585 25.8664 160.799 26.7295C160.768 26.8376 160.853 26.949 160.984 26.964C161.696 26.3986 162.073 26.2356 162.169 26.2356C162.268 26.2356 162.268 26.3437 162.2 26.4983L160.379 30.6592ZM163.524 22.0581C162.968 22.0581 162.752 22.6235 162.752 22.9245C162.752 23.1707 162.897 23.445 163.265 23.445C163.711 23.445 164.023 23.0077 164.023 22.5803C164.023 22.2793 163.852 22.0581 163.524 22.0581Z" fill="var(--black)"/>
  <path fill-rule="evenodd" clip-rule="evenodd" d="M169.443 25.3574C168.856 25.3574 168.211 25.562 167.47 26.2505C166.497 27.1402 165.971 28.4756 165.913 29.3287C165.829 30.5077 166.427 31.158 167.344 31.158C167.729 31.158 168.498 31.0865 169.383 30.2084C170.442 29.164 170.853 27.8436 170.898 27.0869C170.955 26.0875 170.452 25.3574 169.443 25.3574ZM169.341 25.7682C169.844 25.7682 169.927 26.2505 169.913 26.6745C169.882 27.4029 169.212 29.2156 168.586 30.0271C168.13 30.6175 167.773 30.7439 167.453 30.7439C167.045 30.7439 166.845 30.3448 166.872 29.8658C166.912 29.1374 167.472 27.501 168.3 26.4284C168.714 25.8929 169.055 25.7682 169.341 25.7682Z" fill="var(--black)"/>
  <path fill-rule="evenodd" clip-rule="evenodd" d="M175.75 25.9212C175.879 25.6019 175.72 25.3574 175.384 25.3574C174.67 25.3574 173.797 25.9212 173.251 26.6346C173.238 26.7427 173.312 26.8392 173.424 26.8392C173.896 26.4434 174.399 26.1557 174.727 26.1557C174.836 26.1557 174.836 26.2887 174.767 26.4683C174.696 26.6629 173.181 30.6175 173.11 30.7988C172.982 31.1114 173.365 31.158 173.524 31.158C173.656 31.158 173.709 31.1131 173.78 30.9884C174.623 29.4783 175.207 28.4074 175.966 27.4994C176.75 26.5531 177.597 25.8663 177.939 25.8663C178.151 25.8663 178.165 26.0309 178.165 26.1939C178.165 26.4683 177.982 26.9489 177.865 27.1967C177.538 27.8835 177.011 29.2322 176.71 29.9057C176.41 30.5909 176.367 30.6907 176.367 30.8121C176.367 30.9767 176.579 31.158 176.71 31.158C177.497 31.158 178.623 30.4978 179.167 29.6147C179.167 29.5066 179.135 29.3969 178.938 29.4251C178.519 29.9057 177.839 30.3614 177.599 30.3614C177.497 30.3614 177.51 30.2367 177.564 30.0987C177.607 29.9922 178.637 27.7488 178.894 27.062C179.008 26.746 179.124 26.322 179.124 26.1008C179.124 25.6468 178.877 25.3607 178.321 25.3607C177.255 25.3607 175.84 26.8708 174.825 28.3558L174.782 28.3292L175.75 25.9212Z" fill="var(--black)"/>
  <path fill-rule="evenodd" clip-rule="evenodd" d="M2.00775 9.74028C2.00775 11.6195 2.00775 13.1661 1.90753 13.9893C1.8246 14.5563 1.72439 14.9887 1.3149 15.0636C1.13175 15.1035 0.888135 15.1434 0.703261 15.1434C0.584043 15.1434 0.540847 15.2016 0.540847 15.2615C0.540847 15.3762 0.642788 15.4161 0.865674 15.4161C1.47731 15.4161 2.75761 15.3579 2.85782 15.3579C3.02196 15.3579 5.09532 15.476 5.56355 15.476C9.03988 15.476 10.7487 13.3024 10.7487 11.2087C10.7487 8.91876 8.73579 7.53015 7.23088 7.08114C8.18635 6.11992 9.14009 5.16037 9.14009 3.55557C9.14009 2.57772 8.40751 0.620361 5.07286 0.620361C4.13812 0.620361 3.34679 0.678573 2.85782 0.678573C2.75588 0.678573 1.47559 0.620361 0.561581 0.620361C0.335239 0.620361 0.236755 0.660277 0.236755 0.775025C0.236755 0.856512 0.317962 0.894759 0.399168 0.894759C0.582314 0.894759 0.926147 0.914714 1.09029 0.954626C1.7624 1.09099 1.92308 1.4053 1.96455 2.06884C2.00429 2.69579 2.00429 3.24126 2.00429 6.2962V9.74028H2.00775ZM3.6336 1.48014C3.6336 1.36539 3.6958 1.30552 3.87895 1.26395C4.20378 1.18578 4.63227 1.16749 4.85343 1.16749C6.84731 1.16749 7.5989 2.91032 7.5989 4.53341C7.5989 5.33498 7.29481 6.04009 6.86804 6.50906C6.44127 6.97969 6.15446 7.01961 5.01584 7.01961C4.26598 7.01961 3.89968 6.96307 3.77528 6.94145C3.67507 6.90153 3.6336 6.86328 3.6336 6.72525V1.48014ZM3.6336 7.68481C3.6336 7.58503 3.67507 7.54678 3.75628 7.54678C4.06037 7.54678 5.07631 7.54678 5.34067 7.58503C5.82963 7.6449 6.33761 7.70144 7.03045 8.15378C8.59411 9.19149 9.00532 10.8927 9.00532 12.0685C9.00532 14.2803 7.23606 14.849 6.13718 14.849C5.77089 14.849 4.89662 14.8108 4.34718 14.5547C3.71827 14.2603 3.71827 13.9876 3.65607 13.0264C3.63533 12.7337 3.63533 10.3074 3.63533 8.80069V7.68481H3.6336Z" fill="var(--black)"/>
  <path fill-rule="evenodd" clip-rule="evenodd" d="M16.6871 7.59036C16.6871 4.97612 16.6871 4.50715 16.7234 3.96834C16.7562 3.37963 16.8962 3.09526 17.3661 3.01211C17.5752 2.97719 17.6806 2.96222 17.8033 2.96222C17.8724 2.96222 17.9449 2.92729 17.9449 2.85911C17.9449 2.75933 17.8551 2.72607 17.6616 2.72607C17.1398 2.72607 16.0426 2.77596 15.9545 2.77596C15.8681 2.77596 14.771 2.72607 14.1956 2.72607C14.0038 2.72607 13.9174 2.76099 13.9174 2.85911C13.9174 2.92729 13.9866 2.96222 14.0557 2.96222C14.1783 2.96222 14.4047 2.97885 14.5947 3.02874C14.9818 3.11355 15.1546 3.39959 15.1891 3.96834C15.2254 4.50549 15.2254 4.97446 15.2254 7.59036V10.5422C15.2254 12.152 15.2254 13.4791 15.1373 14.1809C15.0682 14.6681 14.9818 15.039 14.6328 15.1088C14.4755 15.1404 14.2665 15.172 14.1092 15.172C14.0038 15.172 13.9693 15.2236 13.9693 15.2734C13.9693 15.3749 14.0574 15.4065 14.2492 15.4065C14.7727 15.4065 15.8699 15.3583 15.9545 15.3583C16.0444 15.3583 17.1415 15.4065 18.0987 15.4065C18.2922 15.4065 18.3786 15.3583 18.3786 15.2734C18.3786 15.2252 18.3423 15.172 18.2387 15.172C18.0832 15.172 17.6979 15.1387 17.4542 15.1088C16.9307 15.039 16.8305 14.6681 16.7752 14.1809C16.6871 13.4774 16.6871 12.1503 16.6871 10.5422V7.59036Z" fill="var(--black)"/>
  <path fill-rule="evenodd" clip-rule="evenodd" d="M24.2462 7.59036C24.2462 4.97612 24.2462 4.50715 24.2825 3.96834C24.3188 3.37963 24.457 3.09526 24.9615 3.01211C25.1706 2.97719 25.4142 2.96222 25.5386 2.96222C25.606 2.96222 25.6768 2.92729 25.6768 2.85911C25.6768 2.75933 25.5887 2.72607 25.3969 2.72607C24.8734 2.72607 23.6017 2.77596 23.5154 2.77596C23.4272 2.77596 22.3284 2.72607 21.5457 2.72607C21.3556 2.72607 21.2675 2.76099 21.2675 2.85911C21.2675 2.92729 21.3366 2.96222 21.4057 2.96222C21.5629 2.96222 21.8601 2.97885 21.9983 3.01211C22.5737 3.12852 22.7137 3.39792 22.7482 3.96834C22.7845 4.50549 22.7845 4.97446 22.7845 7.59036V10.5422C22.7845 12.152 22.7845 13.4791 22.6946 14.1809C22.6255 14.6681 22.5374 15.039 22.1884 15.1088C22.0312 15.1404 21.8238 15.172 21.6666 15.172C21.5612 15.172 21.5267 15.2235 21.5267 15.2734C21.5267 15.3749 21.6148 15.4065 21.8048 15.4065C22.0675 15.4065 22.451 15.3915 22.7983 15.3732C23.1491 15.3732 23.4445 15.3566 23.5136 15.3566C24.5244 15.3566 25.6751 15.458 28.1839 15.458C29.1082 15.458 29.1583 15.3915 29.2827 15.0057C29.4227 14.5184 29.5436 13.5123 29.5436 13.3294C29.5436 13.1431 29.5246 13.0766 29.4365 13.0766C29.3346 13.0766 29.2983 13.1614 29.281 13.2961C29.2292 13.6138 29.0529 14.0328 28.8266 14.3022C28.4102 14.7878 27.6413 14.8045 26.717 14.8045C25.3589 14.8045 24.9045 14.6881 24.6263 14.4187C24.3136 14.1177 24.2428 13.045 24.2428 10.5771V7.59036H24.2462Z" fill="var(--black)"/>
  <path fill-rule="evenodd" clip-rule="evenodd" d="M34.0307 7.59036C34.0307 4.97612 34.0307 4.50715 34.067 3.96834C34.1033 3.37963 34.2398 3.09526 34.746 3.01211C34.9551 2.97719 35.2005 2.96222 35.3231 2.96222C35.3905 2.96222 35.4614 2.92729 35.4614 2.85911C35.4614 2.75933 35.3732 2.72607 35.1832 2.72607C34.6597 2.72607 33.3897 2.77596 33.2999 2.77596C33.2118 2.77596 32.1129 2.72607 31.3302 2.72607C31.1384 2.72607 31.0503 2.76099 31.0503 2.85911C31.0503 2.92729 31.1211 2.96222 31.1902 2.96222C31.3475 2.96222 31.6429 2.97885 31.7846 3.01211C32.3582 3.12852 32.4982 3.39792 32.5345 3.96834C32.569 4.50549 32.569 4.97446 32.569 7.59036V10.5422C32.569 12.152 32.569 13.4791 32.4826 14.1809C32.4118 14.6681 32.3254 15.039 31.9781 15.1088C31.8209 15.1404 31.6101 15.172 31.4529 15.172C31.3475 15.172 31.3146 15.2235 31.3146 15.2734C31.3146 15.3749 31.401 15.4065 31.5928 15.4065C31.8537 15.4065 32.239 15.3915 32.5846 15.3732C32.9353 15.3732 33.229 15.3566 33.2999 15.3566C34.3106 15.3566 35.4614 15.458 37.9701 15.458C38.8928 15.458 38.9481 15.3915 39.0707 15.0057C39.2072 14.5184 39.3299 13.5123 39.3299 13.3294C39.3299 13.1431 39.3126 13.0766 39.2245 13.0766C39.1191 13.0766 39.0863 13.1614 39.069 13.2961C39.0172 13.6138 38.8409 14.0328 38.6129 14.3022C38.1965 14.7878 37.4293 14.8045 36.5049 14.8045C35.1452 14.8045 34.6908 14.6881 34.4143 14.4187C34.0999 14.1177 34.029 13.045 34.029 10.5771V7.59036H34.0307Z" fill="var(--black)"/>
  <path fill-rule="evenodd" clip-rule="evenodd" d="M45.7331 13.8495C46.7629 13.8495 48.2332 13.4238 49.2665 12.3063C50.3982 11.074 50.723 9.6704 50.7662 9.24467C50.7956 8.97527 50.8249 8.29676 50.8249 8.04066C51.2811 8.39488 51.7666 8.93203 51.8391 9.04678C51.9169 9.1582 52.0309 9.22804 52.1933 9.12993C52.4577 8.9736 53.0469 8.80564 53.2974 8.77571C53.4598 8.74744 53.5929 8.73579 53.681 8.63435C53.7985 8.52127 53.9609 8.2951 53.9609 7.96915C53.9609 7.60163 53.814 7.1759 53.4166 7.1759C53.1523 7.1759 52.9467 7.36049 52.9467 7.53012C52.9467 7.57336 52.976 7.6432 53.0054 7.74298C53.0348 7.82779 53.0642 7.94088 53.0642 8.0972C53.0642 8.33834 52.9173 8.53624 52.767 8.53624C52.5061 8.53624 52.4594 8.46473 52.1225 8.16705C51.3986 7.54508 50.9735 7.06281 50.1632 7.06281C49.9576 7.06281 49.2941 7.1759 48.7066 7.64487C47.9706 8.22692 47.7045 8.86218 47.7045 9.22971C47.7045 9.61054 48.0293 9.79845 48.3386 9.79845C48.7516 9.79845 48.8241 9.50078 48.8241 9.401C48.8241 9.31619 48.7654 9.15986 48.7187 9.00687C48.6773 8.84888 48.6012 8.66761 48.6012 8.5379C48.6012 8.05563 49.2181 7.63156 49.6759 7.63156C49.9731 7.63156 50.2807 7.72968 50.4414 7.87436C50.3982 9.03348 50.2046 9.74358 49.6466 10.7347C48.793 12.2514 47.2916 13.0446 46.07 13.0446C44.9383 13.0446 43.4351 12.4376 43.4645 10.6233V10.5102C44.9953 9.50577 47.4678 7.70307 48.6894 6.54229C50.0578 5.25513 50.5433 4.3754 50.5433 3.63869C50.5433 3.08657 50.2046 2.88867 49.866 2.88867C49.5861 2.88867 49.2768 3.08657 49.2768 3.47072C49.2768 3.62538 49.3183 3.66862 49.4375 3.78337C49.5429 3.88148 49.6172 4.00953 49.6172 4.2091C49.6172 4.57662 49.2924 5.14371 49.0868 5.39648C48.6755 5.92033 47.6579 6.91315 47.0117 7.42369C46.8786 7.24242 46.7318 6.87157 46.0838 6.87157C45.7607 6.87157 44.8467 7.01292 43.8895 7.9758C42.7129 9.13658 42.4779 10.314 42.4779 11.0224C42.4814 12.4776 43.4092 13.8495 45.7331 13.8495ZM43.4973 9.96808C43.5993 9.37439 43.8343 8.8073 44.2921 8.22692C44.7344 7.67313 45.2165 7.46194 45.4256 7.46194C45.7055 7.46194 45.9093 7.63156 45.9093 7.89931C45.9093 7.92924 45.9093 8.11217 45.8955 8.24022C45.41 8.65098 44.5427 9.27295 43.4973 9.96808Z" fill="var(--black)"/>
  <path fill-rule="evenodd" clip-rule="evenodd" d="M73.0496 0.753493C73.0081 0.38098 72.9442 0.226318 72.8025 0.226318C72.6591 0.226318 72.5779 0.362684 72.4967 0.538963L66.5185 12.8319L60.295 0.520673C60.1913 0.30282 60.1135 0.226318 59.9891 0.226318C59.8682 0.226318 59.8077 0.362688 59.7645 0.578878L58.3011 13.3408C58.2199 14.0841 58.1594 14.8458 57.4856 14.9655C57.1815 15.0254 57.0398 15.0254 56.8757 15.0254C56.7737 15.0254 56.6752 15.062 56.6752 15.1219C56.6752 15.2615 56.8152 15.2981 57.0191 15.2981C57.5685 15.2981 58.543 15.2399 58.7261 15.2399C58.8903 15.2399 59.8647 15.2981 60.6198 15.2981C60.8617 15.2981 60.9826 15.2615 60.9826 15.1219C60.9826 15.0636 60.9031 15.0254 60.8202 15.0254C60.6975 15.0254 60.3935 15.0038 60.0479 14.9256C59.7421 14.8674 59.5192 14.613 59.5192 14.3203C59.5192 13.9877 59.5192 13.6351 59.5399 13.3208L60.3537 4.23915H60.4349C60.6613 4.76632 62.9368 9.46598 63.1199 9.81687C63.2236 10.0131 64.9704 13.399 65.5008 14.3585C65.8861 15.062 65.9863 15.2599 66.128 15.2599C66.3112 15.2599 66.3751 15.0819 66.8019 14.2188L71.7831 4.04292H71.8436L72.818 14.1407C72.8595 14.4932 72.8405 14.8258 72.7368 14.8458C72.6366 14.8674 72.5952 14.9057 72.5952 14.9855C72.5952 15.0819 72.6988 15.1418 73.1636 15.1801C73.9186 15.2383 76.1112 15.2965 76.5604 15.2965C76.8075 15.2965 76.9872 15.2383 76.9872 15.1202C76.9872 15.042 76.9267 15.0237 76.8248 15.0237C76.6192 15.0237 76.0939 15.0237 75.5048 14.8458C74.627 14.5731 74.4854 13.4771 74.4042 12.772L73.0496 0.753493Z" fill="var(--black)"/>
  <path fill-rule="evenodd" clip-rule="evenodd" d="M79.8744 10.4254C79.8744 12.0352 79.8743 13.3606 79.7862 14.064C79.7171 14.5513 79.6307 14.9188 79.2834 14.9887C79.1245 15.0219 78.9154 15.0535 78.7599 15.0535C78.6545 15.0535 78.6182 15.1051 78.6182 15.155C78.6182 15.2564 78.7064 15.2897 78.8999 15.2897C79.1608 15.2897 79.5616 15.2714 79.9106 15.2548C80.2769 15.2548 80.5724 15.2398 80.6087 15.2398C81.1132 15.2398 82.2812 15.3396 84.9109 15.3396C85.5916 15.3396 85.7316 15.3396 85.8508 14.9022C85.9389 14.5513 86.0789 13.4105 86.0789 13.2741C86.0789 13.156 86.0789 13.0213 85.9717 13.0213C85.8871 13.0213 85.8508 13.0928 85.818 13.2741C85.6936 13.9609 85.4845 14.2969 85.0301 14.4815C84.5791 14.6661 83.8103 14.6661 83.3593 14.6661C81.6488 14.6661 81.3896 14.4482 81.3361 13.2924C81.3205 12.9399 81.3361 10.9925 81.3361 10.4237V8.94697C81.3361 8.87879 81.3706 8.8289 81.4587 8.8289C81.7559 8.8289 83.4785 8.86383 83.9502 8.91372C84.631 8.98024 84.7865 9.26628 84.8556 9.50242C84.9247 9.71861 84.9247 9.88491 84.9247 10.0545C84.9247 10.1377 84.9593 10.2075 85.0439 10.2075C85.1666 10.2075 85.1666 10.0229 85.1666 9.88658C85.1666 9.77016 85.2029 9.15153 85.2392 8.81394C85.2893 8.26016 85.3774 7.97412 85.3774 7.876C85.3774 7.77456 85.3428 7.73964 85.2893 7.73964C85.2219 7.73964 85.151 7.82279 85.0266 7.95915C84.8729 8.12712 84.6292 8.15871 84.2094 8.1953C83.8068 8.23022 81.6626 8.23022 81.438 8.23022C81.3516 8.23022 81.3326 8.17867 81.3326 8.0606V3.42913C81.3326 3.31272 81.3672 3.26116 81.438 3.26116C81.6315 3.26116 83.5286 3.27613 83.8258 3.31105C84.7675 3.41083 84.942 3.61206 85.0647 3.88147C85.1528 4.08269 85.1683 4.36706 85.1683 4.48347C85.1683 4.61984 85.2046 4.70133 85.31 4.70133C85.3791 4.70133 85.4137 4.60154 85.4309 4.52006C85.4638 4.31883 85.5001 3.58046 85.5191 3.41083C85.5709 2.94353 85.659 2.74231 85.659 2.62257C85.659 2.53776 85.64 2.4729 85.5882 2.4729C85.5001 2.4729 85.4309 2.53775 85.3446 2.55937C85.2029 2.59097 84.9247 2.62257 84.593 2.6392C84.1938 2.65749 80.7227 2.65749 80.6035 2.65749C80.5119 2.65749 79.4148 2.60761 78.6303 2.60761C78.4403 2.60761 78.3504 2.64086 78.3504 2.74231C78.3504 2.80883 78.4213 2.84209 78.4921 2.84209C78.6493 2.84209 78.9465 2.85871 79.083 2.89364C79.6601 3.01005 79.7983 3.27613 79.8329 3.8482C79.8692 4.38536 79.8692 4.85432 79.8692 7.47356V10.4254H79.8744Z" fill="var(--black)"/>
  <path fill-rule="evenodd" clip-rule="evenodd" d="M91.6493 7.47216C91.6493 4.85459 91.6493 4.38562 91.6856 3.84681C91.7219 3.25977 91.8601 2.97705 92.3629 2.89224C92.5754 2.85732 92.819 2.84069 92.94 2.84069C93.0108 2.84069 93.0851 2.80743 93.0851 2.74091C93.0851 2.6378 92.9935 2.6062 92.8017 2.6062C92.2748 2.6062 91.0083 2.6561 90.9202 2.6561C90.8321 2.6561 89.7315 2.6062 88.9488 2.6062C88.7587 2.6062 88.6706 2.63946 88.6706 2.74091C88.6706 2.80743 88.7414 2.84069 88.8123 2.84069C88.9678 2.84069 89.2632 2.85732 89.4032 2.89224C89.9803 3.00865 90.1202 3.27473 90.1513 3.84681C90.1893 4.38396 90.1893 4.85292 90.1893 7.47216V10.424C90.1893 12.0338 90.1893 13.3592 90.1029 14.0626C90.0338 14.5499 89.944 14.9174 89.5932 14.9889C89.4377 15.0205 89.2269 15.0521 89.0697 15.0521C88.966 15.0521 88.9298 15.1037 88.9298 15.1536C88.9298 15.255 89.0179 15.2883 89.2097 15.2883C89.4723 15.2883 89.8558 15.27 90.2049 15.2534C90.5522 15.2534 90.8511 15.2367 90.9184 15.2367C91.9292 15.2367 93.0834 15.3382 95.587 15.3382C96.5113 15.3382 96.5614 15.27 96.6876 14.8858C96.8258 14.4002 96.9467 13.3958 96.9467 13.2079C96.9467 13.0199 96.9329 12.9567 96.8448 12.9567C96.7359 12.9567 96.7031 13.0416 96.6858 13.1763C96.6357 13.4939 96.4629 13.913 96.2331 14.1807C95.8116 14.668 95.0479 14.6863 94.1235 14.6863C92.762 14.6863 92.3076 14.5682 92.0311 14.3021C91.7167 13.9978 91.6459 12.9251 91.6459 10.4606V7.47216H91.6493Z" fill="var(--black)"/>
  <path fill-rule="evenodd" clip-rule="evenodd" d="M101.854 7.47216C101.854 4.85459 101.854 4.38562 101.89 3.84681C101.926 3.25977 102.064 2.97705 102.533 2.89224C102.745 2.85732 102.851 2.84069 102.97 2.84069C103.042 2.84069 103.11 2.80743 103.11 2.74091C103.11 2.6378 103.025 2.6062 102.833 2.6062C102.306 2.6062 101.213 2.6561 101.13 2.6561C101.038 2.6561 99.9393 2.6062 99.3657 2.6062C99.1773 2.6062 99.084 2.63946 99.084 2.74091C99.084 2.80743 99.1531 2.84069 99.2274 2.84069C99.3449 2.84069 99.5747 2.85732 99.7682 2.91054C100.154 2.99369 100.328 3.2764 100.359 3.84681C100.395 4.38396 100.395 4.85292 100.395 7.47216V10.424C100.395 12.0338 100.395 13.3592 100.309 14.0626C100.242 14.5499 100.152 14.9174 99.8028 14.9889C99.6456 15.0205 99.4365 15.0521 99.2775 15.0521C99.1756 15.0521 99.1359 15.1037 99.1359 15.1536C99.1359 15.255 99.2274 15.2883 99.4158 15.2883C99.9393 15.2883 101.038 15.2384 101.13 15.2384C101.214 15.2384 102.308 15.2883 103.269 15.2883C103.461 15.2883 103.547 15.2384 103.547 15.1536C103.547 15.1053 103.514 15.0521 103.41 15.0521C103.251 15.0521 102.87 15.0189 102.628 14.9889C102.097 14.9174 101.997 14.5499 101.945 14.0626C101.854 13.3575 101.854 12.0321 101.854 10.424V7.47216Z" fill="var(--black)"/>
  <path fill-rule="evenodd" clip-rule="evenodd" d="M108.195 4.97252C108.754 5.57453 110.719 7.68987 112.744 9.78692C114.593 11.6977 117.103 14.1656 117.293 14.3319C118.221 15.2216 118.427 15.4062 118.565 15.4062C118.686 15.4062 118.724 15.3214 118.724 14.2122L118.758 4.38382C118.758 3.3777 118.826 3.00851 119.399 2.8921C119.615 2.84055 119.733 2.84055 119.823 2.84055C119.945 2.84055 120.013 2.789 120.013 2.7258C120.013 2.62436 119.888 2.60773 119.698 2.60773C118.987 2.60773 118.409 2.65762 118.221 2.65762C118.024 2.65762 117.184 2.60773 116.409 2.60773C116.193 2.60773 116.054 2.62602 116.054 2.7258C116.054 2.789 116.077 2.84055 116.193 2.84055C116.334 2.84055 116.735 2.85718 117.046 2.92536C117.587 3.0584 117.708 3.42925 117.729 4.52018L117.92 13.0414C117.361 12.4876 115.46 10.4421 113.736 8.66439C111.052 5.89549 108.454 3.19477 108.195 2.9104C108.018 2.74077 107.726 2.37158 107.585 2.37158C107.445 2.37158 107.395 2.55784 107.395 3.2114L107.374 12.8219C107.374 14.3485 107.286 14.8375 106.85 14.9522C106.591 15.037 106.277 15.0537 106.14 15.0537C106.051 15.0537 106 15.0886 106 15.1551C106 15.2715 106.106 15.2898 106.277 15.2898C107.063 15.2898 107.792 15.2399 107.951 15.2399C108.11 15.2399 108.806 15.2898 109.796 15.2898C110.009 15.2898 110.107 15.2549 110.107 15.1551C110.107 15.0886 110.061 15.0537 109.973 15.0537C109.817 15.0537 109.432 15.037 109.098 14.9522C108.63 14.8175 108.454 14.3801 108.419 13.0065L108.195 4.97252Z" fill="var(--black)"/>
  <path fill-rule="evenodd" clip-rule="evenodd" d="M123.714 10.4271C123.714 12.0352 123.714 13.3607 123.622 14.0658C123.553 14.553 123.467 14.9206 123.116 14.9904C122.96 15.0237 122.751 15.0553 122.596 15.0553C122.487 15.0553 122.454 15.1068 122.454 15.1567C122.454 15.2581 122.542 15.2914 122.734 15.2914C123.258 15.2914 124.355 15.2415 124.438 15.2415C124.617 15.2415 126.81 15.4427 128.308 15.4427C131.271 15.4427 132.842 14.267 133.59 13.5137C134.563 12.5242 135.473 10.8961 135.473 8.78241C135.473 6.7868 134.652 5.39487 133.782 4.52179C131.707 2.45966 128.515 2.60934 126.796 2.60934C125.751 2.60934 124.654 2.65923 124.438 2.65923C124.353 2.65923 123.256 2.60934 122.468 2.60934C122.281 2.60934 122.197 2.64259 122.197 2.74404C122.197 2.81056 122.264 2.84382 122.335 2.84382C122.487 2.84382 122.784 2.86045 122.926 2.89537C123.5 3.01344 123.638 3.27786 123.676 3.84994C123.712 4.38709 123.712 4.85606 123.712 7.47529V10.4271H123.714ZM125.175 7.20255C125.175 5.9104 125.175 4.20083 125.193 3.63208C125.193 3.44583 125.243 3.36268 125.405 3.29449C125.54 3.22797 126.185 3.17808 126.535 3.17808C128.607 3.17808 130.596 3.41257 132.235 5.07391C132.947 5.79565 133.906 7.17262 133.906 9.30293C133.906 10.8445 133.419 12.456 132.515 13.3108C131.485 14.3003 129.987 14.8707 128.368 14.8707C126.311 14.8707 125.628 14.5181 125.405 14.1988C125.26 14.0159 125.226 13.3424 125.212 12.9233C125.193 12.6057 125.175 11.0624 125.175 9.28298V7.20255Z" fill="var(--black)"/>
  <path fill-rule="evenodd" clip-rule="evenodd" d="M137.543 13.4441C137.229 14.2822 136.881 14.9191 136.078 15.0206C135.94 15.0356 135.694 15.0539 135.575 15.0539C135.482 15.0539 135.416 15.0888 135.416 15.1553C135.416 15.2567 135.522 15.29 135.75 15.29C136.57 15.29 137.524 15.2401 137.718 15.2401C137.906 15.2401 138.659 15.29 139.077 15.29C139.233 15.29 139.337 15.2551 139.337 15.1553C139.337 15.0888 139.286 15.0539 139.16 15.0539H138.987C138.687 15.0539 138.322 14.9025 138.322 14.5666C138.322 14.2639 138.41 13.8631 138.566 13.4441L139.611 10.4739C139.648 10.3891 139.696 10.3409 139.791 10.3409H143.537C143.621 10.3409 143.658 10.3758 143.692 10.4423L145.313 14.5666C145.422 14.8377 145.313 14.989 145.211 15.0206C145.14 15.0356 145.087 15.0688 145.087 15.137C145.087 15.2384 145.282 15.2385 145.61 15.2534C146.814 15.2883 148.084 15.2883 148.347 15.2883C148.539 15.2883 148.698 15.2534 148.698 15.1536C148.698 15.0688 148.627 15.0522 148.521 15.0522C148.345 15.0522 148.083 15.0339 147.82 14.9507C147.455 14.8493 146.953 14.5816 146.322 13.0898C145.263 10.5388 142.526 3.61072 142.262 2.97379C142.056 2.45327 141.989 2.37012 141.88 2.37012C141.774 2.37012 141.704 2.47323 141.495 3.02534L137.543 13.4441ZM139.983 9.73557C139.933 9.73557 139.895 9.70231 139.933 9.61916L141.469 5.08913C141.55 4.83968 141.638 4.83968 141.728 5.08913L143.381 9.61916C143.399 9.68568 143.399 9.73557 143.314 9.73557H139.983Z" fill="var(--black)"/>
</svg>
