<svg xmlns="http://www.w3.org/2000/svg" xmlns:xlink="http://www.w3.org/1999/xlink" version="1.1" id="Layer_1" x="0px" y="0px" width="250.1px" height="84.69px" viewBox="0 0 250.1 84.69" enable-background="new 0 0 250.1 84.69" xml:space="preserve">
  <g>
    <path d="M117.16,19.63h-4.94v-2.11h19.14v2.11h-5.55v25.86c0,2.47,0.08,4.23,0.24,5.27c0.32,2.07,1.3,3.66,2.92,4.76   c1.43,0.96,3.26,1.45,5.51,1.45c3.9,0,6.64-1.13,8.23-3.38c0.66-0.94,1.11-2.03,1.33-3.26c0.2-1.02,0.3-2.65,0.3-4.88V24.09   c0-2.05-0.18-3.3-0.54-3.77c-0.36-0.46-1.26-0.69-2.68-0.69h-1.6v-2.11h11.72v2.11h-1.6c-1.41,0-2.29,0.23-2.65,0.69   c-0.36,0.46-0.54,1.72-0.54,3.77v21.4c0,3.21-0.19,5.43-0.57,6.63c-0.84,2.57-2.52,4.5-5.03,5.79c-2.33,1.18-5.14,1.78-8.41,1.78   c-3.08,0-5.92-0.5-8.53-1.51c-2.97-1.17-4.96-2.86-5.97-5.09c-0.42-0.96-0.66-2.19-0.72-3.68c-0.04-0.9-0.06-2.21-0.06-3.92V19.63z    M154.11,56.55v2.11h19.14v-2.11h-5.55V39.68h4.61c3.54,0,6.11-0.16,7.72-0.48c2.41-0.48,4.47-1.45,6.18-2.89   c2.37-2.03,3.56-4.57,3.56-7.63c0-1.95-0.53-3.75-1.6-5.4c-1.53-2.41-3.52-4.01-5.97-4.79c-2.07-0.64-5.39-0.96-9.98-0.96h-18.12   v2.11h4.94v36.92H154.11z M167.7,19.63h4.46c1.57,0,2.8,0.1,3.71,0.3c1.08,0.22,1.96,0.66,2.62,1.33c1.43,1.43,2.14,3.86,2.14,7.29   c0,3.3-0.7,5.66-2.11,7.08c-1.29,1.29-3.38,1.93-6.27,1.93h-4.55V19.63z M194.59,45.49c0,1.71,0.02,3.01,0.06,3.92   c0.06,1.49,0.3,2.71,0.72,3.68c1,2.23,2.99,3.93,5.97,5.09c2.61,1.01,5.46,1.51,8.53,1.51c3.27,0,6.08-0.59,8.41-1.78   c2.51-1.29,4.19-3.22,5.03-5.79c0.38-1.21,0.57-3.42,0.57-6.63v-21.4c0-2.05,0.18-3.3,0.54-3.77c0.36-0.46,1.24-0.69,2.65-0.69h1.6   v-2.11h-11.72v2.11h1.6c1.43,0,2.32,0.23,2.68,0.69c0.36,0.46,0.54,1.72,0.54,3.77v21.37c0,2.23-0.1,3.86-0.3,4.88   c-0.22,1.23-0.66,2.31-1.33,3.26c-1.59,2.25-4.33,3.38-8.23,3.38c-2.25,0-4.09-0.48-5.51-1.45c-1.63-1.1-2.6-2.69-2.92-4.76   c-0.16-1.04-0.24-2.8-0.24-5.27V19.63h5.55v-2.11h-19.14v2.11h4.94V45.49z M231.54,56.55v2.11h18.51v-2.11h-4.91V19.63h4.91v-2.11   h-18.51v2.11h4.94v36.92H231.54z M90.6,56.55v2.11h18.51v-2.11h-4.91V19.63h4.91v-2.11H90.6v2.11h4.94v36.92H90.6z"/>
    <polygon fill="#990000" points="45.23,11.27 45.23,17.65 49.64,17.65 49.64,53.16 40.31,53.16 40.31,6.39 45.27,6.39 45.27,0.02    22,0.02 22,6.39 26.96,6.39 26.96,53.16 17.53,53.16 17.53,17.65 21.94,17.65 21.94,11.27 0.05,11.27 0.05,17.65 4.99,17.65    4.99,58.77 13.04,66.98 26.96,66.98 26.96,76.46 22.02,76.46 22.02,84.67 45.25,84.67 45.25,76.46 40.31,76.46 40.31,66.98    54.13,66.98 62.17,58.77 62.17,17.65 67.13,17.65 67.13,11.27  "/>
  </g>
</svg>
