<svg xmlns="http://www.w3.org/2000/svg" style="height:50px;margin-bottom:var(--space-md);width:auto" viewBox="0 0 250.1 84.7">
  <path d="M117.2 19.6h-5v-2h19.2v2h-5.6v25.9c0 2.5 0 4.2.3 5.3.3 2 1.3 3.6 2.9 4.7 1.4 1 3.2 1.5 5.5 1.5 3.9 0 6.6-1.2 8.2-3.4a8 8 0 001.3-3.3c.2-1 .3-2.6.3-4.9V24.1c0-2-.1-3.3-.5-3.8-.4-.4-1.3-.7-2.7-.7h-1.6v-2h11.7v2h-1.6c-1.4 0-2.2.3-2.6.7-.4.5-.5 1.7-.5 3.8v21.4c0 3.2-.2 5.4-.6 6.6a9.7 9.7 0 01-5 5.8 23.4 23.4 0 01-17 .3c-3-1.2-5-2.9-6-5.1-.4-1-.6-2.2-.7-3.7V19.6zm37 37v2h19v-2h-5.5v-17h4.6a44 44 0 007.7-.4c2.4-.5 4.5-1.4 6.2-2.9 2.4-2 3.6-4.6 3.6-7.6 0-2-.6-3.8-1.6-5.4a11 11 0 00-6-4.8c-2-.6-5.4-1-10-1h-18.1v2.1h5v37h-5zm13.5-37h4.5c1.5 0 2.8.1 3.7.3 1 .2 2 .7 2.6 1.4 1.4 1.4 2.1 3.8 2.1 7.2 0 3.3-.7 5.7-2 7.1-1.4 1.3-3.5 2-6.4 2h-4.5v-18zm26.9 25.9v4c.1 1.4.4 2.6.8 3.6 1 2.2 3 4 6 5 2.5 1 5.4 1.6 8.5 1.6 3.2 0 6-.6 8.4-1.8a9.7 9.7 0 005-5.8c.4-1.2.6-3.4.6-6.6V24c0-2 .2-3.3.5-3.8.4-.4 1.3-.7 2.7-.7h1.6v-2h-11.8v2h1.6c1.5 0 2.4.3 2.7.7.4.5.6 1.7.6 3.8v21.4c0 2.2-.1 3.8-.3 4.8a8 8 0 01-1.4 3.3c-1.6 2.3-4.3 3.4-8.2 3.4-2.2 0-4-.5-5.5-1.5a6.7 6.7 0 01-3-4.7l-.2-5.3V19.6h5.6v-2h-19.2v2h5v25.9zm37 11v2.2H250v-2.2h-4.9V19.6h5v-2h-18.6v2h5v37h-5zm-141 0v2.2h18.5v-2.2h-4.9V19.6h5v-2H90.5v2h5v37h-5z" fill="currentColor"/>
  <path fill="#900" d="M45.2 11.3v6.3h4.4v35.6h-9.3V6.4h5V0H22v6.4h5v46.8h-9.5V17.6H22v-6.3H.1v6.3H5v41.2l8 8.2h14v9.5h-5v8.2h23.3v-8.2h-5V67h13.8l8-8.2V17.7h5v-6.4z"/>
</svg>
