<svg width="6734" height="2545" viewBox="0 0 6734 2545" fill="none" xmlns="http://www.w3.org/2000/svg" class="logotype">
<path d="M605.522 0C684.403 0 759.803 13.9201 831.723 41.7602C904.803 68.4403 969.764 107.88 1026.6 160.081C1083.44 212.281 1128.1 276.081 1160.58 351.481C1194.22 426.882 1211.04 512.722 1211.04 609.002C1211.04 705.283 1194.22 791.123 1160.58 866.523C1128.1 941.924 1083.44 1005.72 1026.6 1057.92C969.764 1110.12 904.803 1150.14 831.723 1177.98C759.803 1204.66 684.403 1218 605.522 1218C526.642 1218 450.662 1204.66 377.581 1177.98C305.661 1150.14 241.281 1110.12 184.441 1057.92C127.6 1005.72 82.3603 941.924 48.7202 866.523C16.2401 791.123 0 705.283 0 609.002C0 512.722 16.2401 426.882 48.7202 351.481C82.3603 276.081 127.6 212.281 184.441 160.081C241.281 107.88 305.661 68.4403 377.581 41.7602C450.662 13.9201 526.642 0 605.522 0ZM605.522 304.501C553.322 304.501 506.922 317.841 466.322 344.521C425.722 371.201 393.241 407.742 368.881 454.142C345.681 499.382 334.081 551.002 334.081 609.002C334.081 667.003 345.681 719.203 368.881 765.603C393.241 810.843 425.722 846.803 466.322 873.483C506.922 900.163 553.322 913.504 605.522 913.504C657.722 913.504 704.123 900.163 744.723 873.483C786.483 846.803 818.963 810.843 842.163 765.603C865.363 719.203 876.963 667.003 876.963 609.002C876.963 551.002 865.363 499.382 842.163 454.142C818.963 407.742 786.483 371.201 744.723 344.521C704.123 317.841 657.722 304.501 605.522 304.501Z" fill="var(--white)"/>
<path d="M1889.45 8.70003L2428.86 1191.9H2049.53L1992.11 1035.3H1623.23L1565.81 1191.9H1186.49L1725.89 8.70003H1889.45ZM1807.67 534.182L1718.93 774.303H1896.41L1807.67 534.182Z" fill="var(--white)"/>
<path d="M2151.89 1352.1L1772.57 2517.9H1527.23L1323.64 1900.2L1120.06 2517.9H874.723L491.922 1352.1H871.243L1029.58 1957.62L1210.54 1352.1H1433.26L1617.71 1957.62L1772.57 1352.1H2151.89Z" fill="var(--white)"/>
<path d="M4018.25 1352.1C4077.41 1352.1 4134.83 1360.22 4190.51 1376.46C4247.35 1392.7 4298.39 1417.64 4343.63 1451.28C4388.87 1484.92 4424.83 1527.26 4451.51 1578.3C4479.35 1629.34 4493.28 1689.08 4493.28 1757.52C4493.28 1844.52 4468.33 1916.44 4418.45 1973.28C4369.73 2030.12 4307.09 2068.98 4230.53 2089.86L4552.44 2517.9H4155.71L3844.25 2055.06V2517.9H3518.87V1352.1H4018.25ZM3844.25 1656.6V1874.1C3863.97 1881.06 3884.85 1886.86 3906.89 1891.5C3930.09 1896.14 3954.45 1898.46 3979.97 1898.46C4031.01 1898.46 4073.35 1888.6 4106.99 1868.88C4141.79 1848 4159.19 1816.68 4159.19 1774.92C4159.19 1727.36 4141.79 1696.04 4106.99 1680.96C4073.35 1664.72 4031.01 1656.6 3979.97 1656.6H3844.25Z" fill="var(--white)"/>
<path d="M5007.06 1352.1V1780.14L5363.77 1352.1H5755.27L5334.19 1830.6L5807.47 2517.9H5393.35L5113.2 2079.42L5007.06 2199.48V2517.9H4681.68V1352.1H5007.06Z" fill="var(--white)"/>
<path d="M6298.63 1326C6367.08 1326 6434.36 1334.7 6500.48 1352.1C6567.76 1368.34 6621.7 1390.38 6662.3 1418.22V1733.16C6612.42 1704.16 6563.12 1679.22 6514.4 1658.34C6465.68 1636.3 6408.26 1625.28 6342.14 1625.28C6303.85 1625.28 6270.79 1631.08 6242.95 1642.68C6215.11 1654.28 6201.19 1673.42 6201.19 1700.1C6201.19 1729.1 6218.01 1751.14 6251.65 1766.22C6285.29 1780.14 6326.48 1796.38 6375.2 1814.94L6500.48 1861.92C6585.16 1894.4 6644.9 1938.48 6679.7 1994.16C6715.66 2049.84 6733.64 2105.52 6733.64 2161.2C6733.64 2235.44 6712.18 2301.56 6669.26 2359.56C6626.34 2416.4 6568.34 2461.64 6495.26 2495.28C6422.18 2527.76 6340.4 2544 6249.91 2544C6180.31 2544 6111.29 2531.82 6042.85 2507.46C5974.41 2483.1 5914.67 2452.94 5863.63 2416.98V2102.04C5919.31 2143.8 5979.05 2178.02 6042.85 2204.7C6107.81 2231.38 6172.77 2244.72 6237.73 2244.72C6278.33 2244.72 6310.82 2240.08 6335.18 2230.8C6360.7 2220.36 6373.46 2202.96 6373.46 2178.6C6373.46 2161.2 6364.17 2146.12 6345.61 2133.36C6327.05 2120.6 6302.12 2109.58 6270.79 2100.3L6105.49 2048.1C6040.53 2027.22 5990.07 1998.8 5954.11 1962.84C5918.15 1926.88 5893.21 1886.86 5879.29 1842.78C5865.37 1797.54 5858.41 1751.72 5858.41 1705.32C5858.41 1622.96 5879.29 1553.94 5921.05 1498.26C5962.81 1441.42 6017.33 1398.5 6084.61 1369.5C6151.89 1340.5 6223.23 1326 6298.63 1326Z" fill="var(--white)"/>
<path d="M2791.1 1326C2869.98 1326 2945.38 1339.92 3017.3 1367.76C3090.38 1394.44 3155.34 1433.88 3212.18 1486.08C3269.02 1538.28 3313.68 1602.08 3346.16 1677.48C3379.8 1752.88 3396.62 1838.72 3396.62 1935C3396.62 2031.28 3379.8 2117.12 3346.16 2192.52C3313.68 2267.92 3269.02 2331.72 3212.18 2383.92C3155.34 2436.12 3090.38 2476.14 3017.3 2503.98C2945.38 2530.66 2869.98 2544 2791.1 2544C2712.22 2544 2636.24 2530.66 2563.16 2503.98C2491.24 2476.14 2426.86 2436.12 2370.02 2383.92C2313.18 2331.72 2267.94 2267.92 2234.3 2192.52C2201.82 2117.12 2185.58 2031.28 2185.58 1935C2185.58 1838.72 2201.82 1752.88 2234.3 1677.48C2267.94 1602.08 2313.18 1538.28 2370.02 1486.08C2426.86 1433.88 2491.24 1394.44 2563.16 1367.76C2636.24 1339.92 2712.22 1326 2791.1 1326ZM2791.1 1630.5C2738.9 1630.5 2692.5 1643.84 2651.9 1670.52C2611.3 1697.2 2578.82 1733.74 2554.46 1780.14C2531.26 1825.38 2519.66 1877 2519.66 1935C2519.66 1993 2531.26 2045.2 2554.46 2091.6C2578.82 2136.84 2611.3 2172.8 2651.9 2199.48C2692.5 2226.16 2738.9 2239.5 2791.1 2239.5C2843.3 2239.5 2889.7 2226.16 2930.3 2199.48C2972.06 2172.8 3004.54 2136.84 3027.74 2091.6C3050.94 2045.2 3062.54 1993 3062.54 1935C3062.54 1877 3050.94 1825.38 3027.74 1780.14C3004.54 1733.74 2972.06 1697.2 2930.3 1670.52C2889.7 1643.84 2843.3 1630.5 2791.1 1630.5Z" fill="var(--white)"/>
<path d="M3096.35 913.275C3096.35 1081.45 2960.02 1217.78 2791.84 1217.78C2623.67 1217.78 2487.34 1081.45 2487.34 913.275C2487.34 745.104 2623.67 608.773 2791.84 608.773C2960.02 608.773 3096.35 745.104 3096.35 913.275Z" fill="#FFC224"/>
</svg>
