<svg xmlns:rdf="http://www.w3.org/1999/02/22-rdf-syntax-ns#" xmlns="http://www.w3.org/2000/svg" xmlns:cc="http://creativecommons.org/ns#" xmlns:dc="http://purl.org/dc/elements/1.1/" xml:space="preserve" height="99.518" viewBox="0 0 390.63589 99.518257" width="390.64" version="1.1">
  <g transform="matrix(1.25 0 0 -1.25 -.69613 100.44)">
    <g transform="translate(.73239 .73239)">
      <path d="m67.566 12.902c-0.06188-0.01656-0.13102-0.01852-0.19726 0.0059-0.06125 0.025-0.17062 0.08633-0.20312 0.26758-0.0037 0.0125-0.0039 0.02406-0.0039 0.03906-0.03625 3.0125-4.5175 10.523-4.5625 10.6-0.0063 0.01-3.7852 7.0742-3.7852 7.0742-3.3488 5.9988-1.3756 10.488 2.0156 16.654 0.03875 0.07375 0.11352 0.11914 0.19727 0.11914 0.085 0 0.16047-0.04484 0.19922-0.12109l9.797-18.033c2.935-5.6312 0.22-10.382-2.4062-14.982l-0.83398-1.4746c-0.015-0.025-0.03414-0.04766-0.05664-0.06641-0.0425-0.03438-0.09828-0.06547-0.16016-0.08203zm0.05273 0.32031v0.01172c0 0.0075-0.0034 0.01344-0.0059 0.02344 0-0.0125 0.0059-0.02766 0.0059-0.03516zm-5.7363 68.734c-4.9525 0.0088-9.8494 0.26656-14.641 0.72656-9.2238 0.89-18.017 2.5874-25.92 4.9824-7.7975 2.3625-14.737 5.3893-20.338 8.998-0.25625 0.17125-0.35469 0.49539-0.24219 0.77539 0.115 0.28125 0.4143 0.44211 0.7168 0.38086 18.321-4.2437 38.687-6.3945 60.545-6.3945 21.291 0 42.45 2.0297 59.584 5.7109 0.3225 0.05875 0.63116-0.11766 0.73242-0.41016 0.11125-0.24625 0.003-0.5857-0.26562-0.75195-5.8838-3.645-13.022-6.6374-21.006-8.9199-7.9313-2.2688-16.701-3.8327-25.961-4.584-4.3088-0.3475-8.7251-0.52117-13.205-0.51367z" transform="matrix(.8 0 0 -.8 0 79)" fill="#edad09"/><path d="m48.765 78.748c-0.065 0-0.126-0.037-0.159-0.096l-7.837-14.425c-2.346-4.506-0.174-8.309 1.926-11.987l0.668-1.181c0.011-0.02 0.027-0.039 0.044-0.053 0.068-0.055 0.178-0.1 0.285-0.061 0.051 0.018 0.139 0.073 0.163 0.217 0.003 0.01 0.003 0.018 0.003 0.028 0.028 2.412 3.615 8.417 3.651 8.478 0.006 0.008 3.026 5.66 3.026 5.66 2.679 4.799 1.103 8.393-1.61 13.326-0.031 0.057-0.094 0.094-0.16 0.094zm-5.27-27.551c0 0.004-0.001 0.008-0.001 0.01 0 0.004 0.001 0.008 0.004 0.016 0-0.008-0.003-0.02-0.003-0.028v0.002" fill="#f5d176"/><path d="m196.01 23.305c-10.786 0-17.125 6.4485-17.125 17.791 0 11.34 6.3388 17.844 17.125 17.844 10.784 0 17.125-6.5038 17.125-17.844 0-11.342-6.3412-17.791-17.125-17.791zm-174.69 0.64062-0.0078 8.418h0.42774c4.175 0 5.3164 1.2027 5.3164 5.5977v33.641c0 4.3438-1.1927 5.6016-5.3164 5.6016h-0.42774l0.0078 10.463c7.9025-2.395 16.696-4.0924 25.92-4.9824l0.06055-0.0039-0.002-5.4766h-0.42773c-4.1225 0-5.4473-1.3603-5.4473-5.6016v-24.439c0-0.95125 1.6953-0.96344 2.2266 0.0078 4.25 7.185 14.527 24.729 16.59 28.262 0.15 0.25875 0.87766 1.6679 1.7852 0.11914 1.9362-3.3 12.362-21.144 16.686-28.391 0.6075-0.96375 2.2816-0.96375 2.2754 0 0 6.575-0.0078 24.441-0.0078 24.441 0 4.3438-1.2255 5.6016-5.4668 5.6016h-0.42578v5.2676c9.26 0.75125 18.03 2.3152 25.961 4.584v-9.8516h-0.42188c-4.135 0-5.332-1.2578-5.332-5.6016v-33.641c0-4.395 1.1458-5.5977 5.332-5.5977h0.42188v-8.418h-24.006s-12.006 22.912-15.219 28.967c-0.30375 0.56875-0.99586 0.57633-1.2871 0.01758-3.1462-6.035-15.103-28.984-15.103-28.984h-24.111zm143.45 0.13281-7.5606 15.773c0 0.000001-0.12219 0.39063-0.58594 0.39063-0.46375-0.000001-0.60156-0.39648-0.60156-0.39648l-7.0332-15.744c-2.5025 0.05625-3.9206 0.11133-6.4219 0.11133-2.5575 0-5.0593-0.05508-7.5605-0.11133v2.9453h0.66796c2.7788 0 3.6133 1.2255 3.6133 4.0605v0.27734l-0.33399 19.459c-0.0563 3.0588-0.66734 4.3926-3.5586 4.3926h-0.66797v2.9453c2.5575-0.11 5.0599-0.10938 7.4512-0.10938 2.4462 0 4.8359-0.000625 7.1172 0.10938v-2.9453h-0.66797c-2.835 0-3.5586-1.3338-3.5586-4.3926v-15.596s-0.005-0.81836 0.57031-0.81836c0.4475 0 0.89648 0.84375 0.89648 0.84375l9.2598 16.961s0.3268 0.64648 0.81055 0.64648c0.4975 0 0.82031-0.67188 0.82031-0.67188l9.3242-17.105s0.42461-0.83203 0.88086-0.83203c0.625 0 0.56054 0.82812 0.56054 0.82812v15.719c0 3.06-0.72109 4.3945-3.5586 4.3945h-0.72266v2.9473c2.39-0.11125 4.7803-0.11133 7.2266-0.11133s4.9491 0.000078 7.5078 0.11133v-2.9473h-0.66797c-2.9475 0-3.5048-1.3345-3.5586-4.3945l-0.33399-19.457v-0.33594c0-2.8338 0.77859-4 3.5586-4h0.72071v-2.9473c-2.7238 0.05625-5.2803 0.11133-7.7266 0.11133-2.4462 0-3.6972-0.05508-5.8672-0.11133zm48.121 0.0059v2.9434h0.66797c2.835 0 3.6133 1.2772 3.6133 4.3359v19.461c0 3.0562-0.77828 4.3926-3.6133 4.3926h-0.66797v2.9434c2.4475-0.11 4.836-0.10938 7.2285-0.10938 2.39 0 4.7799-0.000625 7.1699 0.10938v-2.9434h-0.66602c-2.8912 0-3.5566-1.3363-3.5566-4.3926l-0.21093-16.375c-0.00001 0 0.0315-0.51266 0.52148-0.62891 0.49125-0.12 0.71484 0.35547 0.71484 0.35547l11.928 23.984h9.4512v-26.797c0-3.0588 0.72234-4.3359 3.5586-4.3359h0.66602v-2.9434c-2.445 0.05375-4.8375 0.10742-7.2812 0.10742-2.3925 0-4.7259-0.05367-7.1172-0.10742v2.9434h0.66602c2.8925 0 3.5586 1.2772 3.5586 4.3359l0.14063 17.623s0.003 0.53953-0.47071 0.67578c-0.54375 0.155-0.78515-0.41016-0.78515-0.41016l-11.783-25.168h-13.732zm38.51 0v10.283h3.502c-0.0563-0.55625-0.0566-0.99906-0.0566-1.4453 0-3.7262 1.2784-4.7266 5.0059-4.7266h3.002v22.629c0 3.0562-0.72164 4.3926-3.5566 4.3926h-1.168v2.9434c2.8325-0.11 5.6702-0.10938 8.5039-0.10938 2.78 0 5.6174-0.000625 8.4512 0.10938v-2.9434h-1.166c-2.8363 0-3.5586-1.3363-3.5586-4.3926v-22.629h2.4473c4.1125 0 5.3379 0.88805 5.3379 5.2793v0.89258h3.668v-10.283c-5.9512 0-9.5063 0.10742-10.674 0.10742h-9.3945c-1.1138 0-4.5638-0.10742-10.344-0.10742zm41.441 0-10.289 25.904c-1.3338 3.3912-2.4449 5.116-4.6699 5.2285v2.9434c2.3362-0.11 4.728-0.10938 7.2305-0.10938 2.5 0 5.0569-0.000625 7.6719 0.10938v-2.9434c-2.9488-0.16875-4.0605-0.44852-4.0605-2.4473 0-0.61 0.16867-1.2238 0.38867-1.8926l1.1191-3.5195 12.998 0.002 1.0605 2.7949c0.39 1.225 0.55664 2.0573 0.55664 2.5586 0 1.8362-1.2214 2.3914-4.2226 2.5039v2.9434c1.2162-0.04875 9.2474-0.1543 14.326-0.1543 5.3225 0 14.557 0.12555 15.256 0.1543v-2.9434h-0.66602c-2.89 0-3.5566-1.3363-3.5566-4.3926l-0.0957-16.375s0.0283-0.51016 0.51953-0.62891c0.49125-0.12 0.7168 0.35547 0.7168 0.35547l11.812 23.984h9.4492v-26.797c0-3.0588 0.72485-4.3359 3.5586-4.3359h0.66992v-2.9434c-2.4488 0.05375-4.8389 0.10742-7.2852 0.10742-2.3912 0-4.7272-0.05367-7.1172-0.10742v2.9434h0.66601c2.8912 0 3.5625 1.2772 3.5625 4.3359l0.14063 17.623s0.004 0.53953-0.47071 0.67578c-0.545 0.155-0.78906-0.41016-0.78906-0.41016l-11.781-25.168h-13.732v2.9434h0.66797c2.8338 0 3.6113 1.2772 3.6113 4.3359v19.461c0 3.0562-0.77758 4.3926-3.6113 4.3926h-0.008c-2.6688-0.27875-3.4474-2.2245-4.6699-5.3945l-9.8398-25.738h-9.1172zm72.629 0-10.285 25.904c-1.335 3.3912-2.4462 5.116-4.6699 5.2285v2.9434c2.335-0.11 4.7221-0.10938 7.2246-0.10938s5.0615-0.000625 7.6777 0.10938v-2.9434c-2.9488-0.16875-4.0606-0.44852-4.0606-2.4473 0-0.61 0.16797-1.2238 0.38672-1.8926l1.1699-3.5527 13.066 0.0059 0.9414 2.8242c0.39125 1.225 0.55664 2.0573 0.55664 2.5586 0 1.8362-1.2234 2.3914-4.2246 2.5039v2.9434c2.6675-0.11 5.283-0.10938 7.9492-0.10938 2.615 0 5.2802-0.000625 7.8965 0.10938v-2.9434c-2.67-0.27875-3.4506-2.2245-4.6719-5.3945l-9.8398-25.738h-9.1172zm-169.46 3.39c5.8925 0 9.1172 4.6682 9.1172 13.564 0 8.8938-3.2822 13.512-9.1172 13.512-5.7825 0-9.1211-4.6742-9.1211-13.512 0-8.8962 3.2824-13.564 9.1211-13.564zm100.97 2.15c0.4725 0 0.60742 0.41992 0.60742 0.41992l4.2637 13.086-10.074-0.05078 4.5918-13.029s0.13633-0.42578 0.61133-0.42578zm72.629 0c0.47499 0 0.61132 0.41992 0.61132 0.41992l4.2344 13.086h-10.125l4.6719-13.08s0.13367-0.42578 0.60743-0.42578zm-228.21 37.051c-4.7038 0-7.2812 2.067-7.2812 5.3633 0 2.4 1.4394 3.7459 4.3457 5.0059l3.5078 1.502c1.4675 0.6275 2.0977 1.288 2.0977 2.5742 0 1.8-1.2278 2.7891-3.4766 2.7891-2.7888 0-4.2266-1.1996-4.2266-3.5684 0-0.11625 0.0312-0.26922 0.0312-0.41797h-2.1894v5.1875c2.25 0.5075 4.465 0.77539 6.5938 0.77539 4.8538 0 7.4609-2.0074 7.4609-5.4824 0-2.2212-1.287-3.8099-3.8945-4.8574l-3.8066-1.5273c-1.5875-0.6325-2.3086-1.3512-2.3086-2.6387 0-1.5888 1.3491-2.6992 3.5078-2.6992 2.4875 0 3.8574 1.0188 3.8574 3.2988 0 0.18125-0.00055 0.38836-0.0293 0.59961h2.0762v-5.0605c-2.25-0.5425-4.3469-0.84375-6.2656-0.84375zm195.91 0.40039c-4.6075 0-7.1289 2.0396-7.1289 5.2871 0 2.3675 1.4096 3.693 4.2559 4.9355l3.4336 1.4766c1.435 0.6175 2.0508 1.2741 2.0508 2.5391 0 1.775-1.2018 2.75-3.4043 2.75-2.7275 0-4.1348-1.182-4.1348-3.5195 0-0.11375 0.0312-0.26516 0.0312-0.41016h-2.1445v5.1074c2.2012 0.50625 4.3708 0.77148 6.457 0.77148 4.7525 0 7.3066-1.9807 7.3066-5.4082 0-2.1875-1.2646-3.7527-3.8184-4.7852l-3.7207-1.5059c-1.5562-0.6225-2.2617-1.3321-2.2617-2.5996 0-1.5675 1.3197-2.6582 3.4297-2.6582 2.44 0 3.7812 1.0062 3.7812 3.25 0 0.18-0.00055 0.38234-0.0293 0.58984h2.0312v-4.9922c-2.2025-0.5325-4.256-0.82812-6.1348-0.82812zm-166.7 0.10352-5.5664 14.018c-0.72125 1.8362-1.3213 2.7719-2.3301 2.8281v1.5957c1.0662-0.06125 2.3586-0.06055 3.7148-0.06055 1.3525 0 2.7368-0.000703 4.1543 0.06055v-1.5957c-1.5988-0.09125-2.1992-0.24047-2.1992-1.3242 0-0.32875 0.0909-0.65773 0.21094-1.0215l0.7832-2.3477h6.7676l0.66211 1.957c0.20875 0.66125 0.30078 1.1116 0.30078 1.3828 0 0.99375-0.66086 1.2973-2.2871 1.3535v1.5957c1.445-0.06125 2.8583-0.06055 4.3008-0.06055 1.4162 0 2.8591-0.000703 4.2754 0.06055v-1.5957c-1.445-0.14875-1.8648-1.2042-2.5273-2.918l-5.3242-13.928h-4.9356zm103.57 0.12109v1.582c1.0138 0.09125 1.4294 0.71539 1.9082 2.0254l5.5449 14.965h4.3223l5.3672-15.084c0.38375-1.1325 0.83891-1.7012 1.9102-1.9062v-1.5195-0.0625c-1.0713 0.03125-2.2365 0.0625-3.459 0.0625-1.255 0-2.565-0.03125-4-0.0625v1.582c1.465 0 2.1523 0.29797 2.1523 1.0742 0 0.2075-0.0336 0.47594-0.12109 0.77344l-3.5234 10.623s-0.10101 0.23242-0.32226 0.23242c-0.2225 0-0.33985-0.23633-0.33985-0.23633l-3.6855-10.678c-0.11875-0.3275-0.17969-0.59539-0.17969-0.80664 0-0.83125 0.62719-0.92117 2.1484-0.98242v-1.582c-1.6425 0.03125-3.1303 0.0625-4.4141 0.0625-1.2812 0-2.3836-0.03125-3.3086-0.0625zm-125.44 0.04687v5.2227h1.8789c-0.0288-0.005-0.0293-0.24476-0.0293-0.47852 0-2 0.68289-2.5391 2.6816-2.5391h1.6113v12.137c0 1.64-0.38695 2.3535-1.9082 2.3535h-0.62696v1.5801c1.5212-0.06125 3.0425-0.06055 4.5625-0.06055 1.49 0 3.0097-0.000703 4.3359 0.06055v-1.5801h-0.43164c-1.52 0-1.9082-0.71352-1.9082-2.3535v-12.137h1.3125c2.2062 0 2.8613 0.47383 2.8613 2.8301v0.1875h1.9688v-5.2227c-3.19 0-5.0984 0.05859-5.7246 0.05859h-5.0371c-0.5975 0-2.4456-0.05859-5.5469-0.05859zm32.305 0v5.248h1.877c-0.0288-0.03125-0.0293-0.27016-0.0293-0.50391 0.00001-2 0.68485-2.5391 2.6836-2.5391h1.6113v12.137c0 1.64-0.38946 2.3535-1.9082 2.3535h-0.28515v1.5801c1.5212-0.06125 2.6994-0.06055 4.2207-0.06055 1.49 0 3.01-0.000703 4.5312 0.06055v-1.5801h-0.62695c-1.5212 0-1.9062-0.71352-1.9062-2.3535v-12.137h1.3125c2.2025 0 2.8594 0.47383 2.8594 2.8301v0.21289h1.9688v-5.248c-3.1925 0-5.0996 0.05859-5.7246 0.05859h-5.0391c-0.59625 0-2.4449-0.05859-5.5449-0.05859zm42.469 0v1.5801h0.35547c1.1938 0 1.4609 0.77422 1.4609 2.3242v8.4395c0 4.2338 2.4134 6.3496 7.3359 6.3496 5.2475 0 7.3066-2.2057 7.3066-7.0957v-7.6934c0-1.58 0.41524-2.3242 1.4902-2.3242h0.44726v-1.5801c-1.1912 0.03125-2.3874 0.05859-3.6387 0.05859-1.2212 0-2.4453-0.02734-3.7266-0.05859v1.5801h0.35742c1.5225 0 1.9043 0.68547 1.9043 2.3242v7.9609c0 2.8912-1.1312 4.2637-3.8438 4.2637-2.8025 0-3.7266-1.3419-3.7266-4.2031v-8.0215c-0.00001-1.7288 0.3014-2.3242 1.9414-2.3242h0.35547v-1.5801c-1.2825 0.03125-2.6216 0.05859-3.9629 0.05859-1.315 0-2.6879-0.02734-4.0566-0.05859zm41.197 0v1.5801h0.35547c1.5212 0 1.9082 0.68547 1.9082 2.3242v10.438c0 1.64-0.38696 2.3535-1.9082 2.3535h-0.35547v1.5801c1.4288-0.06125 2.8603-0.06055 4.2891-0.06055 1.405 0 2.833-0.000703 4.2617 0.06055v-1.5801h-0.38477c-1.5188 0-1.9082-0.71352-1.9082-2.3535v-10.438c0-1.6388 0.38945-2.3242 1.9082-2.3242h0.38477v-1.5801c-1.4288 0.03125-2.8567 0.05859-4.2617 0.05859-1.4288 0-2.8603-0.02734-4.2891-0.05859zm46.9 0v1.5801h0.35742c1.5188 0 1.9102 0.68547 1.9102 2.3242v10.438c0 1.64-0.3914 2.3535-1.9102 2.3535h-0.35742v1.5801c1.4288-0.06125 2.861-0.06055 4.291-0.06055 1.4025 0 2.8349-0.000703 4.2637 0.06055v-1.5801h-0.38867c-1.5175 0-1.9062-0.71352-1.9062-2.3535v-4.1445h1.4316c1.6425 0 2.5642 0.47422 2.9805 1.668 0.56875 1.5825 0.65406 3.8764 1.7578 6.4102h4.6406v-1.6465c-0.495-0.1025-0.89453-0.33523-1.207-0.70898-0.5375-0.6275-0.74782-1.9684-1.2266-3.8184-0.50625-1.8775-0.92429-2.7398-2.623-2.9785 2.09-0.50625 3.2188-1.9676 3.2188-4.2051 0-3.6075-2.4439-4.918-7.6602-4.918h-7.5723zm33.941 0v1.5801h0.35352c1.5212 0 1.9102 0.68547 1.9102 2.3242v10.438c0 1.64-0.3889 2.3535-1.9102 2.3535h-0.35352v1.5801c1.43-0.06125 2.8585-0.06055 4.291-0.06055 1.3975 0 2.8324-0.000703 4.2637 0.06055v-1.5801h-0.38867c-1.5188 0-1.9062-0.71352-1.9062-2.3535v-10.438c0-1.6388 0.3875-2.3242 1.9062-2.3242h0.38867v-1.5801c-1.4312 0.03125-2.8662 0.05859-4.2637 0.05859-1.4325 0-2.861-0.02734-4.291-0.05859zm9.6621 0v5.1992h1.877c-0.0312 0.0175-0.0312-0.22133-0.0312-0.45508 0-2 0.6868-2.5391 2.6856-2.5391h1.6074v12.137c0 1.64-0.3857 2.3535-1.9082 2.3535h-0.62695v1.5801c1.5238-0.06125 3.0412-0.06055 4.5625-0.06055 1.4912 0 3.0093-0.000703 4.5293 0.06055v-1.5801h-0.62304c-1.52 0-1.9082-0.71352-1.9082-2.3535v-12.137h1.3125c2.2038 0 2.8613 0.47383 2.8613 2.8301 0 0.14875 0.00016 0.30031 0.004 0.16406h1.9648v-5.1992c-3.1912 0-5.0998 0.05859-5.7285 0.05859h-5.0352c-0.595 0-2.4455-0.05859-5.543-0.05859zm16.77 0v1.5801c1.2212 0.06 1.8193 0.74305 2.5293 1.9668l4.1777 7.2441v3.7578c0 1.5812-0.32609 2.1465-2.0273 2.1465h-0.41797v1.5801c1.4588-0.06125 2.9242-0.06055 4.3555-0.06055 1.46 0 2.8898-0.000703 4.291 0.06055v-1.5801h-0.41601c-1.7325 0-2.0293-0.56524-2.0293-2.1465v-3.6973l4.4453-7.2754c0.80501-1.3112 1.3673-1.9961 2.3223-1.9961h0.11914v-1.5801c-1.165 0.03125-2.3531 0.05859-3.5469 0.05859-1.2225 0-2.4441-0.02734-3.7266-0.05859v1.5801c1.0138 0 1.4609 0.26633 1.4609 0.95508 0 0.29375-0.11812 0.71586-0.32812 1.1309l-1.9902 3.9141s-0.12953 0.2168-0.33203 0.2168c-0.1975 0-0.32812-0.22656-0.32812-0.22656l-2-4.0508c-0.21125-0.42-0.35743-0.77617-0.35743-1.0762 0-0.59625 0.4161-0.86328 1.3711-0.86328h0.14843v-1.5801c-1.34 0.03125-2.6823 0.05859-3.9648 0.05859s-2.5346-0.02734-3.7559-0.05859zm-128.9 0.03125v1.5957h0.36133c1.5338 0 1.9551 0.69 1.9551 2.3438v10.531c0 1.6562-0.42133 2.375-1.9551 2.375h-0.36133v1.5938c1.3212-0.06125 2.6164-0.06055 3.9102-0.06055 1.2912 0 2.5871-0.000703 3.8809 0.06055v-1.5938h-0.36133c-1.565 0-1.9258-0.71875-1.9258-2.375l-0.0508-9.4824c0-0.000001 0.0182-0.27609 0.2832-0.33984 0.26375-0.06375 0.38476 0.19336 0.38476 0.19336l6.3926 13.598h5.1152v-14.5c0-1.6538 0.38937-2.3438 1.9219-2.3438h0.36328v-1.5957c-1.3238 0.0275-2.6144 0.05859-3.9394 0.05859-1.2938 0-2.561-0.03109-3.8535-0.05859v1.5957h0.36329c1.565 0 1.9238 0.69 1.9238 2.3438l0.0781 9.5352s0.003 0.29344-0.25195 0.36719c-0.29625 0.085-0.42969-0.22266-0.42969-0.22266l-6.375-13.619h-7.4297zm-44.822 0.02734v1.5215h0.35937c1.5175 0 1.9082 0.68547 1.9082 2.3242v10.438c0 1.5788-0.2982 2.3535-1.9082 2.3535h-0.35937v1.5801h14.967v-5.7246h-1.6699c-0.06 3.1912-0.71476 3.5781-3.6973 3.5781h-3.3359v-6.3223h1.1602c1.85 0 2.2967 0.35867 2.3867 2.3262h1.6094v-6.6172h-1.6094c-0.0312 2.0312-0.53656 2.3848-2.5078 2.3848h-1.0391v-5.6953h3.666c2.2062 0 3.1914 0.35774 3.1914 2.084v0.80859h1.6992v-5.0391h-14.82zm95.832 0v1.5215h0.35742c1.5188 0 1.9102 0.68547 1.9102 2.3242v10.438c-0.00001 1.5788-0.30016 2.3535-1.9102 2.3535h-0.35742v1.5801h14.965v-5.7246h-1.666c-0.0613 3.1912-0.71546 3.5781-3.6992 3.5781h-3.3379v-6.3223h1.1602c1.8512 0 2.298 0.35867 2.3867 2.3262h1.6133v-6.6172h-1.6133c-0.03 2.0312-0.53586 2.3848-2.5059 2.3848h-1.041v-5.6953h3.666c2.2062 0 3.1934 0.35774 3.1934 2.084v0.80859h1.6992v-5.0391h-14.82zm23.777 2.1465h1.5215c2.5075 0 3.6387 0.83586 3.6387 3.0996 0 2.1775-1.1928 2.957-3.7891 2.957h-1.3711v-6.0566zm-145.02 0.625c0.255 0 0.33008 0.22852 0.33008 0.22852l2.1543 6.6992h-5.2031l2.3906-6.6973s0.0706-0.23047 0.32812-0.23047z" transform="matrix(.8 0 0 -.8 0 79)" fill="#003f7f"/>
    </g>
  </g>
</svg>
