<svg width="162" height="30" viewBox="0 0 162 30" fill="none" xmlns="http://www.w3.org/2000/svg">
  <path d="M12.9922 12.2641C9.20458 11.2094 7.05503 10.3905 7.05503 8.08421C7.05503 6.36601 8.53916 5.19549 11.2353 5.19549C13.6806 5.19549 16.0973 6.43531 17.6869 8.37472C17.6984 8.39111 17.7099 8.40554 17.727 8.42323C17.9344 8.66708 18.2444 8.82103 18.5914 8.82103C18.8215 8.82103 19.035 8.75223 19.214 8.6332L19.3219 8.55324C19.3309 8.54721 19.3366 8.5423 19.3424 8.53656L19.4414 8.46008L21.7076 6.73911L22.0121 6.50604C22.2083 6.29527 22.3307 6.01684 22.3307 5.707C22.3307 5.46772 22.2597 5.24626 22.1346 5.06153C22.1346 5.05906 22.1317 5.05579 22.1317 5.05579C22.0978 5.0129 22.0635 4.96754 22.0291 4.92477C19.9195 2.25491 16.5554 0 11.2747 0C5.06447 0 0.844616 3.24166 0.844616 8.6332C0.844616 14.6867 6.23599 16.0149 11.3914 17.4594C15.182 18.5146 17.2521 19.4523 17.2521 21.6395C17.2521 23.8661 15.1422 24.9609 12.2132 24.9609C9.29287 24.9609 6.70553 23.6019 5.03319 21.122C5.03026 21.1162 5.02745 21.1105 5.02175 21.1051C5.01026 21.0879 4.99915 21.0704 4.98749 21.054C4.97932 21.0393 4.9677 21.0248 4.95902 21.0109C4.73757 20.7044 4.37071 20.5054 3.95521 20.5054C3.74507 20.5054 3.5489 20.5561 3.37528 20.6441L3.37251 20.6473L3.25294 20.7183L0.770909 22.1918L0.66542 22.2532L0.477924 22.3642C0.187874 22.5774 0 22.9186 0 23.3059C0 23.4935 0.0429331 23.6695 0.122342 23.8264L0.233239 24.0048C2.485 27.554 6.22748 30 11.9005 30C19.9477 30 23.4623 25.8592 23.4623 21.2104C23.4623 15.2326 18.0713 13.6325 12.9922 12.2641Z" fill="var(--black)"/>
  <path d="M38.5701 14.2582H34.2341V6.90704H34.237C34.237 6.26174 34.757 5.7442 35.4026 5.74143H38.5701C42.554 5.74143 43.9984 7.26539 43.9984 9.96095C43.9984 12.7342 42.5142 14.2582 38.5701 14.2582ZM38.4142 0.545435H29.0699C28.4271 0.545435 27.9041 1.06625 27.9041 1.71172V28.2878C27.9041 28.9301 28.4271 29.4534 29.0699 29.4534H33.0713C33.6933 29.4534 34.2027 28.962 34.2341 28.3478V19.1799H38.3345C44.1158 19.1799 50.209 17.5787 50.209 9.80422C50.209 2.18666 44.5845 0.545435 38.4142 0.545435Z" fill="var(--black)"/>
  <path d="M58.2481 18.3981L61.6459 8.5533H61.7226L65.044 18.3981H58.2481ZM65.1811 1.2595C65.169 1.21937 65.1551 1.17975 65.1384 1.14323C64.9614 0.722498 64.5459 0.429346 64.063 0.429346H59.6619C59.1378 0.429346 58.6946 0.773272 58.5466 1.24771L48.5966 29.4534H53.6236C54.1473 29.4534 54.5908 29.1094 54.7388 28.6348L56.6842 23.0068H66.5287L68.3621 28.51V28.5129L68.4565 28.7884C68.6418 29.1839 69.0451 29.4534 69.5084 29.4534H75.1224L65.1811 1.2595Z" fill="var(--black)"/>
  <path d="M89.058 13.6325H84.7211V6.90704C84.7211 6.26422 85.2448 5.74143 85.8871 5.74143H89.058C92.7287 5.74143 94.4867 6.79564 94.4867 9.6483C94.4867 12.577 92.7287 13.6325 89.058 13.6325ZM94.6829 17.7351C98.5498 16.5638 100.7 14.0619 100.7 9.49174C100.7 3.08528 96.4397 0.545435 89.331 0.545435H79.6375C78.9952 0.545435 78.4715 1.06919 78.4715 1.71172V28.2878C78.4715 28.9301 78.9952 29.4534 79.6375 29.4534H83.5555C84.2012 29.4534 84.7211 28.9301 84.7211 28.2878V18.5548H88.3926L94.0343 28.7712L94.1194 28.9301C94.1224 28.9334 94.1257 28.9363 94.1257 28.9363C94.3303 29.2491 94.6884 29.4534 95.0921 29.4534H101.129L94.6829 17.7351Z" fill="var(--black)"/>
  <path d="M128.023 19.8568C128.01 19.8539 127.992 19.8511 127.978 19.8453L124.389 19.0485C124.386 19.0461 124.384 19.0461 124.381 19.0461L124.199 19.0065C124.148 18.9978 124.097 18.9953 124.042 18.9953C123.553 18.9953 123.131 19.2991 122.962 19.7286L122.959 19.7307C122.942 19.7883 122.925 19.8453 122.905 19.9018C122.905 19.9046 122.905 19.9046 122.905 19.9046C121.864 23.1381 120.195 24.8844 117.133 24.8844C112.759 24.8844 110.336 21.054 110.336 14.9604C110.336 8.98283 112.68 5.27247 117.056 5.27247C120.065 5.27247 121.512 7.04946 122.457 9.76489C122.601 10.2452 123.048 10.5923 123.571 10.5923C123.641 10.5923 123.713 10.5865 123.781 10.5693L123.804 10.5636C123.844 10.5559 123.884 10.5441 123.92 10.5325L123.974 10.515L127.617 9.45157L127.767 9.40947C128.223 9.24734 128.547 8.80925 128.547 8.29695C128.547 8.17544 128.53 8.05914 128.496 7.94778C128.484 7.91009 128.473 7.87357 128.462 7.83672C128.459 7.82821 128.455 7.8225 128.452 7.81676C126.999 3.27554 123.781 0 117.092 0C109.791 0 103.97 4.922 103.97 14.9604C103.97 25.1571 109.555 30 117.092 30C123.787 30 127.233 26.5536 128.831 21.4607C128.834 21.4548 128.837 21.449 128.84 21.4405C128.857 21.3811 128.877 21.318 128.894 21.2558C128.896 21.2497 128.896 21.2445 128.899 21.2383C128.913 21.1618 128.922 21.0822 128.922 21.0024C128.922 20.448 128.538 19.9793 128.023 19.8568Z" fill="var(--black)"/>
  <path d="M137.723 27.4387C137.6 27.4387 137.57 27.3158 137.631 27.0729L144.395 15.465L130.959 15.5567C130.776 15.5567 130.685 15.465 130.685 15.2823V14.7337C130.745 14.5511 130.836 14.4597 130.959 14.4597L144.395 14.5511L137.631 2.94338C137.508 2.82058 137.54 2.69886 137.723 2.57769L138.18 2.30337C138.24 2.18052 138.363 2.21213 138.546 2.39477L145.217 14.0942L151.89 2.39477C152.011 2.21213 152.133 2.18052 152.256 2.30337L152.713 2.57769C152.834 2.69886 152.864 2.82058 152.804 2.94338L146.04 14.5511L159.476 14.4597C159.659 14.4597 159.75 14.5511 159.75 14.7337V15.2823C159.75 15.465 159.659 15.5567 159.476 15.5567L146.04 15.465L152.804 27.0729C152.864 27.2556 152.834 27.3773 152.713 27.4387L152.256 27.7125C152.072 27.7728 151.95 27.7428 151.89 27.6213L145.217 15.9219L138.546 27.6213C138.423 27.8042 138.301 27.8342 138.18 27.7125L137.723 27.4387Z" fill="#DB2333"/>
  <path d="M138.326 29.8818C137.84 29.8818 137.374 29.7261 136.98 29.4375L136.847 29.3576C136.509 29.2138 136.21 28.9856 135.978 28.6871C135.662 28.2816 135.34 27.5831 135.599 26.5588L135.671 26.2727L140.733 17.5862L130.974 17.653C129.608 17.653 128.589 16.6338 128.589 15.2823V14.3981L128.693 14.0794C129.036 13.0369 129.925 12.3633 130.959 12.3633L140.733 12.4296L135.893 4.1245C135.569 3.67152 135.417 3.1235 135.473 2.57258C135.513 2.16509 135.71 1.39682 136.564 0.830307L136.876 0.640965C137.264 0.317541 137.756 0.13361 138.281 0.13361C138.923 0.13361 139.51 0.395147 140.027 0.91156L140.226 1.11084L145.217 9.86244L150.145 1.23272C150.61 0.53422 151.326 0.13361 152.109 0.13361C152.594 0.13361 153.062 0.289705 153.456 0.579252L154.012 0.913198L154.195 1.09529C154.949 1.84917 155.142 2.93646 154.687 3.86573L154.615 3.99855L149.703 12.4296L159.462 12.3633C160.827 12.3633 161.846 13.3822 161.846 14.7336V15.2823C161.846 16.6338 160.827 17.653 159.476 17.653L149.703 17.5862L154.726 26.2078L154.795 26.4167C155.168 27.5495 154.741 28.7017 153.755 29.2575L153.133 29.6309L152.91 29.704C151.77 30.0787 150.587 29.6131 150.053 28.6329L145.217 20.1533L140.286 28.7895C139.82 29.4837 139.106 29.8818 138.326 29.8818Z" fill="#DB2333"/>
</svg>
