<svg xmlns="http://www.w3.org/2000/svg" viewBox="0 0 295 97">
  <path fill="#121212" d="M66.9 51.7l3.1-1.6c.4-.2 1.8-.7 2-1.1V9.5v-.9h-3.2c-.8 0-.7.1-1.2.7l-5.7 7.6-2.6 3.5c-.6.8-.6.9-1.7.9l.3-6.6.2-4.8.1-1.8v-.9c.2-.3 2-.1 2.5-.1H99.4c.2.1.1.7.1 1l.2 4 .4 8.6v.6c-.5 0-.9.1-1.3-.2-.4-.3-.7-.9-1-1.3l-3.7-4.9-3.6-4.8c-.2-.3-.5-1-.9-1.2-.3-.2-.9-.1-1.3-.1h-2.8l-.1.3c-.2.8 0 1.8 0 2.6v34.8c0 .7-.2 1.7 0 2.4s1.8 1.2 2.5 1.5c.7.4 1.9.7 2.5 1.3.2.2.4 1.2.2 1.5H66.9v-1.5zm37.1-1.8V7.5c0-.6.2-1.5 0-2.1-.2-.7-1.4-.8-2.1-1.1-.4-.1-1.7-.4-1.9-.8v-.8h.3c.4-.2 1.2-.2 1.7-.3l2.6-.5 6.1-1.1 3.6-.7c.3 0 1.5-.2 1.6 0v21.3a17.8 17.8 0 0115.7-4.6c4.6 1.1 6.1 5.4 6.1 9.8v21.2c0 .5-.2 1.7 0 2.2.1.2.5.3.7.5l2.2 1.2.4.3v1.1c-.1.2-.1.1-.4.1-1.1.2-2.3 0-3.3 0h-15.1v-1.3c.3-.4 1.5-.8 1.9-1.1.3-.2 1.2-.5 1.4-.8.2-.3 0-1.4 0-1.7v-4.1-17.5c0-1.7-.3-3.7-2-4.6-.9-.5-2.1-.6-3.1-.6-.8 0-1.6.2-2.3.4-.6.2-1.7.6-2.1 1.1-.3.4-.1 1-.1 1.5v23.6c0 .5-.2 1.5 0 1.9.1.2.5.4.8.5l2.3 1.2.3.2V53l-.4.1h-18.5c-.1-.1 0-1.1.1-1.3.3-.4 1.4-.8 1.8-1l1.7-.9zm47.5-13.8c.2 4.4 1.6 9.3 5.6 11.7 2.1 1.2 4.7 1.6 7.1 1.4 2.9-.3 5.3-1.7 7.8-3v1.5c-.2.4-.7.9-1 1.2l-1.4 1.3a18.2 18.2 0 01-5.6 3.1 21.6 21.6 0 01-12.1.2c-3.1-.8-5.9-2.3-8-4.7a17.2 17.2 0 01-3.8-8.7c-1.1-6.9.2-14.8 5.9-19.4 5-4 13-4.8 18.9-2.4 7.2 2.9 8.4 11.1 8.4 17.9h-19.1l-2.7-.1zm-.2-1.7l6.1-.4 3.7-.2.9-.1c.3-.2.1-2.2.1-2.6-.1-3.6-.2-8-2.3-11.1-1.5-2.2-3.8-1.8-5.2.2-2.9 3.9-3.3 9.7-3.3 14.2zM-.1 70.9c0-5.6 1.1-11.4 4.2-16.1 3-4.6 7.8-7.6 13-9.1a44 44 0 0123.9.6c.2.1 1.1.3 1.2.5v.3c.3 1.2.1 2.7.1 3.9l.2 9.4h-1.4c-.2-.1-.4-.6-.5-.8a46 46 0 01-2.3-3.7l-5.2-8.1c-.9-1.5-3.4-1.5-5-1.5-1.8 0-3.6.3-5.1 1.2-3.4 2.1-5 6.2-5.9 9.9a64.6 64.6 0 00-1 18.1 42 42 0 002.5 13.7c1.1 2.6 3 4.9 5.9 5.5.9.2 1.8.2 2.8.1.6-.1 2.7-.2 3-.8V76.7c0-.7.2-1-.4-1.4L27.7 74c-.5-.3-1.5-.6-1.8-1-.2-.2-.3-1.3-.1-1.5.1-.2.1-.1.4-.1.9-.2 2.1 0 3 0h19v1.7c-.2.3-1.2.7-1.6.9l-2.2 1.3c-.8.4-.7.4-.7 1.3v17.2c-.2.5-2.3.8-2.9 1A45.4 45.4 0 0125 96.7a28.7 28.7 0 01-16.1-4.8 21 21 0 01-7.8-12.1C.2 77-.1 73.9-.1 70.9zM46 61.8v-1.1l.3-.1c.6-.3 1.4-.3 2.1-.4l7-1.2 5.3-.9a3 3 0 011.6.1c.5.1.3 0 .4.4.2 1.2 0 2.6 0 3.8v20.9c0 2.5-.7 7.1 1.7 8.6 1.2.8 2.9.8 4.3.5 1.1-.2 3.2-1 3.6-2.2V64.7v-1c-.3-.3-1.3-.6-1.6-.7l-1.7-.7c-.2-.1-.9-.2-1-.4v-1.1l.2-.1c.5-.3 1.4-.2 1.9-.3 4.1-.7 8.3-1.6 12.5-2.2h1.5c.5.1.3-.1.4.4.2 1 0 2.4 0 3.5v30c.1.3 0 .2.5.4l3.1 1.3c.3.1.4.1.5.3v.9c-.2.2-1.2.1-1.4.2l-6.7.8-5.9.7h-1.2l-.9-.1v-2.9c0-.3.2-1.1 0-1.4-.2-.3-.6.1-.9.3-.8.7-1.7 1.4-2.6 1.9-3.3 2-7.4 2.9-11.2 2.1a8.7 8.7 0 01-6.4-4.9c-.9-1.9-1.1-4-1.1-6v-21-1c-.2-.3-1.4-.6-1.7-.8L46 61.8zm94.3-3.8c.2 0 1.1 0 1.2.2v11c.4.4.5-.9.6-1 .9-3.7 2.6-8 6.4-9.5a8 8 0 012.1-.5c.6 0 2.3-.2 2.6.3v11.1a18.4 18.4 0 00-10.5 1.1c-.5.2-.6.1-.7.5v21.5c.2.3.9.5 1.2.6l1.6.9c.2.1.5.2.6.4V96h-17.5c-.5 0-1.4.2-1.8 0h-.3v-1.3c.2-.6 1.5-1 2.1-1.3.4-.2 1.2-.5 1.4-.9V63.7 63l-.8-.2-1.8-.5c-.6-.2-2.1-.3-1.6-1.3.1-.3.5-.2.9-.3l13.1-2.4 1.2-.3zm37.7.9V48.6v-1.2c-.1-.2-.5-.3-.8-.4l-2.5-.9c-.6-.2-.9-.1-.9-.8 0-.6-.1-.4.4-.5 1.1-.4 2.4-.4 3.5-.6l9.8-1.8c.7-.1 1.4-.3 2.1-.2.8.1.9-.1.9.6V91.5c0 .4-.1.4.2.6.6.4 1.6.6 2.2.8.4.1 1.5.3 1.7.6v1.3l-.8.1-4.1.5-9.4 1.2c-.5.1-1.7.3-1.9-.1-.2-.4 0-1.7 0-2.1 0-.3.2-1.6 0-1.8-.2-.2-2.4 1.8-2.7 2-1.2.8-2.5 1.4-3.9 1.8-2.2.6-4.7.6-6.9.1-9.6-2.2-11.6-13.6-10.8-21.9a20 20 0 014.8-12c2.8-2.9 6.6-4.4 10.5-4.7 3-.3 5.9-.1 8.6 1zm0 31.9V61.6c0-.6-.1-.7-.8-1.1a5.6 5.6 0 00-4.7-.5c-2.3.9-3.4 3.6-4 5.8-1.2 4-1.3 8.3-1.2 12.5.1 3.6.2 8 2.2 11.2a5.8 5.8 0 008.5 1.3zM211.1 58c.5.1 1.1-.1 1.3.4v34c.1.4.5.5.9.7l1.7.9c.2.1.8.3.9.6V96H198.3c-.4 0-1.5.2-1.8 0-.2-.1-.3-1.3-.1-1.5.2-.3.9-.5 1.2-.6l1.8-1c.5-.3.4-.2.4-.6.2-1.5 0-3.2 0-4.7V65.3v-1.5c-.1-.4-.6-.4-1-.6l-2-.8c-.2-.1-1-.2-1.2-.5v-1.2l.4-.1c.8-.3 1.7-.3 2.6-.5l3.8-.7 7.4-1.3c.5.1.9 0 1.3-.1zm1.4-9.3c-.2 6-8.3 8.6-12 3.9-1.7-2.2-1.8-5.2-.3-7.5s4.4-3.3 7.1-2.7c3 .6 5.2 3.2 5.2 6.3zm43.8 43.9V63.9v-.7c-.1-.2-.7-.3-.9-.3l-1.8-.6c-.3-.1-1.1-.2-1.3-.5-.2-.2-.1-.7-.1-1 0-.6.2-.5.8-.6l6.6-1.2 6.6-1.2 1.1-.2 1.4.1v2.8c0 .3-.2 1.2 0 1.5.2.4.6 0 .9-.3a19.3 19.3 0 0114.8-4.1c2.8.4 5.1 1.9 6.1 4.6.7 1.9.8 3.9.8 5.9v24.3c.1.4.4.5.9.7l1.6.9c.2.1.9.3 1 .6v1.3c-.1.2.1 0-.2.1-.4.2-1.3 0-1.8 0h-14.3c-.6 0-2.9.3-3.2-.1v-1.4c.1-.2.7-.4.9-.5l1.7-.9c.2-.1.8-.3.9-.5.1-.2 0-.6 0-.8V69.1c0-1.6.1-3.4-.9-4.8-.8-1.2-2.2-1.5-3.6-1.6-1.1 0-2.1.1-3.1.4-.5.2-2 .6-2.3 1.2-.1.2 0 .6 0 .8v27.2c.1.4.7.5 1 .7l1.6.9.7.4v1.4c0 .1-.1 0-.2 0-.4.2-1.4 0-1.8 0h-16.8c-.5 0-.6.1-.7-.2v-1.3c.1-.2.7-.4.9-.5 1-.1 1.8-.6 2.7-1.1zm-21.2-18.4c0-2.6.1-5.3-.1-8-.3-2.9-1.1-6.1-4.4-6.7-1-.2-2.8-.5-3.5.3-.7.7-1.2 1.7-1.8 2.5l-5.1 6.9c-.3.4-.6 1.2-1 1.4h-1.1v-9.1-1.1c.2-.5 2.4-.8 2.9-1 2.8-.7 5.7-1.2 8.6-1.4 4.1-.3 8.7-.2 12.5 1.6 3 1.4 4.9 3.9 5.4 7.1.3 1.6.2 3.4.2 5v20c0 .3-.2 1.1 0 1.3l.7.2 2.3.6c.5.1.6.1.6.6s.1.5-.5.7l-2.1.8c-3.7 1.1-9.5 1.4-12.2-2-.2-.3-.8-1.6-1.1-1.7-.4-.1-1.6 1.5-2 1.8a11.2 11.2 0 01-5.8 2.5c-3.9.5-8.1-.3-10.5-3.7-2-2.9-2.4-7.4-.9-10.6 2.7-6.1 10.7-6.7 16.5-7.7l2.4-.3zm0 16.6V76c-3 .2-6.1.4-7.2 3.7-.8 2.2-.8 4.8-.5 7.1.2 1.6.6 3.6 2.1 4.6 1.6 1.1 4.3.9 5.6-.6zM108.5 74.2c0-2.6.1-5.3-.1-8-.3-2.9-1.1-6.1-4.4-6.7-1-.2-2.8-.5-3.5.3-.7.7-1.2 1.7-1.8 2.5l-5.1 6.9c-.3.4-.6 1.2-1 1.4h-1.1v-9-1.1c.2-.5 2.3-.8 2.9-1 2.8-.7 5.7-1.2 8.5-1.4 4.1-.3 8.7-.2 12.5 1.6 3 1.4 4.9 3.9 5.4 7.1.3 1.6.2 3.4.2 5v20c0 .3-.2 1.1 0 1.3l.7.2 2.3.6c.5.1.6.1.6.6s.1.5-.5.7l-2.1.8c-3.7 1.1-9.5 1.4-12.2-2-.2-.3-.8-1.6-1.1-1.7-.4-.1-1.6 1.5-1.9 1.8a11.2 11.2 0 01-5.8 2.5c-3.9.5-8.1-.3-10.5-3.7-2-2.9-2.4-7.4-.9-10.6 2.7-6.1 10.7-6.7 16.4-7.7l2.5-.4zm0 16.6V76c-3 .2-6.1.4-7.2 3.7-.8 2.2-.8 4.8-.5 7.1.2 1.6.6 3.6 2.1 4.6 1.6 1.1 4.3.9 5.6-.6z"/>
</svg>
