<svg width="36" height="961" viewBox="0 0 36 961" fill="none" xmlns="http://www.w3.org/2000/svg">
  <path d="M10.4609 960.867C10.4609 957.893 8.97817 954.799 5.75383 951.574C2.3115 948.132 0.460938 944.559 0.460938 940.867C0.460938 937.175 2.3115 933.602 5.75383 930.16C8.97817 926.936 10.4609 923.842 10.4609 920.867C10.4609 917.893 8.97817 914.799 5.75383 911.574C2.3115 908.132 0.460938 904.559 0.460938 900.867C0.460938 897.175 2.3115 893.602 5.75383 890.16C8.97817 886.936 10.4609 883.842 10.4609 880.867C10.4609 877.893 8.97817 874.799 5.75383 871.574C2.3115 868.132 0.460938 864.559 0.460938 860.867C0.460938 857.175 2.3115 853.602 5.75383 850.16C8.97817 846.936 10.4609 843.842 10.4609 840.867C10.4609 837.893 8.97817 834.799 5.75383 831.574C2.3115 828.132 0.460938 824.559 0.460938 820.867C0.460938 817.175 2.3115 813.602 5.75383 810.16C8.97817 806.936 10.4609 803.842 10.4609 800.867C10.4609 797.893 8.97817 794.799 5.75383 791.574C2.3115 788.132 0.460938 784.559 0.460938 780.867C0.460938 777.175 2.3115 773.602 5.75383 770.16C8.97817 766.936 10.4609 763.842 10.4609 760.867C10.4609 757.893 8.97817 754.799 5.75383 751.574C2.3115 748.132 0.460938 744.559 0.460938 740.867C0.460938 737.175 2.3115 733.602 5.75383 730.16C8.97817 726.936 10.4609 723.842 10.4609 720.867C10.4609 717.893 8.97817 714.799 5.75383 711.574C2.3115 708.132 0.460938 704.559 0.460938 700.867C0.460938 697.175 2.3115 693.602 5.75383 690.16C8.97817 686.936 10.4609 683.842 10.4609 680.867C10.4609 677.893 8.97817 674.799 5.75383 671.574C2.3115 668.132 0.460938 664.559 0.460938 660.867C0.460938 657.175 2.3115 653.602 5.75383 650.16C8.97817 646.936 10.4609 643.842 10.4609 640.867C10.4609 637.893 8.97817 634.799 5.75383 631.574C2.3115 628.132 0.460938 624.559 0.460938 620.867C0.460938 617.175 2.3115 613.602 5.75383 610.16C8.97817 606.936 10.4609 603.842 10.4609 600.867C10.4609 597.893 8.97817 594.799 5.75383 591.574C2.3115 588.132 0.460938 584.559 0.460938 580.867C0.460938 577.175 2.3115 573.602 5.75383 570.16C8.97817 566.936 10.4609 563.842 10.4609 560.867C10.4609 557.893 8.97817 554.799 5.75383 551.574C2.3115 548.132 0.460938 544.559 0.460938 540.867C0.460938 537.175 2.3115 533.602 5.75383 530.16C8.97817 526.936 10.4609 523.842 10.4609 520.867C10.4609 517.893 8.97817 514.799 5.75383 511.574C2.3115 508.132 0.460938 504.559 0.460938 500.867C0.460938 497.175 2.3115 493.602 5.75383 490.16C8.97817 486.936 10.4609 483.842 10.4609 480.867C10.4609 477.893 8.97817 474.799 5.75383 471.574C2.3115 468.132 0.460938 464.559 0.460938 460.867C0.460938 457.175 2.3115 453.602 5.75383 450.16C8.97817 446.936 10.4609 443.842 10.4609 440.867C10.4609 437.893 8.97817 434.799 5.75383 431.574C2.3115 428.132 0.460938 424.559 0.460938 420.867C0.460938 417.175 2.3115 413.602 5.75383 410.16C8.97817 406.936 10.4609 403.842 10.4609 400.867C10.4609 397.893 8.97817 394.799 5.75383 391.574C2.3115 388.132 0.460938 384.559 0.460938 380.867C0.460938 377.175 2.3115 373.602 5.75383 370.16C8.97817 366.936 10.4609 363.842 10.4609 360.867C10.4609 357.893 8.97817 354.799 5.75383 351.574C2.3115 348.132 0.460938 344.559 0.460938 340.867C0.460938 337.175 2.3115 333.602 5.75383 330.16C8.97817 326.936 10.4609 323.842 10.4609 320.867C10.4609 317.893 8.97817 314.799 5.75383 311.574C2.3115 308.132 0.460938 304.559 0.460938 300.867C0.460938 297.175 2.3115 293.602 5.75383 290.16C8.97817 286.936 10.4609 283.842 10.4609 280.867C10.4609 277.893 8.97817 274.799 5.75383 271.574C2.3115 268.132 0.460938 264.559 0.460938 260.867C0.460938 257.175 2.3115 253.602 5.75383 250.16C8.97817 246.936 10.4609 243.842 10.4609 240.867C10.4609 237.893 8.97817 234.799 5.75383 231.574C2.3115 228.132 0.460938 224.559 0.460938 220.867C0.460938 217.175 2.3115 213.602 5.75383 210.16C8.97817 206.936 10.4609 203.842 10.4609 200.867C10.4609 197.893 8.97817 194.799 5.75383 191.574C2.3115 188.132 0.460938 184.559 0.460938 180.867C0.460938 177.175 2.3115 173.602 5.75383 170.16C8.97817 166.936 10.4609 163.842 10.4609 160.867C10.4609 157.893 8.97817 154.799 5.75383 151.574C2.3115 148.132 0.460938 144.559 0.460938 140.867C0.460938 137.175 2.3115 133.602 5.75383 130.16C8.97817 126.936 10.4609 123.842 10.4609 120.867C10.4609 117.893 8.97817 114.799 5.75383 111.574C2.3115 108.132 0.460938 104.559 0.460938 100.867C0.460938 97.1751 2.3115 93.6024 5.75383 90.1601C8.97817 86.9357 10.4609 83.8418 10.4609 80.8672C10.4609 77.8926 8.97817 74.7986 5.75383 71.5743C2.3115 68.132 0.460938 64.5593 0.460938 60.8672C0.460938 57.1751 2.3115 53.6024 5.75383 50.1601C8.97817 46.9357 10.4609 43.8418 10.4609 40.8672C10.4609 37.8926 8.97817 34.7986 5.75383 31.5743C2.3115 28.132 0.460938 24.5593 0.460938 20.8672C0.460938 17.1751 2.3115 13.6024 5.75383 10.1601C8.97817 6.93573 10.4609 3.84176 10.4609 0.867188H35.6174V960.867H10.4609Z" fill="black"/>
</svg>
