<svg width="54" height="54" viewBox="0 0 54 54" fill="none" xmlns="http://www.w3.org/2000/svg" class="drawn">
  <path d="M10.3816 48.9717C10.6229 47.2334 11.1685 46.304 11.707 45.7656C12.2454 45.2271 13.1748 44.6815 14.9131 44.4402C18.1577 43.9898 21.1404 42.7711 23.4411 40.4704C25.7418 38.1696 26.9605 35.187 27.4109 31.9424C27.6522 30.2041 28.1978 29.2747 28.7363 28.7363C29.2747 28.1978 30.2041 27.6522 31.9424 27.4109C35.187 26.9605 38.1697 25.7418 40.4704 23.4411C42.7711 21.1404 43.9898 18.1577 44.4402 14.9131C44.6815 13.1748 45.2271 12.2454 45.7656 11.707C46.304 11.1685 47.2334 10.6229 48.9717 10.3816C51.5535 10.0232 53.3319 7.63482 52.948 5.05633C52.5652 2.48539 50.1755 0.687807 47.6015 1.04511C44.3569 1.4955 41.3742 2.7142 39.0735 5.01492C36.7728 7.31565 35.5541 10.2983 35.1037 13.5429C34.8624 15.2812 34.3168 16.2106 33.7783 16.749C33.2399 17.2875 32.3105 17.8331 30.5722 18.0744C27.3276 18.5248 24.345 19.7435 22.0442 22.0442C19.7435 24.345 18.5248 27.3276 18.0744 30.5722C17.8331 32.3105 17.2875 33.2399 16.749 33.7783C16.2106 34.3168 15.2812 34.8624 13.5429 35.1037C10.2983 35.5541 7.31566 36.7728 5.01493 39.0735C2.7142 41.3742 1.4955 44.3569 1.04511 47.6015C0.687807 50.1755 2.48539 52.5652 5.05633 52.948C7.63482 53.3319 10.0232 51.5535 10.3816 48.9717Z" fill="#00FFD1" stroke="#00FFD1" stroke-width="2" stroke-linecap="round" stroke-linejoin="round" class="color-1"/>
</svg>
