<svg width="258" height="30" viewBox="0 0 258 30" fill="none" xmlns="http://www.w3.org/2000/svg" style="height: 30px;">
<path d="M257.29 21.1771C257.29 26.039 253.349 29.9804 248.487 29.9804C243.625 29.9804 239.684 26.039 239.684 21.1771C239.684 16.3151 243.625 12.3738 248.487 12.3738C253.349 12.3738 257.29 16.3151 257.29 21.1771Z" fill="#00FFD0"/>
<path d="M18.0876 22.1168V29.3431H0V22.1168H4.94891V7.22628H0V0H18.0876V7.22628H13.1387V22.1168H18.0876Z" fill="currentColor"/>
<path d="M30.553 7.0073V9.89781C31.2538 8.93431 32.1005 8.10219 33.0932 7.40146C34.1151 6.70073 35.3706 6.35037 36.8596 6.35037C39.137 6.35037 40.991 7.12409 42.4217 8.67153C43.8815 10.219 44.6114 12.5109 44.6114 15.5474V29.3431H37.0786L37.0348 16.7299C37.0348 15.6204 36.7282 14.8467 36.1151 14.4088C35.5019 13.9416 34.8158 13.708 34.0567 13.708C33.2392 13.708 32.553 13.927 31.9983 14.365C31.4436 14.7737 30.9618 15.2701 30.553 15.854V29.3431H23.0202V7.0073H30.553Z" fill="currentColor"/>
<path d="M58.3195 6.35037C59.7793 6.35037 61.1224 6.56934 62.3487 7.0073C63.6041 7.41606 64.6114 7.9854 65.3706 8.71533V14.6277C64.6114 14.1606 63.7501 13.7226 62.7866 13.3139C61.8231 12.8759 60.7866 12.6569 59.6771 12.6569C58.9764 12.6569 58.3487 12.8029 57.7939 13.0949C57.2684 13.3577 57.0056 13.781 57.0056 14.365C57.0056 14.7737 57.1662 15.0803 57.4873 15.2847C57.8085 15.4891 58.4363 15.708 59.3706 15.9416L60.7282 16.292C64.6114 17.2847 66.553 19.3723 66.553 22.5547C66.553 24.0146 66.1151 25.3139 65.2392 26.4526C64.3925 27.562 63.2684 28.438 61.8669 29.0803C60.4946 29.6934 59.0056 30 57.3998 30C55.7355 30 54.1881 29.7664 52.7574 29.2993C51.3268 28.8029 50.1005 28.2044 49.0786 27.5037V21.635C50.1297 22.2774 51.3122 22.8175 52.626 23.2555C53.9691 23.6934 55.1662 23.9124 56.2173 23.9124C57.064 23.9124 57.6771 23.8102 58.0567 23.6058C58.4655 23.4015 58.6698 23.0365 58.6698 22.5109C58.6698 22.1022 58.4363 21.7956 57.9691 21.5912C57.5019 21.3577 56.8304 21.0949 55.9545 20.8029L53.7209 20.1022C52.0859 19.6058 50.8888 18.8321 50.1297 17.781C49.3706 16.7007 48.991 15.3869 48.991 13.8394C48.991 12.292 49.3998 10.9635 50.2173 9.85401C51.0348 8.74453 52.1443 7.88321 53.5457 7.27007C54.9764 6.65693 56.5676 6.35037 58.3195 6.35037Z" fill="currentColor"/>
<path d="M80.1527 0.437956V7.0073H86.0213V12.9197H80.1527V19.1825C80.1527 20.2628 80.3717 21.1241 80.8096 21.7664C81.2768 22.3796 81.9191 22.6861 82.7366 22.6861C84.0213 22.6861 85.2038 22.365 86.2841 21.7226V27.5912C85.8169 28.2336 85.0724 28.8029 84.0505 29.2993C83.0578 29.7664 81.8315 30 80.3717 30C78.9702 30 77.6855 29.6788 76.5177 29.0365C75.3498 28.3942 74.4009 27.4745 73.6709 26.2774C72.9702 25.0803 72.6199 23.635 72.6199 21.9416V12.9197H68.8534V8.32117C70.2841 7.94161 71.6855 7.12409 73.0578 5.86861C74.4593 4.58394 75.4812 2.77372 76.1235 0.437956H80.1527Z" fill="currentColor"/>
<path d="M99.4228 6.35037C100.591 6.35037 101.729 6.61314 102.839 7.13869C103.978 7.63504 104.912 8.27737 105.642 9.06569V7.0073H113.175V29.3431H105.642V25.6204C105.087 26.8467 104.24 27.8832 103.102 28.7299C101.963 29.5766 100.591 30 98.9848 30C97.3206 30 95.7585 29.5766 94.2987 28.7299C92.8388 27.8832 91.6418 26.5839 90.7074 24.8321C89.8023 23.0511 89.3498 20.8175 89.3498 18.1314C89.3498 15.6204 89.8023 13.4891 90.7074 11.7372C91.6418 9.9854 92.868 8.65693 94.3863 7.75183C95.9337 6.81752 97.6126 6.35037 99.4228 6.35037ZM100.999 13.708C99.9191 13.708 99.014 14.146 98.2841 15.0219C97.5834 15.8978 97.233 16.9343 97.233 18.1314C97.233 19.3285 97.598 20.3358 98.3279 21.1533C99.0578 21.9708 100.021 22.3796 101.218 22.3796C101.861 22.3796 102.518 22.219 103.189 21.8978C103.861 21.5474 104.43 21.0365 104.897 20.365C105.394 19.6642 105.642 18.7737 105.642 17.6934V15.5474C104.999 15.0219 104.269 14.5839 103.452 14.2336C102.664 13.8832 101.846 13.708 100.999 13.708Z" fill="currentColor"/>
<path d="M125.857 7.0073V9.89781C126.558 8.93431 127.404 8.10219 128.397 7.40146C129.419 6.70073 130.674 6.35037 132.163 6.35037C134.441 6.35037 136.295 7.12409 137.725 8.67153C139.185 10.219 139.915 12.5109 139.915 15.5474V29.3431H132.382L132.339 16.7299C132.339 15.6204 132.032 14.8467 131.419 14.4088C130.806 13.9416 130.12 13.708 129.36 13.708C128.543 13.708 127.857 13.927 127.302 14.365C126.747 14.7737 126.266 15.2701 125.857 15.854V29.3431H118.324V7.0073H125.857Z" fill="currentColor"/>
<path d="M154.499 0.437956V7.0073H160.368V12.9197H154.499V19.1825C154.499 20.2628 154.718 21.1241 155.156 21.7664C155.623 22.3796 156.266 22.6861 157.083 22.6861C158.368 22.6861 159.55 22.365 160.631 21.7226V27.5912C160.163 28.2336 159.419 28.8029 158.397 29.2993C157.404 29.7664 156.178 30 154.718 30C153.317 30 152.032 29.6788 150.864 29.0365C149.696 28.3942 148.747 27.4745 148.017 26.2774C147.317 25.0803 146.966 23.635 146.966 21.9416V12.9197H143.2V8.32117C144.631 7.94161 146.032 7.12409 147.404 5.86861C148.806 4.58394 149.828 2.77372 150.47 0.437956H154.499Z" fill="currentColor"/>
<path d="M184.193 22.1168V29.3431H166.105V22.1168H171.054V7.22628H166.105V0H184.193V7.22628H179.244V22.1168H184.193Z" fill="currentColor"/>
<path d="M196.881 0V22.1168H210.064V29.3431H188.692V0H196.881Z" fill="currentColor"/>
<path d="M221.877 0V22.1168H235.059V29.3431H213.687V0H221.877Z" fill="currentColor"/>
<path d="M221.877 0V22.1168H235.059V29.3431H213.687V0H221.877Z" fill="currentColor"/>
</svg>
