<svg width="10292" height="1238" viewBox="0 0 10292 1238" fill="none" xmlns="http://www.w3.org/2000/svg">
  <path d="M8099.85 646.927C8099.85 795.452 7979.45 915.855 7830.93 915.855C7682.4 915.855 7562 795.452 7562 646.927C7562 498.403 7682.4 378 7830.93 378C7979.45 378 8099.85 498.403 8099.85 646.927Z" fill="#00FFD1"/>
  <path d="M552.549 675.635V896.387H0V675.635H151.182V220.752H0V0H552.549V220.752H401.367V675.635H552.549Z" fill="white"/>
  <path d="M983.35 214.062V302.363C1004.76 272.93 1030.62 247.51 1060.95 226.104C1092.16 204.697 1130.52 193.994 1176.01 193.994C1245.58 193.994 1302.21 217.63 1345.92 264.902C1390.51 312.174 1412.81 382.191 1412.81 474.951V896.387H1182.7L1181.36 511.074C1181.36 477.181 1171.99 453.545 1153.26 440.166C1134.53 425.895 1113.57 418.76 1090.38 418.76C1065.41 418.76 1044.45 425.449 1027.5 438.828C1010.55 451.315 995.837 466.478 983.35 484.316V896.387H753.232V214.062H983.35Z" fill="white"/>
  <path d="M1831.57 193.994C1876.17 193.994 1917.2 200.684 1954.66 214.062C1993.01 226.549 2023.78 243.942 2046.97 266.24V446.855C2023.78 432.585 1997.47 419.206 1968.04 406.719C1938.6 393.34 1906.94 386.65 1873.05 386.65C1851.64 386.65 1832.46 391.11 1815.52 400.029C1799.46 408.057 1791.44 420.99 1791.44 438.828C1791.44 451.315 1796.34 460.68 1806.15 466.924C1815.96 473.167 1835.14 479.857 1863.68 486.992L1905.16 497.695C2023.78 528.021 2083.1 591.794 2083.1 689.014C2083.1 733.61 2069.72 773.301 2042.96 808.086C2017.09 841.979 1982.75 868.737 1939.94 888.359C1898.02 907.09 1852.53 916.455 1803.48 916.455C1752.64 916.455 1705.36 909.32 1661.66 895.049C1617.96 879.886 1580.49 861.602 1549.28 840.195V660.918C1581.39 680.54 1617.51 697.041 1657.65 710.42C1698.68 723.799 1735.24 730.488 1767.35 730.488C1793.22 730.488 1811.95 727.367 1823.54 721.123C1836.03 714.88 1842.28 703.73 1842.28 687.676C1842.28 675.189 1835.14 665.824 1820.87 659.58C1806.6 652.445 1786.08 644.417 1759.33 635.498L1691.09 614.092C1641.15 598.929 1604.58 575.293 1581.39 543.184C1558.2 510.182 1546.6 470.046 1546.6 422.773C1546.6 375.501 1559.09 334.919 1584.06 301.025C1609.04 267.132 1642.93 240.82 1685.74 222.09C1729.45 203.359 1778.06 193.994 1831.57 193.994Z" fill="white"/>
  <path d="M2508.54 13.3789V214.062H2687.82V394.678H2508.54V585.996C2508.54 618.997 2515.23 645.309 2528.61 664.932C2542.88 683.662 2562.51 693.027 2587.48 693.027C2626.73 693.027 2662.85 683.216 2695.85 663.594V842.871C2681.58 862.493 2658.83 879.886 2627.62 895.049C2597.29 909.32 2559.83 916.455 2515.23 916.455C2472.42 916.455 2433.18 906.644 2397.5 887.021C2361.82 867.399 2332.84 839.303 2310.54 802.734C2289.13 766.165 2278.43 722.015 2278.43 670.283V394.678H2163.37V254.199C2207.07 242.604 2249.89 217.63 2291.81 179.277C2334.62 140.033 2365.84 84.7331 2385.46 13.3789H2508.54Z" fill="white"/>
  <path d="M3097.22 193.994C3132.89 193.994 3167.68 202.021 3201.57 218.076C3236.36 233.239 3264.9 252.861 3287.2 276.943V214.062H3517.31V896.387H3287.2V782.666C3270.25 820.127 3244.38 851.79 3209.6 877.656C3174.81 903.522 3132.89 916.455 3083.84 916.455C3033 916.455 2985.28 903.522 2940.68 877.656C2896.09 851.79 2859.52 812.1 2830.98 758.584C2803.33 704.176 2789.5 635.944 2789.5 553.887C2789.5 477.181 2803.33 412.07 2830.98 358.555C2859.52 305.039 2896.98 264.456 2943.36 236.807C2990.63 208.265 3041.92 193.994 3097.22 193.994ZM3145.38 418.76C3112.38 418.76 3084.73 432.139 3062.43 458.896C3041.03 485.654 3030.32 517.318 3030.32 553.887C3030.32 590.456 3041.47 621.227 3063.77 646.201C3086.07 671.175 3115.5 683.662 3152.07 683.662C3171.69 683.662 3191.76 678.757 3212.28 668.945C3232.79 658.242 3250.18 642.633 3264.45 622.119C3279.62 600.713 3287.2 573.509 3287.2 540.508V474.951C3267.57 458.896 3245.28 445.518 3220.3 434.814C3196.22 424.111 3171.25 418.76 3145.38 418.76Z" fill="white"/>
  <path d="M3934.74 214.062V302.363C3956.14 272.93 3982.01 247.51 4012.33 226.104C4043.55 204.697 4081.9 193.994 4127.39 193.994C4196.96 193.994 4253.6 217.63 4297.3 264.902C4341.9 312.174 4364.2 382.191 4364.2 474.951V896.387H4134.08L4132.74 511.074C4132.74 477.181 4123.38 453.545 4104.65 440.166C4085.92 425.895 4064.96 418.76 4041.77 418.76C4016.79 418.76 3995.83 425.449 3978.89 438.828C3961.94 451.315 3947.22 466.478 3934.74 484.316V896.387H3704.62V214.062H3934.74Z" fill="white"/>
  <path d="M4809.72 13.3789V214.062H4988.99V394.678H4809.72V585.996C4809.72 618.997 4816.41 645.309 4829.79 664.932C4844.06 683.662 4863.68 693.027 4888.65 693.027C4927.9 693.027 4964.02 683.216 4997.02 663.594V842.871C4982.75 862.493 4960.01 879.886 4928.79 895.049C4898.46 909.32 4861 916.455 4816.41 916.455C4773.59 916.455 4734.35 906.644 4698.67 887.021C4662.99 867.399 4634.01 839.303 4611.71 802.734C4590.3 766.165 4579.6 722.015 4579.6 670.283V394.678H4464.54V254.199C4508.25 242.604 4551.06 217.63 4592.98 179.277C4635.79 140.033 4667.01 84.7331 4686.63 13.3789H4809.72Z" fill="white"/>
  <path d="M5716.81 675.635V896.387H5164.26V675.635H5315.44V220.752H5164.26V0H5716.81V220.752H5565.62V675.635H5716.81Z" fill="white"/>
  <path d="M6194.43 0V675.635H6597.14V896.387H5944.25V0H6194.43Z" fill="white"/>
  <path d="M7048.01 0V675.635H7450.71V896.387H6797.82V0H7048.01Z" fill="white"/>
  <path d="M9490.24 466.924C9476.87 459.788 9462.59 454.437 9447.43 450.869C9433.16 446.41 9416.21 444.18 9396.59 444.18C9365.37 444.18 9337.72 453.545 9313.64 472.275C9289.56 491.006 9269.94 515.534 9254.78 545.859V896.387H9024.66V214.062H9254.78V335.811C9276.18 299.242 9299.82 267.578 9325.68 240.82C9352.44 214.062 9387.23 200.684 9430.04 200.684C9453.23 200.684 9473.3 204.697 9490.24 212.725V466.924Z" fill="white"/>
  <path d="M9871.54 193.994C9907.22 193.994 9942.01 202.021 9975.9 218.076C10010.7 233.239 10039.2 252.861 10061.5 276.943V214.062H10291.6V876.318C10291.6 948.564 10273.8 1011.45 10238.1 1064.96C10202.4 1119.37 10155.2 1161.74 10096.3 1192.06C10037.4 1222.39 9972.78 1237.55 9902.31 1237.55C9845.23 1237.55 9795.73 1229.52 9753.81 1213.47C9711.89 1198.3 9669.97 1176.9 9628.05 1149.25V945.889C9656.59 961.943 9682.45 976.214 9705.64 988.701C9729.73 1001.19 9755.59 1011 9783.24 1018.13C9810.89 1026.16 9843.45 1030.18 9880.91 1030.18C9936.21 1030.18 9979.91 1014.57 10012 983.35C10045 952.132 10061.5 916.901 10061.5 877.656V782.666C10044.6 820.127 10018.7 851.79 9983.93 877.656C9949.14 903.522 9907.22 916.455 9858.16 916.455C9807.32 916.455 9759.61 903.522 9715.01 877.656C9670.41 851.79 9633.84 812.1 9605.3 758.584C9577.65 704.176 9563.83 635.944 9563.83 553.887C9563.83 477.181 9577.65 412.07 9605.3 358.555C9633.84 305.039 9671.31 264.456 9717.69 236.807C9764.96 208.265 9816.24 193.994 9871.54 193.994ZM9919.71 418.76C9886.71 418.76 9859.06 432.139 9836.76 458.896C9815.35 485.654 9804.65 517.318 9804.65 553.887C9804.65 590.456 9815.8 621.227 9838.1 646.201C9860.39 671.175 9889.83 683.662 9926.4 683.662C9946.02 683.662 9966.09 678.757 9986.6 668.945C10007.1 658.242 10024.5 642.633 10038.8 622.119C10053.9 600.713 10061.5 573.509 10061.5 540.508V474.951C10041.9 458.896 10019.6 445.518 9994.63 434.814C9970.55 424.111 9945.57 418.76 9919.71 418.76Z" fill="white"/>
  <path d="M8571.57 193.994C8618.84 193.994 8664.78 202.913 8709.37 220.752C8753.97 238.59 8794.11 263.564 8829.78 295.674C8865.46 327.783 8893.56 366.136 8914.07 410.732C8935.48 454.437 8946.18 502.601 8946.18 555.225C8946.18 607.848 8935.48 656.458 8914.07 701.055C8893.56 744.759 8865.46 782.666 8829.78 814.775C8794.11 846.885 8753.97 871.859 8709.37 889.697C8664.78 907.536 8618.84 916.455 8571.57 916.455C8524.3 916.455 8478.36 907.536 8433.77 889.697C8389.17 871.859 8349.03 846.885 8313.36 814.775C8277.68 782.666 8249.14 744.759 8227.73 701.055C8207.22 656.458 8196.96 607.848 8196.96 555.225C8196.96 502.601 8207.22 454.437 8227.73 410.732C8249.14 366.136 8277.68 327.783 8313.36 295.674C8349.03 263.564 8389.17 238.59 8433.77 220.752C8478.36 202.913 8524.3 193.994 8571.57 193.994ZM8571.57 414.746C8555.52 414.746 8537.23 418.314 8516.72 425.449C8497.09 432.585 8480.15 446.41 8465.88 466.924C8451.61 486.546 8444.47 515.98 8444.47 555.225C8444.47 593.577 8451.61 623.011 8465.88 643.525C8480.15 664.04 8497.09 677.865 8516.72 685C8537.23 692.135 8555.52 695.703 8571.57 695.703C8588.52 695.703 8606.8 692.135 8626.42 685C8646.05 677.865 8662.99 664.04 8677.26 643.525C8691.53 623.011 8698.67 593.577 8698.67 555.225C8698.67 515.98 8691.53 486.546 8677.26 466.924C8662.99 446.41 8646.05 432.585 8626.42 425.449C8606.8 418.314 8588.52 414.746 8571.57 414.746Z" fill="white"/>
</svg>
