<svg width="7860" height="917" viewBox="0 0 7860 917" fill="none" xmlns="http://www.w3.org/2000/svg" style="height: 30px;">
<path d="M7859.85 646.927C7859.85 795.452 7739.45 915.855 7590.93 915.855C7442.4 915.855 7322 795.452 7322 646.927C7322 498.403 7442.4 378 7590.93 378C7739.45 378 7859.85 498.403 7859.85 646.927Z" fill="#00FFD1"/>
<path d="M552.549 675.635V896.387H0V675.635H151.182V220.752H0V0H552.549V220.752H401.367V675.635H552.549Z" fill="currentColor"/>
<path d="M933.35 214.062V302.363C954.756 272.93 980.622 247.51 1010.95 226.104C1042.16 204.697 1080.52 193.994 1126.01 193.994C1195.58 193.994 1252.21 217.63 1295.92 264.902C1340.51 312.174 1362.81 382.191 1362.81 474.951V896.387H1132.7L1131.36 511.074C1131.36 477.181 1121.99 453.545 1103.26 440.166C1084.53 425.895 1063.57 418.76 1040.38 418.76C1015.41 418.76 994.447 425.449 977.5 438.828C960.553 451.315 945.837 466.478 933.35 484.316V896.387H703.232V214.062H933.35Z" fill="currentColor"/>
<path d="M1781.57 193.994C1826.17 193.994 1867.2 200.684 1904.66 214.062C1943.01 226.549 1973.78 243.942 1996.97 266.24V446.855C1973.78 432.585 1947.47 419.206 1918.04 406.719C1888.6 393.34 1856.94 386.65 1823.05 386.65C1801.64 386.65 1782.46 391.11 1765.52 400.029C1749.46 408.057 1741.44 420.99 1741.44 438.828C1741.44 451.315 1746.34 460.68 1756.15 466.924C1765.96 473.167 1785.14 479.857 1813.68 486.992L1855.16 497.695C1973.78 528.021 2033.1 591.794 2033.1 689.014C2033.1 733.61 2019.72 773.301 1992.96 808.086C1967.09 841.979 1932.75 868.737 1889.94 888.359C1848.02 907.09 1802.53 916.455 1753.48 916.455C1702.64 916.455 1655.36 909.32 1611.66 895.049C1567.96 879.886 1530.49 861.602 1499.28 840.195V660.918C1531.39 680.54 1567.51 697.041 1607.65 710.42C1648.68 723.799 1685.24 730.488 1717.35 730.488C1743.22 730.488 1761.95 727.367 1773.54 721.123C1786.03 714.88 1792.28 703.73 1792.28 687.676C1792.28 675.189 1785.14 665.824 1770.87 659.58C1756.6 652.445 1736.08 644.417 1709.33 635.498L1641.09 614.092C1591.15 598.929 1554.58 575.293 1531.39 543.184C1508.2 510.182 1496.6 470.046 1496.6 422.773C1496.6 375.501 1509.09 334.919 1534.06 301.025C1559.04 267.132 1592.93 240.82 1635.74 222.09C1679.45 203.359 1728.06 193.994 1781.57 193.994Z" fill="currentColor"/>
<path d="M2448.54 13.3789V214.062H2627.82V394.678H2448.54V585.996C2448.54 618.997 2455.23 645.309 2468.61 664.932C2482.88 683.662 2502.51 693.027 2527.48 693.027C2566.73 693.027 2602.85 683.216 2635.85 663.594V842.871C2621.58 862.493 2598.83 879.886 2567.62 895.049C2537.29 909.32 2499.83 916.455 2455.23 916.455C2412.42 916.455 2373.18 906.644 2337.5 887.021C2301.82 867.399 2272.84 839.303 2250.54 802.734C2229.13 766.165 2218.43 722.015 2218.43 670.283V394.678H2103.37V254.199C2147.07 242.604 2189.89 217.63 2231.81 179.277C2274.62 140.033 2305.84 84.7331 2325.46 13.3789H2448.54Z" fill="currentColor"/>
<path d="M3037.22 193.994C3072.89 193.994 3107.68 202.021 3141.57 218.076C3176.36 233.239 3204.9 252.861 3227.2 276.943V214.062H3457.31V896.387H3227.2V782.666C3210.25 820.127 3184.38 851.79 3149.6 877.656C3114.81 903.522 3072.89 916.455 3023.84 916.455C2973 916.455 2925.28 903.522 2880.68 877.656C2836.09 851.79 2799.52 812.1 2770.98 758.584C2743.33 704.176 2729.5 635.944 2729.5 553.887C2729.5 477.181 2743.33 412.07 2770.98 358.555C2799.52 305.039 2836.98 264.456 2883.36 236.807C2930.63 208.265 2981.92 193.994 3037.22 193.994ZM3085.38 418.76C3052.38 418.76 3024.73 432.139 3002.43 458.896C2981.03 485.654 2970.32 517.318 2970.32 553.887C2970.32 590.456 2981.47 621.227 3003.77 646.201C3026.07 671.175 3055.5 683.662 3092.07 683.662C3111.69 683.662 3131.76 678.757 3152.28 668.945C3172.79 658.242 3190.18 642.633 3204.45 622.119C3219.62 600.713 3227.2 573.509 3227.2 540.508V474.951C3207.57 458.896 3185.28 445.518 3160.3 434.814C3136.22 424.111 3111.25 418.76 3085.38 418.76Z" fill="currentColor"/>
<path d="M3844.74 214.062V302.363C3866.14 272.93 3892.01 247.51 3922.33 226.104C3953.55 204.697 3991.9 193.994 4037.39 193.994C4106.96 193.994 4163.6 217.63 4207.3 264.902C4251.9 312.174 4274.2 382.191 4274.2 474.951V896.387H4044.08L4042.74 511.074C4042.74 477.181 4033.38 453.545 4014.65 440.166C3995.92 425.895 3974.96 418.76 3951.77 418.76C3926.79 418.76 3905.83 425.449 3888.89 438.828C3871.94 451.315 3857.22 466.478 3844.74 484.316V896.387H3614.62V214.062H3844.74Z" fill="currentColor"/>
<path d="M4719.72 13.3789V214.062H4898.99V394.678H4719.72V585.996C4719.72 618.997 4726.41 645.309 4739.79 664.932C4754.06 683.662 4773.68 693.027 4798.65 693.027C4837.9 693.027 4874.02 683.216 4907.02 663.594V842.871C4892.75 862.493 4870.01 879.886 4838.79 895.049C4808.46 909.32 4771 916.455 4726.41 916.455C4683.59 916.455 4644.35 906.644 4608.67 887.021C4572.99 867.399 4544.01 839.303 4521.71 802.734C4500.3 766.165 4489.6 722.015 4489.6 670.283V394.678H4374.54V254.199C4418.25 242.604 4461.06 217.63 4502.98 179.277C4545.79 140.033 4577.01 84.7331 4596.63 13.3789H4719.72Z" fill="currentColor"/>
<path d="M5626.81 675.635V896.387H5074.26V675.635H5225.44V220.752H5074.26V0H5626.81V220.752H5475.62V675.635H5626.81Z" fill="currentColor"/>
<path d="M6014.43 0V675.635H6417.14V896.387H5764.25V0H6014.43Z" fill="currentColor"/>
<path d="M6778.01 0V675.635H7180.71V896.387H6527.82V0H6778.01Z" fill="currentColor"/>
<path d="M6778.01 0V675.635H7180.71V896.387H6527.82V0H6778.01Z" fill="currentColor"/>
</svg>
