<svg width="224" height="30" viewBox="0 0 224 30" fill="none" xmlns="http://www.w3.org/2000/svg" style="height: 30px;">
<path d="M223.654 21.3974C223.654 26.1484 219.803 29.9998 215.052 29.9998C210.301 29.9998 206.449 26.1484 206.449 21.3974C206.449 16.6465 210.301 12.795 215.052 12.795C219.803 12.795 223.654 16.6465 223.654 21.3974Z" fill="#BFFF00"/>
<path d="M14.893 0.042796C16.8331 0.042796 18.6876 0.385164 20.4565 1.0699C22.2539 1.72611 23.8516 2.69615 25.2496 3.98003C26.6476 5.26391 27.7461 6.8331 28.5449 8.68759C29.3723 10.5421 29.786 12.6534 29.786 15.0214C29.786 17.3894 29.3723 19.5007 28.5449 21.3552C27.7461 23.2097 26.6476 24.7789 25.2496 26.0628C23.8516 27.3466 22.2539 28.331 20.4565 29.0157C18.6876 29.6719 16.8331 30 14.893 30C12.9529 30 11.0842 29.6719 9.28673 29.0157C7.51783 28.331 5.93438 27.3466 4.53638 26.0628C3.13837 24.7789 2.02568 23.2097 1.19829 21.3552C0.399429 19.5007 0 17.3894 0 15.0214C0 12.6534 0.399429 10.5421 1.19829 8.68759C2.02568 6.8331 3.13837 5.26391 4.53638 3.98003C5.93438 2.69615 7.51783 1.72611 9.28673 1.0699C11.0842 0.385164 12.9529 0.042796 14.893 0.042796ZM14.893 7.5321C13.6091 7.5321 12.4679 7.8602 11.4693 8.5164C10.4708 9.17261 9.6719 10.0713 9.07275 11.2126C8.50214 12.3252 8.21683 13.5949 8.21683 15.0214C8.21683 16.4479 8.50214 17.7318 9.07275 18.873C9.6719 19.9857 10.4708 20.8702 11.4693 21.5264C12.4679 22.1826 13.6091 22.5107 14.893 22.5107C16.1769 22.5107 17.3181 22.1826 18.3167 21.5264C19.3438 20.8702 20.1427 19.9857 20.7133 18.873C21.2839 17.7318 21.5692 16.4479 21.5692 15.0214C21.5692 13.5949 21.2839 12.3252 20.7133 11.2126C20.1427 10.0713 19.3438 9.17261 18.3167 8.5164C17.3181 7.8602 16.1769 7.5321 14.893 7.5321Z" fill="currentColor"/>
<path d="M45.6968 0.256776L58.9635 29.3581H49.634L48.2217 25.5064H39.149L37.7367 29.3581H28.4072L41.6739 0.256776H45.6968ZM43.6853 13.1812L41.5028 19.087H45.8679L43.6853 13.1812Z" fill="currentColor"/>
<path d="M73.4757 0C75.8438 0 77.898 0.356633 79.6384 1.0699C81.4073 1.75464 82.7767 2.72468 83.7468 3.98003C84.7454 5.23538 85.2446 6.69044 85.2446 8.34522C85.2446 9.80029 84.888 11.0556 84.1747 12.1113C83.49 13.1669 82.5913 14.0086 81.4786 14.6362C82.363 14.9501 83.1904 15.3638 83.9608 15.8773C84.7311 16.3623 85.3445 17.0043 85.801 17.8031C86.286 18.602 86.5285 19.6434 86.5285 20.9272C86.5285 22.525 86.015 24.0228 84.9879 25.4208C83.9608 26.7903 82.5485 27.903 80.7511 28.7589C78.9536 29.5863 76.8994 30 74.5884 30C73.276 30 71.8067 29.9287 70.1804 29.786C68.5542 29.6719 66.9993 29.515 65.5157 29.3153C64.0606 29.1155 62.8766 28.9158 61.9636 28.7161V1.1127C63.704 0.770328 65.5442 0.499287 67.4843 0.299572C69.4244 0.0998573 71.4215 0 73.4757 0ZM73.7753 7.23252C72.3203 7.23252 71.0506 7.34665 69.9665 7.57489V12.4964H73.9893C74.9308 12.4964 75.7297 12.2682 76.3859 11.8117C77.0421 11.3552 77.3702 10.6847 77.3702 9.80029C77.3702 9.02996 77.0278 8.41655 76.3431 7.96006C75.6869 7.47504 74.8309 7.23252 73.7753 7.23252ZM69.9665 22.4251C70.5656 22.6248 71.2789 22.7675 72.1063 22.8531C72.9337 22.9101 73.5756 22.9387 74.0321 22.9387C75.2018 22.9387 76.1434 22.7104 76.8566 22.2539C77.5984 21.7974 77.9693 21.127 77.9693 20.2425C77.9693 19.3866 77.5556 18.7732 76.7282 18.4023C75.9008 18.0314 74.9023 17.8459 73.7325 17.8459H69.9665V22.4251Z" fill="currentColor"/>
<path d="M111.907 7.5321V20.6277C111.907 22.5963 111.45 24.2796 110.537 25.6776C109.653 27.0756 108.426 28.1455 106.857 28.8873C105.287 29.6291 103.49 30 101.464 30C99.4387 30 97.6412 29.6291 96.072 28.8873C94.5028 28.1455 93.2618 27.0756 92.3488 25.6776C91.4643 24.2796 91.0221 22.5963 91.0221 20.6277V7.5321H98.383L98.4258 18.6591C98.4258 20.1427 98.6541 21.2268 99.1105 21.9116C99.5956 22.5963 100.38 22.9387 101.464 22.9387C102.548 22.9387 103.319 22.5963 103.775 21.9116C104.26 21.2268 104.503 20.1427 104.503 18.6591L104.546 7.5321H111.907Z" fill="currentColor"/>
<path d="M126.162 1.1127V7.5321H132.367C133.737 7.5321 134.821 7.31812 135.62 6.89016C136.447 6.4622 137.118 5.77746 137.631 4.83595C138.145 3.86591 138.616 2.62482 139.044 1.1127H142.981V7.5321H148.715V13.3096H142.981V19.4294C142.981 20.485 143.195 21.3267 143.623 21.9544C144.079 22.5535 144.707 22.8531 145.506 22.8531C146.761 22.8531 147.917 22.5392 148.972 21.9116V27.6462C148.516 28.2739 147.788 28.8302 146.79 29.3153C145.82 29.7718 144.621 30 143.195 30C141.854 30 140.599 29.6862 139.429 29.0585C138.288 28.4308 137.36 27.5321 136.647 26.3623C135.962 25.1926 135.62 23.7803 135.62 22.1255V13.3096H126.162V19.4294C126.162 20.485 126.376 21.3267 126.804 21.9544C127.26 22.5535 127.888 22.8531 128.687 22.8531C129.942 22.8531 131.098 22.5392 132.153 21.9116V27.6462C131.697 28.2739 130.969 28.8302 129.971 29.3153C129.001 29.7718 127.803 30 126.376 30C125.007 30 123.751 29.6862 122.61 29.0585C121.469 28.4308 120.541 27.5321 119.828 26.3623C119.143 25.1926 118.801 23.7803 118.801 22.1255V13.3096H115.121V8.81598C116.519 8.44508 117.888 7.64622 119.229 6.4194C120.599 5.16405 121.597 3.39515 122.225 1.1127H126.162Z" fill="currentColor"/>
<path d="M163.951 6.89016C165.463 6.89016 166.932 7.17546 168.359 7.74608C169.785 8.31669 171.069 9.11555 172.21 10.1427C173.352 11.1698 174.25 12.3966 174.907 13.8231C175.591 15.2211 175.934 16.7618 175.934 18.4451C175.934 20.1284 175.591 21.6833 174.907 23.1098C174.25 24.5078 173.352 25.7204 172.21 26.7475C171.069 27.7746 169.785 28.5735 168.359 29.1441C166.932 29.7147 165.463 30 163.951 30C162.439 30 160.969 29.7147 159.543 29.1441C158.116 28.5735 156.832 27.7746 155.691 26.7475C154.55 25.7204 153.637 24.5078 152.952 23.1098C152.296 21.6833 151.968 20.1284 151.968 18.4451C151.968 16.7618 152.296 15.2211 152.952 13.8231C153.637 12.3966 154.55 11.1698 155.691 10.1427C156.832 9.11555 158.116 8.31669 159.543 7.74608C160.969 7.17546 162.439 6.89016 163.951 6.89016ZM163.951 13.9515C163.437 13.9515 162.852 14.0656 162.196 14.2939C161.569 14.5221 161.026 14.9643 160.57 15.6205C160.113 16.2482 159.885 17.1897 159.885 18.4451C159.885 19.6719 160.113 20.6134 160.57 21.2696C161.026 21.9258 161.569 22.368 162.196 22.5963C162.852 22.8245 163.437 22.9387 163.951 22.9387C164.493 22.9387 165.078 22.8245 165.706 22.5963C166.333 22.368 166.875 21.9258 167.332 21.2696C167.788 20.6134 168.016 19.6719 168.016 18.4451C168.016 17.1897 167.788 16.2482 167.332 15.6205C166.875 14.9643 166.333 14.5221 165.706 14.2939C165.078 14.0656 164.493 13.9515 163.951 13.9515Z" fill="currentColor"/>
<path d="M187.788 7.5321V10.3566C188.473 9.41512 189.3 8.602 190.27 7.91726C191.269 7.23252 192.496 6.89016 193.951 6.89016C196.176 6.89016 197.988 7.64622 199.386 9.15835C200.812 10.6705 201.526 12.9101 201.526 15.8773V29.3581H194.165L194.122 17.0328C194.122 15.9486 193.822 15.1926 193.223 14.7646C192.624 14.3081 191.954 14.0799 191.212 14.0799C190.413 14.0799 189.743 14.2939 189.201 14.7218C188.658 15.1213 188.188 15.6063 187.788 16.1769V29.3581H180.427V7.5321H187.788Z" fill="currentColor"/>
</svg>
