<svg width="6992" height="938" viewBox="0 0 6992 938" fill="none" xmlns="http://www.w3.org/2000/svg">
<path d="M6991.85 668.927C6991.85 817.452 6871.45 937.855 6722.93 937.855C6574.4 937.855 6454 817.452 6454 668.927C6454 520.403 6574.4 400 6722.93 400C6871.45 400 6991.85 520.403 6991.85 668.927Z" fill="#F55F5F"/>
<path d="M465.586 1.33789C526.237 1.33789 584.212 12.041 639.512 33.4473C695.703 53.9616 745.651 84.2871 789.355 124.424C833.06 164.561 867.399 213.617 892.373 271.592C918.239 329.567 931.172 395.57 931.172 469.6C931.172 543.63 918.239 609.632 892.373 667.607C867.399 725.583 833.06 774.639 789.355 814.775C745.651 854.912 695.703 885.684 639.512 907.09C584.212 927.604 526.237 937.861 465.586 937.861C404.935 937.861 346.514 927.604 290.322 907.09C235.023 885.684 185.521 854.912 141.816 814.775C98.112 774.639 63.3268 725.583 37.4609 667.607C12.487 609.632 0 543.63 0 469.6C0 395.57 12.487 329.567 37.4609 271.592C63.3268 213.617 98.112 164.561 141.816 124.424C185.521 84.2871 235.023 53.9616 290.322 33.4473C346.514 12.041 404.935 1.33789 465.586 1.33789ZM465.586 235.469C425.449 235.469 389.772 245.726 358.555 266.24C327.337 286.755 302.363 314.85 283.633 350.527C265.794 385.312 256.875 425.003 256.875 469.6C256.875 514.196 265.794 554.333 283.633 590.01C302.363 624.795 327.337 652.445 358.555 672.959C389.772 693.473 425.449 703.73 465.586 703.73C505.723 703.73 541.4 693.473 572.617 672.959C604.727 652.445 629.701 624.795 647.539 590.01C665.378 554.333 674.297 514.196 674.297 469.6C674.297 425.003 665.378 385.312 647.539 350.527C629.701 314.85 604.727 286.755 572.617 266.24C541.4 245.726 505.723 235.469 465.586 235.469Z" fill="white"/>
<path d="M1428.57 8.02734L1843.32 917.793H1551.66L1507.51 797.383H1223.88L1179.73 917.793H888.066L1302.81 8.02734H1428.57ZM1365.69 412.07L1297.46 596.699H1433.93L1365.69 412.07Z" fill="white"/>
<path d="M2297 0C2371.03 0 2435.25 11.1491 2489.66 33.4473C2544.96 54.8535 2587.77 85.179 2618.1 124.424C2649.31 163.669 2664.92 209.157 2664.92 260.889C2664.92 306.377 2653.77 345.622 2631.47 378.623C2610.07 411.624 2581.97 437.936 2547.19 457.559C2574.84 467.37 2600.7 480.303 2624.79 496.357C2648.87 511.52 2668.04 531.589 2682.31 556.562C2697.48 581.536 2705.06 614.092 2705.06 654.229C2705.06 704.176 2689 751.003 2656.89 794.707C2624.79 837.52 2580.63 872.305 2524.44 899.062C2468.25 924.928 2404.03 937.861 2331.79 937.861C2290.76 937.861 2244.82 935.632 2193.98 931.172C2143.14 927.604 2094.53 922.699 2048.15 916.455C2002.67 910.212 1965.65 903.968 1937.11 897.725V34.7852C1991.52 24.082 2049.05 15.6087 2109.7 9.36523C2170.35 3.12174 2232.78 0 2297 0ZM2306.37 226.104C2260.88 226.104 2221.19 229.671 2187.29 236.807V390.664H2313.06C2342.49 390.664 2367.46 383.529 2387.98 369.258C2408.49 354.987 2418.75 334.027 2418.75 306.377C2418.75 282.295 2408.05 263.118 2386.64 248.848C2366.13 233.685 2339.37 226.104 2306.37 226.104ZM2187.29 701.055C2206.03 707.298 2228.32 711.758 2254.19 714.434C2280.06 716.217 2300.12 717.109 2314.39 717.109C2350.96 717.109 2380.4 709.974 2402.7 695.703C2425.89 681.432 2437.48 660.472 2437.48 632.822C2437.48 606.064 2424.55 586.888 2398.68 575.293C2372.82 563.698 2341.6 557.9 2305.03 557.9H2187.29V701.055Z" fill="white"/>
<path d="M3498.43 235.469V644.863C3498.43 706.406 3484.16 759.03 3455.62 802.734C3427.97 846.439 3389.61 879.886 3340.56 903.076C3291.5 926.266 3235.31 937.861 3171.98 937.861C3108.66 937.861 3052.46 926.266 3003.41 903.076C2954.35 879.886 2915.55 846.439 2887.01 802.734C2859.36 759.03 2845.54 706.406 2845.54 644.863V235.469H3075.65L3076.99 583.32C3076.99 629.701 3084.13 663.594 3098.4 685C3113.56 706.406 3138.09 717.109 3171.98 717.109C3205.88 717.109 3229.96 706.406 3244.23 685C3259.39 663.594 3266.97 629.701 3266.97 583.32L3268.31 235.469H3498.43Z" fill="white"/>
<path d="M3944.08 34.7852V235.469H4138.08C4180.89 235.469 4214.78 228.779 4239.76 215.4C4265.62 202.021 4286.58 180.615 4302.64 151.182C4318.69 120.856 4333.41 82.0573 4346.79 34.7852H4469.87V235.469H4649.15V416.084H4469.87V607.402C4469.87 640.404 4476.56 666.715 4489.94 686.338C4504.21 705.068 4523.83 714.434 4548.81 714.434C4588.05 714.434 4624.18 704.622 4657.18 685V864.277C4642.91 883.9 4620.16 901.292 4588.95 916.455C4558.62 930.726 4521.16 937.861 4476.56 937.861C4434.64 937.861 4395.4 928.05 4358.83 908.428C4323.15 888.805 4294.16 860.71 4271.87 824.141C4250.46 787.572 4239.76 743.421 4239.76 691.689V416.084H3944.08V607.402C3944.08 640.404 3950.77 666.715 3964.15 686.338C3978.42 705.068 3998.04 714.434 4023.02 714.434C4062.26 714.434 4098.39 704.622 4131.39 685V864.277C4117.12 883.9 4094.37 901.292 4063.15 916.455C4032.83 930.726 3995.37 937.861 3950.77 937.861C3907.96 937.861 3868.71 928.05 3833.04 908.428C3797.36 888.805 3768.37 860.71 3746.07 824.141C3724.67 787.572 3713.96 743.421 3713.96 691.689V416.084H3598.91V275.605C3642.61 264.01 3685.42 239.036 3727.34 200.684C3770.16 161.439 3801.37 106.139 3821 34.7852H3944.08Z" fill="white"/>
<path d="M5125.44 215.4C5172.71 215.4 5218.65 224.32 5263.24 242.158C5307.84 259.997 5347.98 284.971 5383.65 317.08C5419.33 349.189 5447.43 387.542 5467.94 432.139C5489.35 475.843 5500.05 524.007 5500.05 576.631C5500.05 629.255 5489.35 677.865 5467.94 722.461C5447.43 766.165 5419.33 804.072 5383.65 836.182C5347.98 868.291 5307.84 893.265 5263.24 911.104C5218.65 928.942 5172.71 937.861 5125.44 937.861C5078.17 937.861 5032.23 928.942 4987.64 911.104C4943.04 893.265 4902.9 868.291 4867.23 836.182C4831.55 804.072 4803.01 766.165 4781.6 722.461C4761.09 677.865 4750.83 629.255 4750.83 576.631C4750.83 524.007 4761.09 475.843 4781.6 432.139C4803.01 387.542 4831.55 349.189 4867.23 317.08C4902.9 284.971 4943.04 259.997 4987.64 242.158C5032.23 224.32 5078.17 215.4 5125.44 215.4ZM5125.44 436.152C5109.38 436.152 5091.1 439.72 5070.59 446.855C5050.96 453.991 5034.02 467.816 5019.75 488.33C5005.48 507.952 4998.34 537.386 4998.34 576.631C4998.34 614.984 5005.48 644.417 5019.75 664.932C5034.02 685.446 5050.96 699.271 5070.59 706.406C5091.1 713.542 5109.38 717.109 5125.44 717.109C5142.39 717.109 5160.67 713.542 5180.29 706.406C5199.92 699.271 5216.86 685.446 5231.13 664.932C5245.4 644.417 5252.54 614.984 5252.54 576.631C5252.54 537.386 5245.4 507.952 5231.13 488.33C5216.86 467.816 5199.92 453.991 5180.29 446.855C5160.67 439.72 5142.39 436.152 5125.44 436.152Z" fill="white"/>
<path d="M5870.64 235.469V323.77C5892.05 294.336 5917.92 268.916 5948.24 247.51C5979.46 226.104 6017.81 215.4 6063.3 215.4C6132.87 215.4 6189.51 239.036 6233.21 286.309C6277.81 333.581 6300.11 403.597 6300.11 496.357V917.793H6069.99L6068.65 532.48C6068.65 498.587 6059.29 474.951 6040.56 461.572C6021.83 447.301 6000.87 440.166 5977.68 440.166C5952.7 440.166 5931.74 446.855 5914.79 460.234C5897.85 472.721 5883.13 487.884 5870.64 505.723V917.793H5640.53V235.469H5870.64Z" fill="white"/>
</svg>
