<svg width="14773" height="1255" viewBox="0 0 14773 1255" fill="none" xmlns="http://www.w3.org/2000/svg">
  <path d="M465.586 1.33346C526.237 1.33346 584.212 12.0012 639.512 33.3366C695.703 53.7831 745.651 84.0083 789.355 124.012C833.06 164.016 867.399 212.91 892.373 270.693C918.239 328.477 931.172 394.261 931.172 468.046C931.172 541.831 918.239 607.615 892.373 665.399C867.399 723.182 833.06 772.076 789.355 812.08C745.651 852.084 695.703 882.753 639.512 904.089C584.212 924.535 526.237 934.759 465.586 934.759C404.935 934.759 346.514 924.535 290.322 904.089C235.023 882.753 185.521 852.084 141.816 812.08C98.112 772.076 63.3268 723.182 37.4609 665.399C12.487 607.615 0 541.831 0 468.046C0 394.261 12.487 328.477 37.4609 270.693C63.3268 212.91 98.112 164.016 141.816 124.012C185.521 84.0083 235.023 53.7831 290.322 33.3366C346.514 12.0012 404.935 1.33346 465.586 1.33346ZM465.586 234.69C425.449 234.69 389.772 244.913 358.555 265.359C327.337 285.806 302.363 313.809 283.633 349.368C265.794 384.038 256.875 423.597 256.875 468.046C256.875 512.495 265.794 552.499 283.633 588.058C302.363 622.728 327.337 650.286 358.555 670.733C389.772 691.179 425.449 701.402 465.586 701.402C505.723 701.402 541.4 691.179 572.617 670.733C604.727 650.286 629.701 622.728 647.539 588.058C665.378 552.499 674.297 512.495 674.297 468.046C674.297 423.597 665.378 384.038 647.539 349.368C629.701 313.809 604.727 285.806 572.617 265.359C541.4 244.913 505.723 234.69 465.586 234.69Z" fill="var(--black)"/>
  <path d="M1461.82 214.688C1512.66 214.688 1560.37 227.578 1604.97 253.358C1650.46 279.139 1687.03 318.698 1714.68 372.037C1742.33 425.375 1756.15 493.382 1756.15 576.057C1756.15 652.509 1741.88 717.404 1713.34 770.742C1685.69 824.081 1648.23 864.974 1600.96 893.421C1554.58 920.979 1503.74 934.759 1448.44 934.759C1412.76 934.759 1377.53 927.202 1342.74 912.09C1308.85 896.088 1280.76 876.086 1258.46 852.084V1234.79H1028.34V234.69H1258.46V348.034C1275.4 310.697 1301.27 279.139 1336.05 253.358C1370.84 227.578 1412.76 214.688 1461.82 214.688ZM1393.58 446.711C1374.85 446.711 1354.79 452.044 1333.38 462.712C1312.86 472.491 1295.03 488.048 1279.86 509.383C1265.59 529.83 1258.46 556.499 1258.46 589.391V654.731C1278.97 670.733 1301.27 684.067 1325.35 694.735C1350.33 705.403 1375.3 710.737 1400.27 710.737C1434.17 710.737 1461.82 697.402 1483.22 670.733C1504.63 643.174 1515.33 611.616 1515.33 576.057C1515.33 539.609 1504.18 508.939 1481.88 484.048C1459.59 459.156 1430.15 446.711 1393.58 446.711Z" fill="var(--black)"/>
  <path d="M2189.37 214.688C2253.59 214.688 2310.68 228.911 2360.62 257.359C2410.57 285.806 2449.37 325.81 2477.02 377.37C2505.56 428.042 2519.83 488.492 2519.83 558.722V637.396H2055.58C2065.4 670.288 2085.02 694.735 2114.45 710.737C2143.88 726.738 2177.78 734.739 2216.13 734.739C2267.86 734.739 2312.46 727.627 2349.92 713.403C2388.27 698.291 2416.81 685.401 2435.54 674.733V870.752C2412.35 884.976 2380.25 899.199 2339.22 913.423C2299.08 927.647 2253.59 934.759 2202.75 934.759C2154.59 934.759 2107.76 926.758 2062.27 910.756C2017.68 894.755 1977.54 871.641 1941.86 841.416C1906.19 811.191 1878.09 774.743 1857.58 732.072C1837.06 688.512 1826.8 639.618 1826.8 585.391C1826.8 517.829 1842.41 456.045 1873.63 400.039C1905.74 344.034 1949 299.141 2003.41 265.359C2058.71 231.578 2120.69 214.688 2189.37 214.688ZM2182.68 404.04C2153.25 404.04 2127.83 412.041 2106.42 428.042C2085.02 443.155 2069.41 466.713 2059.6 498.716H2301.76C2301.76 466.713 2289.27 443.155 2264.29 428.042C2240.21 412.041 2213.01 404.04 2182.68 404.04Z" fill="var(--black)"/>
  <path d="M2847.05 234.69V322.698C2868.46 293.362 2894.32 268.026 2924.65 246.691C2955.86 225.355 2994.22 214.688 3039.71 214.688C3109.28 214.688 3165.91 238.246 3209.62 285.361C3254.21 332.477 3276.51 402.262 3276.51 494.715V914.757H3046.39L3045.06 530.719C3045.06 496.938 3035.69 473.38 3016.96 460.045C2998.23 445.822 2977.27 438.71 2954.08 438.71C2929.11 438.71 2908.15 445.377 2891.2 458.712C2874.25 471.157 2859.54 486.27 2847.05 504.05V914.757H2616.93V234.69H2847.05Z" fill="var(--black)"/>
  <path d="M3907.36 8.00079L4322.11 914.757H4030.45L3986.3 794.745H3702.66L3658.51 914.757H3366.85L3781.6 8.00079H3907.36ZM3844.48 410.707L3776.25 594.725H3912.71L3844.48 410.707Z" fill="var(--black)"/>
  <path d="M4692.21 214.688C4744.83 214.688 4784.97 223.133 4812.62 240.024C4841.16 256.025 4867.02 272.916 4890.21 290.695V490.715C4869.7 475.602 4846.06 463.601 4819.3 454.711C4793.44 445.822 4761.33 441.377 4722.98 441.377C4702.46 441.377 4681.06 446.711 4658.76 457.378C4636.46 468.046 4617.73 483.603 4602.57 504.05C4587.4 523.607 4579.82 548.498 4579.82 578.724C4579.82 623.172 4594.09 656.953 4622.63 680.067C4651.18 703.18 4684.62 714.737 4722.98 714.737C4761.33 714.737 4793.44 710.292 4819.3 701.402C4846.06 691.624 4869.7 679.622 4890.21 665.399V865.418C4867.02 883.198 4841.16 899.199 4812.62 913.423C4784.97 927.647 4744.83 934.759 4692.21 934.759C4641.37 934.759 4594.09 925.424 4550.39 906.756C4506.68 887.198 4468.33 860.974 4435.33 828.081C4403.22 794.3 4377.8 756.074 4359.07 713.403C4341.23 670.733 4332.31 625.839 4332.31 578.724C4332.31 531.608 4341.23 486.27 4359.07 442.71C4377.8 399.15 4403.22 360.48 4435.33 326.699C4468.33 292.029 4506.68 264.915 4550.39 245.357C4594.09 224.911 4641.37 214.688 4692.21 214.688Z" fill="var(--black)"/>
  <path d="M5323.69 214.688C5376.31 214.688 5416.45 223.133 5444.1 240.024C5472.64 256.025 5498.51 272.916 5521.7 290.695V490.715C5501.18 475.602 5477.55 463.601 5450.79 454.711C5424.92 445.822 5392.81 441.377 5354.46 441.377C5333.95 441.377 5312.54 446.711 5290.24 457.378C5267.94 468.046 5249.21 483.603 5234.05 504.05C5218.89 523.607 5211.31 548.498 5211.31 578.724C5211.31 623.172 5225.58 656.953 5254.12 680.067C5282.66 703.18 5316.11 714.737 5354.46 714.737C5392.81 714.737 5424.92 710.292 5450.79 701.402C5477.55 691.624 5501.18 679.622 5521.7 665.399V865.418C5498.51 883.198 5472.64 899.199 5444.1 913.423C5416.45 927.647 5376.31 934.759 5323.69 934.759C5272.85 934.759 5225.58 925.424 5181.87 906.756C5138.17 887.198 5099.82 860.974 5066.81 828.081C5034.71 794.3 5009.29 756.074 4990.55 713.403C4972.72 670.733 4963.8 625.839 4963.8 578.724C4963.8 531.608 4972.72 486.27 4990.55 442.71C5009.29 399.15 5034.71 360.48 5066.81 326.699C5099.82 292.029 5138.17 264.915 5181.87 245.357C5225.58 224.911 5272.85 214.688 5323.69 214.688Z" fill="var(--black)"/>
  <path d="M5957.85 214.688C6022.07 214.688 6079.15 228.911 6129.1 257.359C6179.05 285.806 6217.85 325.81 6245.5 377.37C6274.04 428.042 6288.31 488.492 6288.31 558.722V637.396H5824.06C5833.87 670.288 5853.49 694.735 5882.93 710.737C5912.36 726.738 5946.25 734.739 5984.61 734.739C6036.34 734.739 6080.94 727.627 6118.4 713.403C6156.75 698.291 6185.29 685.401 6204.02 674.733V870.752C6180.83 884.976 6148.72 899.199 6107.69 913.423C6067.56 927.647 6022.07 934.759 5971.23 934.759C5923.06 934.759 5876.24 926.758 5830.75 910.756C5786.15 894.755 5746.02 871.641 5710.34 841.416C5674.66 811.191 5646.57 774.743 5626.05 732.072C5605.54 688.512 5595.28 639.618 5595.28 585.391C5595.28 517.829 5610.89 456.045 5642.11 400.039C5674.22 344.034 5717.48 299.141 5771.88 265.359C5827.18 231.578 5889.17 214.688 5957.85 214.688ZM5951.16 404.04C5921.73 404.04 5896.31 412.041 5874.9 428.042C5853.49 443.155 5837.89 466.713 5828.07 498.716H6070.23C6070.23 466.713 6057.75 443.155 6032.77 428.042C6008.69 412.041 5981.49 404.04 5951.16 404.04Z" fill="var(--black)"/>
  <path d="M6653.55 214.688C6698.15 214.688 6739.18 221.355 6776.64 234.69C6814.99 247.135 6845.76 264.47 6868.95 286.695V466.713C6845.76 452.489 6819.45 439.154 6790.02 426.709C6760.58 413.374 6728.92 406.707 6695.03 406.707C6673.62 406.707 6654.44 411.152 6637.5 420.041C6621.44 428.042 6613.42 440.932 6613.42 458.712C6613.42 471.157 6618.32 480.492 6628.13 486.715C6637.94 492.937 6657.12 499.605 6685.66 506.716L6727.14 517.384C6845.76 547.609 6905.08 611.171 6905.08 708.07C6905.08 752.518 6891.7 792.078 6864.94 826.748C6839.07 860.529 6804.73 887.198 6761.92 906.756C6720 925.424 6674.51 934.759 6625.46 934.759C6574.62 934.759 6527.35 927.647 6483.64 913.423C6439.94 898.31 6402.48 880.087 6371.26 858.751V680.067C6403.37 699.624 6439.49 716.07 6479.63 729.405C6520.66 742.74 6557.22 749.407 6589.33 749.407C6615.2 749.407 6633.93 746.296 6645.53 740.073C6658.01 733.85 6664.26 722.738 6664.26 706.736C6664.26 694.29 6657.12 684.956 6642.85 678.733C6628.58 671.622 6608.06 663.621 6581.31 654.731L6513.07 633.396C6463.13 618.283 6426.56 594.725 6403.37 562.722C6380.18 529.83 6368.58 489.826 6368.58 442.71C6368.58 395.594 6381.07 355.146 6406.04 321.365C6431.02 287.584 6464.91 261.359 6507.72 242.691C6551.43 224.022 6600.04 214.688 6653.55 214.688Z" fill="var(--black)"/>
  <path d="M7263.63 214.688C7308.23 214.688 7349.26 221.355 7386.72 234.69C7425.07 247.135 7455.84 264.47 7479.03 286.695V466.713C7455.84 452.489 7429.53 439.154 7400.1 426.709C7370.66 413.374 7339 406.707 7305.11 406.707C7283.7 406.707 7264.52 411.152 7247.58 420.041C7231.52 428.042 7223.49 440.932 7223.49 458.712C7223.49 471.157 7228.4 480.492 7238.21 486.715C7248.02 492.937 7267.2 499.605 7295.74 506.716L7337.21 517.384C7455.84 547.609 7515.15 611.171 7515.15 708.07C7515.15 752.518 7501.78 792.078 7475.02 826.748C7449.15 860.529 7414.81 887.198 7372 906.756C7330.08 925.424 7284.59 934.759 7235.54 934.759C7184.7 934.759 7137.42 927.647 7093.72 913.423C7050.01 898.31 7012.55 880.087 6981.34 858.751V680.067C7013.45 699.624 7049.57 716.07 7089.71 729.405C7130.73 742.74 7167.3 749.407 7199.41 749.407C7225.28 749.407 7244.01 746.296 7255.6 740.073C7268.09 733.85 7274.33 722.738 7274.33 706.736C7274.33 694.29 7267.2 684.956 7252.93 678.733C7238.66 671.622 7218.14 663.621 7191.38 654.731L7123.15 633.396C7073.2 618.283 7036.64 594.725 7013.45 562.722C6990.26 529.83 6978.66 489.826 6978.66 442.71C6978.66 395.594 6991.15 355.146 7016.12 321.365C7041.1 287.584 7074.99 261.359 7117.8 242.691C7161.51 224.022 7210.12 214.688 7263.63 214.688Z" fill="var(--black)"/>
  <path d="M7982.21 0C8056.24 0 8120.46 11.1122 8174.87 33.3366C8230.17 54.672 8272.98 84.8972 8303.31 124.012C8334.53 163.127 8350.13 208.465 8350.13 260.026C8350.13 305.363 8338.99 344.478 8316.69 377.37C8295.28 410.263 8267.19 436.487 8232.4 456.045C8260.05 465.824 8285.92 478.714 8310 494.715C8334.08 509.828 8353.26 529.83 8367.53 554.721C8382.69 579.613 8390.27 612.06 8390.27 652.064C8390.27 701.847 8374.22 748.518 8342.11 792.078C8310 834.749 8265.85 869.419 8209.66 896.088C8153.46 921.868 8089.25 934.759 8017 934.759C7975.97 934.759 7930.04 932.536 7879.2 928.091C7828.36 924.535 7779.75 919.646 7733.37 913.423C7687.88 907.2 7650.86 900.977 7622.32 894.755V34.6701C7676.73 24.0024 7734.26 15.5571 7794.91 9.33425C7855.56 3.11142 7918 0 7982.21 0ZM7991.58 225.355C7946.09 225.355 7906.4 228.911 7872.51 236.023V389.372H7998.27C8027.7 389.372 8052.68 382.26 8073.19 368.036C8093.71 353.813 8103.96 332.922 8103.96 305.363C8103.96 281.361 8093.26 262.248 8071.85 248.024C8051.34 232.912 8024.58 225.355 7991.58 225.355ZM7872.51 698.735C7891.24 704.958 7913.54 709.403 7939.4 712.07C7965.27 713.848 7985.34 714.737 7999.61 714.737C8036.18 714.737 8065.61 707.625 8087.91 693.401C8111.1 679.178 8122.69 658.287 8122.69 630.729C8122.69 604.059 8109.76 584.946 8083.89 573.39C8058.03 561.833 8026.81 556.055 7990.24 556.055H7872.51V698.735Z" fill="var(--black)"/>
  <path d="M9153.64 234.69V642.73C9153.64 704.069 9139.37 756.519 9110.83 800.079C9083.18 843.639 9044.83 876.975 8995.77 900.089C8946.71 923.202 8890.52 934.759 8827.2 934.759C8763.87 934.759 8707.68 923.202 8658.62 900.089C8609.57 876.975 8570.77 843.639 8542.22 800.079C8514.57 756.519 8500.75 704.069 8500.75 642.73V234.69H8730.87L8732.21 581.391C8732.21 627.617 8739.34 661.398 8753.61 682.734C8768.77 704.069 8793.3 714.737 8827.2 714.737C8861.09 714.737 8885.17 704.069 8899.44 682.734C8914.6 661.398 8922.19 627.617 8922.19 581.391L8923.52 234.69H9153.64Z" fill="var(--black)"/>
  <path d="M9589.29 34.6701V234.69H9783.29C9826.1 234.69 9859.99 228.022 9884.97 214.688C9910.83 201.353 9931.79 180.018 9947.85 150.681C9963.9 120.456 9978.62 81.7858 9992 34.6701H10115.1V234.69H10294.4V414.707H10115.1V605.393C10115.1 638.285 10121.8 664.51 10135.2 684.067C10149.4 702.736 10169 712.07 10194 712.07C10233.3 712.07 10269.4 702.291 10302.4 682.734V861.418C10288.1 880.976 10265.4 898.31 10234.2 913.423C10203.8 927.647 10166.4 934.759 10121.8 934.759C10079.9 934.759 10040.6 924.98 10004 905.422C9968.36 885.865 9939.38 857.862 9917.08 821.414C9895.67 784.966 9884.97 740.962 9884.97 689.401V414.707H9589.29V605.393C9589.29 638.285 9595.98 664.51 9609.36 684.067C9623.63 702.736 9643.26 712.07 9668.23 712.07C9707.48 712.07 9743.6 702.291 9776.6 682.734V861.418C9762.33 880.976 9739.58 898.31 9708.37 913.423C9678.04 927.647 9640.58 934.759 9595.98 934.759C9553.17 934.759 9513.93 924.98 9478.25 905.422C9442.57 885.865 9413.59 857.862 9391.29 821.414C9369.88 784.966 9359.18 740.962 9359.18 689.401V414.707H9244.12V274.694C9287.82 263.137 9330.64 238.246 9372.56 200.02C9415.37 160.905 9446.59 105.788 9466.21 34.6701H9589.29Z" fill="var(--black)"/>
  <path d="M10770.7 214.688C10817.9 214.688 10863.9 223.578 10908.5 241.357C10953.1 259.137 10993.2 284.028 11028.9 316.031C11064.5 348.034 11092.6 386.26 11113.2 430.709C11134.6 474.269 11145.3 522.274 11145.3 574.723C11145.3 627.173 11134.6 675.622 11113.2 720.071C11092.6 763.631 11064.5 801.412 11028.9 833.415C10993.2 865.418 10953.1 890.31 10908.5 908.089C10863.9 925.869 10817.9 934.759 10770.7 934.759C10723.4 934.759 10677.4 925.869 10632.8 908.089C10588.3 890.31 10548.1 865.418 10512.4 833.415C10476.8 801.412 10448.2 763.631 10426.8 720.071C10406.3 675.622 10396 627.173 10396 574.723C10396 522.274 10406.3 474.269 10426.8 430.709C10448.2 386.26 10476.8 348.034 10512.4 316.031C10548.1 284.028 10588.3 259.137 10632.8 241.357C10677.4 223.578 10723.4 214.688 10770.7 214.688ZM10770.7 434.709C10754.6 434.709 10736.3 438.265 10715.8 445.377C10696.2 452.489 10679.2 466.268 10665 486.715C10650.7 506.272 10643.6 535.608 10643.6 574.723C10643.6 612.949 10650.7 642.285 10665 662.732C10679.2 683.178 10696.2 696.957 10715.8 704.069C10736.3 711.181 10754.6 714.737 10770.7 714.737C10787.6 714.737 10805.9 711.181 10825.5 704.069C10845.1 696.957 10862.1 683.178 10876.3 662.732C10890.6 642.285 10897.8 612.949 10897.8 574.723C10897.8 535.608 10890.6 506.272 10876.3 486.715C10862.1 466.268 10845.1 452.489 10825.5 445.377C10805.9 438.265 10787.6 434.709 10770.7 434.709Z" fill="var(--black)"/>
  <path d="M11485.9 234.69V322.698C11507.3 293.362 11533.1 268.026 11563.5 246.691C11594.7 225.355 11633 214.688 11678.5 214.688C11748.1 214.688 11804.7 238.246 11848.4 285.361C11893 332.477 11915.3 402.262 11915.3 494.715V914.757H11685.2L11683.9 530.719C11683.9 496.938 11674.5 473.38 11655.8 460.045C11637 445.822 11616.1 438.71 11592.9 438.71C11567.9 438.71 11547 445.377 11530 458.712C11513.1 471.157 11498.3 486.27 11485.9 504.05V914.757H11255.7V234.69H11485.9Z" fill="var(--black)"/>
  <path d="M13020.9 214.688C13068.1 214.688 13114.1 223.578 13158.7 241.357C13203.3 259.137 13243.4 284.028 13279.1 316.031C13314.8 348.034 13342.9 386.26 13363.4 430.709C13384.8 474.269 13395.5 522.274 13395.5 574.723C13395.5 627.173 13384.8 675.622 13363.4 720.071C13342.9 763.631 13314.8 801.412 13279.1 833.415C13243.4 865.418 13203.3 890.31 13158.7 908.089C13114.1 925.869 13068.1 934.759 13020.9 934.759C12973.6 934.759 12927.7 925.869 12883.1 908.089C12838.5 890.31 12798.3 865.418 12762.7 833.415C12727 801.412 12698.4 763.631 12677 720.071C12656.5 675.622 12646.3 627.173 12646.3 574.723C12646.3 522.274 12656.5 474.269 12677 430.709C12698.4 386.26 12727 348.034 12762.7 316.031C12798.3 284.028 12838.5 259.137 12883.1 241.357C12927.7 223.578 12973.6 214.688 13020.9 214.688ZM13020.9 434.709C13004.8 434.709 12986.5 438.265 12966 445.377C12946.4 452.489 12929.4 466.268 12915.2 486.715C12900.9 506.272 12893.8 535.608 12893.8 574.723C12893.8 612.949 12900.9 642.285 12915.2 662.732C12929.4 683.178 12946.4 696.957 12966 704.069C12986.5 711.181 13004.8 714.737 13020.9 714.737C13037.8 714.737 13056.1 711.181 13075.7 704.069C13095.3 696.957 13112.3 683.178 13126.6 662.732C13140.8 642.285 13148 612.949 13148 574.723C13148 535.608 13140.8 506.272 13126.6 486.715C13112.3 466.268 13095.3 452.489 13075.7 445.377C13056.1 438.265 13037.8 434.709 13020.9 434.709Z" fill="var(--black)"/>
  <path d="M13971.5 486.715C13958.2 479.603 13943.9 474.269 13928.7 470.713C13914.5 466.268 13897.5 464.046 13877.9 464.046C13846.7 464.046 13819 473.38 13794.9 492.048C13770.9 510.717 13751.2 535.164 13736.1 565.389V914.757H13506V234.69H13736.1V356.035C13757.5 319.587 13781.1 288.028 13807 261.359C13833.7 234.69 13868.5 221.355 13911.3 221.355C13934.5 221.355 13954.6 225.355 13971.5 233.356V486.715Z" fill="var(--black)"/>
  <path d="M14352.8 214.688C14388.5 214.688 14423.3 222.689 14457.2 238.69C14492 253.803 14520.5 273.36 14542.8 297.363V234.69H14772.9V894.755C14772.9 966.762 14755.1 1029.43 14719.4 1082.77C14683.7 1137 14636.5 1179.23 14577.6 1209.45C14518.7 1239.68 14454.1 1254.79 14383.6 1254.79C14326.5 1254.79 14277 1246.79 14235.1 1230.79C14193.2 1215.68 14151.3 1194.34 14109.3 1166.78V964.095C14137.9 980.096 14163.8 994.32 14186.9 1006.77C14211 1019.21 14236.9 1028.99 14264.5 1036.1C14292.2 1044.1 14324.7 1048.1 14362.2 1048.1C14417.5 1048.1 14461.2 1032.55 14493.3 1001.43C14526.3 970.318 14542.8 935.203 14542.8 896.088V801.412C14525.9 838.749 14500 870.308 14465.2 896.088C14430.4 921.868 14388.5 934.759 14339.5 934.759C14288.6 934.759 14240.9 921.868 14196.3 896.088C14151.7 870.308 14115.1 830.748 14086.6 777.41C14058.9 723.182 14045.1 655.176 14045.1 573.39C14045.1 496.938 14058.9 432.042 14086.6 378.704C14115.1 325.365 14152.6 284.917 14199 257.359C14246.3 228.911 14297.5 214.688 14352.8 214.688ZM14401 438.71C14368 438.71 14340.4 452.044 14318.1 478.714C14296.6 505.383 14285.9 536.942 14285.9 573.39C14285.9 609.838 14297.1 640.507 14319.4 665.399C14341.7 690.29 14371.1 702.736 14407.7 702.736C14427.3 702.736 14447.4 697.846 14467.9 688.068C14488.4 677.4 14505.8 661.843 14520.1 641.396C14535.2 620.061 14542.8 592.947 14542.8 560.055V494.715C14523.2 478.714 14500.9 465.379 14475.9 454.711C14451.8 444.044 14426.9 438.71 14401 438.71Z" fill="var(--black)"/>
  <path d="M12559.9 670.927C12559.9 819.452 12439.5 939.855 12290.9 939.855C12142.4 939.855 12022 819.452 12022 670.927C12022 522.403 12142.4 402 12290.9 402C12439.5 402 12559.9 522.403 12559.9 670.927Z" fill="#F55F5F"/>
</svg>
