<svg width="8944" height="1407" viewBox="0 0 8944 1407" fill="none" xmlns="http://www.w3.org/2000/svg">
  <path d="M6733.34 815.888C6733.34 964.413 6612.94 1084.82 6464.41 1084.82C6315.89 1084.82 6195.48 964.413 6195.48 815.888C6195.48 667.364 6315.89 546.961 6464.41 546.961C6612.94 546.961 6733.34 667.364 6733.34 815.888Z" fill="#CE5FF5"/>
  <path d="M465.586 148.506C526.237 148.506 584.212 159.209 639.512 180.615C695.703 201.13 745.651 231.455 789.355 271.592C833.06 311.729 867.399 360.785 892.373 418.76C918.239 476.735 931.172 542.738 931.172 616.768C931.172 690.798 918.239 756.8 892.373 814.775C867.399 872.751 833.06 921.807 789.355 961.943C745.651 1002.08 695.703 1032.85 639.512 1054.26C584.212 1074.77 526.237 1085.03 465.586 1085.03C404.935 1085.03 346.514 1074.77 290.322 1054.26C235.023 1032.85 185.521 1002.08 141.816 961.943C98.112 921.807 63.3268 872.751 37.4609 814.775C12.487 756.8 0 690.798 0 616.768C0 542.738 12.487 476.735 37.4609 418.76C63.3268 360.785 98.112 311.729 141.816 271.592C185.521 231.455 235.023 201.13 290.322 180.615C346.514 159.209 404.935 148.506 465.586 148.506ZM465.586 382.637C425.449 382.637 389.772 392.894 358.555 413.408C327.337 433.923 302.363 462.018 283.633 497.695C265.794 532.48 256.875 572.171 256.875 616.768C256.875 661.364 265.794 701.501 283.633 737.178C302.363 771.963 327.337 799.613 358.555 820.127C389.772 840.641 425.449 850.898 465.586 850.898C505.723 850.898 541.4 840.641 572.617 820.127C604.727 799.613 629.701 771.963 647.539 737.178C665.378 701.501 674.297 661.364 674.297 616.768C674.297 572.171 665.378 532.48 647.539 497.695C629.701 462.018 604.727 433.923 572.617 413.408C541.4 392.894 505.723 382.637 465.586 382.637Z" fill="var(--black)"/>
  <path d="M1438.57 155.195L1853.32 1064.96H1561.66L1517.51 944.551H1233.88L1189.73 1064.96H898.066L1312.81 155.195H1438.57ZM1375.69 559.238L1307.46 743.867H1443.93L1375.69 559.238Z" fill="var(--black)"/>
  <path d="M2331.08 168.574C2376.57 168.574 2420.72 174.818 2463.54 187.305C2507.24 199.792 2546.48 218.968 2581.27 244.834C2616.05 270.7 2643.7 303.255 2664.22 342.5C2685.62 381.745 2696.33 427.679 2696.33 480.303C2696.33 547.197 2677.15 602.497 2638.8 646.201C2601.34 689.906 2553.17 719.785 2494.31 735.84L2741.82 1064.96H2436.78L2197.29 709.082V1064.96H1947.11V168.574H2331.08ZM2197.29 402.705V569.941C2212.46 575.293 2228.51 579.753 2245.46 583.32C2263.3 586.888 2282.03 588.672 2301.65 588.672C2340.9 588.672 2373.45 581.09 2399.32 565.928C2426.07 549.873 2439.45 525.791 2439.45 493.682C2439.45 457.113 2426.07 433.031 2399.32 421.436C2373.45 408.949 2340.9 402.705 2301.65 402.705H2197.29Z" fill="var(--black)"/>
  <path d="M3033.48 0C3059.34 0 3082.98 6.24349 3104.38 18.7305C3126.68 31.2174 3144.52 48.1641 3157.9 69.5703C3171.28 90.0846 3177.97 113.275 3177.97 139.141C3177.97 164.115 3171.28 187.305 3157.9 208.711C3144.52 230.117 3126.68 247.064 3104.38 259.551C3082.98 272.038 3059.34 278.281 3033.48 278.281C2995.12 278.281 2961.68 264.902 2933.13 238.145C2904.59 210.495 2890.32 177.493 2890.32 139.141C2890.32 99.8958 2904.59 66.8945 2933.13 40.1367C2961.68 13.3789 2995.12 0 3033.48 0ZM3163.25 382.637V1064.96H2933.13V569.941H2822.09V382.637H3163.25Z" fill="var(--black)"/>
  <path d="M3592.78 362.568C3628.46 362.568 3663.25 370.596 3697.14 386.65C3731.92 401.813 3760.47 421.436 3782.76 445.518V382.637H4012.88V1044.89C4012.88 1117.14 3995.04 1180.02 3959.37 1233.54C3923.69 1287.94 3876.42 1330.31 3817.55 1360.63C3758.68 1390.96 3694.02 1406.12 3623.55 1406.12C3566.47 1406.12 3516.97 1398.1 3475.05 1382.04C3433.13 1366.88 3391.21 1345.47 3349.29 1317.82V1114.46C3377.83 1130.52 3403.69 1144.79 3426.88 1157.28C3450.97 1169.76 3476.83 1179.57 3504.48 1186.71C3532.13 1194.74 3564.69 1198.75 3602.15 1198.75C3657.45 1198.75 3701.15 1183.14 3733.26 1151.92C3766.26 1120.71 3782.76 1085.48 3782.76 1046.23V951.24C3765.82 988.701 3739.95 1020.36 3705.17 1046.23C3670.38 1072.1 3628.46 1085.03 3579.4 1085.03C3528.56 1085.03 3480.85 1072.1 3436.25 1046.23C3391.65 1020.36 3355.08 980.674 3326.54 927.158C3298.89 872.751 3285.07 804.518 3285.07 722.461C3285.07 645.755 3298.89 580.645 3326.54 527.129C3355.08 473.613 3392.55 433.031 3438.93 405.381C3486.2 376.839 3537.48 362.568 3592.78 362.568ZM3640.95 587.334C3607.95 587.334 3580.3 600.713 3558 627.471C3536.59 654.229 3525.89 685.892 3525.89 722.461C3525.89 759.03 3537.04 789.801 3559.34 814.775C3581.63 839.749 3611.07 852.236 3647.64 852.236C3667.26 852.236 3687.33 847.331 3707.84 837.52C3728.36 826.816 3745.75 811.208 3760.02 790.693C3775.18 769.287 3782.76 742.083 3782.76 709.082V643.525C3763.14 627.471 3740.84 614.092 3715.87 603.389C3691.79 592.686 3666.81 587.334 3640.95 587.334Z" fill="var(--black)"/>
  <path d="M4572.96 362.568C4642.53 362.568 4699.17 386.204 4742.87 433.477C4787.47 480.749 4809.77 550.765 4809.77 643.525V1064.96H4579.65L4578.31 679.648C4578.31 645.755 4568.95 622.119 4550.21 608.74C4531.48 594.469 4510.52 587.334 4487.33 587.334C4462.36 587.334 4441.4 594.023 4424.45 607.402C4407.51 619.889 4392.79 635.052 4380.3 652.891V1064.96H4150.19V101.68H4380.3V470.938C4401.71 441.504 4427.57 416.084 4457.9 394.678C4489.12 373.271 4527.47 362.568 4572.96 362.568Z" fill="var(--black)"/>
  <path d="M5275.42 181.953V382.637H5454.7V563.252H5275.42V754.57C5275.42 787.572 5282.11 813.883 5295.49 833.506C5309.76 852.236 5329.38 861.602 5354.36 861.602C5393.6 861.602 5429.72 851.79 5462.72 832.168V1011.45C5448.45 1031.07 5425.71 1048.46 5394.49 1063.62C5364.17 1077.89 5326.71 1085.03 5282.11 1085.03C5239.3 1085.03 5200.05 1075.22 5164.38 1055.6C5128.7 1035.97 5099.71 1007.88 5077.41 971.309C5056.01 934.74 5045.3 890.589 5045.3 838.857V563.252H4930.24V422.773C4973.95 411.178 5016.76 386.204 5058.68 347.852C5101.49 308.607 5132.71 253.307 5152.33 181.953H5275.42Z" fill="var(--black)"/>
  <path d="M5854.73 362.568C5899.32 362.568 5940.35 369.258 5977.81 382.637C6016.17 395.124 6046.94 412.516 6070.13 434.814V615.43C6046.94 601.159 6020.62 587.78 5991.19 575.293C5961.76 561.914 5930.09 555.225 5896.2 555.225C5874.79 555.225 5855.62 559.684 5838.67 568.604C5822.62 576.631 5814.59 589.564 5814.59 607.402C5814.59 619.889 5819.5 629.255 5829.31 635.498C5839.12 641.742 5858.29 648.431 5886.84 655.566L5928.31 666.27C6046.94 696.595 6106.25 760.368 6106.25 857.588C6106.25 902.184 6092.87 941.875 6066.11 976.66C6040.25 1010.55 6005.91 1037.31 5963.1 1056.93C5921.18 1075.66 5875.69 1085.03 5826.63 1085.03C5775.79 1085.03 5728.52 1077.89 5684.81 1063.62C5641.11 1048.46 5603.65 1030.18 5572.43 1008.77V829.492C5604.54 849.115 5640.66 865.615 5680.8 878.994C5721.83 892.373 5758.4 899.062 5790.51 899.062C5816.37 899.062 5835.1 895.941 5846.7 889.697C5859.19 883.454 5865.43 872.305 5865.43 856.25C5865.43 843.763 5858.29 834.398 5844.02 828.154C5829.75 821.019 5809.24 812.992 5782.48 804.072L5714.25 782.666C5664.3 767.503 5627.73 743.867 5604.54 711.758C5581.35 678.757 5569.76 638.62 5569.76 591.348C5569.76 544.076 5582.24 503.493 5607.22 469.6C5632.19 435.706 5666.08 409.395 5708.9 390.664C5752.6 371.934 5801.21 362.568 5854.73 362.568Z" fill="var(--black)"/>
  <path d="M8142.27 635.498C8128.89 628.363 8114.62 623.011 8099.45 619.443C8085.18 614.984 8068.24 612.754 8048.61 612.754C8017.4 612.754 7989.75 622.119 7965.66 640.85C7941.58 659.58 7921.96 684.108 7906.8 714.434V1064.96H7676.68V382.637H7906.8V504.385C7928.2 467.816 7951.84 436.152 7977.71 409.395C8004.46 382.637 8039.25 369.258 8082.06 369.258C8105.25 369.258 8125.32 373.271 8142.27 381.299V635.498Z" fill="var(--black)"/>
  <path d="M8523.56 362.568C8559.24 362.568 8594.03 370.596 8627.92 386.65C8662.71 401.813 8691.25 421.436 8713.54 445.518V382.637H8943.66V1044.89C8943.66 1117.14 8925.82 1180.02 8890.15 1233.54C8854.47 1287.94 8807.2 1330.31 8748.33 1360.63C8689.46 1390.96 8624.8 1406.12 8554.34 1406.12C8497.25 1406.12 8447.75 1398.1 8405.83 1382.04C8363.91 1366.88 8321.99 1345.47 8280.07 1317.82V1114.46C8308.61 1130.52 8334.48 1144.79 8357.67 1157.28C8381.75 1169.76 8407.61 1179.57 8435.26 1186.71C8462.91 1194.74 8495.47 1198.75 8532.93 1198.75C8588.23 1198.75 8631.93 1183.14 8664.04 1151.92C8697.04 1120.71 8713.54 1085.48 8713.54 1046.23V951.24C8696.6 988.701 8670.73 1020.36 8635.95 1046.23C8601.16 1072.1 8559.24 1085.03 8510.19 1085.03C8459.35 1085.03 8411.63 1072.1 8367.03 1046.23C8322.43 1020.36 8285.87 980.674 8257.32 927.158C8229.67 872.751 8215.85 804.518 8215.85 722.461C8215.85 645.755 8229.67 580.645 8257.32 527.129C8285.87 473.613 8323.33 433.031 8369.71 405.381C8416.98 376.839 8468.26 362.568 8523.56 362.568ZM8571.73 587.334C8538.73 587.334 8511.08 600.713 8488.78 627.471C8467.37 654.229 8456.67 685.892 8456.67 722.461C8456.67 759.03 8467.82 789.801 8490.12 814.775C8512.42 839.749 8541.85 852.236 8578.42 852.236C8598.04 852.236 8618.11 847.331 8638.62 837.52C8659.14 826.816 8676.53 811.208 8690.8 790.693C8705.96 769.287 8713.54 742.083 8713.54 709.082V643.525C8693.92 627.471 8671.62 614.092 8646.65 603.389C8622.57 592.686 8597.59 587.334 8571.73 587.334Z" fill="var(--black)"/>
  <path d="M7201.59 362.568C7248.86 362.568 7294.8 371.488 7339.39 389.326C7383.99 407.165 7424.13 432.139 7459.8 464.248C7495.48 496.357 7523.58 534.71 7544.09 579.307C7565.5 623.011 7576.2 671.175 7576.2 723.799C7576.2 776.423 7565.5 825.033 7544.09 869.629C7523.58 913.333 7495.48 951.24 7459.8 983.35C7424.13 1015.46 7383.99 1040.43 7339.39 1058.27C7294.8 1076.11 7248.86 1085.03 7201.59 1085.03C7154.32 1085.03 7108.39 1076.11 7063.79 1058.27C7019.19 1040.43 6979.06 1015.46 6943.38 983.35C6907.7 951.24 6879.16 913.333 6857.75 869.629C6837.24 825.033 6826.98 776.423 6826.98 723.799C6826.98 671.175 6837.24 623.011 6857.75 579.307C6879.16 534.71 6907.7 496.357 6943.38 464.248C6979.06 432.139 7019.19 407.165 7063.79 389.326C7108.39 371.488 7154.32 362.568 7201.59 362.568ZM7201.59 583.32C7185.54 583.32 7167.25 586.888 7146.74 594.023C7127.12 601.159 7110.17 614.984 7095.9 635.498C7081.63 655.12 7074.49 684.554 7074.49 723.799C7074.49 762.152 7081.63 791.585 7095.9 812.1C7110.17 832.614 7127.12 846.439 7146.74 853.574C7167.25 860.71 7185.54 864.277 7201.59 864.277C7218.54 864.277 7236.82 860.71 7256.45 853.574C7276.07 846.439 7293.01 832.614 7307.29 812.1C7321.56 791.585 7328.69 762.152 7328.69 723.799C7328.69 684.554 7321.56 655.12 7307.29 635.498C7293.01 614.984 7276.07 601.159 7256.45 594.023C7236.82 586.888 7218.54 583.32 7201.59 583.32Z" fill="var(--black)"/>
</svg>
