<svg width="6764" height="1407" viewBox="0 0 6764 1407" fill="none" xmlns="http://www.w3.org/2000/svg" style="height: 41px; margin-bottom: -11px;">
<path d="M6763.34 815.927C6763.34 964.452 6642.94 1084.85 6494.41 1084.85C6345.89 1084.85 6225.48 964.452 6225.48 815.927C6225.48 667.403 6345.89 547 6494.41 547C6642.94 547 6763.34 667.403 6763.34 815.927Z" fill="#CE5FF5"/>
<path d="M465.586 148.506C526.237 148.506 584.212 159.209 639.512 180.615C695.703 201.13 745.651 231.455 789.355 271.592C833.06 311.729 867.399 360.785 892.373 418.76C918.239 476.735 931.172 542.738 931.172 616.768C931.172 690.798 918.239 756.8 892.373 814.775C867.399 872.751 833.06 921.807 789.355 961.943C745.651 1002.08 695.703 1032.85 639.512 1054.26C584.212 1074.77 526.237 1085.03 465.586 1085.03C404.935 1085.03 346.514 1074.77 290.322 1054.26C235.023 1032.85 185.521 1002.08 141.816 961.943C98.112 921.807 63.3268 872.751 37.4609 814.775C12.487 756.8 0 690.798 0 616.768C0 542.738 12.487 476.735 37.4609 418.76C63.3268 360.785 98.112 311.729 141.816 271.592C185.521 231.455 235.023 201.13 290.322 180.615C346.514 159.209 404.935 148.506 465.586 148.506ZM465.586 382.637C425.449 382.637 389.772 392.894 358.555 413.408C327.337 433.923 302.363 462.018 283.633 497.695C265.794 532.48 256.875 572.171 256.875 616.768C256.875 661.364 265.794 701.501 283.633 737.178C302.363 771.963 327.337 799.613 358.555 820.127C389.772 840.641 425.449 850.898 465.586 850.898C505.723 850.898 541.4 840.641 572.617 820.127C604.727 799.613 629.701 771.963 647.539 737.178C665.378 701.501 674.297 661.364 674.297 616.768C674.297 572.171 665.378 532.48 647.539 497.695C629.701 462.018 604.727 433.923 572.617 413.408C541.4 392.894 505.723 382.637 465.586 382.637Z" fill="currentColor"/>
<path d="M1438.57 155.195L1853.32 1064.96H1561.66L1517.51 944.551H1233.88L1189.73 1064.96H898.066L1312.81 155.195H1438.57ZM1375.69 559.238L1307.46 743.867H1443.93L1375.69 559.238Z" fill="currentColor"/>
<path d="M2331.08 168.574C2376.57 168.574 2420.72 174.818 2463.54 187.305C2507.24 199.792 2546.48 218.968 2581.27 244.834C2616.05 270.7 2643.7 303.255 2664.22 342.5C2685.62 381.745 2696.33 427.679 2696.33 480.303C2696.33 547.197 2677.15 602.497 2638.8 646.201C2601.34 689.906 2553.17 719.785 2494.31 735.84L2741.82 1064.96H2436.78L2197.29 709.082V1064.96H1947.11V168.574H2331.08ZM2197.29 402.705V569.941C2212.46 575.293 2228.51 579.753 2245.46 583.32C2263.3 586.888 2282.03 588.672 2301.65 588.672C2340.9 588.672 2373.45 581.09 2399.32 565.928C2426.07 549.873 2439.45 525.791 2439.45 493.682C2439.45 457.113 2426.07 433.031 2399.32 421.436C2373.45 408.949 2340.9 402.705 2301.65 402.705H2197.29Z" fill="currentColor"/>
<path d="M3033.48 0C3059.34 0 3082.98 6.24349 3104.38 18.7305C3126.68 31.2174 3144.52 48.1641 3157.9 69.5703C3171.28 90.0846 3177.97 113.275 3177.97 139.141C3177.97 164.115 3171.28 187.305 3157.9 208.711C3144.52 230.117 3126.68 247.064 3104.38 259.551C3082.98 272.038 3059.34 278.281 3033.48 278.281C2995.12 278.281 2961.68 264.902 2933.13 238.145C2904.59 210.495 2890.32 177.493 2890.32 139.141C2890.32 99.8958 2904.59 66.8945 2933.13 40.1367C2961.68 13.3789 2995.12 0 3033.48 0ZM3163.25 382.637V1064.96H2933.13V569.941H2822.09V382.637H3163.25Z" fill="currentColor"/>
<path d="M3592.78 362.568C3628.46 362.568 3663.25 370.596 3697.14 386.65C3731.92 401.813 3760.47 421.436 3782.76 445.518V382.637H4012.88V1044.89C4012.88 1117.14 3995.04 1180.02 3959.37 1233.54C3923.69 1287.94 3876.42 1330.31 3817.55 1360.63C3758.68 1390.96 3694.02 1406.12 3623.55 1406.12C3566.47 1406.12 3516.97 1398.1 3475.05 1382.04C3433.13 1366.88 3391.21 1345.47 3349.29 1317.82V1114.46C3377.83 1130.52 3403.69 1144.79 3426.88 1157.28C3450.97 1169.76 3476.83 1179.57 3504.48 1186.71C3532.13 1194.74 3564.69 1198.75 3602.15 1198.75C3657.45 1198.75 3701.15 1183.14 3733.26 1151.92C3766.26 1120.71 3782.76 1085.48 3782.76 1046.23V951.24C3765.82 988.701 3739.95 1020.36 3705.17 1046.23C3670.38 1072.1 3628.46 1085.03 3579.4 1085.03C3528.56 1085.03 3480.85 1072.1 3436.25 1046.23C3391.65 1020.36 3355.08 980.674 3326.54 927.158C3298.89 872.751 3285.07 804.518 3285.07 722.461C3285.07 645.755 3298.89 580.645 3326.54 527.129C3355.08 473.613 3392.55 433.031 3438.93 405.381C3486.2 376.839 3537.48 362.568 3592.78 362.568ZM3640.95 587.334C3607.95 587.334 3580.3 600.713 3558 627.471C3536.59 654.229 3525.89 685.892 3525.89 722.461C3525.89 759.03 3537.04 789.801 3559.34 814.775C3581.63 839.749 3611.07 852.236 3647.64 852.236C3667.26 852.236 3687.33 847.331 3707.84 837.52C3728.36 826.816 3745.75 811.208 3760.02 790.693C3775.18 769.287 3782.76 742.083 3782.76 709.082V643.525C3763.14 627.471 3740.84 614.092 3715.87 603.389C3691.79 592.686 3666.81 587.334 3640.95 587.334Z" fill="currentColor"/>
<path d="M4572.96 362.568C4642.53 362.568 4699.17 386.204 4742.87 433.477C4787.47 480.749 4809.77 550.765 4809.77 643.525V1064.96H4579.65L4578.31 679.648C4578.31 645.755 4568.95 622.119 4550.21 608.74C4531.48 594.469 4510.52 587.334 4487.33 587.334C4462.36 587.334 4441.4 594.023 4424.45 607.402C4407.51 619.889 4392.79 635.052 4380.3 652.891V1064.96H4150.19V101.68H4380.3V470.938C4401.71 441.504 4427.57 416.084 4457.9 394.678C4489.12 373.271 4527.47 362.568 4572.96 362.568Z" fill="currentColor"/>
<path d="M5275.42 181.953V382.637H5454.7V563.252H5275.42V754.57C5275.42 787.572 5282.11 813.883 5295.49 833.506C5309.76 852.236 5329.38 861.602 5354.36 861.602C5393.6 861.602 5429.72 851.79 5462.72 832.168V1011.45C5448.45 1031.07 5425.71 1048.46 5394.49 1063.62C5364.17 1077.89 5326.71 1085.03 5282.11 1085.03C5239.3 1085.03 5200.05 1075.22 5164.38 1055.6C5128.7 1035.97 5099.71 1007.88 5077.41 971.309C5056.01 934.74 5045.3 890.589 5045.3 838.857V563.252H4930.24V422.773C4973.95 411.178 5016.76 386.204 5058.68 347.852C5101.49 308.607 5132.71 253.307 5152.33 181.953H5275.42Z" fill="currentColor"/>
<path d="M5860.08 362.568C5904.67 362.568 5945.7 369.258 5983.16 382.637C6021.52 395.124 6052.29 412.516 6075.48 434.814V615.43C6052.29 601.159 6025.98 587.78 5996.54 575.293C5967.11 561.914 5935.45 555.225 5901.55 555.225C5880.15 555.225 5860.97 559.684 5844.02 568.604C5827.97 576.631 5819.94 589.564 5819.94 607.402C5819.94 619.889 5824.85 629.255 5834.66 635.498C5844.47 641.742 5863.65 648.431 5892.19 655.566L5933.66 666.27C6052.29 696.595 6111.6 760.368 6111.6 857.588C6111.6 902.184 6098.22 941.875 6071.46 976.66C6045.6 1010.55 6011.26 1037.31 5968.45 1056.93C5926.53 1075.66 5881.04 1085.03 5831.98 1085.03C5781.14 1085.03 5733.87 1077.89 5690.17 1063.62C5646.46 1048.46 5609 1030.18 5577.78 1008.77V829.492C5609.89 849.115 5646.02 865.615 5686.15 878.994C5727.18 892.373 5763.75 899.062 5795.86 899.062C5821.73 899.062 5840.46 895.941 5852.05 889.697C5864.54 883.454 5870.78 872.305 5870.78 856.25C5870.78 843.763 5863.65 834.398 5849.38 828.154C5835.1 821.019 5814.59 812.992 5787.83 804.072L5719.6 782.666C5669.65 767.503 5633.08 743.867 5609.89 711.758C5586.7 678.757 5575.11 638.62 5575.11 591.348C5575.11 544.076 5587.59 503.493 5612.57 469.6C5637.54 435.706 5671.44 409.395 5714.25 390.664C5757.95 371.934 5806.56 362.568 5860.08 362.568Z" fill="currentColor"/>
</svg>
