<svg width="11030" height="1275" viewBox="0 0 11030 1275" fill="none" xmlns="http://www.w3.org/2000/svg" style="height: 41px; margin-bottom: -11px;">
<path d="M11029.9 706.927C11029.9 855.452 10909.5 975.855 10760.9 975.855C10612.4 975.855 10492 855.452 10492 706.927C10492 558.403 10612.4 438 10760.9 438C10909.5 438 11029.9 558.403 11029.9 706.927Z" fill="#0075FF"/>
<path d="M1389.12 329.352C1345.74 282.428 1289.52 258.966 1220.46 258.966C1175.31 258.966 1137.24 269.59 1106.25 290.839C1076.15 312.087 1050.47 337.32 1029.22 366.536V0H800.803V956.182H1029.22V547.149C1041.62 529.442 1056.23 514.391 1073.05 501.996C1089.87 488.715 1110.68 482.075 1135.47 482.075C1158.49 482.075 1179.29 489.158 1197.88 503.324C1216.48 516.604 1225.77 540.066 1225.77 573.709L1227.1 956.182H1455.52V537.852C1455.52 445.776 1433.39 376.275 1389.12 329.352Z" fill="currentColor"/>
<path d="M490.043 66.4015C439.578 53.1212 388.228 46.4811 335.992 46.4811C278.444 46.4811 223.995 57.548 172.644 79.6818C121.293 101.816 79.6819 134.574 47.8091 177.956C15.9364 220.453 0 273.132 0 335.992C0 371.406 5.31212 406.377 15.9364 440.906C26.5606 474.55 45.5957 505.094 73.0417 532.54C100.488 559.986 139.001 581.677 188.58 597.614L314.743 637.455C338.648 644.538 357.683 652.948 371.849 662.687C386.014 672.426 393.097 683.936 393.097 697.216C393.097 715.809 383.358 729.089 363.88 737.057C345.288 744.14 320.498 747.681 289.511 747.681C239.931 747.681 190.351 737.5 140.771 717.137C92.0768 696.773 46.4811 670.656 3.98409 638.783V879.156C42.9397 906.602 88.5354 929.622 140.771 948.214C193.007 966.806 245.686 976.103 298.807 976.103C367.865 976.103 430.282 963.708 486.059 938.918C541.837 913.242 586.104 878.714 618.862 835.331C651.62 791.064 668 740.598 668 683.936C668 641.439 654.277 598.942 626.831 556.445C600.27 513.948 554.674 480.304 490.043 455.515L394.425 419.658C357.24 405.492 325.81 393.097 300.135 382.473C274.46 370.963 261.622 354.142 261.622 332.008C261.622 311.645 272.246 297.036 293.495 288.183C314.743 279.329 339.976 274.902 369.193 274.902C419.658 274.902 463.483 283.313 500.668 300.135C537.852 316.071 575.48 335.106 613.55 357.24V116.867C582.563 95.6182 541.394 78.7965 490.043 66.4015Z" fill="currentColor"/>
<path fill-rule="evenodd" clip-rule="evenodd" d="M1863.77 258.966C1899.19 258.966 1933.71 266.934 1967.36 282.871C2001.89 297.922 2030.22 317.399 2052.35 341.304V278.886H2280.77V956.182H2052.35V843.299C2035.53 880.484 2009.86 911.914 1975.33 937.59C1940.8 963.265 1899.19 976.103 1850.49 976.103C1800.03 976.103 1752.66 963.265 1708.39 937.59C1664.12 911.914 1627.83 872.516 1599.49 819.395C1572.05 765.388 1558.32 697.659 1558.32 616.206C1558.32 540.066 1572.05 475.435 1599.49 422.314C1627.83 369.193 1665.01 328.909 1711.05 301.463C1757.97 273.132 1808.88 258.966 1863.77 258.966ZM1911.58 482.075C1878.82 482.075 1851.38 495.355 1829.24 521.916C1807.99 548.477 1797.37 579.907 1797.37 616.206C1797.37 652.506 1808.44 683.05 1830.57 707.84C1852.71 732.63 1881.92 745.025 1918.22 745.025C1937.7 745.025 1957.62 740.156 1977.98 730.417C1998.35 719.793 2015.61 704.299 2029.78 683.936C2044.83 662.687 2052.35 635.684 2052.35 602.926V537.852C2032.87 521.916 2010.74 508.636 1985.95 498.012C1962.05 487.387 1937.26 482.075 1911.58 482.075Z" fill="currentColor"/>
<path d="M2837.36 513.948C2852.41 517.489 2866.57 522.801 2879.85 529.884V277.558C2863.03 269.59 2843.11 265.606 2820.09 265.606C2777.59 265.606 2743.07 278.886 2716.5 305.447C2690.83 332.008 2667.37 363.438 2646.12 399.737V278.886H2417.7V956.182H2646.12V608.238C2661.17 578.136 2680.65 553.789 2704.55 535.196C2728.46 516.604 2755.9 507.308 2786.89 507.308C2806.37 507.308 2823.19 509.521 2837.36 513.948Z" fill="currentColor"/>
<path fill-rule="evenodd" clip-rule="evenodd" d="M3302.79 258.966C3366.54 258.966 3423.2 273.132 3472.78 301.463C3522.36 329.794 3560.87 369.635 3588.32 420.986C3616.65 471.451 3630.81 531.655 3630.81 601.598V679.952H3169.99C3179.73 712.71 3199.2 737.057 3228.42 752.993C3257.64 768.93 3291.28 776.898 3329.35 776.898C3380.7 776.898 3424.97 769.815 3462.15 755.649C3500.22 740.598 3528.56 727.761 3547.15 717.137V912.357C3524.13 926.523 3492.26 940.688 3451.53 954.854C3411.69 969.02 3366.54 976.103 3316.07 976.103C3268.26 976.103 3221.78 968.134 3176.63 952.198C3132.36 936.262 3092.52 913.242 3057.1 883.14C3021.69 853.038 2993.8 816.739 2973.44 774.242C2953.08 730.86 2942.89 682.165 2942.89 628.159C2942.89 560.872 2958.39 499.34 2989.38 443.562C3021.25 387.785 3064.19 343.075 3118.19 309.431C3173.09 275.788 3234.62 258.966 3302.79 258.966ZM3296.15 447.546C3266.93 447.546 3241.7 455.515 3220.45 471.451C3199.2 486.502 3183.71 509.964 3173.97 541.837H3414.35C3414.35 509.964 3401.95 486.502 3377.16 471.451C3353.26 455.515 3326.25 447.546 3296.15 447.546Z" fill="currentColor"/>
<path d="M4153.58 649.407L4501.53 66.4015H4212.01L4030.07 395.753L3846.81 66.4015H3557.3L3905.24 649.407V956.182H4153.58V649.407Z" fill="currentColor"/>
<path fill-rule="evenodd" clip-rule="evenodd" d="M4743.53 258.966C4790.46 258.966 4836.05 267.82 4880.32 285.527C4924.59 303.234 4964.43 328.024 4999.84 359.896C5035.26 391.769 5063.15 429.839 5083.51 474.107C5104.76 517.489 5115.38 565.298 5115.38 617.534C5115.38 669.77 5104.76 718.022 5083.51 762.29C5063.15 805.672 5035.26 843.299 4999.84 875.172C4964.43 907.045 4924.59 931.835 4880.32 949.542C4836.05 967.249 4790.46 976.103 4743.53 976.103C4696.61 976.103 4651.01 967.249 4606.75 949.542C4562.48 931.835 4522.64 907.045 4487.22 875.172C4451.81 843.299 4423.48 805.672 4402.23 762.29C4381.87 718.022 4371.68 669.77 4371.68 617.534C4371.68 565.298 4381.87 517.489 4402.23 474.107C4423.48 429.839 4451.81 391.769 4487.22 359.896C4522.64 328.024 4562.48 303.234 4606.75 285.527C4651.01 267.82 4696.61 258.966 4743.53 258.966ZM4743.53 478.091C4727.6 478.091 4709.45 481.632 4689.08 488.715C4669.61 495.798 4652.78 509.521 4638.62 529.884C4624.45 549.362 4617.37 578.579 4617.37 617.534C4617.37 655.604 4624.45 684.821 4638.62 705.184C4652.78 725.547 4669.61 739.27 4689.08 746.353C4709.45 753.436 4727.6 756.977 4743.53 756.977C4760.35 756.977 4778.5 753.436 4797.98 746.353C4817.46 739.27 4834.28 725.547 4848.45 705.184C4862.61 684.821 4869.7 655.604 4869.7 617.534C4869.7 578.579 4862.61 549.362 4848.45 529.884C4834.28 509.521 4817.46 495.798 4797.98 488.715C4778.5 481.632 4760.35 478.091 4743.53 478.091Z" fill="currentColor"/>
<path d="M5853.77 841.971C5882.1 798.589 5896.26 746.353 5896.26 685.264V278.886H5667.84L5666.51 624.174C5666.51 670.213 5658.99 703.856 5643.94 725.105C5629.77 746.353 5605.87 756.977 5572.22 756.977C5538.58 756.977 5514.23 746.353 5499.18 725.105C5485.02 703.856 5477.93 670.213 5477.93 624.174L5476.61 278.886H5248.19V685.264C5248.19 746.353 5261.91 798.589 5289.35 841.971C5317.69 885.354 5356.2 918.555 5404.89 941.574C5453.59 964.593 5509.36 976.103 5572.22 976.103C5635.08 976.103 5690.86 964.593 5739.56 941.574C5788.25 918.555 5826.32 885.354 5853.77 841.971Z" fill="currentColor"/>
<path d="M6537.7 529.884C6524.42 522.801 6510.26 517.489 6495.21 513.948C6481.04 509.521 6464.22 507.308 6444.74 507.308C6413.75 507.308 6386.31 516.604 6362.4 535.196C6338.5 553.789 6319.02 578.136 6303.97 608.238V956.182H6075.55V278.886H6303.97V399.737C6325.22 363.438 6348.68 332.008 6374.35 305.447C6400.92 278.886 6435.44 265.606 6477.94 265.606C6500.96 265.606 6520.88 269.59 6537.7 277.558V529.884Z" fill="currentColor"/>
<path fill-rule="evenodd" clip-rule="evenodd" d="M7183.13 88.9781C7140.63 73.927 7096.8 66.4015 7051.65 66.4015H6670.51V956.182H6918.85V693.232C6938.33 703.856 6961.34 712.71 6987.91 719.793C7014.47 725.99 7044.57 729.089 7078.21 729.089C7135.76 729.089 7190.21 716.251 7241.56 690.576C7292.91 664.901 7334.52 627.716 7366.39 579.021C7398.27 529.442 7414.2 470.566 7414.2 402.393C7414.2 350.157 7403.58 303.234 7382.33 261.622C7361.97 220.01 7334.52 184.596 7299.99 155.38C7265.46 126.163 7226.51 104.029 7183.13 88.9781ZM6918.85 504.652V298.807H7022.43C7061.39 298.807 7093.71 307.218 7119.38 324.039C7145.94 339.976 7159.22 366.094 7159.22 402.393C7159.22 434.266 7145.94 462.597 7119.38 487.387C7093.71 511.292 7061.39 523.244 7022.43 523.244C7002.96 523.244 6984.36 521.473 6966.66 517.932C6949.83 514.391 6933.9 509.964 6918.85 504.652Z" fill="currentColor"/>
<path fill-rule="evenodd" clip-rule="evenodd" d="M7791.97 258.966C7827.39 258.966 7861.92 266.934 7895.56 282.871C7930.09 297.922 7958.42 317.399 7980.55 341.304V278.886H8208.97V956.182H7980.55V843.299C7963.73 880.484 7938.06 911.914 7903.53 937.59C7869 963.265 7827.39 976.103 7778.69 976.103C7728.23 976.103 7680.86 963.265 7636.59 937.59C7592.33 911.914 7556.03 872.516 7527.69 819.395C7500.25 765.388 7486.53 697.659 7486.53 616.206C7486.53 540.066 7500.25 475.435 7527.69 422.314C7556.03 369.193 7593.21 328.909 7639.25 301.463C7686.17 273.132 7737.08 258.966 7791.97 258.966ZM7839.78 482.075C7807.02 482.075 7779.58 495.355 7757.44 521.916C7736.19 548.477 7725.57 579.907 7725.57 616.206C7725.57 652.506 7736.64 683.05 7758.77 707.84C7780.91 732.63 7810.12 745.025 7846.42 745.025C7865.9 745.025 7885.82 740.156 7906.18 730.417C7926.55 719.793 7943.81 704.299 7957.98 683.936C7973.03 662.687 7980.55 635.684 7980.55 602.926V537.852C7961.07 521.916 7938.94 508.636 7914.15 498.012C7890.25 487.387 7865.46 482.075 7839.78 482.075Z" fill="currentColor"/>
<path fill-rule="evenodd" clip-rule="evenodd" d="M8908.28 297.479C8864.01 271.804 8816.65 258.966 8766.18 258.966C8717.49 258.966 8675.87 271.804 8641.35 297.479C8606.82 323.154 8581.14 354.584 8564.32 391.769V278.886H8335.9V1274.91H8564.32V893.765C8586.45 917.669 8614.34 937.59 8647.99 953.526C8682.51 968.577 8717.49 976.103 8752.9 976.103C8807.79 976.103 8858.26 962.38 8904.3 934.934C8951.22 906.602 8988.4 865.876 9015.85 812.755C9044.18 759.634 9058.35 695.003 9058.35 618.862C9058.35 536.524 9044.62 468.795 9017.18 415.674C8989.73 362.552 8953.43 323.154 8908.28 297.479ZM8638.69 505.98C8659.94 495.355 8679.86 490.043 8698.45 490.043C8734.75 490.043 8763.97 502.438 8786.1 527.228C8808.23 552.018 8819.3 582.563 8819.3 618.862C8819.3 654.276 8808.68 685.706 8787.43 713.152C8766.18 739.713 8738.73 752.993 8705.09 752.993C8680.3 752.993 8655.51 747.681 8630.72 737.057C8606.82 726.433 8584.68 713.152 8564.32 697.216V632.143C8564.32 599.385 8571.4 572.824 8585.57 552.461C8600.62 531.212 8618.33 515.719 8638.69 505.98Z" fill="currentColor"/>
<path fill-rule="evenodd" clip-rule="evenodd" d="M9502.21 258.966C9565.95 258.966 9622.61 273.132 9672.19 301.463C9721.77 329.794 9760.29 369.635 9787.73 420.986C9816.06 471.451 9830.23 531.655 9830.23 601.598V679.952H9369.4C9379.14 712.71 9398.62 737.057 9427.84 752.993C9457.05 768.93 9490.7 776.898 9528.77 776.898C9580.12 776.898 9624.38 769.815 9661.57 755.649C9699.64 740.598 9727.97 727.761 9746.56 717.137V912.357C9723.54 926.523 9691.67 940.688 9650.95 954.854C9611.1 969.02 9565.95 976.103 9515.49 976.103C9467.68 976.103 9421.2 968.134 9376.04 952.198C9331.78 936.262 9291.93 913.242 9256.52 883.14C9221.11 853.038 9193.22 816.739 9172.85 774.242C9152.49 730.86 9142.31 682.165 9142.31 628.159C9142.31 560.872 9157.8 499.34 9188.79 443.562C9220.66 387.785 9263.6 343.075 9317.61 309.431C9372.5 275.788 9434.03 258.966 9502.21 258.966ZM9495.57 447.546C9466.35 447.546 9441.12 455.515 9419.87 471.451C9398.62 486.502 9383.13 509.964 9373.39 541.837H9613.76C9613.76 509.964 9601.37 486.502 9576.58 471.451C9552.67 455.515 9525.67 447.546 9495.57 447.546Z" fill="currentColor"/>
<path d="M10356 513.948C10371.1 517.489 10385.3 522.801 10398.5 529.884V277.558C10381.7 269.59 10361.8 265.606 10338.8 265.606C10296.3 265.606 10261.8 278.886 10235.2 305.447C10209.5 332.008 10186.1 363.438 10164.8 399.737V278.886H9936.39V956.182H10164.8V608.238C10179.9 578.136 10199.3 553.789 10223.2 535.196C10247.2 516.604 10274.6 507.308 10305.6 507.308C10325.1 507.308 10341.9 509.521 10356 513.948Z" fill="currentColor"/>
</svg>
