<svg width="355" height="41" viewBox="0 0 355 41" fill="none" xmlns="http://www.w3.org/2000/svg">
<path d="M354.711 22.7342C354.711 27.5106 350.839 31.3827 346.063 31.3827C341.286 31.3827 337.414 27.5106 337.414 22.7342C337.414 17.9577 341.286 14.0857 346.063 14.0857C350.839 14.0857 354.711 17.9577 354.711 22.7342Z" fill="#0077FF"/>
<path d="M44.6729 10.5917C43.2778 9.08264 41.4698 8.32812 39.249 8.32812C37.7969 8.32812 36.5726 8.66979 35.5761 9.35312C34.608 10.0365 33.7823 10.8479 33.099 11.7875V0H25.7531V30.75H33.099V17.5958C33.4976 17.0264 33.9674 16.5424 34.5083 16.1437C35.0493 15.7167 35.7184 15.5031 36.5156 15.5031C37.2559 15.5031 37.925 15.7309 38.5229 16.1865C39.1208 16.6135 39.4198 17.3681 39.4198 18.45L39.4625 30.75H46.8083V17.2969C46.8083 14.3358 46.0965 12.1007 44.6729 10.5917Z" fill="currentColor"/>
<path d="M15.7594 2.13542C14.1365 1.70833 12.4851 1.49479 10.8052 1.49479C8.95452 1.49479 7.20347 1.85069 5.55208 2.5625C3.9007 3.27431 2.5625 4.32778 1.5375 5.72292C0.5125 7.08958 0 8.78368 0 10.8052C0 11.9441 0.170833 13.0687 0.5125 14.1792C0.854167 15.2611 1.46632 16.2434 2.34896 17.126C3.2316 18.0087 4.47014 18.7063 6.06458 19.2188L10.1219 20.5C10.8906 20.7278 11.5028 20.9983 11.9583 21.3115C12.4139 21.6247 12.6417 21.9948 12.6417 22.4219C12.6417 23.0198 12.3285 23.4469 11.7021 23.7031C11.1042 23.9309 10.3069 24.0448 9.31042 24.0448C7.71597 24.0448 6.12153 23.7174 4.52708 23.0625C2.96111 22.4076 1.49479 21.5677 0.128125 20.5427V28.2729C1.3809 29.1556 2.84722 29.8958 4.52708 30.4938C6.20695 31.0917 7.90104 31.3906 9.60938 31.3906C11.8302 31.3906 13.8375 30.992 15.6313 30.1948C17.425 29.3691 18.8486 28.2587 19.9021 26.8635C20.9556 25.4399 21.4823 23.817 21.4823 21.9948C21.4823 20.6281 21.041 19.2615 20.1583 17.8948C19.3042 16.5281 17.8379 15.4462 15.7594 14.649L12.6844 13.4958C11.4885 13.0403 10.4778 12.6417 9.65209 12.3C8.82639 11.9299 8.41354 11.3889 8.41354 10.6771C8.41354 10.0222 8.75521 9.55243 9.43854 9.26771C10.1219 8.98299 10.9333 8.84062 11.8729 8.84062C13.4958 8.84062 14.9052 9.11111 16.101 9.65208C17.2969 10.1646 18.5069 10.7767 19.7313 11.4885V3.75833C18.7347 3.075 17.4108 2.53403 15.7594 2.13542Z" fill="currentColor"/>
<path fill-rule="evenodd" clip-rule="evenodd" d="M59.9373 8.32812C61.0762 8.32812 62.1866 8.58438 63.2686 9.09688C64.379 9.5809 65.2901 10.2073 66.0019 10.976V8.96875H73.3477V30.75H66.0019V27.1198C65.4609 28.3156 64.6352 29.3264 63.5248 30.1521C62.4144 30.9778 61.0762 31.3906 59.5102 31.3906C57.8873 31.3906 56.3641 30.9778 54.9404 30.1521C53.5168 29.3264 52.3495 28.0594 51.4384 26.351C50.5557 24.6142 50.1144 22.4361 50.1144 19.8167C50.1144 17.3681 50.5557 15.2896 51.4384 13.5812C52.3495 11.8729 53.5453 10.5774 55.0259 9.69479C56.5349 8.78368 58.172 8.32812 59.9373 8.32812ZM61.4748 15.5031C60.4213 15.5031 59.5387 15.9302 58.8269 16.7844C58.1436 17.6385 57.8019 18.6493 57.8019 19.8167C57.8019 20.984 58.1578 21.9663 58.8696 22.7635C59.5814 23.5608 60.521 23.9594 61.6884 23.9594C62.3148 23.9594 62.9554 23.8028 63.6102 23.4896C64.2651 23.1479 64.8203 22.6497 65.2759 21.9948C65.7599 21.3115 66.0019 20.4431 66.0019 19.3896V17.2969C65.3755 16.7844 64.6637 16.3573 63.8665 16.0156C63.0977 15.674 62.3005 15.5031 61.4748 15.5031Z" fill="currentColor"/>
<path d="M91.2469 16.5281C91.731 16.642 92.1865 16.8128 92.6136 17.0406V8.92604C92.0726 8.66979 91.432 8.54167 90.6917 8.54167C89.3251 8.54167 88.2147 8.96875 87.3605 9.82292C86.5348 10.6771 85.7803 11.6878 85.0969 12.8552V8.96875H77.7511V30.75H85.0969V19.5604C85.581 18.5924 86.2074 17.8094 86.9761 17.2115C87.7449 16.6135 88.6275 16.3146 89.624 16.3146C90.2504 16.3146 90.7914 16.3858 91.2469 16.5281Z" fill="currentColor"/>
<path fill-rule="evenodd" clip-rule="evenodd" d="M106.215 8.32812C108.265 8.32812 110.087 8.78368 111.682 9.69479C113.276 10.6059 114.515 11.8872 115.397 13.5385C116.308 15.1615 116.764 17.0976 116.764 19.3469V21.8667H101.944C102.257 22.9201 102.884 23.7031 103.823 24.2156C104.763 24.7281 105.845 24.9844 107.069 24.9844C108.72 24.9844 110.144 24.7566 111.34 24.301C112.564 23.817 113.475 23.4042 114.073 23.0625V29.3406C113.333 29.7962 112.308 30.2517 110.998 30.7073C109.717 31.1628 108.265 31.3906 106.642 31.3906C105.105 31.3906 103.61 31.1344 102.158 30.6219C100.734 30.1094 99.4528 29.3691 98.3139 28.401C97.175 27.433 96.2781 26.2656 95.6233 24.899C94.9684 23.5038 94.641 21.9378 94.641 20.201C94.641 18.0372 95.1392 16.0583 96.1358 14.2646C97.1608 12.4708 98.5417 11.033 100.278 9.95104C102.044 8.8691 104.023 8.32812 106.215 8.32812ZM106.001 14.3927C105.062 14.3927 104.25 14.649 103.567 15.1615C102.884 15.6455 102.385 16.4 102.072 17.425H109.802C109.802 16.4 109.404 15.6455 108.607 15.1615C107.838 14.649 106.969 14.3927 106.001 14.3927Z" fill="currentColor"/>
<path d="M133.576 20.8844L144.765 2.13542H135.455L129.604 12.7271L123.71 2.13542H114.4L125.589 20.8844V30.75H133.576V20.8844Z" fill="currentColor"/>
<path fill-rule="evenodd" clip-rule="evenodd" d="M152.548 8.32812C154.057 8.32812 155.523 8.61285 156.947 9.18229C158.371 9.75174 159.652 10.549 160.791 11.574C161.93 12.599 162.826 13.8233 163.481 15.2469C164.165 16.642 164.506 18.1795 164.506 19.8594C164.506 21.5392 164.165 23.091 163.481 24.5146C162.826 25.9097 161.93 27.1198 160.791 28.1448C159.652 29.1698 158.371 29.967 156.947 30.5365C155.523 31.1059 154.057 31.3906 152.548 31.3906C151.039 31.3906 149.573 31.1059 148.149 30.5365C146.725 29.967 145.444 29.1698 144.305 28.1448C143.166 27.1198 142.255 25.9097 141.572 24.5146C140.917 23.091 140.59 21.5392 140.59 19.8594C140.59 18.1795 140.917 16.642 141.572 15.2469C142.255 13.8233 143.166 12.599 144.305 11.574C145.444 10.549 146.725 9.75174 148.149 9.18229C149.573 8.61285 151.039 8.32812 152.548 8.32812ZM152.548 15.375C152.035 15.375 151.452 15.4889 150.797 15.7167C150.171 15.9444 149.63 16.3858 149.174 17.0406C148.718 17.667 148.491 18.6066 148.491 19.8594C148.491 21.0837 148.718 22.0233 149.174 22.6781C149.63 23.333 150.171 23.7743 150.797 24.0021C151.452 24.2299 152.035 24.3437 152.548 24.3437C153.089 24.3437 153.673 24.2299 154.299 24.0021C154.925 23.7743 155.466 23.333 155.922 22.6781C156.378 22.0233 156.605 21.0837 156.605 19.8594C156.605 18.6066 156.378 17.667 155.922 17.0406C155.466 16.3858 154.925 15.9444 154.299 15.7167C153.673 15.4889 153.089 15.375 152.548 15.375Z" fill="currentColor"/>
<path d="M188.252 27.0771C189.163 25.6819 189.619 24.0021 189.619 22.0375V8.96875H182.273L182.23 20.0729C182.23 21.5535 181.988 22.6354 181.504 23.3187C181.049 24.0021 180.28 24.3437 179.198 24.3437C178.116 24.3437 177.333 24.0021 176.849 23.3187C176.393 22.6354 176.166 21.5535 176.166 20.0729L176.123 8.96875H168.777V22.0375C168.777 24.0021 169.218 25.6819 170.101 27.0771C171.012 28.4722 172.251 29.5399 173.817 30.2802C175.383 31.0205 177.176 31.3906 179.198 31.3906C181.22 31.3906 183.013 31.0205 184.579 30.2802C186.145 29.5399 187.37 28.4722 188.252 27.0771Z" fill="currentColor"/>
<path d="M210.247 17.0406C209.82 16.8128 209.364 16.642 208.88 16.5281C208.425 16.3858 207.884 16.3146 207.257 16.3146C206.261 16.3146 205.378 16.6135 204.609 17.2115C203.841 17.8094 203.214 18.5924 202.73 19.5604V30.75H195.384V8.96875H202.73V12.8552C203.414 11.6878 204.168 10.6771 204.994 9.82292C205.848 8.96875 206.958 8.54167 208.325 8.54167C209.065 8.54167 209.706 8.66979 210.247 8.92604V17.0406Z" fill="currentColor"/>
<path fill-rule="evenodd" clip-rule="evenodd" d="M231.003 2.86146C229.637 2.37743 228.227 2.13542 226.775 2.13542H214.518V30.75H222.504V22.2937C223.131 22.6354 223.871 22.9201 224.725 23.1479C225.579 23.3472 226.547 23.4469 227.629 23.4469C229.48 23.4469 231.231 23.034 232.882 22.2083C234.534 21.3826 235.872 20.1868 236.897 18.6208C237.922 17.0264 238.434 15.133 238.434 12.9406C238.434 11.2608 238.093 9.75174 237.409 8.41354C236.755 7.07535 235.872 5.93646 234.762 4.99688C233.651 4.05729 232.398 3.34549 231.003 2.86146ZM222.504 16.2292V9.60938H225.836C227.088 9.60938 228.128 9.87986 228.953 10.4208C229.807 10.9333 230.234 11.7733 230.234 12.9406C230.234 13.9656 229.807 14.8767 228.953 15.674C228.128 16.4427 227.088 16.8271 225.836 16.8271C225.209 16.8271 224.611 16.7701 224.042 16.6562C223.501 16.5424 222.988 16.4 222.504 16.2292Z" fill="currentColor"/>
<path fill-rule="evenodd" clip-rule="evenodd" d="M250.583 8.32812C251.722 8.32812 252.833 8.58438 253.914 9.09688C255.025 9.5809 255.936 10.2073 256.648 10.976V8.96875H263.994V30.75H256.648V27.1198C256.107 28.3156 255.281 29.3264 254.171 30.1521C253.06 30.9778 251.722 31.3906 250.156 31.3906C248.533 31.3906 247.01 30.9778 245.586 30.1521C244.163 29.3264 242.995 28.0594 242.084 26.351C241.202 24.6142 240.76 22.4361 240.76 19.8167C240.76 17.3681 241.202 15.2896 242.084 13.5812C242.995 11.8729 244.191 10.5774 245.672 9.69479C247.181 8.78368 248.818 8.32812 250.583 8.32812ZM252.121 15.5031C251.067 15.5031 250.185 15.9302 249.473 16.7844C248.789 17.6385 248.448 18.6493 248.448 19.8167C248.448 20.984 248.804 21.9663 249.515 22.7635C250.227 23.5608 251.167 23.9594 252.334 23.9594C252.961 23.9594 253.601 23.8028 254.256 23.4896C254.911 23.1479 255.466 22.6497 255.922 21.9948C256.406 21.3115 256.648 20.4431 256.648 19.3896V17.2969C256.021 16.7844 255.31 16.3573 254.512 16.0156C253.744 15.674 252.946 15.5031 252.121 15.5031Z" fill="currentColor"/>
<path fill-rule="evenodd" clip-rule="evenodd" d="M286.483 9.56667C285.059 8.74097 283.536 8.32812 281.913 8.32812C280.347 8.32812 279.009 8.74097 277.898 9.56667C276.788 10.3924 275.962 11.4031 275.421 12.599V8.96875H268.075V41H275.421V28.7427C276.133 29.5115 277.03 30.1521 278.112 30.6646C279.222 31.1486 280.347 31.3906 281.486 31.3906C283.251 31.3906 284.874 30.9493 286.355 30.0667C287.864 29.1556 289.059 27.8458 289.942 26.1375C290.853 24.4292 291.309 22.3507 291.309 19.9021C291.309 17.2542 290.867 15.076 289.985 13.3677C289.102 11.6594 287.935 10.3924 286.483 9.56667ZM277.813 16.2719C278.496 15.9302 279.137 15.7594 279.735 15.7594C280.902 15.7594 281.842 16.158 282.554 16.9552C283.265 17.7524 283.621 18.7347 283.621 19.9021C283.621 21.041 283.28 22.0517 282.596 22.9344C281.913 23.7885 281.03 24.2156 279.948 24.2156C279.151 24.2156 278.354 24.0448 277.557 23.7031C276.788 23.3615 276.076 22.9344 275.421 22.4219V20.3292C275.421 19.2757 275.649 18.4215 276.105 17.7667C276.589 17.0833 277.158 16.5851 277.813 16.2719Z" fill="currentColor"/>
<path fill-rule="evenodd" clip-rule="evenodd" d="M305.583 8.32812C307.633 8.32812 309.455 8.78368 311.05 9.69479C312.644 10.6059 313.883 11.8872 314.765 13.5385C315.676 15.1615 316.132 17.0976 316.132 19.3469V21.8667H301.312C301.625 22.9201 302.252 23.7031 303.191 24.2156C304.131 24.7281 305.213 24.9844 306.437 24.9844C308.088 24.9844 309.512 24.7566 310.708 24.301C311.932 23.817 312.843 23.4042 313.441 23.0625V29.3406C312.701 29.7962 311.676 30.2517 310.366 30.7073C309.085 31.1628 307.633 31.3906 306.01 31.3906C304.472 31.3906 302.978 31.1344 301.526 30.6219C300.102 30.1094 298.821 29.3691 297.682 28.401C296.543 27.433 295.646 26.2656 294.991 24.899C294.336 23.5038 294.009 21.9378 294.009 20.201C294.009 18.0372 294.507 16.0583 295.504 14.2646C296.529 12.4708 297.91 11.033 299.646 9.95104C301.412 8.8691 303.391 8.32812 305.583 8.32812ZM305.369 14.3927C304.43 14.3927 303.618 14.649 302.935 15.1615C302.252 15.6455 301.753 16.4 301.44 17.425H309.17C309.17 16.4 308.772 15.6455 307.975 15.1615C307.206 14.649 306.337 14.3927 305.369 14.3927Z" fill="currentColor"/>
<path d="M333.042 16.5281C333.526 16.642 333.981 16.8128 334.408 17.0406V8.92604C333.867 8.66979 333.227 8.54167 332.487 8.54167C331.12 8.54167 330.009 8.96875 329.155 9.82292C328.33 10.6771 327.575 11.6878 326.892 12.8552V8.96875H319.546V30.75H326.892V19.5604C327.376 18.5924 328.002 17.8094 328.771 17.2115C329.54 16.6135 330.422 16.3146 331.419 16.3146C332.045 16.3146 332.586 16.3858 333.042 16.5281Z" fill="currentColor"/>
</svg>
