<svg width="420" height="94" viewBox="0 0 420 94" fill="none" xmlns="http://www.w3.org/2000/svg" class="logo">
  <path d="M71.5639 74.6667C66.5841 70.8256 64.6769 65.4511 61.1869 60.2064C56.3946 63.4451 51.6772 67.5123 46.7262 70.6775C42.0997 73.6327 34.235 76.822 28.2545 77.2765C21.1041 77.8227 14.5784 77.7631 9.87012 75.7708C14.2598 81.4308 19.8876 86.0155 26.324 89.1749C32.7604 92.3343 39.8352 93.9848 47.0084 94.0005C54.1816 94.0163 61.2636 92.3967 67.7138 89.2656C74.164 86.1345 79.812 81.5745 84.2265 75.9337C82.1885 76.8419 79.948 77.2031 77.727 76.9817C75.506 76.7603 73.3815 75.9639 71.5639 74.6713" fill="#EDB11F"/>
  <path d="M20.5704 50.6903C22.8711 48.7565 36.5932 37.5107 43.2225 25.2596C39.8083 16.9771 34.1775 5.97924 23.6544 6.25009C13.641 11.9854 6.08727 21.1895 2.42739 32.1149C-1.23249 43.0402 -0.743635 54.926 3.80112 65.5155C7.58796 61.3117 18.5252 52.4037 20.5704 50.6914" fill="#EDB11F"/>
  <path d="M21.4045 57.7667C26.4015 61.1694 36.1562 64.4356 45.0216 62.4123C48.162 61.6996 55.5976 58.4197 57.9914 54.3031C57.9914 54.3031 47.9756 33.7304 47.8146 33.6914C39.4989 41.1924 28.5503 49.087 21.4045 57.7667Z" fill="#EDB11F"/>
  <path d="M47.1074 0.000114271C40.5529 -0.00318031 34.0703 1.36232 28.0766 4.00881C30.748 3.07896 33.5527 2.58716 36.3818 2.55247C49.752 2.55247 53.303 7.2073 57.7938 14.8139C61.5749 21.2246 78.0497 52.856 79.7441 56.1933C83.9002 64.3416 87.342 66.8515 89.4839 67.555C92.975 60.3885 94.5829 52.4543 94.1567 44.4977C93.7305 36.541 91.2841 28.8231 87.0473 22.0687C82.8105 15.3143 76.9223 9.74517 69.9358 5.88445C62.9494 2.02372 55.0939 -0.00192645 47.1074 -0.00219727" fill="#EDB11F"/>
  <path d="M111.214 0.00183105H112.238V94.0018H111.214V0.00183105Z" fill="#EDB11F"/>
  <path d="M156.655 30.5026L148.172 12.7681L139.634 30.5026H156.655ZM146.252 8.18213H150.201L167.226 43.3H162.689L158.317 34.0867H137.98L133.551 43.3H129.228L146.252 8.18213Z" fill="#EDB11F"/>
  <path d="M192.463 26.2188C198.065 26.2188 202.07 23.5265 202.07 19.0461V18.952C202.07 14.6655 198.545 12.0741 192.523 12.0741H180.991V26.2234L192.463 26.2188ZM176.777 8.43036H192.837C197.424 8.43036 201.107 9.72605 203.455 11.9135C204.384 12.8006 205.119 13.8693 205.615 15.0527C206.11 16.2361 206.356 17.5088 206.337 18.7913V18.89C206.337 24.6661 202.069 28.0574 196.198 29.0558L207.671 43.3004H202.495L191.663 29.7501H180.992V43.3049H176.778L176.777 8.43036Z" fill="#EDB11F"/>
  <path d="M215.892 25.9662V25.8686C215.892 15.9989 223.788 7.83232 234.78 7.83232C237.455 7.74165 240.121 8.18428 242.622 9.13431C245.123 10.0843 247.409 11.5227 249.347 13.3651L246.471 16.256C243.339 13.1893 239.126 11.4717 234.738 11.4726C232.838 11.4291 230.949 11.7681 229.183 12.4694C227.417 13.1707 225.812 14.2198 224.462 15.5542C223.112 16.8885 222.045 18.4807 221.326 20.2355C220.606 21.9904 220.249 23.8719 220.275 25.7677V25.8686C220.247 27.7697 220.603 29.6569 221.32 31.4182C222.038 33.1795 223.102 34.7791 224.451 36.1221C225.8 37.465 227.406 38.5239 229.173 39.2359C230.94 39.9479 232.832 40.2985 234.738 40.267C239.859 40.267 243.22 38.4227 246.795 35.2357L249.57 37.7766C247.641 39.7753 245.317 41.352 242.745 42.4066C240.173 43.4612 237.409 43.9707 234.629 43.9027C223.85 43.9027 215.901 35.984 215.901 25.9662" fill="#EDB11F"/>
  <path d="M283.341 30.5026L274.855 12.7681L266.317 30.5026H283.341ZM272.935 8.18213H276.885L293.91 43.3H289.37L284.998 34.0867H264.666L260.237 43.3H255.913L272.935 8.18213Z" fill="#EDB11F"/>
  <path d="M307.681 12.0661V39.6658H316.424C325.865 39.6658 331.899 33.6888 331.899 25.9629V25.8676C331.899 18.1406 325.865 12.0661 316.424 12.0661H307.681ZM303.467 8.43036H316.424C328.157 8.43036 336.275 15.9532 336.275 25.7655V25.8665C336.275 35.6777 328.162 43.3003 316.424 43.3003H303.461L303.467 8.43036Z" fill="#EDB11F"/>
  <path d="M347.753 8.43347H351.969V43.3046H347.753V8.43347Z" fill="#EDB11F"/>
  <path d="M380.835 12.7674L389.322 30.5019H372.302L380.835 12.7674ZM378.915 8.17682L361.891 43.2947H366.211L370.643 34.0802H390.972L395.343 43.2947H399.881L382.856 8.17682H378.915Z" fill="#EDB11F"/>
  <path d="M134.476 57.3033H136.245L141.026 68.2208H139.008L137.905 65.603H132.769L131.652 68.2208H129.696L134.476 57.3033ZM137.207 63.9148L135.329 59.5802L133.467 63.9148H137.207Z" fill="#EDB11F"/>
  <path d="M147.06 62.8309V62.8C147.043 62.0608 147.177 61.3259 147.453 60.6395C147.728 59.9532 148.14 59.3296 148.664 58.8061C149.187 58.2827 149.811 57.8702 150.498 57.5935C151.186 57.3168 151.922 57.1816 152.663 57.196C153.451 57.1663 154.237 57.301 154.969 57.5915C155.702 57.882 156.366 58.3219 156.919 58.883L155.692 60.2923C155.299 59.8783 154.828 59.5461 154.306 59.3148C153.784 59.0836 153.221 58.9579 152.65 58.945C152.161 58.954 151.678 59.0608 151.231 59.2593C150.784 59.4578 150.381 59.7438 150.047 60.1004C149.713 60.4571 149.454 60.877 149.285 61.3354C149.117 61.7938 149.042 62.2813 149.066 62.769V62.8C149.04 63.2889 149.114 63.7779 149.282 64.2379C149.449 64.698 149.708 65.1197 150.043 65.478C150.377 65.8363 150.78 66.1239 151.228 66.3237C151.676 66.5235 152.16 66.6315 152.65 66.6411C153.238 66.6372 153.819 66.5113 154.356 66.2715C154.893 66.0316 155.374 65.6831 155.769 65.2479L156.995 66.485C156.449 67.1114 155.771 67.6088 155.009 67.9411C154.246 68.2734 153.42 68.4322 152.588 68.4062C151.855 68.415 151.127 68.2764 150.448 67.9985C149.769 67.7207 149.154 67.3094 148.638 66.7891C148.122 66.2688 147.716 65.6503 147.445 64.9702C147.174 64.2902 147.043 63.5626 147.06 62.8309Z" fill="#EDB11F"/>
  <path d="M158.993 57.3824H160.902V61.888H166.085V57.3824H167.995V68.2207H166.085V63.6519H160.902V68.2207H158.993V57.3824Z" fill="#EDB11F"/>
  <path d="M174.636 57.3033H176.405L181.186 68.2208H179.167L178.065 65.603H172.929L171.812 68.2208H169.856L174.636 57.3033ZM177.367 63.9148L175.489 59.5802L173.627 63.9148H177.367Z" fill="#EDB11F"/>
  <path d="M183.045 57.3821H187.887C189.034 57.3191 190.16 57.7077 191.022 58.4643C191.621 59.0943 191.944 59.9355 191.922 60.8032V60.8342C191.945 61.5956 191.701 62.3411 191.23 62.9409C190.759 63.5407 190.093 63.9567 189.346 64.1165L192.279 68.2205H190.013L187.345 64.4413H184.953V68.2205H183.045V57.3821ZM187.748 62.7542C189.114 62.7542 189.983 62.0415 189.983 60.9432V60.9111C189.983 59.7497 189.146 59.1162 187.733 59.1162H184.954V62.7542H187.748Z" fill="#EDB11F"/>
  <path d="M194.37 57.3824H196.279V68.2207H194.37V57.3824Z" fill="#EDB11F"/>
  <path d="M201.852 59.1475H198.407V57.3824H207.223V59.1475H203.772V68.2207H201.848L201.852 59.1475Z" fill="#EDB11F"/>
  <path d="M213.088 57.3033H214.858L219.637 68.2208H217.619L216.517 65.603H211.381L210.262 68.2208H208.306L213.088 57.3033ZM215.819 63.9148L213.94 59.5802L212.078 63.9148H215.819Z" fill="#EDB11F"/>
  <path d="M221.497 57.3821H226.369C227.405 57.3141 228.427 57.6586 229.21 58.3404C229.448 58.574 229.636 58.8542 229.762 59.1633C229.887 59.4725 229.948 59.8042 229.939 60.1376V60.1686C229.948 60.6783 229.805 61.1792 229.529 61.6081C229.253 62.037 228.856 62.3747 228.387 62.5786C228.998 62.6968 229.549 63.0248 229.943 63.5054C230.337 63.9861 230.549 64.5893 230.544 65.2102V65.2423C230.544 67.1772 228.946 68.2147 226.525 68.2147H221.497V57.3821ZM228.03 60.4463C228.03 59.5959 227.346 59.0692 226.121 59.0692H223.374V61.9486H225.981C227.207 61.9486 228.03 61.4689 228.03 60.4773V60.4463ZM226.401 63.5599H223.374V66.5334H226.539C227.843 66.5334 228.635 66.0215 228.635 65.0415V65.0116C228.635 64.1015 227.904 63.5633 226.401 63.5633V63.5599Z" fill="#EDB11F"/>
  <path d="M232.701 57.3824H234.609V66.4855H240.325V68.2207H232.706L232.701 57.3824Z" fill="#EDB11F"/>
  <path d="M242.305 57.3824H250.357V59.0878H244.215V61.9052H249.661V63.6095H244.215V66.5199H250.437V68.223H242.304L242.305 57.3824Z" fill="#EDB11F"/>
  <path d="M257.357 57.3824H265.444V59.1165H259.266V62.0717H264.744V63.8057H259.266V68.2196H257.357V57.3824Z" fill="#EDB11F"/>
  <path d="M267.366 63.621V57.3824H269.27V63.5452C269.27 65.5559 270.305 66.6243 272.018 66.6243C273.73 66.6243 274.747 65.6179 274.747 63.621V57.3824H276.657V63.5292C276.657 66.7667 274.825 68.3917 271.984 68.3917C269.143 68.3917 267.366 66.7655 267.366 63.621Z" fill="#EDB11F"/>
  <path d="M279.284 57.3824H281.054L286.874 64.8753V57.3824H288.751V68.2207H287.154L281.163 60.5086V68.2207H279.286L279.284 57.3824Z" fill="#EDB11F"/>
  <path d="M291.543 57.3824H295.589C296.328 57.3334 297.07 57.4364 297.768 57.685C298.466 57.9335 299.105 58.3225 299.646 58.8276C300.188 59.3327 300.619 59.9433 300.914 60.6216C301.209 61.2998 301.361 62.0313 301.361 62.7706V62.8016C301.362 63.5426 301.21 64.2758 300.916 64.9561C300.622 65.6364 300.191 66.2494 299.65 66.7573C299.109 67.2651 298.47 67.6571 297.771 67.909C297.073 68.1609 296.33 68.2674 295.589 68.2219H291.539L291.543 57.3824ZM293.452 59.1165V66.4855H295.589C296.083 66.5182 296.579 66.4468 297.044 66.2762C297.51 66.1056 297.934 65.8395 298.289 65.495C298.645 65.1506 298.924 64.7356 299.108 64.2767C299.293 63.8179 299.379 63.3255 299.361 62.8314V62.8004C299.38 62.3048 299.294 61.8108 299.11 61.3501C298.926 60.8893 298.648 60.4721 298.292 60.1251C297.937 59.7781 297.513 59.509 297.048 59.3351C296.582 59.1612 296.085 59.0864 295.589 59.1153L293.452 59.1165Z" fill="#EDB11F"/>
  <path d="M307.853 62.8313V62.8004C307.849 61.2974 308.443 59.8543 309.506 58.7886C310.568 57.7229 312.011 57.1219 313.518 57.1178C315.024 57.1137 316.471 57.7068 317.539 58.7667C318.607 59.8266 319.209 61.2664 319.213 62.7694V62.8004C319.218 64.3034 318.623 65.7464 317.561 66.8121C316.498 67.8778 315.055 68.4788 313.549 68.4829C312.042 68.487 310.596 67.8939 309.528 66.834C308.459 65.7741 307.857 64.3343 307.853 62.8313ZM317.212 62.8313V62.8004C317.231 62.3033 317.15 61.8075 316.973 61.3423C316.796 60.8771 316.528 60.4521 316.183 60.0926C315.839 59.733 315.425 59.4461 314.967 59.2491C314.51 59.052 314.017 58.9488 313.518 58.9454C313.023 58.9459 312.533 59.0464 312.077 59.2409C311.622 59.4353 311.21 59.7198 310.868 60.0771C310.526 60.4344 310.259 60.8571 310.085 61.3198C309.911 61.7825 309.833 62.2756 309.854 62.7694V62.8004C309.836 63.2967 309.917 63.7918 310.094 64.256C310.271 64.7203 310.54 65.1442 310.885 65.5027C311.229 65.8611 311.643 66.1467 312.1 66.3423C312.558 66.538 313.05 66.6397 313.548 66.6415C314.043 66.6428 314.533 66.5439 314.988 66.3509C315.443 66.1578 315.855 65.8747 316.197 65.5185C316.54 65.1624 316.806 64.7406 316.981 64.2787C317.155 63.8168 317.234 63.3244 317.212 62.8313Z" fill="#EDB11F"/>
  <path d="M321.523 57.3824H329.607V59.1165H323.431V62.0717H328.909V63.8057H323.431V68.2196H321.523V57.3824Z" fill="#EDB11F"/>
  <path d="M130.627 75.3297H132.535V84.4351H138.248V86.1704H130.627V75.3297Z" fill="#EDB11F"/>
  <path d="M140.341 75.3297H142.249V86.1681H140.341V75.3297Z" fill="#EDB11F"/>
  <path d="M144.423 84.588L145.573 83.2245C146.494 84.1134 147.721 84.6175 149.002 84.6339C150.182 84.6339 150.927 84.0761 150.927 83.2716V83.2418C150.927 82.466 150.492 82.0482 148.476 81.5834C146.162 81.0257 144.86 80.3451 144.86 78.3482V78.3172C144.86 76.458 146.412 75.1727 148.569 75.1727C150.003 75.1435 151.401 75.6271 152.51 76.5361L151.486 77.9741C150.651 77.2918 149.616 76.9004 148.538 76.8597C147.421 76.8597 146.769 77.4336 146.769 78.1462V78.1772C146.769 79.0127 147.265 79.3834 149.36 79.8803C151.661 80.4381 152.836 81.2575 152.836 83.0536V83.0846C152.836 85.1136 151.239 86.3198 148.958 86.3198C147.282 86.3297 145.664 85.7117 144.423 84.588Z" fill="#EDB11F"/>
  <path d="M155.083 75.3295H159.956C160.993 75.2613 162.014 75.606 162.796 76.2878C163.035 76.5214 163.223 76.8015 163.349 77.1106C163.474 77.4198 163.535 77.7514 163.527 78.085V78.1159C163.535 78.6257 163.392 79.1267 163.116 79.5555C162.84 79.9844 162.442 80.3221 161.974 80.526C162.585 80.6442 163.135 80.9721 163.529 81.4527C163.924 81.9334 164.137 82.5365 164.132 83.1575V83.1885C164.132 85.1235 162.532 86.1621 160.106 86.1621H155.078L155.083 75.3295ZM161.616 78.3937C161.616 77.5433 160.933 77.0165 159.708 77.0165H156.961V79.8959H159.567C160.794 79.8959 161.616 79.4162 161.616 78.4247V78.3937ZM159.987 81.5072H156.961V84.4808H160.126C161.43 84.4808 162.221 83.9689 162.221 82.9888V82.9578C162.221 82.0489 161.492 81.5061 159.987 81.5061V81.5072Z" fill="#EDB11F"/>
  <path d="M166.286 75.3297H174.338V77.0328H168.192V79.8503H173.64V81.5534H168.192V84.465H174.416V86.1681H166.284L166.286 75.3297Z" fill="#EDB11F"/>
  <path d="M179.352 77.0898H175.907V75.3248H184.723V77.0898H181.278V86.1631H179.352V77.0898Z" fill="#EDB11F"/>
  <path d="M191.393 75.3294H196.236C197.383 75.2668 198.508 75.6554 199.371 76.4117C199.969 77.0417 200.293 77.8828 200.27 78.7506V78.7815C200.294 79.5429 200.049 80.2884 199.578 80.8882C199.108 81.488 198.441 81.904 197.695 82.0638L200.628 86.1678H198.361L195.692 82.3886H193.303V86.1678H191.393V75.3294ZM196.094 80.7015C197.461 80.7015 198.33 79.9889 198.33 78.8906V78.8584C198.33 77.697 197.493 77.0635 196.08 77.0635H193.301V80.7015H196.094Z" fill="#EDB11F"/>
  <path d="M206.463 75.2516H208.231L213.012 86.1691H210.993L209.891 83.5513H204.756L203.636 86.1691H201.681L206.463 75.2516ZM209.194 81.8632L207.314 77.5285L205.453 81.8632H209.194Z" fill="#EDB11F"/>
  <path d="M214.7 81.5656V75.327H216.61V81.4898C216.61 83.5016 217.645 84.5689 219.357 84.5689C221.068 84.5689 222.087 83.5625 222.087 81.5656V75.327H223.996V81.4737C223.996 84.7112 222.164 86.3363 219.326 86.3363C216.487 86.3363 214.7 84.7124 214.7 81.5656Z" fill="#EDB11F"/>
  <path d="M225.887 84.588L227.038 83.2246C227.959 84.1139 229.187 84.6181 230.469 84.6339C231.648 84.6339 232.393 84.0761 232.393 83.2716V83.2418C232.393 82.466 231.958 82.0482 229.942 81.5834C227.629 81.0257 226.326 80.3451 226.326 78.3482V78.3172C226.326 76.4581 227.877 75.1727 230.034 75.1727C231.47 75.1434 232.868 75.6269 233.977 76.5361L232.951 77.9741C232.117 77.2913 231.082 76.8999 230.004 76.8597C228.887 76.8597 228.235 77.4336 228.235 78.1463V78.1772C228.235 79.0127 228.73 79.3834 230.827 79.8803C233.127 80.4381 234.302 81.2575 234.302 83.0536V83.0846C234.302 85.1136 232.705 86.3198 230.423 86.3198C228.747 86.3295 227.129 85.7115 225.887 84.588Z" fill="#EDB11F"/>
  <path d="M236.657 75.3297H238.566V86.1681H236.657V75.3297Z" fill="#EDB11F"/>
  <path d="M241.469 75.3297H243.238L249.058 82.8227V75.3297H250.935V86.1681H249.339L243.348 78.4559V86.1681H241.471L241.469 75.3297Z" fill="#EDB11F"/>
  <path d="M253.247 80.7788V80.7478C253.236 80.01 253.373 79.2775 253.65 78.5936C253.928 77.9096 254.34 77.2881 254.862 76.7657C255.385 76.2433 256.007 75.8307 256.691 75.5521C257.376 75.2735 258.11 75.1347 258.85 75.1438C260.38 75.0715 261.879 75.5995 263.024 76.6151L261.813 78.0554C261.408 77.6716 260.93 77.3714 260.408 77.1721C259.886 76.9728 259.33 76.8783 258.772 76.894C258.288 76.9135 257.814 77.0279 257.375 77.2308C256.936 77.4337 256.542 77.721 256.215 78.0763C255.887 78.4316 255.634 78.8478 255.468 79.3011C255.302 79.7544 255.228 80.2359 255.249 80.7179V80.7489C255.214 81.2504 255.284 81.7537 255.455 82.2267C255.626 82.6997 255.894 83.1319 256.241 83.496C256.589 83.8601 257.008 84.1479 257.474 84.3412C257.939 84.5345 258.439 84.6291 258.943 84.6188C259.883 84.6302 260.802 84.3428 261.567 83.7982V81.7703H258.789V80.1143H263.413V84.6658C262.155 85.7544 260.546 86.3542 258.881 86.3552C258.136 86.3892 257.392 86.2686 256.695 86.001C255.999 85.7334 255.367 85.3246 254.837 84.8005C254.308 84.2764 253.893 83.6483 253.619 82.9561C253.345 82.2638 253.218 81.5224 253.247 80.7788Z" fill="#EDB11F"/>
  <path d="M276.631 84.9133C275.752 85.799 274.559 86.3051 273.31 86.3226C272.869 86.3703 272.423 86.3264 272 86.1935C271.577 86.0606 271.186 85.8417 270.852 85.5505C270.518 85.2594 270.248 84.9023 270.059 84.5018C269.871 84.1014 269.767 83.6663 269.755 83.224V83.193C269.771 82.508 270.003 81.8453 270.418 81.2997C270.834 80.7541 271.411 80.3535 272.069 80.1552C271.509 79.5325 271.19 78.7308 271.169 77.8943V77.8622C271.183 77.475 271.276 77.0946 271.442 76.7446C271.609 76.3946 271.846 76.0824 272.138 75.8272C272.43 75.572 272.772 75.3793 273.141 75.2609C273.511 75.1425 273.901 75.101 274.288 75.1388C274.652 75.1108 275.018 75.1573 275.363 75.2754C275.709 75.3936 276.026 75.5809 276.297 75.8259C276.567 76.071 276.784 76.3685 276.935 76.7003C277.086 77.0321 277.167 77.3912 277.174 77.7554V77.7864C277.174 79.2095 276.227 80.0622 274.785 80.6039L276.647 82.4929C277.088 81.8269 277.477 81.1283 277.811 80.4031L279.256 81.1617C278.837 82.0236 278.344 82.8473 277.781 83.6234L279.507 85.3586L278.08 86.3789L276.631 84.9133ZM275.545 83.7989L273.129 81.3372C272.733 81.4529 272.382 81.6874 272.124 82.0089C271.865 82.3304 271.713 82.7233 271.686 83.1345V83.1643C271.694 83.389 271.748 83.6095 271.845 83.8125C271.942 84.0155 272.08 84.1965 272.249 84.3446C272.419 84.4927 272.617 84.6047 272.831 84.6737C273.046 84.7426 273.272 84.7672 273.496 84.7458C274.277 84.7093 275.012 84.3695 275.545 83.7989ZM275.483 77.9001V77.8679C275.49 77.7053 275.464 77.5428 275.405 77.391C275.346 77.2392 275.256 77.1013 275.141 76.9862C275.025 76.871 274.887 76.7812 274.735 76.7223C274.583 76.6635 274.42 76.637 274.257 76.6445C274.083 76.6367 273.91 76.665 273.749 76.7276C273.587 76.7903 273.44 76.8859 273.317 77.0084C273.195 77.1308 273.099 77.2775 273.036 77.4389C272.974 77.6003 272.945 77.773 272.953 77.946V77.9758C272.975 78.2852 273.058 78.587 273.2 78.8632C273.341 79.1393 273.537 79.384 273.776 79.5825C274.888 79.1854 275.483 78.6747 275.483 77.9001Z" fill="#EDB11F"/>
  <path d="M286.004 75.3297H290.287C292.833 75.3297 294.416 76.77 294.416 78.9528V78.9827C294.416 81.4145 292.461 82.6838 290.071 82.6838H287.913V86.1681H286.005L286.004 75.3297ZM290.134 80.9646C291.575 80.9646 292.477 80.1613 292.477 79.0297V78.9988C292.477 77.7295 291.556 77.0638 290.134 77.0638H287.913V80.9658L290.134 80.9646Z" fill="#EDB11F"/>
  <path d="M296.364 75.3297H304.416V77.0328H298.271V79.8503H303.726V81.5534H298.279V84.465H304.503V86.1681H296.364V75.3297Z" fill="#EDB11F"/>
  <path d="M309.436 77.0898H305.99V75.3248H314.804V77.0898H311.359V86.1631H309.434L309.436 77.0898Z" fill="#EDB11F"/>
  <path d="M316.82 75.3297H324.872V77.0328H318.726V79.8503H324.182V81.5534H318.735V84.465H324.957V86.1681H316.82V75.3297Z" fill="#EDB11F"/>
  <path d="M327.218 75.3294H332.06C333.206 75.2665 334.332 75.6551 335.194 76.4117C335.793 77.0414 336.118 77.8825 336.096 78.7506V78.7815C336.12 79.5432 335.874 80.289 335.403 80.8888C334.932 81.4887 334.265 81.9045 333.518 82.0638L336.453 86.1678H334.185L331.517 82.3886H329.127V86.1678H327.219L327.218 75.3294ZM331.919 80.7015C333.285 80.7015 334.155 79.9888 334.155 78.8905V78.8584C334.155 77.697 333.316 77.0635 331.904 77.0635H329.126V80.7015H331.919Z" fill="#EDB11F"/>
  <path d="M343.093 75.3295H347.965C349.002 75.2613 350.023 75.606 350.806 76.2878C351.044 76.5215 351.232 76.8016 351.357 77.1107C351.483 77.4199 351.543 77.7515 351.535 78.085V78.1159C351.544 78.6257 351.401 79.1267 351.125 79.5557C350.849 79.9846 350.452 80.3223 349.983 80.526C350.594 80.6438 351.145 80.9715 351.539 81.4523C351.934 81.933 352.146 82.5364 352.141 83.1575V83.1885C352.141 85.1235 350.541 86.1621 348.115 86.1621H343.087L343.093 75.3295ZM349.625 78.3937C349.625 77.5433 348.942 77.0165 347.717 77.0165H344.97V79.8959H347.577C348.803 79.8959 349.625 79.4162 349.625 78.4247V78.3937ZM347.995 81.5072H344.97V84.4808H348.136C349.44 84.4808 350.23 83.9689 350.23 82.9888V82.9578C350.23 82.0489 349.506 81.5061 347.997 81.5061L347.995 81.5072Z" fill="#EDB11F"/>
  <path d="M358.146 75.2516H359.915L364.695 86.1691H362.675L361.573 83.5513H356.438L355.32 86.1691H353.365L358.146 75.2516ZM360.876 81.8632L358.998 77.5285L357.137 81.8632H360.876Z" fill="#EDB11F"/>
  <path d="M366.554 75.3297H368.464V84.4351H374.174V86.1704H366.553L366.554 75.3297Z" fill="#EDB11F"/>
  <path d="M376.16 75.3289H380.21C380.95 75.2797 381.692 75.3825 382.39 75.631C383.088 75.8795 383.728 76.2684 384.269 76.7735C384.81 77.2787 385.242 77.8893 385.537 78.5676C385.832 79.246 385.985 79.9775 385.985 80.717V80.748C385.985 81.4892 385.834 82.2225 385.539 82.9029C385.245 83.5833 384.814 84.1964 384.273 84.7042C383.732 85.212 383.092 85.604 382.393 85.8558C381.695 86.1076 380.952 86.214 380.21 86.1683H376.16V75.3289ZM378.071 77.063V84.4343H380.21C380.705 84.4669 381.201 84.3956 381.666 84.2249C382.131 84.0543 382.555 83.7882 382.911 83.4438C383.266 83.0994 383.545 82.6843 383.73 82.2255C383.914 81.7666 384 81.2742 383.982 80.7802V80.7492C384.001 80.2536 383.915 79.7595 383.731 79.2988C383.547 78.8381 383.269 78.4208 382.914 78.0738C382.559 77.7268 382.135 77.4577 381.669 77.2839C381.203 77.11 380.707 77.0351 380.21 77.0641L378.071 77.063Z" fill="#EDB11F"/>
  <path d="M387.456 75.3295H389.52L392.112 83.363L394.781 75.2939H396.391L399.059 83.363L401.651 75.3295H403.653L399.881 86.2436H398.222L395.552 78.4546L392.884 86.2436H391.238L387.456 75.3295Z" fill="#EDB11F"/>
  <path d="M405.721 75.3297H407.629V86.1681H405.721V75.3297Z" fill="#EDB11F"/>
  <path d="M410.532 75.3297H412.302L418.122 82.8227V75.3297H420V86.1681H418.402L412.411 78.4559V86.1681H410.532V75.3297Z" fill="#EDB11F"/>
</svg>
