<svg xmlns="http://www.w3.org/2000/svg" fill="none" viewBox="0 0 452 102"><g fill="#EDAE00" clip-path="url(#a)"><path d="M23.43 62.035c25.39 14.794 38.747-3.75 38.747-3.75l-10.93-21.747C46.06 41.062 32.703 51.219 23.43 62.035ZM54.782 6.679c3.657 1.969 10.55 15.04 12.915 19.096 2.58 4.424 20.973 41.78 24.285 43.989 0 0 3.101 3.002 4.213 2.924a50.268 50.268 0 0 0 5.051-22.02c0-27.875-22.597-50.47-50.47-50.47A50.32 50.32 0 0 0 31.572 3.99c6.263-1.784 15.859-2.256 23.211 2.69ZM76.801 80.568c-4.837-4.144-8.332-11.633-11.092-15.605-10.708 8.112-22.464 18.542-39.796 18.542 0 0-10.616.027-14.805-1.77 9.28 11.796 23.66 19.401 39.668 19.401 15.997 0 30.247-7.45 39.493-19.063-3.344 1.278-7.625 1.983-13.468-1.505ZM43.516 32.095c1.004-1.43 2.01-3.21 2.82-5.05 0 0-6.503-20.032-20.312-20.356C10.677 15.346.308 31.789.308 50.669a49.926 49.926 0 0 0 4.016 19.658c19.684-18.232 27.381-21.45 39.192-38.232ZM154.283 51.518l-8.186-18.946-8.12 18.946h16.306Zm-11.909-28.893h7.715l20.84 47.703h-8.796l-4.804-11.436h-22.398l-4.87 11.436h-8.527l20.84-47.703ZM199.545 46.443c5.955 0 9.744-3.113 9.744-7.916v-.136c0-5.076-3.655-7.85-9.812-7.85h-12.112v15.902h12.18Zm-20.503-23.479h21.112c5.954 0 10.623 1.759 13.668 4.736 2.503 2.57 3.924 6.09 3.924 10.216v.136c0 7.782-4.669 12.45-11.232 14.346l12.788 17.93h-9.878l-11.638-16.51h-10.421v16.51h-8.323V22.964ZM225.86 46.781v-.136c0-13.464 10.081-24.494 24.427-24.494 8.728 0 14.005 3.045 18.54 7.376l-5.346 6.157c-3.789-3.519-7.849-5.887-13.261-5.887-9 0-15.631 7.443-15.631 16.714v.134c0 9.271 6.563 16.78 15.631 16.78 5.817 0 9.54-2.298 13.6-6.089l5.345 5.413c-4.938 5.143-10.353 8.391-19.217 8.391-13.803 0-24.088-10.759-24.088-24.359ZM306.576 51.518l-8.186-18.946-8.12 18.946h16.306Zm-11.908-28.893h7.714l20.84 47.703h-8.796l-4.804-11.436h-22.396l-4.872 11.436h-8.526l20.84-47.703ZM339.66 30.542v32.206h9.336c9.948 0 16.442-6.697 16.442-15.966v-.136c0-9.27-6.494-16.104-16.442-16.104h-9.336Zm-8.323-7.579h17.659c14.886 0 25.172 10.219 25.172 23.548v.135c0 13.329-10.286 23.682-25.172 23.682h-17.659V22.963ZM384.717 22.964h8.323v47.364h-8.323V22.964ZM434.379 51.518l-8.188-18.946-8.118 18.946h16.306ZM422.47 22.625h7.715l20.84 47.703h-8.796l-4.804-11.436h-22.398l-4.872 11.436h-8.524l20.839-47.703Z"/></g><defs><clipPath id="a"><path fill="#fff" d="M0 0h452v102H0z"/></clipPath></defs></svg>