<svg xmlns="http://www.w3.org/2000/svg" viewBox="0 0 126.52 27.06" class="logo">
  <path fill="#2c2a29" d="M86.016.555a.432.432 0 0 0-.168.03c-.12.64-.384 1.663-.656 2.385.072.125.312.207.448.11.192-.399.36-.75.776-1.102.432-.367 1.376-.401 2.12-.401h.944c.52 0 .52.014.52.51v7.15c0 1.68-.08 1.92-1.064 2l-.624.046c-.136.082-.104.35 0 .401 1.104-.031 1.704-.05 2.4-.05.688 0 1.272.019 2.256.05.104-.05.136-.334.032-.4l-.552-.048c-1-.078-1.032-.32-1.032-2V2.123c0-.53-.016-.546.496-.546h1.224c.952 0 1.608.128 2 .401.264.176.384.766.432 1.164.088.098.376.099.448-.026-.056-.485.072-1.778.264-2.435-.04-.062-.232-.078-.312-.047-.264.414-.416.446-1.344.446H87.64c-.792 0-1.36.016-1.464-.496-.024-.023-.096-.031-.16-.03zm19.776 0a.432.432 0 0 0-.168.03c-.12.64-.376 1.663-.656 2.385.072.125.312.207.448.11.192-.399.36-.75.776-1.102.432-.367 1.376-.401 2.12-.401h.944c.52 0 .52.014.52.51v7.15c0 1.68-.08 1.92-1.064 2l-.624.046c-.136.082-.104.35 0 .401 1.104-.031 1.704-.05 2.4-.05.688 0 1.272.019 2.256.05.104-.05.136-.334.032-.4l-.552-.048c-1-.078-1.032-.32-1.032-2V2.123c0-.53-.016-.546.504-.546h1.216c.952 0 1.608.128 2 .401.264.176.384.766.432 1.164.088.098.376.099.448-.026-.048-.485.072-1.778.256-2.435-.032-.062-.216-.078-.304-.047-.264.414-.416.446-1.352.446h-6.976c-.792 0-1.36.016-1.464-.496-.024-.023-.096-.031-.16-.03zM25.415.827c-3.55 0-6.136 2.444-6.136 5.643 0 2.879 2.311 5.422 6.136 5.422 3.324 0 5.981-2.35 5.981-5.581 0-2.816-2-5.484-5.98-5.484zm41.555 0c-.187.207-.48.496-.893.609.05.254-.052.559-.294 1.133l-1.758 4.32c-.723 1.79-1.208 2.828-1.516 3.566-.242.574-.62.75-1.034.781l-.567.047c-.106.082-.07.336.03.403.466-.015 1.087-.051 1.657-.051.809.019 1.345.02 1.794.05.152-.066.152-.32.03-.402l-.566-.047c-.414-.031-.5-.129-.5-.32 0-.176.122-.605.38-1.329l.601-1.68c.121-.331.227-.382.656-.382h2.602c.516 0 .585.052.706.403l.758 2.175c.137.383.227.67.227.848 0 .157-.242.254-.605.285l-.5.047c-.121.082-.102.336.035.403.5-.015 1.152-.051 1.98-.051.778 0 1.38.02 2.087.05.085-.066.12-.32 0-.402l-.466-.047c-.742-.078-.964-.32-1.464-1.695l-2.36-6.425c-.261-.707-.536-1.443-.762-2.146-.031-.113-.152-.143-.258-.143zm14.512 0c-2.236 0-3.513 1.23-3.513 2.75 0 1.312 1 2.222 1.864 2.75l1.633.992c1.264.754 1.416 1.534 1.416 2.237 0 .96-.712 1.84-2.152 1.84-2.004 0-2.71-1.565-2.968-2.381-.07-.095-.328-.067-.413.046.035.754.257 1.89.464 2.238.328.176 1.242.593 2.693.593 2.24 0 3.664-1.2 3.664-2.96 0-1.516-1.064-2.446-2.152-3.071l-1.376-.797c-.64-.367-1.465-1.039-1.465-1.969 0-.734.358-1.773 2.049-1.773 1.656 0 2.12 1.039 2.344 1.805.088.097.36.05.432-.047 0-.672-.16-1.566-.312-1.949a2.51 2.51 0 0 1-.6-.098 7.33 7.33 0 0 0-1.608-.206zm19.528 0c-.184.207-.48.496-.896.609.056.254-.048.559-.288 1.133l-1.76 4.32c-.728 1.79-1.208 2.828-1.52 3.566-.24.574-.616.75-1.032.781l-.568.047c-.104.082-.064.336.032.403.464-.015 1.088-.051 1.656-.051.808.019 1.344.02 1.792.05.152-.066.152-.32.032-.402l-.56-.047c-.416-.031-.504-.129-.504-.32 0-.176.12-.605.376-1.329l.6-1.68c.128-.331.232-.382.664-.382h2.6c.512 0 .584.052.704.403l.76 2.175c.136.383.224.67.224.848 0 .157-.248.254-.608.285l-.496.047c-.12.082-.104.336.032.403.504-.015 1.152-.051 1.984-.051.776 0 1.376.02 2.088.05.08-.066.12-.32 0-.402l-.472-.047c-.736-.078-.96-.32-1.464-1.695l-2.352-6.425a60.029 60.029 0 0 1-.768-2.146c-.032-.113-.152-.143-.256-.143zM.825 1.033c-.102.05-.137.337-.032.403l.274.031c1 .11 1.036.335 1.036 2.011v5.758c0 1.68-.036 1.887-1.036 2l-.43.047c-.101.098-.07.352.036.403a51.546 51.546 0 0 1 2.156-.051c.688 0 1.274.02 2.29.05.105-.05.135-.335.034-.402l-.586-.047c-1.02-.078-1.05-.32-1.05-2V7.014c0-.414.05-.43.565-.43h1.172c.657 0 1.086.016 1.329.079.328.097.465.32.551.609l.175.625c.117.094.375.094.445 0 0-.371-.07-.977-.07-1.555 0-.59.07-1.231.07-1.614-.07-.098-.359-.098-.445 0l-.156.64c-.106.415-.242.494-.433.56-.207.067-.759.097-1.466.097H4.082c-.515 0-.565 0-.565-.433V2.217c0-.605 0-.64.515-.64h1.05c.727 0 1.293-.001 1.672.096.864.207 1.071.802 1.208 1.52.122.094.363.047.414-.05a38.607 38.607 0 0 1-.052-2.11c-.226.05-1.222.051-2.327.051H2.829c-.691 0-1.278-.016-2.004-.051zm9.034 0c-.105.047-.14.337-.034.403l.43.031c1.086.078 1.12.336 1.12 2.016v5.753c0 1.68-.034 1.907-1.034 2l-.516.047c-.105.098-.071.356.034.403a63.471 63.471 0 0 1 2.24-.047h1.586c1.773 0 3.409.016 4.292.047.238-.434.721-2.063.721-2.239 0-.113-.327-.175-.432-.096-.344.816-.788 1.39-1.136 1.58-.274.145-.637.212-2.102.212-1.36 0-1.688-.192-1.88-.37-.308-.302-.362-.72-.362-1.727V3.483c0-1.68.036-1.938 1.055-2.016l.413-.031c.102-.066.066-.356-.035-.403a48.25 48.25 0 0 1-2.12.047c-.688 0-1.275-.012-2.24-.047zm25.813 0c-1.688 0-2.879.047-3.844.13-.137.062-.137.32-.015.398l.55.066c.707.078.757.351.757 1.867v5.742c0 1.68-.034 1.887-1.031 2l-.433.047c-.1.113-.07.352.035.403.808-.031 1.43-.051 2.156-.051.688 0 1.273.02 2.047.05.105-.05.141-.32.036-.402l-.36-.047c-1-.129-1.035-.32-1.035-2V7.22c0-.332.035-.351.812-.351.688 0 .962.165 1.224.512.53.723 1.238 1.824 1.687 2.418 1.223 1.613 2.1 2.016 3.566 2.016.328 0 .605-.035.758-.082.086-.062.07-.192-.016-.223a2.162 2.162 0 0 1-1.19-.45c-1.173-.909-2.087-2.191-3.461-4.254-.087-.125-.172-.285-.087-.382.86-.32 2.152-1.153 2.152-2.672 0-1.121-.601-1.84-1.43-2.238-.793-.398-1.807-.481-2.878-.481zm8.383 0c-.101.05-.136.337-.031.403l.43.031c1.015.078 1.05.352 1.05 2.047v5.69c0 1.696-.035 1.919-1.05 2.032l-.43.047c-.106.098-.07.352.03.403a56.33 56.33 0 0 1 2.176-.051c.688 0 1.274.02 2.138.05.101-.05.136-.335.034-.402l-.433-.047c-1.015-.113-1.051-.336-1.051-2.031v-5.69c0-1.696.036-1.97 1.051-2.048l.433-.031c.102-.066.067-.352-.034-.403a49.04 49.04 0 0 1-2.138.051c-.726 0-1.311-.016-2.175-.051zm10.425 0c-1.46 0-2.859.047-4.324.13-.17.062-.152.32-.015.398l.379.05c.722.094.808.43.808 1.552l-.001 6.073c0 1.68-.035 1.871-1.031 2l-.399.047c-.101.098-.07.352.036.403.809-.031 1.43-.051 2.154-.051.605 0 1.705.13 2.807.13 1.329 0 2.742-.208 3.863-.766 1.964-.992 3.012-2.735 3.012-4.766 0-2.113-1.168-3.934-3.496-4.719-1.121-.383-2.344-.481-3.793-.481zm62.652 0c-.096.047-.136.337-.032.403l.272.031c1.016.11 1.056.352 1.056 2.016v5.753c0 1.68-.088 1.922-1.064 2l-.576.047c-.096.098-.072.356.04.403a70.45 70.45 0 0 1 2.344-.047h1.544c1.537 0 3.073.016 4.625.047.216-.434.656-1.665.776-2.223-.072-.144-.312-.19-.432-.112-.448.832-.92 1.39-1.224 1.55-.384.175-.88.242-2.208.242-1.52 0-1.88-.176-2.08-.37-.28-.27-.337-.818-.337-1.662V6.858c0-.418.056-.434.568-.434h1c.673 0 1.089.015 1.329.078.344.078.464.32.536.609l.152.622c.088.098.384.097.448-.013 0-.355-.064-.96-.064-1.539 0-.605.064-1.23.064-1.612-.064-.114-.36-.114-.448-.016l-.136.656c-.088.399-.208.496-.416.558-.2.063-.736.094-1.464.094h-1c-.513 0-.569 0-.569-.445V2.217c0-.605 0-.64.52-.64h1.24c.76 0 1.313.014 1.673.096.896.207 1.056.77 1.312 1.52.088.095.36.067.432-.03-.072-.704-.176-1.857-.28-2.13-.2.047-1.224.047-2.328.047h-3.233c-.712 0-1.296-.012-2.04-.047zm-92.009.289c3.29 0 4.55 2.848 4.55 5.484 0 3.153-1.967 4.59-4.034 4.59-3.394 0-4.633-3.07-4.633-5.437 0-3.5 2.324-4.637 4.117-4.637zm10.532.208c1.914 0 2.758 1.199 2.758 2.46 0 1.09-.4 1.65-.864 1.985-.5.352-1.157.417-1.774.417-.879 0-1.136-.034-1.19-.081-.051-.063-.052-.24-.052-.528V2.04c0-.45.052-.511 1.122-.511zm18.964 0c4.516 0 5.426 2.972 5.426 4.734 0 2.973-1.496 5.003-4.84 5.003-1.085 0-1.741-.16-2.12-.656-.293-.383-.344-.895-.344-1.742V2.97c0-.722.035-1.12.172-1.218.137-.094.687-.222 1.706-.222zm11.766 1.245h.036c.101.195.257.629.394 1.008l.934 2.61c.156.429.12.496-.38.496h-2.12c-.48 0-.5-.02-.364-.387l1.086-2.782c.191-.48.363-.863.414-.945zm34.042 0h.032c.104.195.264.629.4 1.008l.928 2.61c.152.429.12.496-.376.496h-2.12c-.48 0-.504-.02-.368-.387l1.088-2.782c.192-.48.368-.863.416-.945zM91.21 15.277a.404.404 0 0 0-.16.03c-.12.64-.384 1.664-.656 2.387.072.124.312.207.448.11.192-.4.36-.751.776-1.102.432-.368 1.376-.404 2.12-.404h.944c.52 0 .52.017.52.513v7.148c0 1.68-.08 1.923-1.064 2l-.624.048c-.136.081-.104.35 0 .401 1.104-.031 1.704-.05 2.392-.05.696 0 1.28.019 2.264.05.104-.051.136-.335.032-.401l-.552-.048c-1-.077-1.032-.32-1.032-2v-7.113c0-.532-.016-.548.496-.548h1.224c.952 0 1.608.13 2 .404.256.176.376.765.432 1.164.088.097.376.096.448-.028-.056-.485.072-1.777.264-2.433-.04-.063-.232-.079-.312-.047-.264.414-.416.445-1.344.445h-6.984c-.792 0-1.36.015-1.464-.497-.024-.023-.096-.032-.168-.03zm-10.345.272c-2.239 0-3.512 1.23-3.512 2.75 0 1.312 1 2.222 1.86 2.75l1.636.992c1.264.754 1.416 1.534 1.416 2.238 0 .96-.712 1.84-2.152 1.84-2.002 0-2.708-1.567-2.966-2.383-.07-.093-.329-.066-.414.047.035.754.26 1.89.464 2.237.328.176 1.242.595 2.688.595 2.244 0 3.668-1.2 3.668-2.962 0-1.515-1.064-2.445-2.152-3.07l-1.376-.797c-.64-.368-1.464-1.039-1.464-1.97 0-.733.358-1.772 2.048-1.772 1.656 0 2.12 1.04 2.344 1.805.088.097.36.05.432-.047 0-.672-.152-1.566-.312-1.95-.136 0-.384-.035-.6-.098a7.37 7.37 0 0 0-1.608-.205zm-69.188.205c-.105.052-.136.322-.034.388l.43.027c1 .081 1.034.356 1.034 2.02v3.769c0 1.906.43 3.075 1.343 3.778.844.672 2.036.879 3.224.879 1.278 0 2.55-.418 3.289-1.168.969-.957 1.206-2.43 1.206-3.825v-1.805c0-.895 0-2.734.243-3.261.101-.206.43-.352.864-.387l.413-.027c.087-.097.101-.305-.036-.388-.62.032-1.084.052-1.807.052a40.5 40.5 0 0 1-1.965-.052c-.106.067-.14.27-.035.388l.43.027c.433.035.741.145.862.34.293.477.328 2.316.328 3.308v1.84c0 2.43-.95 4.254-3.45 4.254-2.636 0-3.495-1.695-3.495-4.268v-3.454c0-1.664.034-1.939 1.034-2.02l.411-.027c.106-.066.07-.336-.031-.388-.848.032-1.415.052-2.122.052-.692 0-1.276-.02-2.136-.052zm12.68 0c-.137.067-.138.306-.036.404l.294.03c.414.048.828.162 1.07.384.36.367.378.702.378 1.151v4.623c0 .765.016 2.717-.226 3.292-.087.176-.36.273-.758.32l-.464.047c-.102.098-.087.32.034.403a30.761 30.761 0 0 1 1.794-.052c.637 0 1.239.021 2.015.052.122-.082.136-.274.035-.403l-.535-.047c-.43-.031-.777-.129-.879-.305-.293-.476-.313-2.558-.313-3.307v-3.49c0-.476.02-.847.09-1.04h.032c.363.353 1.535 1.666 2 2.162l3.996 4.222c1.5 1.583 2.004 2.141 2.207 2.415.192 0 .294-.078.328-.176-.05-.418-.051-2.32-.051-2.796v-3.826c0-.735-.035-2.718.258-3.292.07-.129.415-.258.965-.336l.243-.031c.101-.098.1-.321-.036-.404a26.63 26.63 0 0 1-1.774.048c-.656 0-1.24-.012-2.034-.048-.136.048-.157.306-.036.404l.294.03c.691.08.965.177 1.07.322.328.476.344 2.557.344 3.307v3.422c0 .336-.001.594-.068.672h-.034c-.813-.765-1.656-1.663-2.843-2.894l-1.672-1.742c-.57-.593-2.603-2.704-2.95-3.52a5.455 5.455 0 0 1-.793.047c-.308 0-1.222 0-1.945-.048zm13.781 0c-.101.052-.136.337-.03.404l.429.03c1.015.08 1.05.353 1.05 2.048v5.69c0 1.696-.035 1.919-1.05 2.032l-.43.047c-.105.098-.07.352.031.403a56.36 56.36 0 0 1 2.176-.052c.687 0 1.273.021 2.137.052.101-.051.133-.337.032-.403l-.43-.047c-1.016-.113-1.052-.336-1.052-2.031v-5.69c0-1.696.036-1.97 1.051-2.048l.43-.031c.102-.067.07-.352-.031-.404-.864.036-1.45.052-2.137.052-.728 0-1.312-.016-2.176-.052zm47.063 0c-.096.052-.136.337-.032.404l.432.03c1.016.08 1.056.353 1.056 2.048v5.69c0 1.696-.04 1.919-1.056 2.032l-.432.047c-.104.098-.064.352.032.403a56.772 56.772 0 0 1 2.176-.052c.688 0 1.28.021 2.137.052.104-.051.136-.337.032-.403l-.424-.047c-1.017-.113-1.057-.336-1.057-2.031v-5.69c0-1.696.04-1.97 1.057-2.048l.424-.031c.104-.067.072-.352-.032-.404-.857.036-1.449.052-2.137.052-.72 0-1.312-.016-2.176-.052zm-41.946.002c-.136.082-.152.304-.03.402l.307.03c.743.08 1 .416 1.395 1.31l3.035 6.941c.293.672.606 1.456.793 2.128a.755.755 0 0 0 .259.048.393.393 0 0 0 .19-.048c.293-.848 1.102-2.702 1.789-4.175l.93-1.964c.777-1.633 1.45-2.93 1.934-3.68.223-.335.48-.528.894-.56l.516-.03c.086-.082.085-.336-.032-.402a30.03 30.03 0 0 1-3.464 0c-.12.066-.156.304-.036.402l.313.03c.602.063.773.194.773.302 0 .114-.02.29-.156.626-.293.687-1.102 2.495-1.602 3.58-.398.849-1.12 2.496-1.656 3.551-.859-1.82-1.652-3.663-2.445-5.514-.535-1.215-.827-2.079-.863-2.243.02-.124.156-.223.813-.301l.258-.031c.12-.098.085-.336-.036-.402-.723.031-1.328.05-2.086.05-.742 0-1.293-.019-1.793-.05zm12.508 0c-.101.047-.136.335-.03.402l.273.03c1.015.11 1.05.353 1.05 2.017v5.754c0 1.68-.085 1.923-1.066 2l-.57.048c-.101.097-.068.354.034.401a70.789 70.789 0 0 1 2.344-.047h1.552c1.531 0 3.066.016 4.617.047.226-.433.655-1.663.777-2.222-.07-.144-.312-.192-.433-.114-.446.832-.911 1.391-1.224 1.551-.379.176-.878.243-2.206.243-1.516 0-1.876-.177-2.083-.372-.278-.27-.328-.815-.328-1.66V21.58c0-.418.05-.433.57-.433h1c.672 0 1.083.016 1.325.078.348.078.464.32.535.61l.156.62c.082.097.379.098.445-.01 0-.357-.065-.962-.065-1.54 0-.606.065-1.231.065-1.615-.066-.112-.363-.112-.445-.015l-.14.656c-.087.399-.203.497-.41.56s-.743.093-1.466.093h-1c-.52 0-.57 0-.57-.445v-3.2c0-.605 0-.64.515-.64h1.243c.757 0 1.308.016 1.672.098.894.207 1.052.769 1.31 1.52.085.093.362.065.429-.033-.067-.702-.172-1.854-.274-2.128-.207.047-1.227.047-2.325.047H57.8c-.707 0-1.292-.012-2.035-.047zm13.909 0c-1.688 0-2.88.046-3.844.128-.137.063-.137.32-.016.4l.55.066c.707.078.758.352.758 1.867v5.742c0 1.68-.035 1.888-1.035 2l-.43.048c-.101.112-.07.35.035.401.813-.031 1.43-.05 2.154-.05.69 0 1.276.019 2.054.05.102-.051.137-.32.031-.401l-.359-.048c-1-.128-1.036-.32-1.036-2v-2.015c0-.332.035-.352.813-.352.687 0 .961.163 1.223.511.531.723 1.238 1.825 1.687 2.419 1.224 1.613 2.101 2.016 3.566 2.016.328 0 .602-.036.758-.083.086-.063.07-.19-.016-.222a2.18 2.18 0 0 1-1.19-.45c-1.172-.91-2.086-2.19-3.46-4.253-.087-.125-.177-.285-.087-.383.859-.32 2.152-1.153 2.152-2.672 0-1.121-.602-1.84-1.43-2.239-.794-.398-1.812-.48-2.878-.48zm32.162.003c-.12.067-.136.29-.032.403l.48.079c.52.077.784.159 1.36 1.213l2.04 3.68c.496.895.552 1.103.552 1.982v.815c0 1.712-.04 1.938-1.04 2.032l-.528.047c-.104.097-.072.352.032.403a54.951 54.951 0 0 1 2.256-.052c.688 0 1.28.017 2.344.052.104-.051.136-.306.032-.403l-.656-.047c-.928-.063-1.032-.32-1.032-2.032v-.83c0-1.231.056-1.377.808-2.591l1.088-1.743c.864-1.375 1.376-2.382 2.28-2.526l.48-.079c.12-.097.104-.32-.04-.403a28.58 28.58 0 0 1-1.6.052c-.528 0-1.032-.02-1.656-.052-.136.067-.152.29-.032.403l.312.032c.416.047.72.159.72.253 0 .191-.632 1.282-1.112 2.114a63.71 63.71 0 0 1-1.624 2.703c-.672-1.106-1.312-2.368-1.952-3.551-.08-.16-.528-1.074-.528-1.23 0-.13.12-.211.72-.29l.232-.03c.096-.098.096-.353-.056-.404a27 27 0 0 1-1.848.052c-.824 0-1.448-.02-2-.052zm-32.178.492c1.914 0 2.753 1.2 2.753 2.462 0 1.09-.394 1.648-.859 1.984-.5.352-1.156.42-1.777.42-.875 0-1.137-.037-1.188-.084-.05-.062-.051-.238-.051-.527v-3.742c0-.449.052-.513 1.122-.513z"/>
</svg>
