<svg xmlns="http://www.w3.org/2000/svg" viewBox="0 0 720.1 84.2" id="svg2" version="1.1" class="logo">
  <g id="layer1" transform="translate(37.193 -635.976)">
    <g id="layer1-3" transform="translate(-68.571 182.857)">
      <path class="st2" d="M124.479 535.62h26.3l14.1-80.7h-26.3l-5.2 28.9h-22.8l5.2-28.9h-26.3l-14.1 80.7h26.3l5.3-30.2h22.8l-5.3 30.2z" id="path3348" fill="currentColor"/>
      <path class="st2" d="M179.779 454.82l-8 44.9c-.7 3.5-1 6.9-1 10.1 0 23.8 20.8 27.4 33.3 27.4 26.2 0 37.5-8.7 41.6-32.2l8.8-50.3h-26.3l-7.5 42.2c-2.4 13.2-4.1 20.1-13.9 20.1-6.4 0-9.5-3.4-9.5-10.4 0-2.7.4-6 1.2-10.1l7.6-41.8h-26.3z" id="path3352" fill="currentColor"/>
      <path class="st2" d="M393.479 535.62h26.3l3.7-20.8h12.4c22.9 0 35.6-12.4 35.6-35 0-15.9-11-25-30.3-25h-33.6l-14.1 80.8zm41-40.7h-7.6l3.5-19h7.1c5.8 0 8.9 2.9 8.9 8.2 0 6.7-4.5 10.8-11.9 10.8z" id="path3356" fill="currentColor"/>
      <path class="st2" d="M522.579 453.12c-28.6 0-45.7 18.5-45.7 49.6 0 21.6 13.6 34.6 36.4 34.6 28.6 0 45.7-18.5 45.7-49.6.1-21.7-13.5-34.6-36.4-34.6zm-7.7 63.3c-6.8 0-10.8-4.9-10.8-13.1 0-3.1.3-5.8.9-8.9 2-10.6 5.4-20.3 16.1-20.3 6.8 0 10.8 4.9 10.8 13.1 0 3.1-.3 5.8-.9 8.9-2 10.5-5.4 20.3-16.1 20.3z" id="path3360" fill="currentColor"/>
      <path class="st2" d="M650.479 535.62h26.3l10.4-59.1h19.8l3.8-21.6h-67.3l-3.8 21.6h21l-10.2 59.1z" id="path3364" fill="currentColor"/>
      <path id="path3366" d="M606.879 484.72c-8.3-2.6-11.7-3.7-11.7-7.6 0-2.6 1.7-5.7 6.7-5.7 3.7 0 6.8 2.1 8 5.2l23.2-6.3c-2.7-11.4-12.5-17.2-29.4-17.2-31.8 0-34.3 21.3-34.3 27.8 0 13.2 7 21.3 22.2 25.5 4 1.1 8.6 2.3 8.6 6.7 0 3.5-2.6 5.7-7.1 5.7-4.1 0-8.5-2.4-10-6.6l-22.9 6.2c2.5 12 13.8 18.8 31.5 18.8 13.5 0 36.1-3.6 36.1-28 .1-12.2-6.8-20.2-20.9-24.5z" class="st2" fill="currentColor"/>
      <path class="st3" d="M60.679 535.62l14.2-80.7h-43.5v80.7h29.3z" id="path3370" fill="#0dbe98"/>
      <path class="st3" d="M722.079 454.92l-14.1 80.7h43.5v-80.7h-29.4z" id="path3374" fill="#0dbe98"/>
      <path transform="translate(31.379 450.22)" id="polygon3376" class="st2" fill="currentColor" d="M254.5 61.6h22.1l3.6-20.3h-22.1l2.5-15h30.9l3.8-21.7h-57.2L224 85.4h26.3z"/>
      <path transform="translate(31.379 450.22)" id="polygon3378" class="st2" fill="currentColor" d="M323.4 61.6h22.2l3.6-20.3h-22.1l2.5-15h30.9l3.8-21.7h-57.2L293 85.4h26.3z"/>
    </g>
  </g>
</svg>
