<svg xmlns="http://www.w3.org/2000/svg" viewBox="0 0 603 157" class="logo">
  <g fill="currentColor">
    <path d="M0 0h27.5v39.5H0V0zM30.3 0h27.4v39.5H30.3V0zM60.5 0H88v39.5H60.5V0zM90.8 0h27.5v39.5H90.8V0zM121 0h27.5v39.5H121V0zM301.3 13.5h5v4h-5v-4zM363.3 13.5h4.7v21.8h-4.8V13.4zM187.8 13.5h4.7v21.8h-4.8V13.4zM291 17c1.6-.5 3.2-1 4.8-1.7V20h3.2v3.3h-3.3c0 3 0 6 .2 9l3.2.3-.2 2.9c-2.5 0-6.2 1.2-7.5-1.8-.8-3.4-.3-7-.4-10.5h-3V20h3v-3zM215.7 17c1.6-.5 3.2-1 4.8-1.7V20h3.5v3.3h-3.5c0 3 0 6 .2 9.1l3 .1v3c-2.5 0-6.1 1.2-7.5-1.7-.8-3.4-.3-7-.4-10.5h-3V20h3v-3zM196.3 19.8c1.8.2 3.6.3 5.4.7 2.9-1.4 7.2-1.3 8.7 2 .7 4.2.2 8.5.3 12.8H206c0-3.7.3-7.4-.2-11-1.2-2.4-4.2-1.6-4.7.8-.3 3.3 0 6.8 0 10.1h-4.8V19.9zM226.7 22.7c2.5-4.2 10-4.4 12.4.1.8 2 1 4.1 1.3 6.2-3.5 0-7 0-10.6.2.8 1.3 1.3 3.3 3.2 3.5 1-.6 2-1.3 3-2.2h4.2c-1.2 5.8-9 6.8-13 3.4a10.7 10.7 0 01-.5-11.2m3.2 3c2 0 4 0 6-.2-1-1.3-2-3-3.9-2.8-.8.9-1.5 2-2.2 3zM242.8 20h4.6l-.5 1.7c1.8-1 3.6-1.7 5.5-2.4l.2 4.3-4.5 1.5c-.4 3.4-.4 6.8-.4 10.1H243c0-5 .1-10.1-.2-15.2zM254.8 19.8l5.3.6c3-1.2 7-1.3 8.8 1.8.8 4.3.2 8.7.3 13h-4.7V24c-1.4-.7-3.6-2-4.4.1-1.3 3.5-.3 7.5-.6 11.1h-4.8V19.9zM272.5 24.4c1-6 11-6.7 13.3-1.3.5 4 0 8.3.4 12.4-1.6-.2-3.3-.5-4.8-1-2.2 1.3-5 2-7.3.4-3-2.1-2.1-7.3 1.2-8.6 2-.7 4.2-1 6.3-1.4l-1-2.4h-2l-1.4 2-4.7-.1m4.7 4.8c-1.4 2 1.1 4.2 3 3 1-1 .9-2.8 1.3-4.2-1.4.3-3 .4-4.3 1.2zM301.5 20h4.8v15.3h-4.8V20zM313.3 20.3c4.8-2.5 12 .6 11.7 6.6 1.2 5.6-4.6 10.3-9.9 8.7-7.1-1-8-12.4-1.8-15.3m2 3.1a7.6 7.6 0 000 8.5c2.1 1.8 5.1-.4 4.9-3 .9-3-1.3-8-4.9-5.5zM328.3 19.9c1.8 0 3.6.2 5.4.6 2.9-1.4 7-1.3 8.6 1.9.9 4.2.3 8.6.4 12.9H338c0-3.7.3-7.4-.2-11-.9-2-3.7-2-4.4 0-.8 3.6-.3 7.3-.4 11h-4.8V19.9zM346 24.3c1.1-6 11-6.6 13.3-1.3.5 4.2 0 8.4.3 12.5l-4.6-1c-2.2 1-4.8 2-7 .6-3.4-1.7-2.7-7 .4-8.7 2-1 4.4-.8 6.5-1.5.3-3.2-3.6-3-4.5-.4-1.5 0-3 0-4.4-.2m3.6 6.6c1 .5 1.8 1.3 3 1.6 2.2-.1 1.8-3 2.4-4.5-2.2.1-4.2 1-5.4 2.9zM0 42.3h27.5v33.5H0V42.3m11.4 6.4V69h4.2V48.7h-4.2zM30.3 42.3h27.4v33.5H30.3V42.3m7.5 6.4v20.4H42v-9h8.3V57H42v-5.4h9v-3l-13.3.1zM60.5 42.3H88v33.5H60.5V42.3m7.5 6.4V69h13v-3.2h-8.7V48.7H68zM90.8 42.3h27.5v33.5H90.8V42.3M94.3 69h4.5l1.5-4.5h8.5l1.7 4.5h4.7c-2.7-6.8-5.2-13.6-7.7-20.4H102L94.3 69zM121 42.3h27.5v33.5H121V42.3zM187.8 49.3H202v4h-9.3v5h8.8V62h-8.8v9.3h-5v-22zM296.8 49.3h5v4.2h-5v-4.3zM370.1 50.1c1.8-1.6 4.4-1 6.6-1.2l.1 3c-.7 0-2 .4-2.8.6a206 206 0 00-.6 3.4l2.9.1v3.2h-2.6v12H369v-12h-2.3V56h2.2c.2-2-.2-4.3 1.2-5.9zM231.5 49.3h4.8c0 7.4-.2 14.8.1 22.2l-5.3-1c-1.8.6-3.7 1.7-5.7 1-7-2.1-6.6-14.4.6-16 2-.5 3.8.7 5.6 1.3l-.1-7.5m-5 10.2c-1.9 2.6-2 8 1.7 9 3.4-.4 3.9-4.8 3-7.4-.5-2-3.3-3.4-4.7-1.6zM286.5 52.9l4.5-1.6V56h3.5v3.3H291c0 2.8-.2 5.8.4 8.6 1.1.4 2.3.6 3.5.8 0 3.7-5.3 3.5-7.5 2-1.9-3.5-.5-7.7-.9-11.4h-3.3V56h3.3v-3.1z"/>
    <path d="M101.3 61.7c1-3.3 2.1-6.6 3.3-9.8l3.4 9.8h-6.7zM207.3 56.3c3.2-1.6 8.1-1 10 2.4.9 2 .9 4.1 1.1 6.3-3.5 0-7 0-10.4.2.6 1.1 1.2 2.2 2 3.3 1.7.1 3-1 4.2-2l4.2.1c-1.5 6.6-12.8 7-14.4.5-1-3.8-.5-8.8 3.3-10.8m2 2.6l-1 2.8h5.3l-1-2.8h-3.3zM240.2 59c2.3-4.5 9.7-4.9 12.4-.6 1.1 2 1 4.3 1.3 6.5-3.4.1-7 0-10.4.2L246 69l3.7-2.5 4.1.1c-1.4 6.5-12 7-14.2 1-.6-2.8-.8-6 .6-8.6m3.3 2.7h6c-.8-1.3-1.3-3.4-3.3-3-1.6 0-1.8 2-2.7 3zM256.5 55.8c1.7.2 3.5.4 5.2 1l4.2-1.4.1 4.4-4.1 1c-.7 3.5-.7 7-.7 10.5h-4.4c0-5.2-.2-10.4-.3-15.5zM268 60.3c.8-6.1 11.1-6.7 13.2-1.3.6 4.2.2 8.4.4 12.5l-4.8-1c-2 .8-4.2 1.8-6.3.8-3.6-1.2-3.6-6.6-.8-8.6 2.2-1.5 5-1.3 7.5-1.7-.7-1.1-1-3.2-2.8-2.7l-2.1 2.3-4.3-.3m4.5 5c-1 1.4.6 3.2 2 3.2 2-.4 2-2.8 2.8-4.3-1.6.3-3.7-.3-4.8 1.2zM296.8 56h4.7v15.3h-4.8V56zM308.4 56.4a9.6 9.6 0 018.9.3c3.4 2.3 4 7.3 2.4 11-2.6 5.4-11.7 5.4-14.3 0-1.7-3.8-1-9.3 3-11.3m2.7 2.5c-2 2.1-2 5.4-1 8 1 2.2 4.7 1.9 5.2-.6 1-3 .3-8.9-4.2-7.4zM323.5 55.8c1.8.2 3.5.3 5.2.6 3-1.2 7.3-1.5 9 1.8 1 4.3.4 8.7.5 13h-4.7c-.2-3.7.5-7.5-.5-11.1-.9-2.5-4.3-1.3-4.5 1-.5 3.4-.2 6.8-.2 10.1h-4.8V55.9zM353.4 56.4c3.5-1.8 8.5-1.1 10.8 2.3 2 3.3 1.7 7.8-.8 10.8a9 9 0 01-11.8 0c-3.3-3.8-2.8-10.7 1.8-13.1m2.7 2.5c-2.6 2.4-2.7 9.5 1.8 9.5 3.2-.7 2.8-4.8 2.4-7.3-.3-2-2.4-2.8-4.2-2.2zM0 78.5h27.5V157H0V78.5zM60.5 78.5H88V157H60.5V78.5zM90.8 78.5h27.5V157H90.8V78.5zM121 78.5h27.5V157H121V78.5zM30.3 78.5h27.4V157H30.3V78.5zM187.8 85.3h5v18h9.2v3.7h-14.3V85.2zM204.3 85.3h5v4h-5v-4zM212.5 85.3h4.8c0 2.5 0 5-.2 7.6 1.9-.8 3.8-2 5.8-1.4 7 1.6 7.4 13.2 1 15.8-2 .7-4.1-.2-6-.8l-5.4.7v-22M219 95c-2.4 2.4-2.2 6.6 0 9.1 6.3 2.1 6.2-11.6 0-9.1zM204.3 91.8h4.7V107h-4.8V91.7zM231.3 91.7h4.4l-.6 1.8c1.7-1 3.6-1.7 5.5-2.1l.2 4c-1.3.4-2.7.8-4 1.5-1.3 3.2-.7 6.7-.8 10.1h-4.8V91.7zM242.5 96.2c1.3-5.6 9.4-6.4 12.8-2.5 1.8 4.2.6 9 1 13.5-1.7-.2-3.4-.3-5-.8-2.1 1-4.8 1.8-7 .4-2.7-1.6-2.5-5.8-.3-7.8 2-2 5.1-1.6 7.7-2l-.8-2.6-2.3-.2-1.3 2h-4.8m4.5 5.9c-.7 1.4 1.1 1.8 2 2.3 2.3-.2 2.1-3 2.8-4.7-1.6.6-4.7.2-4.8 2.4zM259.5 91.8h4.6l-.2 1.7c1.6-1 3.4-1.7 5.3-2.2l.1 4.1-4.4 1.5c-.5 3.3-.4 6.7-.4 10.1h-4.8c0-5 .2-10.2-.2-15.3zM270.6 91.8h5.1l3.2 10 3.3-10h4.8l-7.6 21h-4.9l2-5.8-5.9-15.2zM194 121.3h5.8l7.5 21.7h-5l-1.5-4.5h-8.4l-1.5 4.5H186l7.8-21.8m2.8 4.7l-3 8.6h5.8l-2.8-8.6zM273.8 121.3h5v4h-5v-4zM310.5 121.3h5v4h-5v-4zM424.5 121.3h4.8v21.9l-5.5-.7c-2.5 1-5.6 1.6-7.8-.4-4-4-3.5-12.8 2.4-14.5 2.1-1 4.3.2 6.2 1l-.1-7.3m-5.2 10c-1.6 2.8-1.9 8.1 2 9 5.5-.7 3.5-12.7-2-9zM440.8 121.3h4.7V143h-4.8v-21.8zM494.8 121.3h5v4h-5v-4zM545 121.2h5v4h-5v-4zM300.3 124.7l4.7-1.7v4.8h3.3v3.2H305l.1 9 3.5.4c.2 4-6.4 4-8 1.2-.8-3.5-.2-7-.4-10.6H297v-3.3h3.2v-3zM484 127.7c-.6-3.3 2.7-3.8 5-4.7v4.8h3.5v3.2H489c0 2.7-.1 5.5.1 8.2.6 1.3 2.5.8 3.6 1.5-.2 3.6-5.9 3.5-7.7 1.3-1.4-3.5-.6-7.3-.8-11h-3v-3.3h2.7zM504.5 124.7l4.7-1.6v4.7h3.3v3.2h-3.3c0 2.9-.1 5.8.2 8.7l3.3.9-.3 2.5c-2.3.1-4.9.9-7-.6-1.7-3.5-.6-7.7-.9-11.5h-3v-3.3h3v-3zM534.5 124.8l4.7-1.7v4.7h3.5v3.2h-3.5c0 3 0 6.1.4 9.2h3l-.1 2.9c-2.4.1-5.8 1.2-7.4-1.3-1-3.5-.5-7.2-.6-10.8h-3v-3.3h3v-2.9zM208.4 132c1-6.3 12.1-6.5 13.3 0h-4c-1.7-1.5-3.4-2-5 0 3 1.6 7.8 1.4 9.3 5.1 1 7.8-12.8 8.8-14.1 1.5h4.2c1.7 1.5 4.7 2.6 5.4-.5-3.3-1.5-9-1.4-9.1-6.2zM224 133c-.9-4.4 4.6-6.3 8-5.7 2.8 0 4.2 2.4 5.3 4.6h-4.1a7.4 7.4 0 00-5-1.3c1.8 3.8 7.7 2.3 9.1 6.4 1.3 5-5.4 7.5-9.3 6.2-2.5-.3-3.8-2.6-4.7-4.6h4.2c1.7 1.6 4 2 5.9.4-2.6-2.8-8.3-1.8-9.4-6zM244.4 127.7c2.4-.8 5.1-.6 7.3.6 5.2 3 4.8 12.3-.9 14.5-3.8 1.7-9.4.3-10.9-4-1.5-4-.2-9.9 4.5-11.1m.9 3.6a8 8 0 00.1 8.2c2.5 2.2 5.3-.8 5-3.5.8-3-2-7.4-5.1-4.7zM262.4 127.5a7 7 0 019 5.7H267c-.8-1.1-1.5-2.5-3-3-2.2 2.6-1.8 6.6-.6 9.6 2 1.6 2.7-1.5 3.7-2.6l4.4.1c-.7 1.8-1 4-2.8 5.2-3.2 1.8-8 1.3-9.9-2.2-2.4-4.2-1.5-11.2 3.7-12.8zM281.7 132.1c1-5.9 10.3-6.6 13-1.9 1 4.3.3 8.7.7 13-1.7-.2-3.4-.4-5-.8-2.2 1-4.8 1.7-7 .3-3-1.9-2.3-7.1.8-8.6 2.3-1 4.7-1 7-1.7l-3-3-1.8 3-4.7-.3m3.9 4.8c.5 1.3.8 2.9 2.3 3.5 2.4-.2 2.3-2.9 3-4.6-1.8.3-3.6.6-5.3 1.1zM323.4 127.6c3.7-1.1 8.5.1 10.1 3.8 1.5 3.5 1 8.4-2.3 10.7-3.9 2.6-10.5 1.6-12.2-3.2-1.8-4-.2-10 4.4-11.3m.9 3.7a8 8 0 000 8.2c1.2.8 3 1.2 4-.2 1.5-2 1.3-4.8.6-7-.7-1.9-3.2-2.5-4.6-1zM337.3 127.6c1.8.1 3.6.3 5.3.9 2.8-2 7.4-1.6 9 1.8.8 4.2.3 8.5.4 12.7h-4.8c0-3.6.4-7.3-.3-10.9-.6-2.4-4-2-4.5.2-.8 3.5-.3 7.1-.4 10.7h-4.8v-15.4zM355 133c-1-4.8 5.2-6.5 8.8-5.5 2.5.2 3.5 2.6 4.4 4.5-3.2.4-6-1.4-9.2-1.2 2.2 3.7 9 2.1 9.4 7.2-.4 7-12.7 7.4-14.2.6h4.3c1.7 1.7 3.8 2 5.9.3-2.7-2.7-8.4-1.6-9.4-5.9zM378.5 132.2c1.1-5.7 9.4-6.6 12.8-2.7 1.8 4.3.6 9.2 1 13.7-1.7-.2-3.4-.3-5-.8-2 .7-4.1 1.7-6.2.7-4-1.4-3.5-7.5 0-9 2.3-.9 4.8-1.1 7.2-1.7l-3.1-3-2 2.9-4.7-.1m4 4.7c.6 1.3.7 3.2 2.5 3.4 2.2-.3 2.1-2.9 2.8-4.6-1.7.4-3.5.7-5.2 1.2zM400.6 128.6c3-1.8 7.4-2 9.4 1.4 1 4.3.4 8.7.5 13h-4.8c-.2-3.7.7-7.7-.5-11.3-1-2.4-4.4-1-4.5 1.3-.4 3.3-.1 6.7-.2 10h-4.8v-15.2l3.8-.1 1.1.9zM449.2 127.8l4.4-.1.6 1c2.9-2 7.8-2 9.3 1.7.6 4.1.1 8.4.3 12.6H459c0-3.7.2-7.4-.2-11-.9-2.1-3.9-1.8-4.6.3-.5 3.5-.1 7.1-.2 10.7h-4.8v-15.2zM468 129c3.7-3 10.9-2.5 12 3h-4.2c-1.6-1.6-3.4-2-4.8 0 3.1 1.7 8.8 1.4 9.3 6-.2 7-12.9 7.5-14.1.6h4.2c1.4 1.2 3.9 2.7 5.1.4-1.5-3-6-1.9-8-4.4-1.2-1.6-1-4.2.5-5.6zM515 127.8h4.8c0 3.7-.3 7.4.2 11.1 1.2 2 3.5 1.6 4.4-.4.8-3.5.2-7.2.3-10.8h4.8c0 5.2-.1 10.4.2 15.5-1.9-.2-3.7-.3-5.5-.8-2.9 1.5-7.1 1.5-8.8-1.7-.8-4.3-.3-8.6-.4-13zM545 127.8h4.8V143H545v-15.3zM558.4 127.5c2.4-.6 5-.3 7.1 1 4.7 3.2 4.4 11.6-.8 14.2-3.9 1.8-9.8.7-11.3-3.8-1.8-4.3 0-10.4 5-11.4m.8 3.5c-2 1.6-1.6 4.7-1.2 6.9.3 1.6 2.4 3.2 3.9 2 2.3-1 1.8-4 1.9-6 .2-2.2-2.6-4.6-4.6-2.9zM576.6 128.5c3-1.7 7.5-1.9 9.4 1.6 1 4.2.4 8.6.5 12.9h-4.8c-.2-3.7.6-7.6-.5-11.3-1-2.4-4.5-1-4.6 1.4-.3 3.3 0 6.6 0 9.9h-4.9v-15.2l3.8-.1 1.1.8zM590.3 129.3c3.7-3.4 10.9-2.8 12.3 2.6h-3.8c-1.8-1.1-3.7-1.4-5.6-.4 3.5 2.3 9.8 2 9.8 7.4v.8c-3.3 5.2-12.3 5.2-14.6-1l4.4-.1c1.9 1.7 4.1 1.8 6 0-2.8-1.5-6-2-8.6-3.8-1.1-1.6-1.3-4 .1-5.5zM273.8 127.8h4.7V143h-4.8v-15.3zM310.8 127.8h4.7V143h-4.8v-15.3zM494.8 127.8h4.7V143h-4.8v-15.3z"/>
  </g>
  <g fill="transparent">
    <path d="M11.4 48.7h4.2V69h-4.2V48.7zM37.7 48.7h13.4v2.9H42V57h8.3v3H42v9h-4.3V48.8zM68 48.7h4.3v17.2H81v3.2H68V48.7zM94.3 69c2.6-6.7 5-13.5 7.7-20.3h5.5c2.5 6.8 5 13.6 7.7 20.4h-4.7l-1.7-4.5h-8.5L98.8 69h-4.5m7-7.4h6.7l-3.4-9.8a247 247 0 00-3.3 9.8z"/>
  </g>
</svg>
