<svg width="48" height="50" viewBox="0 0 48 50" fill="none" xmlns="http://www.w3.org/2000/svg" style="max-width: 30vw; height: auto;">
  <path d="M0 0H8.75796C8.75796 4.19427 8.75796 8.38535 8.75796 12.5796C5.83758 12.5796 2.92038 12.5796 0 12.5796V0Z" fill="currentColor"/>
  <path d="M9.63377 0H18.3917C18.3917 4.19427 18.3917 8.38535 18.3917 12.5796C15.4714 12.5796 12.5542 12.5796 9.63377 12.5796C9.63377 8.38535 9.63377 4.19427 9.63377 0Z" fill="currentColor"/>
  <path d="M19.2675 0H28.0255C28.0255 4.19427 28.0255 8.38854 28.0255 12.5796C25.1051 12.5796 22.1847 12.5796 19.2675 12.5796C19.2675 8.38535 19.2675 4.19427 19.2675 0Z" fill="currentColor"/>
  <path d="M28.9013 0H37.6592C37.6592 4.19427 37.6592 8.38535 37.6592 12.5796C34.7388 12.5796 31.8216 12.5796 28.9013 12.5796C28.9013 8.38535 28.9013 4.19427 28.9013 0Z" fill="currentColor"/>
  <path d="M38.535 0H47.293C47.293 4.19427 47.293 8.38535 47.293 12.5796C44.3726 12.5796 41.4554 12.5796 38.535 12.5796C38.535 8.38854 38.535 4.19427 38.535 0Z" fill="currentColor"/>
  <path d="M0 13.4553C2.92038 13.4553 5.83758 13.4553 8.75796 13.4553C8.75796 17.0126 8.75796 20.5668 8.75796 24.1241C5.83758 24.1241 2.92038 24.1241 0 24.1241V13.4553ZM3.64013 15.5063C3.64331 17.6687 3.64013 19.8343 3.64331 21.9967C4.07962 21.9999 4.51911 21.9999 4.9586 21.9999C4.95541 19.8343 4.95541 17.6687 4.9586 15.5063C4.62739 15.5063 3.97134 15.5063 3.64013 15.5063Z" fill="currentColor"/>
  <path d="M9.63377 13.4553C12.5542 13.4553 15.4714 13.4553 18.3917 13.4553C18.3917 17.0126 18.3917 20.5668 18.3917 24.1241C15.4714 24.1241 12.5542 24.1241 9.63377 24.1241C9.63377 20.5668 9.63377 17.0126 9.63377 13.4553ZM12.0064 15.5095C12 17.6719 12.0032 19.8343 12.0032 21.9999C12.4618 21.9967 12.9172 21.9967 13.3758 21.9967C13.3758 21.0413 13.3758 20.0859 13.3758 19.1305C14.258 19.1305 15.1401 19.1305 16.0223 19.1337C16.0223 18.8884 16.0223 18.398 16.0223 18.1528C15.1401 18.1528 14.258 18.1528 13.3758 18.1528C13.3758 17.5763 13.3758 16.9999 13.3758 16.4203C14.3408 16.4203 15.3026 16.4203 16.2675 16.4235C16.2675 16.1942 16.2675 15.7356 16.2675 15.5063C14.8471 15.5063 13.4268 15.5063 12.0064 15.5095Z" fill="currentColor"/>
  <path d="M19.2675 13.4553C22.1847 13.4553 25.1051 13.4553 28.0255 13.4553C28.0255 17.0126 28.0255 20.5668 28.0255 24.1241C25.1051 24.1241 22.1847 24.1273 19.2675 24.1241C19.2675 20.5668 19.2675 17.0095 19.2675 13.4553ZM21.6561 15.5063C21.6561 17.6687 21.6561 19.8343 21.6561 21.9967C23.035 21.9967 24.4172 21.9967 25.7962 21.9967C25.7962 21.7483 25.7962 21.2451 25.7962 20.9967C24.8758 20.9967 23.9586 20.9967 23.0382 20.9872C23.0191 19.1623 23.035 17.3343 23.0255 15.5095C22.5701 15.5063 22.1115 15.5063 21.6561 15.5063Z" fill="currentColor"/>
  <path d="M28.9013 13.4553C31.8216 13.4553 34.7388 13.4521 37.6592 13.4553C37.6592 17.0126 37.6592 20.5667 37.6592 24.1241C34.7388 24.1241 31.8216 24.1241 28.9013 24.1241C28.9013 20.5667 28.9013 17.0126 28.9013 13.4553ZM30.0478 21.9999C30.5223 21.9967 31 21.9999 31.4745 21.9999C31.6274 21.519 31.7834 21.0381 31.9395 20.5604C32.8471 20.5604 33.7516 20.5604 34.6592 20.5699C34.8376 21.0444 35.0127 21.5222 35.1879 21.9999C35.6847 21.9999 36.1783 21.9967 36.6751 21.9967C35.8344 19.8438 35.0478 17.6718 34.242 15.5062C33.6497 15.5062 33.0573 15.5062 32.4681 15.5062C31.6433 17.6623 30.8567 19.8343 30.0478 21.9999Z" fill="currentColor"/>
  <path d="M38.535 13.4553C41.4554 13.4553 44.3726 13.4553 47.293 13.4553C47.293 17.0126 47.293 20.5668 47.293 24.1241C44.3726 24.1241 41.4554 24.1241 38.535 24.1241C38.535 20.5668 38.535 17.0126 38.535 13.4553Z" fill="currentColor"/>
  <path d="M32.2484 19.6496C32.586 18.6018 32.9299 17.5541 33.3121 16.519C33.6847 17.5541 34.0255 18.5987 34.3917 19.6369C33.6752 19.6432 32.9618 19.6464 32.2484 19.6496Z" fill="currentColor"/>
  <path d="M0 25C2.92038 25 5.83758 25 8.75796 25C8.75796 33.3344 8.75796 41.6656 8.75796 50H0V25Z" fill="currentColor"/>
  <path d="M19.2675 25C22.1879 25 25.1051 25 28.0255 25C28.0255 33.3312 28.0255 41.6656 28.0255 50H19.2675C19.2675 41.6656 19.2675 33.3344 19.2675 25Z" fill="currentColor"/>
  <path d="M28.9013 25C31.8216 25 34.7388 25 37.6592 25C37.6592 33.3312 37.6592 41.6656 37.6592 50H28.9013C28.9013 41.6656 28.9013 33.3312 28.9013 25Z" fill="currentColor"/>
  <path d="M38.535 25C41.4554 25 44.3726 25 47.293 25C47.293 33.3344 47.293 41.6656 47.293 50H38.535C38.535 41.6656 38.535 33.3312 38.535 25Z" fill="currentColor"/>
  <path d="M9.63377 25C12.5542 25 15.4714 25 18.3917 25C18.3917 33.3344 18.3917 41.6656 18.3917 50H9.63377C9.63377 41.6656 9.63377 33.3344 9.63377 25Z" fill="currentColor"/>
  <path d="M3.64012 15.5063C3.97133 15.5063 4.62738 15.5063 4.95859 15.5063C4.95541 17.6688 4.95541 19.8344 4.95859 22C4.5191 22 4.07961 22 3.64331 21.9968C3.64012 19.8344 3.64331 17.6688 3.64012 15.5063Z" fill="transparent"/>
  <path d="M12.0064 15.5095C13.4267 15.5063 14.8471 15.5063 16.2675 15.5063C16.2675 15.7356 16.2675 16.1942 16.2675 16.4235C15.3025 16.4204 14.3408 16.4204 13.3758 16.4204C13.3758 17 13.3758 17.5764 13.3758 18.1528C14.258 18.1528 15.1401 18.1528 16.0223 18.1528C16.0223 18.3981 16.0223 18.8885 16.0223 19.1337C15.1401 19.1306 14.258 19.1306 13.3758 19.1306C13.3758 20.086 13.3758 21.0414 13.3758 21.9968C12.9172 21.9968 12.4618 21.9968 12.0032 22C12.0032 19.8344 12 17.672 12.0064 15.5095Z" fill="transparent"/>
  <path d="M21.656 15.5063C22.1115 15.5063 22.5701 15.5063 23.0255 15.5095C23.035 17.3344 23.0191 19.1624 23.0382 20.9872C23.9586 20.9968 24.8758 20.9968 25.7962 20.9968C25.7962 21.2452 25.7962 21.7484 25.7962 21.9968C24.4172 21.9968 23.035 21.9968 21.656 21.9968C21.656 19.8344 21.656 17.6688 21.656 15.5063Z" fill="transparent"/>
  <path d="M30.0478 22C30.8567 19.8344 31.6433 17.6624 32.4681 15.5063C33.0573 15.5063 33.6497 15.5063 34.242 15.5063C35.0478 17.672 35.8344 19.8439 36.6752 21.9968C36.1783 21.9968 35.6847 22 35.1879 22C35.0127 21.5223 34.8376 21.0446 34.6592 20.57C33.7516 20.5605 32.8471 20.5605 31.9395 20.5605C31.7834 21.0382 31.6274 21.5191 31.4745 22C31 22 30.5223 21.9968 30.0478 22ZM32.2484 19.6497C32.9618 19.6465 33.6751 19.6433 34.3917 19.6369C34.0255 18.5987 33.6847 17.5541 33.3121 16.5191C32.9299 17.5541 32.586 18.6019 32.2484 19.6497Z" fill="transparent"/>
</svg>
