<svg xmlns="http://www.w3.org/2000/svg" viewBox="0 0 365 130" style="width: 175px; height: auto;">
  <path fill="#FD0001" d="M0 0h130.2v130.2H0z"/>
  <path fill="#FFF" d="M24.5 25H33v71.3h12.7v8.8H24.5zm59.7 0h21.6v8.7h-13v25.7H105v9.4H92.8v27.5h13v8.8H84.2zm-31 80.1v-8.8h2.7c3.5 0 9.5-2.4 10.3-8 .9-5.4.3-9.3-6.7-21V67c-4.9-7.8-9.4-14.7-7.7-25.4A18.8 18.8 0 0171 24.9h2.7v8.8H71c-3.5 0-9.7 2.4-10.5 8-.9 5.4-.3 8.8 6.4 20.5l.2.3c5 8 9.5 15.2 7.8 25.9a18.7 18.7 0 01-19.1 16.7h-2.7"/>
  <path fill="currentColor" d="M157.8 32.8h-3.4v-1.4h8.3v1.4h-3.3v9.4h-1.6zm6.5-1.4h1.6V36h5.1v-4.5h1.6v10.8H171v-4.9h-5v5h-1.6zm11.1 0h6.1v1.4H177v3.1h4.1v1.4H177V41h4.5v1.3h-6zm15-6.5h2.5V40h7.3v2.1h-9.8zM201.7 35c0 4.4 2.5 7.5 7 7.5 4.3 0 6.9-3.1 6.9-7.5 0-4.2-2.6-7.4-7-7.4s-7 3.2-7 7.4m2.3 0c0-2.9 1.5-5.6 4.7-5.6s4.8 2.7 4.8 5.6c0 2.9-1.5 5.7-4.8 5.7S204 37.9 204 35m14.4-7.2h2.8l6.4 11.6V27.8h2.1v14.4h-2.6l-6.6-11.8v11.8h-2zm14.8 14.4h4.2c4.8 0 7.7-2.5 7.7-7.3 0-4.4-3.4-7-7.7-7h-4.2v14.3zm2-12.6h2.5c3 0 5.2 2 5.2 5.4 0 3.7-2 5.4-5.5 5.4h-2.2V29.6zm12.2 5.4c0 4.4 2.5 7.5 7 7.5 4.3 0 6.9-3.1 6.9-7.5 0-4.2-2.6-7.4-7-7.4s-7 3.2-7 7.4m2.3 0c0-2.9 1.5-5.6 4.7-5.6s4.8 2.7 4.8 5.6c0 2.9-1.4 5.7-4.8 5.7-3.3 0-4.7-2.8-4.7-5.7m14.5-7.2h2.8l6.4 11.6V27.8h2.1v14.4h-2.6l-6.6-11.8v11.8h-2zm28.9-.3c-1.3-.5-2-.7-3.3-.7-1.4 0-3 .5-3 2.3 0 3.3 7.4 2.5 7.4 8.3 0 3.7-2.8 5.1-6.3 5.1-1.3 0-2.4-.3-3.6-.7l.3-2.3c.8.3 2.3.8 3.6.8 1.4 0 3.4-.8 3.4-2.8 0-3.9-7.5-2.8-7.5-8.2 0-3 2.4-4.7 5.6-4.7 1.1 0 2.5.2 3.7.6l-.4 2.3zm14 2.7c-1-.5-2-.8-3-.8-3.3 0-5.5 2.4-5.5 5.6 0 3.4 2.4 5.7 5.4 5.7 1 0 2.4-.3 3.1-.7l.2 2a9 9 0 01-3.3.5c-4.6 0-7.6-3-7.6-7.5s3.2-7.4 7.6-7.4c1.1 0 2.2.2 3.2.6l-.1 2zm2.7-2.4h2v6h7v-6h2v14.4h-2v-6.5h-7v6.5h-2zm14 7.2c0 4.4 2.5 7.5 7 7.5 4.3 0 6.9-3.1 6.9-7.5 0-4.2-2.6-7.4-7-7.4-4.3 0-6.9 3.2-6.9 7.4m2.2 0c0-2.9 1.6-5.6 4.7-5.6 3.2 0 4.8 2.7 4.8 5.6 0 2.9-1.4 5.7-4.8 5.7-3.3 0-4.7-2.8-4.7-5.7m13.8 0c0 4.4 2.5 7.5 7 7.5s6.9-3.1 6.9-7.5c0-4.2-2.6-7.4-7-7.4-4.3 0-6.9 3.2-6.9 7.4m2.2 0c0-2.9 1.6-5.6 4.8-5.6 3.1 0 4.7 2.7 4.7 5.6 0 2.9-1.4 5.7-4.7 5.7-3.4 0-4.8-2.8-4.8-5.7m14.5-7.2h2.1v12.6h6v1.8h-8zm-201.9 77.3h2.5v-7h2.4c3.2 0 6.2-1.3 6.2-5.1 0-4-3-5.2-6.5-5.2h-4.6V105zm2.5-15.2h2.1c1.6 0 3.8.8 3.8 3 0 2.3-1.9 3-3.4 3H157v-6zm10.4 8c0 4.4 2.5 7.4 7 7.4s6.9-3 6.9-7.4c0-4.3-2.6-7.4-7-7.4s-6.9 3.1-6.9 7.4m2.2 0c0-3 1.6-5.6 4.8-5.6 3.1 0 4.7 2.7 4.7 5.6 0 2.9-1.4 5.6-4.7 5.6s-4.8-2.7-4.8-5.6m14.7-7.2h2v12.6h6v1.8h-8zm10.4 0h2.1v14.4h-2.1zm8.6 1.8h-4.5v-1.8h11v1.8h-4.4v12.6h-2zm8.7-1.8h2.1v14.4H212zm15.7 2.3c-1-.5-2-.7-3-.7-3.3 0-5.5 2.4-5.5 5.6 0 3.4 2.4 5.6 5.4 5.6 1 0 2.4-.2 3.1-.7l.2 2a9 9 0 01-3.3.5c-4.6 0-7.6-2.9-7.6-7.5 0-4.4 3.2-7.3 7.6-7.3 1.1 0 2.2.1 3.3.6l-.2 2zm1.1 12.1h2.2l1.4-3.6h7.1l1.5 3.6h2.2l-6-14.4H235l-6.2 14.4zm10-5.3h-5.7l2.9-7.2 2.8 7.2zm6.5-9.1h2.1v12.6h6v1.8h-8zm24.5-.3c-1.3-.5-2-.8-3.3-.8-1.4 0-3 .5-3 2.4 0 3.3 7.4 2.5 7.4 8.2 0 3.7-2.8 5.2-6.3 5.2-1.2 0-2.4-.4-3.6-.7l.3-2.3c.8.3 2.3.8 3.6.8 1.4 0 3.4-.8 3.4-2.8 0-3.9-7.5-2.8-7.5-8.2 0-3 2.5-4.7 5.6-4.7 1.2 0 2.5.2 3.7.6l-.3 2.3zM284 93c-1-.5-2-.7-3-.7-3.4 0-5.6 2.4-5.6 5.6 0 3.4 2.5 5.6 5.5 5.6 1 0 2.4-.2 3.1-.7l.1 2a9 9 0 01-3.3.5c-4.5 0-7.6-2.9-7.6-7.5 0-4.4 3.3-7.3 7.7-7.3 1 0 2.2.1 3.2.6l-.2 2zm2.7-2.3h2.1v14.4h-2.1zm5.8 0h8.1v1.8h-6v4.2h5.5v1.8h-5.5v4.8h6v1.8h-8zm11.5 0h2.8l6.3 11.6V90.7h2.1v14.4h-2.6L306 93.2v11.9h-2zm24.9 2.3c-1-.5-2-.7-3-.7-3.3 0-5.5 2.4-5.5 5.6 0 3.4 2.4 5.6 5.4 5.6 1 0 2.4-.2 3.1-.7l.1 2a9 9 0 01-3.2.5c-4.6 0-7.6-2.9-7.6-7.5 0-4.4 3.2-7.3 7.6-7.3 1.1 0 2.2.1 3.2.6l-.1 2zm2.8-2.3h8v1.8h-6v4.2h5.5v1.8h-5.5v4.8h6v1.8h-8zM154.5 68.2c0 3.3 1.9 5.6 5.2 5.6 3.3 0 5.2-2.3 5.2-5.6 0-3.2-2-5.6-5.2-5.6-3.3 0-5.2 2.4-5.2 5.6m1.6 0c0-2.2 1.2-4.2 3.6-4.2 2.4 0 3.6 2 3.6 4.2s-1.1 4.2-3.6 4.2-3.6-2-3.6-4.2m12.2-5.4h5.8v1.4h-4.2v3.1h4v1.4h-4v5h-1.6zm17.7-6.5h9.7v2.1h-7.2v5.1h6.6v2.2h-6.6v5.7h7.2v2.2H186zm25.4 5.3c-1-.5-2-.8-3-.8-3.3 0-5.5 2.4-5.5 5.6 0 3.4 2.4 5.6 5.4 5.6 1 0 2.4-.2 3.1-.7l.2 2a9 9 0 01-3.3.6c-4.6 0-7.6-3-7.6-7.5s3.2-7.4 7.6-7.4c1.1 0 2.2.1 3.2.6l-.1 2zm3.6 4.8c0 4.4 2.6 7.5 7 7.5s7-3.1 7-7.5c0-4.3-2.6-7.4-7-7.4s-7 3.1-7 7.4m2.3 0c0-3 1.5-5.6 4.7-5.6s4.8 2.7 4.8 5.6c0 2.9-1.4 5.6-4.8 5.6-3.3 0-4.7-2.7-4.7-5.6m16.4-7.2h2.8l6.4 11.6V59.2h2v14.4h-2.6l-6.5-11.8v11.8h-2.1zm15.9 7.2c0 4.4 2.6 7.5 7 7.5s6.9-3.1 6.9-7.5c0-4.3-2.5-7.4-7-7.4-4.3 0-6.9 3.1-6.9 7.4m2.2 0c0-3 1.6-5.6 4.8-5.6 3.2 0 4.7 2.7 4.7 5.6 0 2.9-1.4 5.6-4.7 5.6-3.4 0-4.8-2.7-4.8-5.6m16.4-7.2h3.4l4.6 12 4.4-12h3.4v14.4h-2V61.1l-5 12.5h-2l-4.8-12.5v12.5h-2zm21.3 0h2.1v14.4h-2.1zm17.5 2.4c-1-.5-2-.8-3-.8-3.3 0-5.6 2.4-5.6 5.6 0 3.4 2.5 5.6 5.5 5.6 1 0 2.4-.2 3.1-.7l.1 2a9 9 0 01-3.2.6c-4.6 0-7.6-3-7.6-7.5s3.2-7.4 7.6-7.4c1 0 2.2.1 3.2.6l-.1 2zm11-.2c-1-.4-1.7-.6-2.7-.6-1.2 0-2.6.4-2.6 2 0 2.7 6.2 2 6.2 6.8 0 3-2.3 4.3-5.2 4.3-1 0-2-.3-3-.6l.2-2c.7.3 2 .7 3 .7 1.2 0 2.9-.6 2.9-2.3 0-3.2-6.3-2.3-6.3-6.8 0-2.6 2-4 4.7-4 1 0 2 .2 3 .6l-.2 1.9zm11.4 12.2h1.6l1.1-2.7h5.3l1.1 2.7h1.7l-4.6-10.8H334l-4.6 10.8zm7.5-4h-4.3l2.2-5.3 2.1 5.3zm6.1-6.8h2.2l4.8 8.7v-8.7h1.5v10.8h-2l-4.8-8.9v9H343zm12.5 10.8h3.2c3.6 0 5.8-1.9 5.8-5.5 0-3.3-2.6-5.3-5.8-5.3h-3.2v10.8zm1.6-9.4h1.8c2.2 0 4 1.5 4 4 0 2.8-1.5 4-4.2 4h-1.6v-8z"/>
  <path fill="#FD0001" d="M350 90.6h14.4V105H350z"/>
  <path fill="none" d="M389.2-30.9H-43V154h432V-30.9"/>
</svg>
