<svg xmlns="http://www.w3.org/2000/svg" viewBox="0 0 390.6 99.5" class="logo">
  <path d="M67.8 13.7h-.2s-.2 0-.2.2c0 3.1-4.5 10.6-4.6 10.7l-3.8 7c-3.3 6-1.3 10.6 2 16.7l.2.1h.2l9.8-18.1c3-5.6.3-10.4-2.4-15l-.8-1.5-.2-.1zm0 .3zm-5.7 68.7a156.3 156.3 0 00-40.6 5.7 81.5 81.5 0 00-20.3 9c-.3.2-.4.5-.2.8 0 .3.4.5.7.4 18.3-4.2 38.7-6.4 60.5-6.4 21.3 0 42.5 2 59.6 5.7.3 0 .6-.1.7-.4.2-.2 0-.6-.2-.8-6-3.6-13-6.6-21-8.9a134.5 134.5 0 00-39.2-5z" fill="#edad09"/>
  <path d="M61.2 1l-.2.2-9.8 18c-3 5.7-.2 10.4 2.4 15l.8 1.5c.2.1.3.2.4.1.1 0 .2 0 .2-.2 0-3 4.6-10.6 4.6-10.7l3.8-7c3.3-6 1.4-10.5-2-16.7l-.2-.1zm-6.6 34.5" fill="#f5d176"/>
  <path d="M196.2 24c-10.8 0-17.1 6.5-17.1 17.9 0 11.3 6.3 17.8 17.1 17.8s17.2-6.5 17.2-17.8c0-11.4-6.4-17.8-17.2-17.8zm-174.7.7v8.4h.5c4.1 0 5.3 1.2 5.3 5.6v33.7c0 4.3-1.2 5.6-5.3 5.6h-.5v10.4c8-2.4 16.7-4 26-5V78h-.4c-4.1 0-5.5-1.4-5.5-5.6V47.9c0-1 1.7-1 2.3 0a9507 9507 0 0116.6 28.3c.1.3.8 1.7 1.7.1L79 48c.6-1 2.3-1 2.3 0v24.5c0 4.3-1.2 5.6-5.5 5.6h-.4v5.2c9.3.8 18 2.4 26 4.6V78h-.5c-4 0-5.3-1.3-5.3-5.6V38.7c0-4.4 1.2-5.6 5.3-5.6h.5v-8.4h-24L62 53.7c-.3.6-1 .6-1.2 0l-15.1-29H21.5zM165 25l-7.6 15.7s0 .4-.6.4a.6.6 0 01-.6-.4l-7-15.7h-14v3h.7c2.8 0 3.6 1.1 3.6 4v.3l-.3 19.4c0 3-.7 4.4-3.6 4.4h-.7v3c2.6-.2 5.1-.2 7.5-.2 2.4 0 4.8 0 7.1.2v-3h-.7c-2.8 0-3.5-1.3-3.5-4.4V36s0-.8.6-.8c.4 0 .9.8.9.8l9.2 17s.3.7.8.7.8-.7.8-.7l9.4-17.1s.4-.9.9-.9c.6 0 .5.9.5.9v15.7c0 3-.7 4.4-3.5 4.4h-.8v3c2.4-.2 4.8-.2 7.3-.2l7.5.1v-3h-.7c-3 0-3.5-1.2-3.6-4.3l-.3-19.5v-.3c0-2.8.8-4 3.6-4h.7v-3l-7.7.2-6-.1zm48.1 0v2.9h.7c2.8 0 3.6 1.3 3.6 4.3v19.5c0 3-.8 4.4-3.6 4.4h-.7v3c2.5-.2 4.8-.2 7.2-.2l7.2.1v-3h-.7c-2.8 0-3.5-1.2-3.5-4.3l-.2-16.4s0-.5.5-.6c.5-.1.7.4.7.4l12 24h9.4V32c0-3 .7-4.3 3.5-4.3h.7v-3l-7.3.2-7-.1v2.9h.6c2.9 0 3.5 1.3 3.5 4.3l.2 17.7s0 .5-.5.6c-.5.2-.8-.4-.8-.4L226.8 25h-13.7zm38.5 0V35h3.5v-1.4c0-3.7 1.2-4.7 5-4.7h3v22.6c0 3-.7 4.4-3.6 4.4h-1.2v3c2.9-.2 5.7-.2 8.6-.2l8.4.1v-3h-1.2c-2.8 0-3.5-1.2-3.5-4.3V29h2.4c4.1 0 5.4.9 5.4 5.2v1h3.6V24.8h-30.4zm41.5 0l-10.3 25.9c-1.4 3.4-2.5 5-4.7 5.2v3c2.3-.2 4.7-.2 7.2-.2l7.7.1v-3c-3 0-4-.4-4-2.4l.3-1.8 1.2-3.6h13l1 2.8c.4 1.3.6 2 .6 2.6 0 1.8-1.3 2.4-4.3 2.5v3a726.4 726.4 0 0129.6 0v-3h-.6c-3 0-3.6-1.3-3.6-4.4V35.2s0-.5.4-.6c.5-.1.7.4.7.4l11.9 24h9.4V32c0-3 .7-4.3 3.6-4.3h.6v-3l-7.3.2-7-.1v2.9h.6c2.9 0 3.6 1.3 3.6 4.3l.1 17.7s0 .5-.5.6c-.5.2-.8-.4-.8-.4L329.8 25H316v2.9h.7c2.8 0 3.6 1.3 3.6 4.3v19.5c0 3-.8 4.4-3.6 4.4-2.7-.3-3.5-2.2-4.7-5.4l-9.8-25.7H293zm72.6 0l-10.3 25.9c-1.3 3.4-2.4 5-4.7 5.2v3c2.4-.2 4.8-.2 7.3-.2l7.6.1v-3c-3 0-4-.4-4-2.4 0-.6.1-1.2.4-1.8L363 48h13.1l1 2.8c.3 1.3.5 2 .5 2.6 0 1.8-1.2 2.4-4.2 2.5v3c2.6-.2 5.3-.2 8-.2l7.8.1v-3c-2.7-.2-3.4-2.1-4.7-5.3l-9.8-25.7h-9.1zm-169.5 3.3c6 0 9.1 4.7 9.1 13.6 0 9-3.2 13.5-9 13.5-5.9 0-9.2-4.6-9.2-13.5s3.3-13.6 9.1-13.6zm101 2.2c.5 0 .6.4.6.4l4.3 13.1H292l4.6-13s.1-.5.6-.5zm72.6 0c.5 0 .6.4.6.4l4.3 13.1h-10.1l4.6-13s.2-.5.6-.5zm-228.2 37c-4.7 0-7.3 2.1-7.3 5.4 0 2.4 1.5 3.8 4.4 5l3.5 1.5c1.5.6 2 1.3 2 2.6 0 1.8-1.1 2.8-3.4 2.8-2.8 0-4.2-1.2-4.2-3.6v-.4h-2.2v5.2c2.3.5 4.5.8 6.6.8 4.9 0 7.5-2 7.5-5.5 0-2.2-1.3-3.8-4-4.9l-3.7-1.5c-1.6-.6-2.3-1.4-2.3-2.6 0-1.6 1.3-2.7 3.5-2.7 2.5 0 3.8 1 3.8 3.3v.6h2v-5.1a27 27 0 00-6.2-.8zm196 .5c-4.7 0-7.2 2-7.2 5.2 0 2.4 1.4 3.7 4.3 5l3.4 1.4c1.4.7 2 1.3 2 2.6 0 1.8-1.2 2.7-3.4 2.7-2.7 0-4.1-1.1-4.1-3.5V81h-2.1V86c2.2.5 4.4.8 6.4.8 4.8 0 7.4-2 7.4-5.4 0-2.2-1.3-3.8-3.9-4.8l-3.7-1.5c-1.5-.6-2.2-1.3-2.2-2.6 0-1.6 1.3-2.7 3.4-2.7 2.4 0 3.8 1 3.8 3.3v.6h2v-5c-2.2-.6-4.3-.8-6.2-.8zm-166.8 0l-5.5 14c-.8 2-1.4 2.8-2.4 2.9v1.6h7.9v-1.6c-1.6 0-2.2-.2-2.2-1.3 0-.4 0-.7.2-1l.8-2.4h6.8l.6 2 .3 1.3c0 1-.6 1.3-2.3 1.4v1.6h8.6v-1.6c-1.4-.1-1.8-1.2-2.5-3L175.8 68h-5zm103.6.2v1.6c1 0 1.4.7 2 2l5.5 15h4.3l5.3-15.1c.4-1.2.9-1.7 2-2v-1.5H286v1.6c1.5 0 2.1.3 2.1 1v.8l-3.6 10.6s-.1.3-.3.3c-.2 0-.4-.3-.4-.3l-3.6-10.7c-.2-.3-.2-.5-.2-.8 0-.8.6-.9 2.1-1v-1.5h-7.7zM149 68v5.2h1.8V73c0-2 .7-2.6 2.7-2.6h1.6v12.2c0 1.6-.4 2.3-2 2.3h-.5v1.6h8.9v-1.6h-.5c-1.5 0-1.9-.7-1.9-2.3V70.3h1.3c2.2 0 2.9.5 2.9 2.9v.1h2v-5.2H149zm32.3 0v5.3h1.8v-.5c0-2 .7-2.6 2.7-2.6h1.6v12.2c0 1.6-.4 2.3-1.9 2.3h-.3v1.6h8.8v-1.6h-.7c-1.5 0-1.9-.7-1.9-2.3V70.3h1.3c2.2 0 2.9.5 2.9 2.9v.2h2V68h-16.3zm42.4 0v1.6h.4c1.2 0 1.4.8 1.4 2.3v8.5c0 4.2 2.5 6.3 7.4 6.3 5.2 0 7.3-2.2 7.3-7V72c0-1.6.4-2.3 1.5-2.3h.4v-1.6a137 137 0 01-7.3 0v1.6h.3c1.5 0 2 .7 2 2.3v8c0 2.9-1.2 4.3-4 4.3-2.7 0-3.6-1.4-3.6-4.3v-8c0-1.7.3-2.3 1.9-2.3h.4v-1.6a163 163 0 01-8 0zm41.2 0v1.6h.4c1.5 0 1.9.7 1.9 2.3v10.5c0 1.6-.4 2.3-2 2.3h-.3v1.6h8.6v-1.6h-.4c-1.5 0-2-.7-2-2.3V72c0-1.6.5-2.3 2-2.3h.4v-1.6a195.8 195.8 0 01-8.6 0zm47 0v1.6h.3c1.5 0 1.9.7 1.9 2.3v10.5c0 1.6-.4 2.3-2 2.3h-.3v1.6h8.6v-1.6h-.4c-1.5 0-2-.7-2-2.3v-4.2h1.5c1.7 0 2.6.5 3 1.7.6 1.6.7 3.9 1.8 6.4h4.6v-1.6a2 2 0 01-1.2-.8c-.5-.6-.8-2-1.2-3.8-.5-1.9-1-2.7-2.7-3 2.1-.5 3.3-2 3.3-4.2 0-3.6-2.5-4.9-7.7-4.9h-7.6zm33.9 0v1.6h.3c1.5 0 2 .7 2 2.3v10.5c0 1.6-.5 2.3-2 2.3h-.3v1.6h8.5v-1.6h-.4c-1.5 0-1.9-.7-1.9-2.3V72c0-1.6.4-2.3 2-2.3h.3v-1.6a196.9 196.9 0 01-8.5 0zm9.6 0v5.2h2l-.1-.4c0-2 .7-2.6 2.7-2.6h1.6v12.2c0 1.6-.4 2.3-2 2.3h-.6v1.6h9.1v-1.6h-.6c-1.5 0-1.9-.7-1.9-2.3V70.3h1.3c2.2 0 2.9.5 2.9 2.9v.1h2v-5.2h-16.4zm16.8 0v1.6c1.2 0 1.8.7 2.5 2l4.2 7.2v3.8c0 1.6-.3 2.1-2 2.1h-.4v1.6h8.6v-1.6h-.4c-1.7 0-2-.5-2-2.1V79l4.4-7.3c.8-1.3 1.4-2 2.3-2h.2v-1.6a132.2 132.2 0 01-7.3 0v1.6c1 0 1.4.3 1.4 1 0 .3 0 .7-.3 1l-2 4s-.1.2-.3.2c-.2 0-.3-.2-.3-.2l-2-4c-.2-.5-.4-.8-.4-1.1 0-.6.4-.9 1.4-.9h.1v-1.6h-7.7zm-128.9 0v1.6h.4c1.5 0 2 .7 2 2.4v10.5c0 1.7-.5 2.4-2 2.4h-.4v1.6h7.8V85h-.4c-1.5 0-1.9-.7-1.9-2.4v-9.5s0-.2.2-.3c.3 0 .4.2.4.2l6.4 13.6h5.1V72c0-1.7.4-2.4 2-2.4h.3v-1.5h-7.8v1.5h.4c1.6 0 2 .7 2 2.4v9.5s0 .3-.3.4c-.3 0-.4-.2-.4-.2l-6.4-13.6h-7.4zm-44.8 0v1.6h.3c1.6 0 2 .7 2 2.3v10.5c0 1.5-.3 2.3-2 2.3h-.3v1.6h15v-5.7h-1.7c0 3.2-.7 3.6-3.7 3.6h-3.4v-6.4h1.2c1.9 0 2.3.4 2.4 2.4h1.6v-6.7h-1.6c0 2-.5 2.4-2.5 2.4h-1v-5.7h3.6c2.2 0 3.2.4 3.2 2.1v.8h1.7v-5h-14.8zm95.8 0v1.6h.4c1.5 0 1.9.7 1.9 2.3v10.5c0 1.5-.3 2.3-2 2.3h-.3v1.6h15v-5.7h-1.7c0 3.2-.7 3.6-3.7 3.6h-3.3v-6.4h1.1c1.9 0 2.3.4 2.4 2.4h1.6v-6.7h-1.6c0 2-.5 2.4-2.5 2.4h-1v-5.7h3.6c2.2 0 3.2.4 3.2 2.1v.8h1.7v-5h-14.8zm23.8 2.2h1.5c2.5 0 3.7.9 3.7 3.1s-1.2 3-3.8 3H318v-6zM173 71c.2 0 .3.2.3.2l2.2 6.7h-5.2l2.3-6.7s.1-.2.4-.2z" fill="currentColor"/>
</svg>
