<svg width="266" height="701" viewBox="0 0 266 701" fill="none" xmlns="http://www.w3.org/2000/svg">
<path d="M265.254 63.4226C265.254 71.6186 263.8 79.4512 260.912 86.9201C258.149 94.5137 254.056 101.255 248.623 107.166C243.063 113.169 236.284 117.915 228.741 121.086C220.908 124.576 211.995 126.322 201.992 126.322C191.988 126.322 183.075 124.576 175.243 121.086C167.7 117.915 160.921 113.169 155.36 107.166C149.949 101.276 145.718 94.4034 142.895 86.9201C140.111 79.3999 138.7 71.4412 138.729 63.4225C138.707 55.3445 140.114 47.3261 142.884 39.738C145.74 32.3299 149.97 25.5277 155.35 19.6892C160.937 13.6648 167.71 8.86186 175.243 5.5824C183.075 2.20631 191.988 0.523437 201.992 0.523438C211.995 0.523438 220.908 2.20631 228.741 5.5824C236.138 8.80098 242.804 13.4891 248.334 19.3622C253.865 25.2354 258.144 32.1711 260.912 39.7484C263.801 47.3099 265.272 55.3385 265.254 63.4329V63.4226ZM233.623 63.4226C233.623 58 232.242 53.18 229.468 48.9625C226.605 44.6701 222.684 41.1887 218.083 38.855C213.377 36.4346 208.017 35.2192 201.992 35.2192C195.967 35.2192 190.544 36.4242 185.724 38.8342C181.195 41.2085 177.34 44.6889 174.516 48.9521C171.742 53.1696 170.36 57.9897 170.36 63.4122C170.36 68.8347 171.742 73.6547 174.516 77.8722C177.27 82.1976 181.143 85.6973 185.724 88.0004C190.787 90.469 196.36 91.711 201.992 91.6259C208.017 91.6259 213.377 90.4208 218.083 88.0108C222.737 85.746 226.677 82.2415 229.468 77.8826C232.242 73.6651 233.623 68.8451 233.623 63.4226ZM264.351 196.804L141.44 252.837L141.44 213.425L157.708 207.462V169.141L141.44 163.178V123.777L264.351 179.809V196.804ZM209.762 188.307L184.82 179.082V197.521L209.762 188.307ZM124.799 224.062L3.69609 184.66L3.69609 159.168L67.8625 138.018L3.69609 116.879L3.6961 91.3869L124.799 51.6322V91.0337L61.8998 107.488L124.799 126.29V149.424L61.8998 168.58L124.799 184.671L124.799 224.072V224.062ZM124.799 417.943C124.81 423.996 123.956 430.019 122.264 435.831C120.663 441.56 118.029 446.95 114.494 451.735C111.01 456.432 106.497 460.269 101.301 462.954C96.0034 465.842 89.7914 467.285 82.6861 467.285C73.6485 467.285 66.1692 464.689 60.2688 459.505C54.3685 454.446 50.3276 447.943 48.1565 439.986L3.69606 473.435L3.69607 432.216L51.7715 399.868L3.69607 399.868L3.69607 366.065L124.799 366.065L124.799 417.943ZM93.1675 399.868H70.5737C69.8466 401.914 69.244 404.075 68.7662 406.371C68.2746 408.868 68.0311 411.408 68.039 413.954C68.039 419.262 69.0674 423.666 71.1139 427.146C73.285 430.772 76.5364 432.579 80.8785 432.579C85.8128 432.579 89.0746 430.772 90.6432 427.157C92.3261 423.666 93.1675 419.262 93.1675 413.964V399.857V399.868ZM124.799 520.648H80.3384L124.799 557.713V598.382L75.0924 554.638L3.69605 603.804L3.69605 560.787L49.2472 531.68L36.7817 520.659L3.68565 520.659L3.68565 486.856H124.799V520.648ZM127.51 654.819C127.51 661.935 126.606 668.926 124.799 675.793C123.116 682.784 120.82 688.383 117.932 692.6H85.2103C88.1132 687.642 90.7115 682.511 92.9909 677.237C95.2762 672.178 96.4189 666.215 96.4189 659.338C96.502 655.818 95.8877 652.315 94.6114 649.033C93.4064 646.145 91.4223 644.701 88.6487 644.701C85.6362 644.701 83.3509 646.447 81.7823 649.937C80.328 653.438 78.6451 657.718 76.7233 662.776L71.841 675.793C68.4649 684.591 63.8838 690.793 58.0977 694.408C52.322 698.148 46.536 700.017 40.7499 700.017C33.042 700.017 26.1652 697.784 20.1402 693.327C14.2398 688.861 9.54444 682.836 6.0437 675.252C2.66762 667.659 0.984773 659.151 0.984774 649.76C1.00242 642.428 2.2851 635.154 4.77637 628.257C7.04989 621.651 10.2127 615.385 14.1775 609.632H46.8995C42.5848 615.374 39.0011 621.63 36.2311 628.257C33.4575 635.009 32.0759 641.751 32.0759 648.493C32.0759 652.711 32.5538 656.087 33.5198 658.621C34.6002 661.27 36.4077 662.6 38.9424 662.6C40.7499 662.6 42.3185 661.634 43.6377 659.702C45.1767 657.304 46.3365 654.683 47.0761 651.931L52.4986 634.76C54.6697 628.008 57.6199 622.772 61.3596 619.033C65.0992 615.293 69.2544 612.706 73.8251 611.263C78.4505 609.827 83.2655 609.095 88.1086 609.091C96.6578 609.091 103.836 611.263 109.612 615.605C115.526 619.952 120.15 625.821 122.991 632.589C126.01 639.61 127.548 647.177 127.51 654.819ZM127.51 290.462C127.51 298.658 126.056 306.49 123.168 313.959C120.405 321.542 116.312 328.295 110.879 334.205C105.318 340.208 98.5395 344.954 90.9964 348.125C83.1639 351.616 74.251 353.361 64.2474 353.361C54.2438 353.361 45.331 351.616 37.4985 348.125C29.9553 344.954 23.1766 340.208 17.6159 334.205C12.2051 328.315 7.97354 321.443 5.15039 313.959C2.36698 306.439 0.956066 298.48 0.984805 290.462C0.962667 282.384 2.36939 274.365 5.13999 266.777C7.9959 259.369 12.2252 252.567 17.6055 246.728C23.1924 240.704 29.9654 235.901 37.4985 232.622C45.331 229.245 54.2438 227.563 64.2474 227.563C74.251 227.563 83.1639 229.245 90.9964 232.622C98.3934 235.841 105.059 240.529 110.589 246.402C116.12 252.275 120.399 259.211 123.168 266.788C126.054 274.343 127.526 282.364 127.51 290.451V290.462ZM95.8788 290.462C95.8788 285.039 94.4972 280.219 91.7236 276.002C88.8625 271.705 84.9409 268.22 80.3384 265.884C75.6327 263.474 70.2725 262.269 64.2474 262.269C58.2224 262.269 52.7999 263.474 47.9799 265.884C43.4508 268.258 39.5953 271.738 36.7713 276.002C33.9977 280.219 32.6161 285.039 32.6161 290.462C32.6161 295.884 33.9977 300.704 36.7713 304.922C39.5269 309.243 43.3998 312.739 47.9799 315.04C53.0434 317.505 58.6163 318.743 64.2474 318.655C70.2725 318.655 75.6326 317.45 80.3384 315.04C84.9914 312.778 88.9307 309.277 91.7236 304.922C94.4972 300.704 95.8788 295.884 95.8788 290.462Z" fill="var(--white-25)"/>
<path d="M170.381 322.166C161.992 322.166 153.947 318.833 148.015 312.901C142.083 306.969 138.75 298.923 138.75 290.534C138.75 282.145 142.083 274.1 148.015 268.168C153.947 262.236 161.992 258.903 170.381 258.903C178.77 258.903 186.816 262.236 192.748 268.168C198.68 274.1 202.013 282.145 202.013 290.534C202.013 298.923 198.68 306.969 192.748 312.901C186.816 318.833 178.77 322.166 170.381 322.166Z" fill="var(--white-25)"/>
</svg>
