<svg xmlns="http://www.w3.org/2000/svg" xml:space="preserve" fill-rule="evenodd" stroke-linejoin="round" stroke-miterlimit="2" clip-rule="evenodd" viewBox="0 0 587 292" class="logo">
  <g fill-rule="nonzero">
    <path fill="#9d7ea1" d="M441.58 153.575c-47.737 17.329-60.977-1.155-60.977-1.155s27.724 4.558 53.361 2.174l7.616-1.019Z"/>
    <path fill="#9d7ea1" d="M361.847 130.305s47.139 14.038 91.824 21.456c-86.762 3.641-91.824-21.456-91.824-21.456ZM348.804 91.329s64.468 40.311 111.104 59.471c-118.583-25.335-111.104-59.471-111.104-59.471Z"/>
    <path fill="#5d2861" d="M574.468 99.715s-72.857 36.931-140.586 54.879c141.993-17.568 140.586-54.879 140.586-54.879ZM585.215.851c-82.891 82.917-119.323 106.856-176.263 159.742C585.385 65.535 585.215.851 585.215.851ZM520.123 156.061s-33.817 1.046-52.424-2.642c40.854 15.455 52.424 2.642 52.424 2.642Z"/>
    <path fill="#5d2861" d="M586.675 54.643c-99.431 64.877-131.312 85.332-169.986 105.399C583.035 102.734 586.675 54.643 586.675 54.643ZM547.88 137.618s-46.228 11.718-87.565 14.085c77.246 8.624 87.565-14.085 87.565-14.085Z"/>
    <path fill="#231f20" d="M11.1 205.393c1.59.007 5.319.163 8.47-1.569 3.098-1.637 4.621-4.64 4.621-8.362 0-3.791-1.964-6.219-3.615-7.303-2.771-1.854-6.508-1.715-9.476-1.569v18.803ZM0 183.73c2.004.136 3.967.279 6.005.279 1.63 0 9.836-.279 11.738-.279 2.195 0 7.018 0 10.034 4.151 1.392 1.983 1.929 4.361 1.929 6.508 0 3.512-1.141 6.011-2.431 7.73-1.862 2.283-3.867 3.274-6.053 4.341l9.911 13.339c4.442 5.716 4.945 6.443 8.953 6.79v2.342c-1.284 0-6.094-.264-7.167-.332-2.683-.21-3.151-.87-4.938-3.423l-12.018-17.333c-2.2.207-2.9.207-4.863.207v7.456c.061 6.083.129 7.007.271 7.93.299 2.581 1.692 3.153 5.354 3.084v2.411c-2.908-.196-5.809-.332-8.709-.332-2.65 0-5.374.136-7.942.332v-2.411c2.255 0 4.219-.149 4.973-1.507.387-.707.441-.857.441-8.376v-17.66c0-4.15-.054-8.814-.305-10.172-.388-2.361-2.459-2.361-5.183-2.432v-2.643ZM44.183 213.417c0 5.522 2.656 13.45 9.877 13.45 5.726 0 8.803-5.14 8.803-11.361 0-5.364-2.859-13.461-10.093-13.169-4.926.292-8.587 4.646-8.587 11.08Zm23.979 1.297c0 8.219-6.018 14.748-14.741 14.748-9.592 0-14.537-7.235-14.537-14.613 0-9.007 6.657-14.808 14.537-15.026 9.803-.292 14.741 7.31 14.741 14.891ZM76.382 218.858c.068 1.359.068 2.584.707 3.871 1.434 3.003 4.592 3.642 6.508 3.642 6.439 0 9.456-5.652 9.456-11.348 0-7.401-4.66-11.199-9.959-11.199-3.132 0-5.265 1.305-6.712 2.089v12.945Zm-8.45-34.564c3.566-1.29 4.428-1.644 7.805-3.57l1.216.574c-.367 2.785-.503 5.292-.571 12.663v9.863c2.785-1.915 5.571-3.783 9.586-3.783 7.017 0 12.152 5.801 12.152 13.674 0 8.798-6.073 15.387-15.093 15.387h-.708c-1.718-.075-3.444-.435-5.23-.652-.564-.061-1.142-.061-1.712-.061-1.365 0-2.445.21-3.879.542l.074-10.141v-25.403c0-6.369 0-7.293-3.64-7.262v-1.831ZM117.543 208.916c.944-.071 1.644-.296 1.644-1.715 0-1.858-1.229-4.498-5.095-4.498-3.566 0-6.291 2.283-7.439 6.213h10.89Zm-11.46 2.429c-.136.855-.136 1.154-.136 2.01 0 2.211.258 3.859 1.073 5.723 1.645 3.503 5.048 6.084 9.327 6.084 3.689 0 5.632-1.427 6.773-2.229l1.074 1.437c-1.006 1.077-1.93 1.934-3.587 2.941a14.042 14.042 0 0 1-6.909 1.859c-6.97 0-12.255-5.866-12.255-13.815 0-9.16 5.855-15.247 13.22-15.247 5.23 0 9.164 3.302 9.164 8.166 0 3.002-1.142 3.071-3.064 3.071h-14.68ZM127.549 203.192c3.445-1.358 4.341-1.719 7.547-3.661l.761.448v6.077c.939-1.573 3.295-5.791 8.091-5.791.435 0 2.432 0 2.432 1.78 0 .359-.496 3.797-1.929 3.797-.442 0-1.515-.788-3.587-.788-4.226 0-4.647 3.791-4.734 5-.273 2.231-.273 9.588-.273 12.102 0 3.512.068 4.711 4.498 4.585v2.144c-2.419-.15-4.749-.361-7.072-.361-2.222 0-4.226.211-6.583.361v-2.144c2.852-.085 3.932-.152 4.294-2.014.142-.713.21-3.138.21-4.65v-9.157c-.21-5.451-.21-5.866-3.655-6.019v-1.709ZM149.519 202.629c4.592-3.234 5.801-6.311 6.738-9.242h1.848l-.06 8.372h8.599l-1.018 2.86h-7.731l-.292 13.743c0 2.928 0 4.507.734 5.74.998 1.63 2.852 1.991 4.062 1.991 1.365 0 2.31-.361 3.45-.799l.639 1.865c-3.084 1.291-4.796 1.943-7.336 1.943-1.386 0-3.397-.171-4.905-1.658-1.576-1.562-1.576-3.288-1.576-7.146l.224-15.746h-3.879l.503-1.923ZM181.488 183.795c2.282.152 4.415.288 6.549.288 2.397 0 5.047-.074 7.9-.288v2.33c-1.576 0-3.281.39-3.281 2.149 0 .313.06.595.203.969.156.631 1.502 4.144 1.868 5.078l10.021 25.121 6.011-13.973-6.296-14.226c-2.222-4.368-2.521-5.02-5.578-5.118v-2.33c2.276.152 4.293.288 6.44.288 2.357 0 4.674-.136 7.011-.288v2.33c-1.264 0-2.88.03-2.88 2.034 0 .795.366 1.705.74 2.649l3.525 8.098 3.206-7.514c.565-1.365 1.054-2.227 1.054-3.151 0-2.086-1.854-2.116-2.86-2.116v-2.33c2.01.152 3.994.288 6.073.288 1.807 0 3.444-.136 5.529-.288v2.33c-3.084-.031-4.232.601-5.869 4.32l-5.455 12.248 7.432 16.664 10.462-25.036c1.291-3.078 1.787-4.294 1.787-5.53 0-2.486-2.351-2.636-4.145-2.666v-2.33c2.229.152 4.444.288 6.726.288 2.22 0 4.428-.136 6.65-.288v2.299c-3.505.129-4.212 1.131-6.65 6.433l-12.235 28.26c-1.515 3.519-2.086 5.014-3.363 8.383h-.849l-8.811-19.891-8.83 19.891h-.829l-15.251-37.652c-2.106-4.5-2.86-5.363-6.005-5.499v-2.224ZM240.846 213.417c0 5.522 2.65 13.45 9.817 13.45 5.781 0 8.865-5.14 8.865-11.361 0-5.364-2.949-13.461-10.095-13.169-5 .292-8.587 4.646-8.587 11.08Zm23.912 1.297c0 8.219-6.032 14.748-14.679 14.748-9.613 0-14.524-7.235-14.524-14.613 0-9.007 6.569-14.808 14.524-15.026 9.72-.292 14.679 7.31 14.679 14.891ZM273.474 213.417c0 5.522 2.656 13.45 9.803 13.45 5.802 0 8.886-5.14 8.886-11.361 0-5.364-2.949-13.461-10.095-13.169-5 .292-8.594 4.646-8.594 11.08Zm23.912 1.297c0 8.219-6.032 14.748-14.679 14.748-9.592 0-14.525-7.235-14.525-14.613 0-9.007 6.576-14.808 14.525-15.026 9.72-.292 14.679 7.31 14.679 14.891ZM321.652 211.701c-.062-3.787-.204-5.788-2.079-7.513-1.508-1.43-3.498-1.784-5.277-1.784-4.954 0-8.676 4.145-8.676 11.168 0 7.433 4.225 11.651 9.028 11.651 3.35 0 5.557-1.991 7.004-3.281v-10.241Zm-3.58-27.618c3.281-1.161 4.219-1.569 7.67-3.572l1.073.495c-.231 4.076-.299 4.731-.367 8.94v28.341c0 6.519.068 7.445 3.723 7.436v2.088c-2.514.068-4.939.495-7.942 1.427l-1.005-1.006c.061-1.426.061-1.861.224-3.505-2.241 1.722-5.516 4.375-9.68 4.375-6.352 0-11.006-6.521-11.006-14.079 0-8.563 5.931-14.982 13.886-14.982 3.485 0 5.862 1.14 6.942 1.718v-12.594c-.142-2.439-.237-3.228-3.518-3.228v-1.854ZM351.243 183.866c3.01.143 5.34.292 7.989.292 2.894 0 5.754-.149 8.607-.292v2.259c-1.508 0-3.559 0-4.429 1.395-.571.931-.571 2.711-.571 7.011v18.607c0 13.166 0 14.741-2.283 19.042-2.438 4.428-8.817 11.235-13.885 11.235-.733 0-3.519-.302-3.519-1.369 0-.366.061-.642 1.081-2.214.557-.799 1.297-2.011 1.942-2.011.225 0 .496.139.775.228a7.679 7.679 0 0 0 3.01.638c1.582 0 3.158-.57 4.497-2.218 2.581-3.005 2.635-6.728 2.71-18.396v-12.815c0-2.921-.054-5.768-.075-9.728-.054-4.864-.054-5.142-.122-6.005-.211-2.867-1.644-3.302-5.727-3.37v-2.289ZM373.287 213.417c0 5.522 2.643 13.45 9.884 13.45 5.734 0 8.791-5.14 8.791-11.361 0-5.364-2.853-13.461-10.068-13.169-4.979.292-8.607 4.646-8.607 11.08Zm23.96 1.297c0 8.219-5.992 14.748-14.714 14.748-9.592 0-14.525-7.235-14.525-14.613 0-9.007 6.645-14.808 14.525-15.026 9.796-.292 14.714 7.31 14.714 14.891ZM399.217 184.368c3.349-1.147 4.082-1.494 7.581-3.59l1.203.53c-.198 3.42-.34 4.28-.34 10.934v12.812c5.713-3.873 7.792-4.654 9.871-4.654 2.574 0 4.856.931 6.439 2.358 1.786 1.936 2.073 4.51 2.073 7.73 0 1.353-.129 8.302-.129 9.888v3.274c0 2.939 1.066 2.939 3.987 3.091v2.144c-2.181-.15-4.416-.361-6.637-.361-2.309 0-4.164.211-6.678.361v-2.144c3.152-.085 4.165-.085 4.293-2.639.076-.73.306-4.809.306-9.039 0-2.422 0-5.577-.434-7.292-.279-.792-1.067-3.865-5.32-3.865-2.404 0-4.715.931-7.839 3.505v14.745c0 4.086.068 4.433 4.198 4.585v2.144c-2.255-.15-4.422-.361-6.704-.361a69.3 69.3 0 0 0-6.8.361v-2.144c2.275-.085 3.239-.152 3.844-.94.51-.625.51-1.577.571-4.715v-29.415c0-4.653-.102-5.516-3.485-5.448v-1.855ZM432.007 203.05c3.289-1.216 4.165-1.501 7.657-3.655l1.229.584c-.23 1.994-.306 2.494-.306 4.865 6.882-4.579 8.519-4.736 10.157-4.736 1.453 0 3.213.364 4.809 1.365 3.349 2.077 3.519 5.364 3.519 9.366v12.597c0 2.935.747 3.013 4.131 3.22v2.229c-2.222-.218-4.457-.361-6.638-.361-2.221 0-4.511.143-6.745.361v-2.229c4.286-.136 4.286-.421 4.286-5.434v-9.799c0-2.857-.129-7.731-5.503-7.731-3.783 0-6.637 2.364-8.016 3.509l.157 15.461c.149 3.573.292 3.927 4.293 3.994v2.229c-2.303-.218-4.511-.361-6.786-.361-2.31 0-4.599.143-6.766.361v-2.229c2.234 0 3.104-.136 3.723-.855.556-.578.556-.857.59-4.212v-8.451c-.068-7.669-.068-8.301-3.791-8.237v-1.851ZM467.251 220.376c.36 1.586.611 2.639 1.27 3.78 1.509 2.65 4.097 2.65 4.593 2.65 2.581 0 5.067-1.512 5.067-4.293 0-2.5-1.243-3.37-5.93-6.437-3.22-2.123-6.005-4.161-6.005-8.373 0-5.074 4.089-7.88 8.383-7.88 2.649 0 5.128.785 6.575 1.287l.564 5.806-1.644.217c-.571-1.733-1.637-5.014-5.298-5.014-2.344 0-4.158 1.645-4.158 3.937 0 2.564 2.242 4.086 4.457 5.509 4.632 2.905 7.512 4.725 7.512 9.31 0 5.429-4.523 8.227-9.15 8.227-3.084 0-5.625-.87-7.262-1.511l-.924-7.008 1.95-.207ZM491.428 213.417c0 5.522 2.643 13.45 9.891 13.45 5.706 0 8.797-5.14 8.797-11.361 0-5.364-2.86-13.461-10.102-13.169-4.925.292-8.586 4.646-8.586 11.08Zm23.986 1.297c0 8.219-6.011 14.748-14.768 14.748-9.558 0-14.517-7.235-14.517-14.613 0-9.007 6.671-14.808 14.517-15.026 9.83-.292 14.768 7.31 14.768 14.891ZM516.929 203.05c3.287-1.216 4.056-1.501 7.643-3.655l1.135.584c-.129 1.994-.191 2.494-.191 4.865 6.793-4.579 8.445-4.736 10.088-4.736a9.6 9.6 0 0 1 4.871 1.365c3.349 2.077 3.417 5.364 3.417 9.366v12.597c0 2.935.801 3.013 4.226 3.22v2.229c-2.208-.218-4.497-.361-6.712-.361a67.46 67.46 0 0 0-6.692.361v-2.229c4.287-.136 4.287-.421 4.287-5.434v-9.799c0-2.857-.102-7.731-5.543-7.731-3.797 0-6.671 2.364-7.942 3.509l.129 15.461c.062 3.573.211 3.927 4.287 3.994v2.229c-2.276-.218-4.558-.361-6.875-.361-2.248 0-4.484.143-6.705.361v-2.229c2.289 0 3.065-.136 3.723-.855.576-.578.576-.857.639-4.212v-8.451c-.136-7.669-.136-8.301-3.785-8.237v-1.851ZM24.869 276.098c-.149-4.925-1.562-5.269-6.535-5.364h-7.14v13.108c.136 4.497.442 4.975 5.435 5.23v2.29c-3.654-.143-6.439-.374-9.089-.374-2.718 0-5.115.163-7.514.374v-2.357c3.852-.096 5.048-.367 5.368-3.451.122-1.345.182-6.434.182-7.717V254.58c-.06-5.085-.115-5.899-5.481-5.947v-2.286c5.047.139 10.162.268 15.21.268 5.692 0 9.49-.064 13.294-.268l.985 9.86-2.419.23c-.692-6.806-4.082-7.207-12.682-7.207-2.283 0-2.65 0-2.901.401-.197.204-.197.577-.197 1.443l-.122 4.128c-.069 6.814-.069 7.54-.069 12.814h6.76c5.489-.078 6.766-.41 6.936-5.37h2.275c-.136 2.633-.149 4.532-.149 6.744 0 2.285.013 4.452.149 6.708h-2.296ZM36.588 275.962c0 5.434 2.636 13.383 9.789 13.383 5.768 0 8.878-5.136 8.878-11.366 0-5.37-2.928-13.457-10.08-13.182-5.014.302-8.587 4.731-8.587 11.165Zm23.898 1.216c0 8.243-6.011 14.822-14.741 14.822-9.593 0-14.456-7.289-14.456-14.663 0-9.021 6.583-14.82 14.456-15.03 9.803-.238 14.741 7.29 14.741 14.871ZM62.918 263.082c4.083 0 5.095-.066 8.743-.707-.075 3.994-.149 8.162-.149 12.174 0 2.146 0 7.153.455 8.925.903 3.727 3.92 4.093 5.271 4.093 3.22 0 5.428-1.715 7.167-3.077.205-4.004.279-9.235.279-13.317 0-5.374-.143-5.639-4.871-5.639v-2.31c4.225 0 5.305-.075 9.884-.777-.292 8.287-.428 17.679-.428 20.967 0 3.58.068 4.796 4.069 4.796v2.071c-2.289.123-3.566.144-8.512 1.512l-.855-.805c.278-1.776.285-2.171.502-4.225a16.88 16.88 0 0 1-3.295 2.582c-1.936 1.372-4.151 2.377-6.508 2.377-.292 0-3.227 0-5.162-1.807-2.86-2.419-2.895-6.213-2.895-9.653v-10.734c-.033-3.362-.182-4.293-3.695-4.225v-2.221ZM96.477 265.534c3.288-1.243 4.083-1.512 7.588-3.655l1.223.568c-.157 2.01-.224 2.51-.224 4.942 6.8-4.647 8.443-4.799 10.095-4.799 1.433 0 3.213.355 4.864 1.368 3.308 2.079 3.443 5.36 3.443 9.361v12.605c0 2.918.775 2.985 4.144 3.216v2.222c-2.16-.211-4.442-.374-6.656-.374-2.215 0-4.498.163-6.733.374v-2.222c4.293-.135 4.293-.434 4.293-5.438v-9.819c0-2.847-.067-7.717-5.509-7.717-3.791 0-6.651 2.353-7.941 3.491l.081 15.462c.143 3.587.278 3.953 4.28 4.021v2.222c-2.214-.211-4.504-.374-6.787-.374-2.289 0-4.524.163-6.732.374v-2.222c2.248 0 3.078-.135 3.716-.863.578-.526.578-.848.646-4.231v-8.424c-.142-7.677-.142-8.312-3.791-8.206v-1.882ZM150.069 274.182c-.074-3.788-.211-5.731-2.126-7.514-1.509-1.389-3.451-1.783-5.231-1.783-4.966 0-8.682 4.133-8.682 11.148 0 7.441 4.232 11.718 9.028 11.718 3.288 0 5.517-2.062 7.011-3.339v-10.23Zm-3.566-27.631c3.288-1.139 4.143-1.58 7.649-3.564l1.073.506c-.278 4.113-.353 4.697-.367 8.943v28.342c0 6.487.014 7.493 3.73 7.432v2.071c-2.561.123-4.939.503-7.996 1.441l-1.012-1.005c.142-1.379.142-1.875.278-3.516-2.207 1.708-5.502 4.357-9.659 4.357-6.365 0-11.026-6.497-11.026-14.013 0-8.591 5.923-15.028 13.885-15.028 3.513 0 5.863 1.142 6.937 1.709v-12.585c-.137-2.411-.204-3.216-3.492-3.216v-1.874ZM175.319 277.605c-7.058 2.654-9.463 3.519-9.463 6.74 0 2.01 1.353 3.926 3.723 3.926 1.787 0 3.723-1.141 5.74-3.21v-7.456Zm.061-1.983v-3.512c-.061-2.079-.183-6.509-4.014-6.509-1.42 0-2.574.565-3.084.768-2.283 1.312-2.426 2.019-2.562 3.384a6.862 6.862 0 0 1-.223.848c-.503.728-2.854 1.203-3.139 1.203-.652 0-.721-.475-.721-.768 0-.143 0-2.082 1.801-3.525 2.282-1.712 5.332-3.627 8.553-5.272h.876c1.854 0 3.519.351 5.034 1.783 2.052 1.781 2.344 3.916 2.344 8.16 0 1.64-.225 9.587-.225 11.361 0 2.812.021 5.026 1.868 5.026.945 0 1.645-.57 2.289-1.14l.864 1.388c-2.147 1.831-4.293 2.83-6.169 2.83-3.084 0-3.281-2.738-3.492-4.31-.937 1.002-4.014 4.221-8.24 4.221-3.635 0-6.439-2.346-6.439-6.497 0-3.937 2.37-4.868 6.874-6.586l7.805-2.853ZM185.903 265.099c4.6-3.22 5.815-6.242 6.739-9.232h1.855l-.062 8.359h8.587l-1.012 2.877h-7.717l-.299 13.723c0 2.947 0 4.527.733 5.808 1.006 1.637 2.854 1.935 4.069 1.935 1.373 0 2.296-.298 3.445-.801l.639 1.875c-3.084 1.318-4.796 1.915-7.351 1.915-1.372 0-3.383-.131-4.891-1.643-1.576-1.576-1.576-3.233-1.576-7.144l.231-15.736h-3.886l.496-1.936ZM209.564 248.19c0-1.653 1.494-3.151 3.132-3.151 1.738 0 3.165 1.498 3.165 3.151a3.146 3.146 0 0 1-3.165 3.18c-.775 0-1.624-.296-2.188-.869-.598-.666-.944-1.434-.944-2.311Zm-2.364 17.477c3.145-1.145 3.92-1.505 7.588-3.651l1.222.566c-.23 2.442-.298 3.019-.298 5.434v16.763c0 3.927.149 4.063 4.089 4.361v2.154c-2.228-.143-4.449-.333-6.602-.333-2.215 0-4.43.19-6.712.333v-2.154c4.293-.231 4.293-.502 4.361-4.931v-12.602c-.068-2.856-.211-4.218-3.648-4.191v-1.749ZM226.846 275.962c0 5.434 2.649 13.383 9.864 13.383 5.733 0 8.817-5.136 8.817-11.366 0-5.37-2.914-13.457-10.088-13.182-5.013.302-8.593 4.731-8.593 11.165Zm23.885 1.216c0 8.243-5.978 14.822-14.653 14.822-9.592 0-14.524-7.289-14.524-14.663 0-9.021 6.637-14.82 14.524-15.03 9.742-.238 14.653 7.29 14.653 14.871ZM252.551 265.534c3.288-1.243 4.083-1.512 7.649-3.655l1.155.568c-.149 2.01-.217 2.51-.217 4.942 6.8-4.647 8.444-4.799 10.088-4.799 1.42 0 3.227.355 4.863 1.368 3.364 2.079 3.458 5.36 3.458 9.361v12.605c0 2.918.768 2.985 4.192 3.216v2.222c-2.215-.211-4.497-.374-6.705-.374-2.248 0-4.47.163-6.678.374v-2.222c4.301-.135 4.301-.434 4.301-5.438v-9.819c0-2.847-.143-7.717-5.571-7.717-3.797 0-6.651 2.353-7.948 3.491l.135 15.462c.082 3.587.231 3.953 4.294 4.021v2.222c-2.282-.211-4.565-.374-6.876-.374-2.213 0-4.495.163-6.717.374v-2.222c2.289 0 3.084-.135 3.723-.863.576-.526.576-.848.645-4.231v-8.424c-.135-7.677-.135-8.312-3.791-8.206v-1.882Z"/>
  </g>
</svg>
