<svg xmlns="http://www.w3.org/2000/svg" viewBox="0 0 260.35 71.77" class="logo">
  <defs>
    <clipPath id="a" clipPathUnits="userSpaceOnUse">
      <path d="M0 0h195.26v53.83H0z"/>
    </clipPath>
  </defs>
  <g clip-path="url(#a)" transform="matrix(1.33333 0 0 -1.33333 0 71.77)">
    <path d="M10.9 44.93c-3.77 1.28-5.81 2.26-5.81 4.88 0 2.05 1.87 3.16 3.85 3.16 3.64 0 5.79-2.62 6.6-6.77h.77v7.2h-.64l-1.13-2.25h-.1a6.93 6.93 0 01-5.47 2.64c-3.92 0-6.99-2.76-6.99-6.3 0-4.38 3.13-6.14 7.1-7.44 3.7-1.2 5.37-2.56 5.37-4.76 0-2.76-1.41-4.07-4.56-4.07-1.87 0-3.67.74-4.97 2.26-1.23 1.42-1.94 3.31-2.32 5.56h-.76v-8.31h.6l1.41 2.5h.1a7.62 7.62 0 015.94-2.85c4.81 0 7.74 3.1 7.74 7.15 0 4.04-2.8 6.04-6.73 7.4M192.65 50.8a6.77 6.77 0 01-5.8 3.03c-6.56 0-10.97-5.41-10.97-11.78 0-6.36 4.2-11.8 10.92-11.8 4.33 0 7.5 2.27 8.47 7.45l-.82.21c-.9-4.22-3.16-6.72-7.1-6.72-4.08 0-6.24 3.43-6.24 10.86 0 7.4 2 10.92 5.82 10.92 3.74 0 6.09-2.74 7.14-8.23h.85v8.7h-.53l-1.67-2.65M37.33 50.87a6.54 6.54 0 01-5.71 2.96c-6.55 0-10.96-5.41-10.96-11.78 0-6.36 4.2-11.8 10.92-11.8 4.33 0 7.5 2.27 8.46 7.45l-.81.13c-1.04-4.14-2.98-6.64-7.1-6.64-4.08 0-6.25 3.43-6.25 10.86 0 7.4 2.07 10.92 5.7 10.92 3.75 0 6.1-2.74 7.15-8.23h.72v8.7h-.65l-1.4-2.57M53.37 31.54h-3.33v21.12h3.33v.79H42.04v-.8h3.33V31.55h-3.33v-.83h11.33M127.65 31.54v-.83h11.33v.82h-3.33v21.13h3.33v.79h-11.33v-.8h3.33V31.55M162.68 52.66H166V31.54h-3.33v-.83H174v.82h-3.33v21.13H174v.79h-11.33M76.73 39.18h-.52a16.15 16.15 0 00-2.9-5.89c-1.26-1.47-2.5-1.74-4.87-1.74h-3.6v10.18h1.69c1.31 0 2.26-.26 2.9-.95.8-.75 1.33-2.2 1.35-3.77h.61v10.27h-.61a6.12 6.12 0 00-1.36-3.78c-.62-.69-1.56-.94-2.89-.94h-1.69v10.09h4.03c1.88 0 3.16-.47 3.96-1.25 1.33-1.12 2.18-2.78 3.01-5.75h.53v7.8H56.84v-.8h3.33V31.54h-3.33v-.83h19.9M84.57 50.02l14.12-19.3h1.34V50.7c0 1.28.54 1.95 1.67 1.95h1.46v.8h-7.34v-.8h1.51c1.14 0 1.67-.68 1.67-1.95V37.78h-.1L87.69 53.45h-8.31v-.8h.93c1.2 0 1.93-.3 2.5-.96.5-.5.69-.97.69-1.46V33.6c0-1.24-.51-2.06-1.67-2.06h-1.65v-.82h7.77v.83h-1.78c-1.12 0-1.65.87-1.65 2.05v16.42M108.37 51.24c.8.79 1.74 1.36 3.27 1.36h.87V31.54h-3.42v-.82h11.5v.82h-3.42V52.6h.75c1.54 0 2.62-.52 3.39-1.32 1.3-1.24 2.08-3.13 2.78-5.95h.78v8.12h-20.03V45.4h.76c.71 2.81 1.5 4.57 2.77 5.83M141.82 31.54v-.83h11.39v.82h-3.38v10.34h1.41c1.07 0 2-.3 2.62-.96.93-.83 1.4-2.48 1.43-3.8h.85v10.34h-.85a6 6 0 00-1.31-3.65 3.6 3.6 0 00-2.74-1.1h-1.41v9.96h3.27c1.97 0 3.16-.48 4.15-1.45 1-.99 1.95-2.69 2.82-5.6h.72v7.84h-18.97v-.79h3.33V31.54M135.66 1c-1.3 0-2.44.2-3.67.87-2.26 1.44-3.34 4.76-3.34 10 0 5.44 1.06 8.45 2.97 9.9.99.71 2.38 1.02 3.57 1.02 3.64 0 7.3-2.43 8.29-8.23h.8v8.69h-.66l-1.63-2.76h-.06c-1.1 1.57-3.88 3.15-6.78 3.15a11.8 11.8 0 01-11.73-11.78c0-6.36 4.86-11.78 12.1-11.78 4.31 0 8.13 2.25 9.1 7.43l-.86.22c-.9-4.23-3.6-6.73-8.1-6.73M109.09 22.32h3.42V1.2h-3.42V.4h11.5v.8h-3.42v21.12h3.42v.8h-11.5M186.51 22.32h1.88c1.13 0 1.67-.68 1.67-1.95V7.32h-.1l-12.08 15.8h-8.19v-.8h.94c1.19 0 1.83-.36 2.36-.91.5-.5.7-1.02.7-1.5V3.27c0-1.24-.51-2.05-1.67-2.05h-1.89v-.8h8.12v.8h-1.89c-1.12 0-1.65.87-1.65 2.05v16.42h.06L189.74.2h1.34v20.17c0 1.28.54 1.95 1.67 1.95h1.82v.8h-8.06M73.88 3.18c-1.28-1.47-2.71-1.96-5.08-1.96h-3.94V11.4h1.72c1.32 0 2.27-.25 2.9-.95.8-.75 1.33-2.22 1.35-3.78h.86v10.3h-.86a6.1 6.1 0 00-1.36-3.8c-.6-.7-1.56-.94-2.89-.94h-1.72v10.1h4.22c1.89 0 3.26-.5 4.06-1.27 1.33-1.12 2.23-2.78 3.05-5.74h.75v7.8h-20.2v-.8h3.45V1.22l-3.45-.01v-.8H77.4v8.42h-.5a14.43 14.43 0 00-3.02-5.65M39.67 7.48h-.2l-6.31 15.64H24.2v-.8h3.65V3.36c0-1.32-.55-2.13-1.7-2.14h-1.92V.41h8.24v.81h-1.94c-1.1.01-1.65.88-1.65 2.14v17.96h.09L37.27.33h.8l7.47 20.99h.09V1.21h-3.38V.4h11.48v.8h-3.45v21.11h3.46v.8h-8.5M104 1.55c-.87 0-1.35.3-1.65 1.33-.2.69-.33 2.13-.45 3.44-.34 3.5-2.65 5-5.83 5.51v.08c3.96.34 6.52 2.41 6.52 5.63 0 3.5-2.56 5.58-8.28 5.58H81.75v-.8h3.43V1.21h-3.44V.4h11.42v.8h-3.31v10.47h3.58c2.15 0 3.46-.93 3.57-3.47.02-.2.12-2.72.14-2.93.16-3.65 2.1-5.28 4.85-5.28 3.46 0 4.81 1.6 4.84 4.97l-.86.01c-.03-2.37-.76-3.43-1.97-3.43M89.85 22.32h3.49a5.9 5.9 0 002.67-.56c1.33-.75 1.8-2.26 1.8-4.24 0-1.94-.47-3.57-1.65-4.38a4.72 4.72 0 00-2.58-.6h-3.73M19.73 2.95l-7.44 20.2h-1.5L3.52 3.7c-.6-1.57-1.1-2.48-2.5-2.48H-.08v-.8H7v.8H5.47c-1.44 0-1.44 1.13-.9 2.58l1.38 3.75h7.15l1.68-4.72c.32-.95.45-1.6-.67-1.6h-1.75V.4h10.63v.81H21.5c-1 0-1.34.57-1.77 1.73M6.26 8.4l3.27 8.88h.1l3.17-8.89M165.2 2.95l-7.43 20.2h-1.5L149 3.7c-.6-1.57-1.1-2.47-2.51-2.48h-1.08v-.8h7.08v.8h-1.53c-1.45 0-1.45 1.13-.9 2.58l1.38 3.75h7.14l1.68-4.72c.33-.95.43-1.6-.66-1.6h-1.75V.4h10.62v.81h-1.48c-1.01 0-1.35.57-1.77 1.73M151.74 8.4l3.27 8.88h.1l3.16-8.89" fill="currentColor"/>
  </g>
</svg>
